<?xml version="1.0" standalone="no"?>
<!DOCTYPE svg PUBLIC "-//W3C//DTD SVG 1.1//EN" "http://www.w3.org/Graphics/SVG/1.1/DTD/svg11.dtd" >
<svg xmlns="http://www.w3.org/2000/svg" xmlns:xlink="http://www.w3.org/1999/xlink" version="1.1">
<metadata>
Created by FontForge 20170910 at Tue Jan  3 21:37:27 2017
 By Jimmy Wärting
Copyright (c) Mark Simonson, 2016. All rights reserved.
</metadata>
<defs>
<font id="ProximaSoftCond-Light" horiz-adv-x="469" >
  <font-face 
    font-family="Proxima Soft Cond Light"
    font-weight="300"
    font-stretch="condensed"
    units-per-em="1000"
    panose-1="2 0 5 6 3 0 0 2 0 4"
    ascent="790"
    descent="-210"
    x-height="483"
    cap-height="667"
    bbox="-289 -303 915 1072"
    underline-thickness="20"
    underline-position="-133"
    unicode-range="U+000D-FB04"
  />
<missing-glyph horiz-adv-x="501" 
d="M86.5 -78.5q-11.5 11.5 -11.5 30.5v758q0 19 11.5 30.5t30.5 11.5h267q19 0 30.5 -11.5t11.5 -30.5v-758q0 -19 -11.5 -30.5t-30.5 -11.5h-267q-19 0 -30.5 11.5zM394 722h-288v-782h288v782z" />
    <glyph glyph-name="f_b" unicode="fb" horiz-adv-x="708" 
d="M375.5 425q45.5 -70 45.5 -184q0 -115 -45.5 -184t-125.5 -69q-32 0 -62 16t-51 44v-26q0 -10 -8 -17.5t-18 -7.5q-5 0 -7 1q-3 -1 -8 -1q-10 0 -17.5 7.5t-7.5 17.5v416h-30q-9 0 -15.5 6.5t-6.5 16.5q0 9 6.5 15.5t15.5 6.5h30v162q0 10 7.5 17.5t17.5 7.5q9 0 16 -6
t9 -15q28 28 73 28q18 0 35 -6q7 -2 12 -7.5t5 -13.5q0 -9 -6 -15.5t-15 -6.5q-3 0 -10.5 2.5t-14.5 2.5q-31 0 -47 -21t-16 -60v-69h59q26 12 54 12q80 0 125.5 -70zM335 91.5q32 58.5 32 149.5t-32 150t-94 59q-11 0 -23 -3q-7 -9 -18 -9h-6q-31 -16 -57 -50v-294
q19 -27 47 -44t57 -17q62 0 94 58.5zM140 438h-3v-5z" />
    <glyph glyph-name="f_f" unicode="ff" horiz-adv-x="478" 
d="M241 663.5q5 -5.5 5 -13.5q0 -9 -6 -15.5t-15 -6.5q-3 0 -10.5 2.5t-14.5 2.5q-31 0 -47 -21t-16 -60v-69h63q9 0 16 -6.5t7 -15.5q0 -10 -7 -16.5t-16 -6.5h-63v-416q0 -10 -8 -17.5t-18 -7.5t-17.5 7.5t-7.5 17.5v416h-45q-9 0 -15.5 6.5t-6.5 16.5q0 9 6.5 15.5
t15.5 6.5h45v69q0 58 29.5 91.5t78.5 33.5q18 0 35 -6q7 -2 12 -7.5z" />
    <glyph glyph-name="f_h" unicode="fh" horiz-adv-x="689" 
d="M350 464q29 -31 29 -98v-344q0 -10 -7.5 -17.5t-17.5 -7.5t-17.5 7.5t-7.5 17.5v334q0 50 -21.5 72t-62.5 22q-16 0 -28 -4q-6 -8 -17 -8h-4q-33 -16 -59 -49v-367q0 -10 -8 -17.5t-18 -7.5q-5 0 -7 1q-3 -1 -8 -1q-10 0 -17.5 7.5t-7.5 17.5v416h-30q-9 0 -15.5 6.5
t-6.5 16.5q0 9 6.5 15.5t15.5 6.5h30v162q0 10 7.5 17.5t17.5 7.5q9 0 16 -6t9 -15q28 28 73 28q18 0 35 -6q7 -2 12 -7.5t5 -13.5q0 -9 -6 -15.5t-15 -6.5q-3 0 -10.5 2.5t-14.5 2.5q-31 0 -47 -21t-16 -60v-69h63h5q29 12 56 12q60 0 89 -31zM142 438h-5v-5z" />
    <glyph glyph-name="fi" unicode="fi" horiz-adv-x="431" 
d="M241 663.5q5 -5.5 5 -13.5q0 -9 -6 -15.5t-15 -6.5q-3 0 -10.5 2.5t-14.5 2.5q-31 0 -47 -21t-16 -60v-69h63q9 0 16 -6.5t7 -15.5q0 -10 -7 -16.5t-16 -6.5h-63v-416q0 -10 -8 -17.5t-18 -7.5q-5 0 -7 1q-3 -1 -8 -1q-10 0 -17.5 7.5t-7.5 17.5v416h-30q-9 0 -15.5 6.5
t-6.5 16.5q0 9 6.5 15.5t15.5 6.5h43l2 1v68q0 18 3 33q-14 2 -23 13t-9 25q0 16 11.5 27.5t27.5 11.5t27 -11q28 26 71 26q18 0 35 -6q7 -2 12 -7.5z" />
    <glyph glyph-name="f_j" unicode="fj" horiz-adv-x="431" 
d="M241 663.5q5 -5.5 5 -13.5q0 -9 -6 -15.5t-15 -6.5q-3 0 -10.5 2.5t-14.5 2.5q-31 0 -47 -21t-16 -60v-69h63q9 0 16 -6.5t7 -15.5q0 -10 -7 -16.5t-16 -6.5h-63v-416q0 -7 -4.5 -13.5t-11.5 -9.5v-81q0 -57 -26.5 -85.5t-75.5 -28.5q-11 0 -23 3q-8 1 -14 7t-6 16
q0 9 5.5 15.5t13.5 6.5q3 0 8.5 -1.5t11.5 -1.5q26 0 41 17t15 52v520h-30q-9 0 -15.5 6.5t-6.5 16.5q0 9 6.5 15.5t15.5 6.5h43l2 1v68q0 16 1 23q-13 3 -21.5 13.5t-8.5 24.5q0 16 11.5 27.5t27.5 11.5q13 0 21 -7q29 32 77 32q18 0 35 -6q7 -2 12 -7.5z" />
    <glyph glyph-name="f_k" unicode="fk" horiz-adv-x="663" 
d="M390 23q0 -11 -7.5 -18.5t-17.5 -7.5q-14 0 -21 12l-147 220l-60 -74v-133q0 -10 -8 -17.5t-18 -7.5q-5 0 -7 1q-3 -1 -8 -1q-10 0 -17.5 7.5t-7.5 17.5v416h-30q-9 0 -15.5 6.5t-6.5 16.5q0 9 6.5 15.5t15.5 6.5h30v162q0 10 7.5 17.5t17.5 7.5q9 0 16 -6t9 -15
q28 28 73 28q18 0 35 -6q7 -2 12 -7.5t5 -13.5q0 -9 -6 -15.5t-15 -6.5q-3 0 -10.5 2.5t-14.5 2.5q-31 0 -47 -21t-16 -60v-69h63q9 0 16 -6.5t7 -15.5q0 -10 -7 -16.5t-16 -6.5h-63v-217l209 256q8 9 19 9q10 0 16.5 -7t6.5 -17q0 -9 -5 -14l-151 -183l153 -228q5 -7 5 -14
z" />
    <glyph glyph-name="fl" unicode="fl" horiz-adv-x="431" 
d="M241 663.5q5 -5.5 5 -13.5q0 -9 -6 -15.5t-15 -6.5q-3 0 -10.5 2.5t-14.5 2.5q-31 0 -47 -21t-16 -60v-69h63q9 0 16 -6.5t7 -15.5q0 -10 -7 -16.5t-16 -6.5h-63v-416q0 -10 -8 -17.5t-18 -7.5q-5 0 -7 1q-3 -1 -8 -1q-10 0 -17.5 7.5t-7.5 17.5v416h-30q-9 0 -15.5 6.5
t-6.5 16.5q0 9 6.5 15.5t15.5 6.5h30v162q0 10 7.5 17.5t17.5 7.5q9 0 16 -6t9 -15q28 28 73 28q18 0 35 -6q7 -2 12 -7.5z" />
    <glyph glyph-name="f_f_i" unicode="ffi" horiz-adv-x="670" 
d="M241 663.5q5 -5.5 5 -13.5q0 -9 -6 -15.5t-15 -6.5q-3 0 -10.5 2.5t-14.5 2.5q-31 0 -47 -21t-16 -60v-69h63q9 0 16 -6.5t7 -15.5q0 -10 -7 -16.5t-16 -6.5h-63v-416q0 -10 -8 -17.5t-18 -7.5q-5 0 -7 1q-3 -1 -8 -1q-10 0 -17.5 7.5t-7.5 17.5v416h-30q-9 0 -15.5 6.5
t-6.5 16.5q0 9 6.5 15.5t15.5 6.5h43l2 1v68q0 18 3 33q-14 2 -23 13t-9 25q0 16 11.5 27.5t27.5 11.5t27 -11q28 26 71 26q18 0 35 -6q7 -2 12 -7.5z" />
    <glyph glyph-name="f_f_j" unicode="ffj" horiz-adv-x="670" 
d="M241 663.5q5 -5.5 5 -13.5q0 -9 -6 -15.5t-15 -6.5q-3 0 -10.5 2.5t-14.5 2.5q-31 0 -47 -21t-16 -60v-69h63q9 0 16 -6.5t7 -15.5q0 -10 -7 -16.5t-16 -6.5h-63v-416q0 -7 -4.5 -13.5t-11.5 -9.5v-81q0 -57 -26.5 -85.5t-75.5 -28.5q-11 0 -23 3q-8 1 -14 7t-6 16
q0 9 5.5 15.5t13.5 6.5q3 0 8.5 -1.5t11.5 -1.5q26 0 41 17t15 52v520h-30q-9 0 -15.5 6.5t-6.5 16.5q0 9 6.5 15.5t15.5 6.5h43l2 1v68q0 16 1 23q-13 3 -21.5 13.5t-8.5 24.5q0 16 11.5 27.5t27.5 11.5q13 0 21 -7q29 32 77 32q18 0 35 -6q7 -2 12 -7.5z" />
    <glyph glyph-name="f_f_l" unicode="ffl" horiz-adv-x="670" 
d="M241 663.5q5 -5.5 5 -13.5q0 -9 -6 -15.5t-15 -6.5q-3 0 -10.5 2.5t-14.5 2.5q-31 0 -47 -21t-16 -60v-69h63q9 0 16 -6.5t7 -15.5q0 -10 -7 -16.5t-16 -6.5h-63v-416q0 -10 -8 -17.5t-18 -7.5q-5 0 -7 1q-3 -1 -8 -1q-10 0 -17.5 7.5t-7.5 17.5v416h-30q-9 0 -15.5 6.5
t-6.5 16.5q0 9 6.5 15.5t15.5 6.5h30v162q0 10 7.5 17.5t17.5 7.5q9 0 16 -6t9 -15q28 28 73 28q18 0 35 -6q7 -2 12 -7.5z" />
    <glyph glyph-name=".notdef" horiz-adv-x="501" 
d="M86.5 -78.5q-11.5 11.5 -11.5 30.5v758q0 19 11.5 30.5t30.5 11.5h267q19 0 30.5 -11.5t11.5 -30.5v-758q0 -19 -11.5 -30.5t-30.5 -11.5h-267q-19 0 -30.5 11.5zM394 722h-288v-782h288v782z" />
    <glyph glyph-name="NULL" horiz-adv-x="0" 
 />
    <glyph glyph-name="NULL" horiz-adv-x="0" 
 />
    <glyph glyph-name="nonmarkingreturn" unicode="&#xd;" horiz-adv-x="0" 
 />
    <glyph glyph-name="space" unicode=" " horiz-adv-x="218" 
 />
    <glyph glyph-name="uni00A0" unicode="&#xa0;" horiz-adv-x="218" 
 />
    <glyph glyph-name="uni2009" unicode="&#x2009;" horiz-adv-x="125" 
 />
    <glyph glyph-name="uni200A" unicode="&#x200a;" horiz-adv-x="56" 
 />
    <glyph glyph-name="uni2001" unicode="&#x2001;" horiz-adv-x="1000" 
 />
    <glyph glyph-name="uni2003" unicode="&#x2003;" horiz-adv-x="1000" 
 />
    <glyph glyph-name="uni2000" unicode="&#x2000;" horiz-adv-x="500" 
 />
    <glyph glyph-name="uni2002" unicode="&#x2002;" horiz-adv-x="500" 
 />
    <glyph glyph-name="uni2005" unicode="&#x2005;" horiz-adv-x="250" 
 />
    <glyph glyph-name="uni2006" unicode="&#x2006;" horiz-adv-x="167" 
 />
    <glyph glyph-name="uni2004" unicode="&#x2004;" horiz-adv-x="333" 
 />
    <glyph glyph-name="uni2007" unicode="&#x2007;" horiz-adv-x="478" 
 />
    <glyph glyph-name="uni2008" unicode="&#x2008;" horiz-adv-x="218" 
 />
    <glyph glyph-name="zero" unicode="0" horiz-adv-x="502" 
d="M72 497.5q19 77.5 63.5 128.5t115.5 51t115.5 -51t63.5 -129t19 -164t-19 -164.5t-63.5 -129.5t-115.5 -51t-115.5 51t-63.5 129.5t-19 164.5q0 87 19 164.5zM359 540.5q-31 85.5 -108 85.5t-108.5 -86t-31.5 -207q0 -122 31.5 -208t108.5 -86t108 86t31 208t-31 207.5z
" />
    <glyph glyph-name="zero.pzero" horiz-adv-x="502" 
d="M366.5 626q44.5 -51 63.5 -129t19 -164t-19 -164.5t-63.5 -129.5t-115.5 -51t-115.5 51t-63.5 129.5t-19 164.5q0 87 19 164.5t63.5 128.5t115.5 51t115.5 -51zM142.5 540q-31.5 -86 -31.5 -207q0 -113 24 -186l209 422q-34 57 -93 57q-77 0 -108.5 -86zM359 125
q31 86 31 208q0 113 -24 186l-210 -421q36 -59 95 -59q77 0 108 86z" />
    <glyph glyph-name="one" unicode="1" horiz-adv-x="288" 
d="M165 5.5q-8 8.5 -8 19.5v567l-88 -96q-8 -8 -18 -8t-17.5 7.5t-7.5 17.5q0 9 7 18l123 128q8 11 23 11q14 0 23.5 -9.5t9.5 -23.5v-612q0 -11 -8 -19.5t-19 -8.5q-12 0 -20 8.5z" />
    <glyph glyph-name="two" unicode="2" horiz-adv-x="453" 
d="M46 9.5q-10 9.5 -10 23.5t9 23q30 37 57 69q97 119 141 177t67 106.5t23 95.5q0 57 -34 89.5t-82 32.5q-82 0 -128 -68q-7 -10 -20 -10q-10 0 -18 8t-8 18q0 8 7 17q63 86 167 86q46 0 86 -20.5t63.5 -59.5t23.5 -93q0 -52 -24.5 -106t-69 -114.5t-138.5 -179.5l-42 -54
h253q11 0 18 -7t7 -18q0 -10 -7.5 -17.5t-17.5 -7.5h-299q-14 0 -24 9.5z" />
    <glyph glyph-name="three" unicode="3" horiz-adv-x="448" 
d="M109 13q-44 25 -72 66q-6 10 -6 17q0 11 8 18.5t19 7.5q12 0 19 -10q51 -73 131 -73q63 0 96 38t33 105q0 72 -38.5 104t-97.5 32h-26q-10 0 -18 8t-8 18t7.5 17.5t17.5 7.5h27q56 0 92 32t36 94q0 64 -33.5 97.5t-88.5 33.5q-39 0 -68.5 -17t-54.5 -50q-6 -9 -19 -9
q-11 0 -18.5 7t-7.5 18q0 8 7 17q29 40 71 62.5t93 22.5q77 0 126.5 -45.5t49.5 -130.5q0 -60 -34.5 -102t-81.5 -54q29 -5 57.5 -26.5t47.5 -57.5t19 -82q0 -85 -48 -138t-137 -53q-56 0 -100 25z" />
    <glyph glyph-name="four" unicode="4" horiz-adv-x="439" 
d="M411 226q7 -7 7 -18q0 -10 -7 -17.5t-18 -7.5h-53v-158q0 -11 -8 -19.5t-20 -8.5t-20 8.5t-8 19.5v158h-227q-14 0 -25 10.5t-11 25.5q0 10 5 18l231 410q5 10 15.5 16.5t22.5 6.5q19 0 32 -13.5t13 -31.5v-392h53q11 0 18 -7zM77 233h207v369z" />
    <glyph glyph-name="five" unicode="5" horiz-adv-x="476" 
d="M65 96q0 11 7.5 18.5t18.5 7.5q13 0 20 -10q24 -37 55 -55t75 -18q56 0 91.5 47.5t35.5 114.5q0 79 -33.5 121.5t-89.5 42.5q-33 0 -59.5 -11.5t-52.5 -39.5q-10 -10 -24 -10q-13 0 -22.5 9.5t-9.5 22.5v301q0 14 8 22t22 8h262q10 0 17.5 -7.5t7.5 -17.5t-7 -17.5
t-18 -7.5h-237v-261q21 26 53.5 42.5t70.5 16.5q48 0 86.5 -24.5t60.5 -73t22 -115.5q0 -60 -24 -109t-65.5 -77t-93.5 -28q-61 0 -101 23t-70 69q-6 6 -6 16z" />
    <glyph glyph-name="six" unicode="6" horiz-adv-x="478" 
d="M102.5 578q49.5 99 158.5 99q85 0 136 -71q8 -8 8 -17q0 -10 -7.5 -18t-17.5 -8q-12 0 -19 9q-18 27 -41.5 40.5t-58.5 13.5q-79 0 -115 -87.5t-36 -207.5v-23q20 41 60 72.5t90 31.5q75 0 122.5 -54.5t47.5 -156.5q0 -55 -21 -104t-62 -79t-98 -30q-105 0 -150.5 98
t-45.5 247q0 146 49.5 245zM338.5 322.5q-33.5 39.5 -89.5 39.5q-43 0 -79 -33t-58 -82q5 -81 36 -144.5t99 -63.5q62 0 93.5 48t31.5 112q0 84 -33.5 123.5z" />
    <glyph glyph-name="seven" unicode="7" horiz-adv-x="403" 
d="M118.5 5.5q-8.5 8.5 -8.5 19.5q0 4 1 6.5t2 4.5l200 581h-263q-10 0 -17.5 7.5t-7.5 17.5t7.5 17.5t17.5 7.5h303q11 0 18 -7t7 -18q0 -2 -2 -10l-211 -616q-2 -8 -9.5 -13.5t-16.5 -5.5q-12 0 -20.5 8.5z" />
    <glyph glyph-name="eight" unicode="8" horiz-adv-x="470" 
d="M91.5 274q40.5 49 94.5 70q-51 19 -88.5 62t-37.5 103q0 54 24.5 92t64 57t86.5 19t87 -19t64.5 -57t24.5 -92q0 -60 -37.5 -103t-88.5 -62q54 -21 94 -70t40 -112q0 -79 -50.5 -126.5t-133.5 -47.5t-133.5 47.5t-50.5 126.5q0 63 40.5 112zM321 593q-33 33 -86 33
t-85.5 -33t-32.5 -89q0 -42 22 -71.5t49.5 -45.5t46.5 -20q20 4 47.5 20t49.5 45.5t22 71.5q0 56 -33 89zM338 246q-24 34 -54.5 53t-48.5 22q-18 -3 -48.5 -22t-54.5 -53.5t-24 -79.5q0 -59 36.5 -93t90.5 -34t90.5 34.5t36.5 93.5q0 45 -24 79z" />
    <glyph glyph-name="nine" unicode="9" horiz-adv-x="478" 
d="M73 77q0 11 7.5 18.5t17.5 7.5q12 0 19 -9q18 -27 41.5 -40.5t58.5 -13.5q80 0 115.5 87t35.5 207q0 17 -1 25q-19 -41 -59.5 -73t-89.5 -32q-75 0 -122.5 55t-47.5 157q0 55 20.5 103.5t61.5 78.5t98 30q105 0 151 -98t46 -247q0 -145 -50 -244.5t-158 -99.5
q-86 0 -137 71q-7 9 -7 17zM330 563q-31 64 -100 64q-61 0 -93 -48t-32 -112q0 -84 33.5 -123.5t89.5 -39.5q44 0 80 33t57 82q-4 80 -35 144z" />
    <glyph glyph-name="zero.tnum" horiz-adv-x="478" 
d="M60 497.5q19 77.5 63.5 128.5t115.5 51t115.5 -51t63.5 -129t19 -164t-19 -164.5t-63.5 -129.5t-115.5 -51t-115.5 51t-63.5 129.5t-19 164.5q0 87 19 164.5zM347 540.5q-31 85.5 -108 85.5t-108.5 -86t-31.5 -207q0 -122 31.5 -208t108.5 -86t108 86t31 208t-31 207.5z
" />
    <glyph glyph-name="zero.tzero" horiz-adv-x="478" 
d="M354.5 626q44.5 -51 63.5 -129t19 -164t-19 -164.5t-63.5 -129.5t-115.5 -51t-115.5 51t-63.5 129.5t-19 164.5q0 87 19 164.5t63.5 128.5t115.5 51t115.5 -51zM130.5 540q-31.5 -86 -31.5 -207q0 -111 24 -186l210 421q-35 58 -94 58q-77 0 -108.5 -86zM347 125
q31 86 31 208q0 113 -24 188l-210 -423q36 -59 95 -59q77 0 108 86z" />
    <glyph glyph-name="one.tnum" horiz-adv-x="478" 
d="M257 5.5q-8 8.5 -8 19.5v567l-114 -124q-7 -7 -17 -7q-11 0 -18.5 7.5t-7.5 17.5q0 5 7 17l149 156q9 11 24 11q14 0 23.5 -9.5t9.5 -23.5v-612q0 -11 -8 -19.5t-20 -8.5t-20 8.5z" />
    <glyph glyph-name="one.tnum_alt" horiz-adv-x="478" 
d="M125.5 7.5q-7.5 7.5 -7.5 17.5t7.5 17.5t17.5 7.5h100v542l-118 -128q-6 -8 -17 -8q-10 0 -17.5 7.5t-7.5 17.5q0 8 6 18l153 160q9 11 24 11q14 0 23.5 -9.5t9.5 -23.5v-587h103q11 0 18.5 -7.5t7.5 -17.5t-8 -17.5t-18 -7.5h-259q-10 0 -17.5 7.5z" />
    <glyph glyph-name="two.tnum" horiz-adv-x="478" 
d="M52 9.5q-10 9.5 -10 23.5t9 23q30 37 57 69q97 119 141 177t67 106.5t23 95.5q0 57 -34 89.5t-82 32.5q-82 0 -128 -68q-7 -10 -20 -10q-10 0 -18 8t-8 18q0 8 7 17q63 86 167 86q46 0 86 -20.5t63.5 -59.5t23.5 -93q0 -52 -24.5 -106t-69 -114.5t-138.5 -179.5l-42 -54
h253q11 0 18 -7t7 -18q0 -10 -7.5 -17.5t-17.5 -7.5h-299q-14 0 -24 9.5z" />
    <glyph glyph-name="three.tnum" horiz-adv-x="478" 
d="M127 13q-44 25 -72 66q-6 10 -6 17q0 11 8 18.5t19 7.5q12 0 19 -10q51 -73 131 -73q63 0 96 38t33 105q0 72 -38.5 104t-97.5 32h-26q-10 0 -18 8t-8 18t7.5 17.5t17.5 7.5h27q56 0 92 32t36 94q0 64 -33.5 97.5t-88.5 33.5q-39 0 -68.5 -17t-54.5 -50q-6 -9 -19 -9
q-11 0 -18.5 7t-7.5 18q0 8 7 17q29 40 71 62.5t93 22.5q77 0 126.5 -45.5t49.5 -130.5q0 -60 -34.5 -102t-81.5 -54q29 -5 57.5 -26.5t47.5 -57.5t19 -82q0 -85 -48 -138t-137 -53q-56 0 -100 25z" />
    <glyph glyph-name="four.tnum" horiz-adv-x="478" 
d="M430 226q7 -7 7 -18q0 -10 -7 -17.5t-18 -7.5h-53v-158q0 -11 -8 -19.5t-20 -8.5t-20 8.5t-8 19.5v158h-227q-14 0 -25 10.5t-11 25.5q0 10 5 18l231 410q5 10 15.5 16.5t22.5 6.5q19 0 32 -13.5t13 -31.5v-392h53q11 0 18 -7zM96 233h207v369z" />
    <glyph glyph-name="five.tnum" horiz-adv-x="478" 
d="M66 96q0 11 7.5 18.5t18.5 7.5q13 0 20 -10q24 -37 55 -55t75 -18q56 0 91.5 47.5t35.5 114.5q0 79 -33.5 121.5t-89.5 42.5q-33 0 -59.5 -11.5t-52.5 -39.5q-10 -10 -24 -10q-13 0 -22.5 9.5t-9.5 22.5v301q0 14 8 22t22 8h262q10 0 17.5 -7.5t7.5 -17.5t-7 -17.5
t-18 -7.5h-237v-261q21 26 53.5 42.5t70.5 16.5q48 0 86.5 -24.5t60.5 -73t22 -115.5q0 -60 -24 -109t-65.5 -77t-93.5 -28q-61 0 -101 23t-70 69q-6 6 -6 16z" />
    <glyph glyph-name="six.tnum" horiz-adv-x="478" 
d="M104.5 578q49.5 99 158.5 99q85 0 136 -71q8 -8 8 -17q0 -10 -7.5 -18t-17.5 -8q-12 0 -19 9q-18 27 -41.5 40.5t-58.5 13.5q-79 0 -115 -87.5t-36 -207.5v-23q20 41 60 72.5t90 31.5q75 0 122.5 -54.5t47.5 -156.5q0 -55 -21 -104t-62 -79t-98 -30q-105 0 -150.5 98
t-45.5 247q0 146 49.5 245zM340.5 322.5q-33.5 39.5 -89.5 39.5q-43 0 -79 -33t-58 -82q5 -81 36 -144.5t99 -63.5q62 0 93.5 48t31.5 112q0 84 -33.5 123.5z" />
    <glyph glyph-name="seven.tnum" horiz-adv-x="478" 
d="M156.5 5.5q-8.5 8.5 -8.5 19.5q0 4 1 6.5t2 4.5l200 581h-263q-10 0 -17.5 7.5t-7.5 17.5t7.5 17.5t17.5 7.5h303q11 0 18 -7t7 -18q0 -2 -2 -10l-211 -616q-2 -8 -9.5 -13.5t-16.5 -5.5q-12 0 -20.5 8.5z" />
    <glyph glyph-name="eight.tnum" horiz-adv-x="478" 
d="M95.5 274q40.5 49 94.5 70q-51 19 -88.5 62t-37.5 103q0 54 24.5 92t64 57t86.5 19t87 -19t64.5 -57t24.5 -92q0 -60 -37.5 -103t-88.5 -62q54 -21 94 -70t40 -112q0 -79 -50.5 -126.5t-133.5 -47.5t-133.5 47.5t-50.5 126.5q0 63 40.5 112zM325 593q-33 33 -86 33
t-85.5 -33t-32.5 -89q0 -42 22 -71.5t49.5 -45.5t46.5 -20q20 4 47.5 20t49.5 45.5t22 71.5q0 56 -33 89zM342 246q-24 34 -54.5 53t-48.5 22q-18 -3 -48.5 -22t-54.5 -53.5t-24 -79.5q0 -59 36.5 -93t90.5 -34t90.5 34.5t36.5 93.5q0 45 -24 79z" />
    <glyph glyph-name="nine.tnum" horiz-adv-x="478" 
d="M72 77q0 11 7.5 18.5t17.5 7.5q12 0 19 -9q18 -27 41.5 -40.5t58.5 -13.5q80 0 115.5 87t35.5 207q0 17 -1 25q-19 -41 -59.5 -73t-89.5 -32q-75 0 -122.5 55t-47.5 157q0 55 20.5 103.5t61.5 78.5t98 30q105 0 151 -98t46 -247q0 -145 -50 -244.5t-158 -99.5
q-86 0 -137 71q-7 9 -7 17zM329 563q-31 64 -100 64q-61 0 -93 -48t-32 -112q0 -84 33.5 -123.5t89.5 -39.5q44 0 80 33t57 82q-4 80 -35 144z" />
    <glyph glyph-name="A" unicode="A" horiz-adv-x="492" 
d="M471 25q0 -11 -8 -19.5t-20 -8.5q-10 0 -17.5 6t-9.5 15l-42 147h-256l-42 -147q-2 -9 -9.5 -15t-17.5 -6q-12 0 -20 8.5t-8 19.5l2 10l182 604q4 14 15.5 22.5t25.5 8.5q15 0 26 -8.5t16 -22.5l181 -604q2 -6 2 -10zM133 215h226l-113 393z" />
    <glyph glyph-name="B" unicode="B" horiz-adv-x="498" 
d="M83 8q-8 8 -8 22v607q0 14 8 22t23 8h166q75 0 118 -45.5t43 -124.5q0 -61 -28 -100.5t-72 -52.5q47 -7 79 -56t32 -108q0 -84 -43.5 -132t-123.5 -48h-171q-15 0 -23 8zM265 367q55 0 82 34.5t27 89.5q0 56 -27 91t-82 35h-134v-250h134zM269 50q57 0 86.5 35.5
t29.5 98.5q0 56 -29.5 94.5t-86.5 38.5h-138v-267h138z" />
    <glyph glyph-name="C" unicode="C" horiz-adv-x="511" 
d="M170.5 32.5q-56.5 44.5 -87 123t-30.5 177.5t30.5 177.5t86.5 123t131 44.5q106 0 172 -95q4 -5 4 -14q0 -11 -7.5 -18.5t-18.5 -7.5q-15 0 -22 12q-50 72 -128 72q-56 0 -99.5 -38t-67 -104.5t-23.5 -151.5q0 -84 23.5 -151t67 -105t99.5 -38q41 0 74 21t56 59
q7 14 22 14q11 0 19 -7.5t8 -18.5q0 -9 -5 -16q-66 -103 -174 -103q-74 0 -130.5 44.5z" />
    <glyph glyph-name="D" unicode="D" horiz-adv-x="549" 
d="M83 8q-8 8 -8 22v607q0 14 8 22t23 8h131q82 0 140.5 -43.5t88.5 -119.5t30 -171q0 -96 -30 -171.5t-88.5 -118.5t-140.5 -43h-131q-15 0 -23 8zM237 50q97 0 148.5 79t51.5 204t-51.5 204.5t-148.5 79.5h-106v-567h106z" />
    <glyph glyph-name="E" unicode="E" horiz-adv-x="452" 
d="M83 8q-8 8 -8 22v607q0 14 8 22t23 8h273q10 0 17.5 -7.5t7.5 -17.5t-7.5 -17.5t-17.5 -7.5h-248v-250h241q10 0 17.5 -7.5t7.5 -17.5t-7.5 -17.5t-17.5 -7.5h-241v-267h248q10 0 17.5 -7.5t7.5 -17.5t-7.5 -17.5t-17.5 -7.5h-273q-15 0 -23 8z" />
    <glyph glyph-name="F" unicode="F" horiz-adv-x="441" 
d="M83 5.5q-8 8.5 -8 19.5v612q0 14 8 22t23 8h273q10 0 17.5 -7.5t7.5 -17.5t-7.5 -17.5t-17.5 -7.5h-248v-250h241q10 0 17.5 -7.5t7.5 -17.5t-7.5 -17.5t-17.5 -7.5h-241v-292q0 -11 -8 -19.5t-20 -8.5t-20 8.5z" />
    <glyph glyph-name="G" unicode="G" horiz-adv-x="552" 
d="M484 323q8 -8 8 -22v-198q0 -24 -14 -38q-33 -37 -78.5 -57.5t-97.5 -20.5q-74 0 -130.5 43.5t-87.5 122t-31 180.5t31 180.5t87.5 121.5t130.5 43q57 0 99.5 -24t75.5 -69q5 -8 5 -15q0 -11 -7.5 -18t-18.5 -7q-14 0 -21 11q-52 71 -133 71q-57 0 -100.5 -37.5
t-67 -104.5t-23.5 -152t23.5 -152t67.5 -105t101 -38q43 0 78.5 18.5t56.5 45.5v178h-152q-10 0 -17.5 7.5t-7.5 17.5t7.5 18t17.5 8h176q14 0 22 -8z" />
    <glyph glyph-name="G.alt1" horiz-adv-x="570" 
d="M528 292q-6 -144 -63.5 -224.5t-164.5 -80.5q-73 0 -129 43.5t-87 122t-31 180.5t31 180.5t87.5 121.5t130.5 43q57 0 99.5 -24t75.5 -69q5 -8 5 -15q0 -11 -7.5 -18t-18.5 -7q-14 0 -21 11q-52 71 -133 71q-57 0 -100.5 -37.5t-67 -104.5t-23.5 -152t23.5 -152t67 -105
t100.5 -38q79 0 121 69t48 173h-185q-10 0 -17.5 7.5t-7.5 17.5t7.5 18t17.5 8h213q32 0 29 -39z" />
    <glyph glyph-name="H" unicode="H" horiz-adv-x="559" 
d="M437 5.5q-8 8.5 -8 19.5v293h-298v-293q0 -11 -8 -19.5t-20 -8.5t-20 8.5t-8 19.5v617q0 11 8 19.5t20 8.5t20 -8.5t8 -19.5v-274h298v274q0 11 8 19.5t20 8.5q11 0 19 -8.5t8 -19.5v-617q0 -11 -8 -19.5t-20 -8.5q-11 0 -19 8.5z" />
    <glyph glyph-name="I" unicode="I" horiz-adv-x="206" 
d="M83 5.5q-8 8.5 -8 19.5v617q0 11 8 19.5t20 8.5t20 -8.5t8 -19.5v-617q0 -11 -8 -19.5t-20 -8.5t-20 8.5z" />
    <glyph glyph-name="J" unicode="J" horiz-adv-x="390" 
d="M15 58q0 11 8 19t19 8q10 0 16 -6q37 -40 87 -40q54 0 84 32.5t30 91.5v479q0 11 8 19.5t20 8.5q11 0 19.5 -8.5t8.5 -19.5v-480q0 -86 -46 -130t-121 -44q-37 0 -67 12t-56 38q-10 10 -10 20z" />
    <glyph glyph-name="K" unicode="K" horiz-adv-x="490" 
d="M454 25q0 -11 -8 -19.5t-20 -8.5q-13 0 -22 12l-213 299l-60 -83v-200q0 -11 -8 -19.5t-20 -8.5t-20 8.5t-8 19.5v617q0 11 8 19.5t20 8.5t20 -8.5t8 -19.5v-340l253 356q8 12 22 12q11 0 19.5 -8t8.5 -19q0 -8 -6 -16l-205 -279l225 -308q6 -8 6 -15z" />
    <glyph glyph-name="L" unicode="L" horiz-adv-x="412" 
d="M83 8q-8 8 -8 22v612q0 11 8 19.5t20 8.5t20 -8.5t8 -19.5v-592h227q10 0 17.5 -7.5t7.5 -17.5t-7.5 -17.5t-17.5 -7.5h-252q-15 0 -23 8z" />
    <glyph glyph-name="M" unicode="M" horiz-adv-x="661" 
d="M539 5.5q-8 8.5 -8 19.5v552l-183 -564q-5 -16 -17 -16q-13 0 -18 16l-182 564v-552q0 -11 -8 -19.5t-20 -8.5t-20 8.5t-8 19.5v599q0 19 14 32.5t33 13.5q15 0 27 -9t17 -23l165 -508l165 508q5 14 16.5 23t27.5 9q19 0 32.5 -13.5t13.5 -32.5v-599q0 -11 -8 -19.5
t-20 -8.5q-11 0 -19 8.5z" />
    <glyph glyph-name="N" unicode="N" horiz-adv-x="557" 
d="M432 2q-8 5 -11 13l-290 540v-530q0 -11 -8 -19.5t-20 -8.5t-20 8.5t-8 19.5v611q0 14 10 24t24 10q10 0 18 -5t12 -13l287 -531v521q0 11 8.5 19.5t19.5 8.5q12 0 20 -8.5t8 -19.5v-612q0 -14 -9.5 -23.5t-22.5 -9.5q-10 0 -18 5z" />
    <glyph glyph-name="O" unicode="O" horiz-adv-x="590" 
d="M81 508.5q28 78.5 83 124t131 45.5t130.5 -45.5t83 -124t28.5 -175.5t-28.5 -175.5t-83 -124t-130.5 -45.5t-131 45.5t-83 124t-28 175.5t28 175.5zM456.5 483q-21.5 67 -63 105.5t-98.5 38.5q-58 0 -99.5 -38.5t-63 -105.5t-21.5 -150q0 -82 21.5 -149t63 -106t99.5 -39
q57 0 98.5 39t63 106t21.5 149q0 83 -21.5 150z" />
    <glyph glyph-name="P" unicode="P" horiz-adv-x="468" 
d="M83 5.5q-8 8.5 -8 19.5v612q0 14 8 22t23 8h153q56 0 95.5 -26t59.5 -70.5t20 -98.5q0 -53 -20 -97.5t-60 -70.5t-95 -26h-128v-253q0 -11 -8 -19.5t-20 -8.5t-20 8.5zM343 577q-32 40 -88 40h-124v-289h124q56 0 88 40t32 104q0 65 -32 105z" />
    <glyph glyph-name="Q" unicode="Q" horiz-adv-x="590" 
d="M489 15q5 -7 5 -14q0 -11 -7 -18t-18 -7q-15 0 -21 11l-28 42q-54 -41 -125 -41q-76 0 -131 45.5t-83 124t-28 175.5t28 175.5t83 124t131 45.5t130.5 -45.5t83 -124t28.5 -175.5q0 -82 -21 -151.5t-60 -117.5zM390 75l-69 105q-5 7 -5 14q0 11 7.5 18t17.5 7
q14 0 21 -12l62 -93q26 40 40 97t14 122q0 83 -21.5 150t-63 105.5t-98.5 38.5q-58 0 -99.5 -38.5t-63 -105.5t-21.5 -150q0 -82 21.5 -149t63 -106t99.5 -39q54 0 95 36z" />
    <glyph glyph-name="R" unicode="R" horiz-adv-x="491" 
d="M436 24q0 -10 -8 -18.5t-20 -8.5q-8 0 -14.5 4.5t-10.5 11.5l-140 265h-112v-253q0 -11 -8 -19.5t-20 -8.5t-20 8.5t-8 19.5v612q0 14 8 22t23 8h154q77 0 125.5 -52t48.5 -142q0 -82 -38.5 -130t-95.5 -57l132 -247q4 -5 4 -15zM131 328h124q56 0 88.5 40t32.5 104
q0 65 -32.5 105t-88.5 40h-124v-289z" />
    <glyph glyph-name="S" unicode="S" horiz-adv-x="459" 
d="M42 74q0 11 8 19.5t19 8.5t17 -7q60 -56 136 -56q66 0 100.5 36t34.5 88q0 41 -19 69.5t-47 47t-74 42.5q-54 27 -86 47.5t-54.5 55.5t-22.5 86q0 49 24 87t65.5 59t91.5 21q87 0 149 -54q11 -7 11 -20q0 -11 -7.5 -19t-18.5 -8q-10 0 -16 6q-48 44 -119 44
q-53 0 -88 -31.5t-35 -82.5q0 -34 17.5 -58.5t43 -40.5t71.5 -40q56 -29 89.5 -52t57.5 -61.5t24 -94.5q0 -48 -21 -88.5t-64 -65t-107 -24.5q-100 0 -171 66q-9 8 -9 20z" />
    <glyph glyph-name="T" unicode="T" horiz-adv-x="435" 
d="M197 5.5q-8 8.5 -8 19.5v592h-140q-11 0 -18.5 7.5t-7.5 17.5t8 17.5t18 7.5h337q10 0 17.5 -7.5t7.5 -17.5t-7.5 -17.5t-17.5 -7.5h-141v-592q0 -11 -8.5 -19.5t-19.5 -8.5q-12 0 -20 8.5z" />
    <glyph glyph-name="U" unicode="U" horiz-adv-x="551" 
d="M75 642q0 11 8 19.5t20 8.5t20 -8.5t8 -19.5v-433q0 -84 37.5 -127.5t107.5 -43.5q69 0 106.5 43.5t37.5 127.5v433q0 11 8.5 19.5t19.5 8.5q12 0 20 -8.5t8 -19.5v-432q0 -107 -52 -164.5t-148 -57.5t-148.5 57t-52.5 164v433z" />
    <glyph glyph-name="V" unicode="V" horiz-adv-x="492" 
d="M220.5 5.5q-11.5 8.5 -16.5 22.5l-180 602q-2 5 -2 11q0 12 8 20.5t20 8.5q10 0 18 -6t10 -15l168 -580l169 580q2 9 9.5 15t17.5 6q12 0 20.5 -8.5t8.5 -20.5q0 -1 -2 -11l-181 -602q-5 -14 -16 -22.5t-26 -8.5q-14 0 -25.5 8.5z" />
    <glyph glyph-name="W" unicode="W" horiz-adv-x="693" 
d="M472 5.5q-10 8.5 -13 21.5l-113 535l-112 -535q-3 -13 -13 -21.5t-24 -8.5q-13 0 -23.5 8.5t-12.5 20.5l-133 604q-1 5 -1 11q0 11 8.5 20t20.5 9q11 0 19 -7t9 -17l115 -557l118 557q2 11 10.5 17.5t19.5 6.5t19.5 -7t9.5 -17l118 -557l115 557q1 10 9 17t19 7
q12 0 20.5 -8.5t8.5 -20.5q0 -6 -1 -11l-132 -604q-3 -12 -13.5 -20.5t-23.5 -8.5q-14 0 -24 8.5z" />
    <glyph glyph-name="X" unicode="X" horiz-adv-x="491" 
d="M465 25q0 -11 -8 -19.5t-20 -8.5q-16 0 -24 14l-167 283l-168 -283q-8 -14 -24 -14q-12 0 -20 8.5t-8 19.5q0 7 5 14l182 301l-172 287q-3 6 -3 14q0 12 8 20.5t20 8.5q16 0 24 -15l156 -267l156 267q3 7 9.5 11t14.5 4q12 0 20 -8.5t8 -20.5q0 -4 -4 -14l-172 -286
l183 -302q4 -5 4 -14z" />
    <glyph glyph-name="Y" unicode="Y" horiz-adv-x="482" 
d="M455 630l-186 -345v-260q0 -11 -8 -19.5t-20 -8.5t-20 8.5t-8 19.5v260l-186 344q-3 6 -3 13q0 11 8 19.5t20 8.5q17 0 24 -15l165 -314l165 314q8 15 25 15q11 0 19 -8t8 -19q0 -8 -3 -13z" />
    <glyph glyph-name="Z" unicode="Z" horiz-adv-x="453" 
d="M49.5 10q-10.5 10 -10.5 24q0 9 5 16l294 567h-273q-11 0 -18.5 7.5t-7.5 17.5t8 17.5t18 7.5h308q14 0 23.5 -10t9.5 -24q0 -8 -4 -15l-296 -568h282q11 0 18 -7t7 -18q0 -10 -7.5 -17.5t-17.5 -7.5h-314q-14 0 -24.5 10z" />
    <glyph glyph-name="a" unicode="a" horiz-adv-x="440" 
d="M330.5 457q38.5 -38 38.5 -114v-321q0 -10 -7.5 -17.5t-17.5 -7.5t-18 7.5t-8 17.5v32q-22 -33 -55.5 -49.5t-71.5 -16.5q-40 0 -73 19.5t-52.5 56t-19.5 85.5t19.5 85t52.5 55.5t73 19.5q82 0 127 -65v95q0 54 -26.5 83t-75.5 29q-31 0 -57 -11t-51 -36q-6 -6 -15 -6
t-15.5 6.5t-6.5 15.5t8 17q32 30 66.5 44t75.5 14q71 0 109.5 -38zM270 44q30 17 48 51v106q-18 34 -48 51t-65 17q-49 0 -77.5 -35t-28.5 -86t28.5 -86t77.5 -35q35 0 65 17z" />
    <glyph glyph-name="a.alt1" 
d="M390.5 478.5q7.5 -7.5 7.5 -17.5v-439q0 -10 -7.5 -17.5t-17.5 -7.5t-17.5 7.5t-7.5 17.5v51q-20 -39 -55 -62t-74 -23q-80 0 -125.5 69t-45.5 184q0 114 45.5 184t125.5 70q39 0 73.5 -23t55.5 -65v54q0 10 7.5 17.5t17.5 7.5t17.5 -7.5zM298.5 59q33.5 26 49.5 63v237
q-16 37 -49.5 63.5t-70.5 26.5q-62 0 -94 -58.5t-32 -149.5t32 -149.5t94 -58.5q37 0 70.5 26z" />
    <glyph glyph-name="b" unicode="b" 
d="M375.5 425q45.5 -70 45.5 -184q0 -115 -45.5 -184t-125.5 -69q-39 0 -74 23t-55 62v-51q0 -10 -7.5 -17.5t-17.5 -7.5t-17.5 7.5t-7.5 17.5v623q0 10 7.5 17.5t17.5 7.5t17.5 -7.5t7.5 -17.5v-238q21 42 55.5 65t73.5 23q80 0 125.5 -70zM335 91.5q32 58.5 32 149.5
t-32 150t-94 59q-37 0 -70.5 -27t-49.5 -64v-237q16 -37 49.5 -63t70.5 -26q62 0 94 58.5z" />
    <glyph glyph-name="c" unicode="c" horiz-adv-x="400" 
d="M71 370.5q23 57.5 66 91t102 33.5q38 0 65.5 -12.5t51.5 -36.5q8 -6 8 -17q0 -10 -6.5 -16.5t-16.5 -6.5q-7 0 -15 6q-35 38 -84 38q-67 0 -103.5 -59.5t-36.5 -148.5t36.5 -149t103.5 -60q49 0 84 38q5 6 15 6t16.5 -6.5t6.5 -16.5q0 -11 -7 -18q-23 -24 -51.5 -36
t-66.5 -12q-59 0 -102 33.5t-66 91.5t-23 129t23 128.5z" />
    <glyph glyph-name="d" unicode="d" 
d="M390.5 662.5q7.5 -7.5 7.5 -17.5v-623q0 -10 -7.5 -17.5t-17.5 -7.5t-17.5 7.5t-7.5 17.5v51q-20 -39 -55 -62t-74 -23q-80 0 -125.5 69t-45.5 184q0 114 45.5 184t125.5 70q39 0 73.5 -23t55.5 -65v238q0 10 7.5 17.5t17.5 7.5t17.5 -7.5zM298.5 59q33.5 26 49.5 63v238
q-16 36 -49.5 63t-70.5 27q-62 0 -94 -59t-32 -150t32 -149.5t94 -58.5q37 0 70.5 26z" />
    <glyph glyph-name="e" unicode="e" horiz-adv-x="463" 
d="M70.5 370.5q22.5 57.5 65 91t99.5 33.5q60 0 101 -33.5t61.5 -88t20.5 -118.5q0 -14 -8 -22t-22 -8h-286q2 -85 41.5 -139.5t106.5 -54.5q61 0 107 52q6 6 15 6t15.5 -6t6.5 -15q0 -8 -7 -15q-59 -65 -140 -65q-62 0 -107 32.5t-68.5 90.5t-23.5 131q0 71 22.5 128.5z
M160.5 423.5q-29.5 -28.5 -44 -71.5t-15.5 -87h265q0 45 -13.5 88t-43.5 71t-75 28q-44 0 -73.5 -28.5z" />
    <glyph glyph-name="f" unicode="f" horiz-adv-x="239" 
d="M241 663.5q5 -5.5 5 -13.5q0 -9 -6 -15.5t-15 -6.5q-3 0 -10.5 2.5t-14.5 2.5q-31 0 -47 -21t-16 -60v-69h63q9 0 16 -6.5t7 -15.5q0 -10 -7 -16.5t-16 -6.5h-63v-416q0 -10 -8 -17.5t-18 -7.5t-17.5 7.5t-7.5 17.5v416h-45q-9 0 -15.5 6.5t-6.5 16.5q0 9 6.5 15.5
t15.5 6.5h45v69q0 58 29.5 91.5t78.5 33.5q18 0 35 -6q7 -2 12 -7.5z" />
    <glyph glyph-name="f.alt1" horiz-adv-x="239" 
d="M241 663.5q5 -5.5 5 -13.5q0 -9 -6 -15.5t-15 -6.5q-3 0 -10.5 2.5t-14.5 2.5q-31 0 -47 -21t-16 -60v-69h63q9 0 16 -6.5t7 -15.5q0 -10 -7 -16.5t-16 -6.5h-63v-416q0 -10 -8 -17.5t-18 -7.5t-17.5 7.5t-7.5 17.5v416h-45q-9 0 -15.5 6.5t-6.5 16.5q0 9 6.5 15.5
t15.5 6.5h45v69q0 58 29.5 91.5t78.5 33.5q18 0 35 -6q7 -2 12 -7.5z" />
    <glyph glyph-name="g" unicode="g" 
d="M390.5 478.5q7.5 -7.5 7.5 -17.5v-472q0 -96 -48 -140.5t-128 -44.5q-43 0 -76.5 10.5t-64.5 36.5q-9 9 -9 19t7 17t17 7q8 0 15 -5q44 -41 109 -41q57 0 92 34.5t35 104.5v90q-21 -39 -55.5 -63t-72.5 -24q-80 0 -125.5 69t-45.5 183q0 113 45.5 183t125.5 70
q38 0 72.5 -22.5t55.5 -64.5v53q0 10 8 17.5t18 7.5t17.5 -7.5zM298.5 62q33.5 27 48.5 63v235q-15 36 -48.5 63t-70.5 27q-62 0 -94 -58.5t-32 -149.5q0 -90 32 -148.5t94 -58.5q37 0 70.5 27z" />
    <glyph glyph-name="h" unicode="h" horiz-adv-x="450" 
d="M336.5 4.5q-7.5 7.5 -7.5 17.5v334q0 50 -21.5 72t-62.5 22q-36 0 -70.5 -25t-53.5 -60v-343q0 -10 -7.5 -17.5t-17.5 -7.5t-17.5 7.5t-7.5 17.5v623q0 10 7.5 17.5t17.5 7.5t17.5 -7.5t7.5 -17.5v-233q23 35 61.5 59t78.5 24q60 0 89 -31t29 -98v-344q0 -10 -7.5 -17.5
t-17.5 -7.5t-17.5 7.5z" />
    <glyph glyph-name="i" unicode="i" horiz-adv-x="192" 
d="M68.5 595.5q-11.5 11.5 -11.5 27.5t11.5 27.5t27.5 11.5t27.5 -11.5t11.5 -27.5t-11.5 -27.5t-27.5 -11.5t-27.5 11.5zM78.5 4.5q-7.5 7.5 -7.5 17.5v439q0 10 7.5 17.5t17.5 7.5t17.5 -7.5t7.5 -17.5v-439q0 -10 -7.5 -17.5t-17.5 -7.5t-17.5 7.5z" />
    <glyph glyph-name="j" unicode="j" horiz-adv-x="192" 
d="M68.5 585.5q-11.5 11.5 -11.5 27.5t11.5 27.5t27.5 11.5t27.5 -11.5t11.5 -27.5t-11.5 -27.5t-27.5 -11.5t-27.5 11.5zM-4 -193q-8 1 -14 7t-6 16q0 9 5.5 15.5t13.5 6.5q3 0 8.5 -1.5t11.5 -1.5q26 0 41 17t15 52v543q0 10 7.5 17.5t17.5 7.5t17.5 -7.5t7.5 -17.5v-543
q0 -57 -26.5 -85.5t-75.5 -28.5q-11 0 -23 3z" />
    <glyph glyph-name="k" unicode="k" horiz-adv-x="424" 
d="M390 23q0 -11 -7.5 -18.5t-17.5 -7.5q-14 0 -21 12l-147 220l-76 -93v-114q0 -10 -7.5 -17.5t-17.5 -7.5t-17.5 7.5t-7.5 17.5v623q0 10 7.5 17.5t17.5 7.5t17.5 -7.5t7.5 -17.5v-443l225 275q8 9 19 9q10 0 16.5 -7t6.5 -17q0 -9 -5 -14l-151 -183l153 -228q5 -7 5 -14z
" />
    <glyph glyph-name="l" unicode="l" horiz-adv-x="192" 
d="M78.5 4.5q-7.5 7.5 -7.5 17.5v623q0 10 7.5 17.5t17.5 7.5t17.5 -7.5t7.5 -17.5v-623q0 -10 -7.5 -17.5t-17.5 -7.5t-17.5 7.5z" />
    <glyph glyph-name="l.alt1" horiz-adv-x="226" 
d="M163 33q14 0 25 7t15 7q9 0 15 -6.5t6 -15.5q0 -12 -11 -19q-25 -18 -58 -18q-84 0 -84 101v556q0 10 7.5 17.5t17.5 7.5t17.5 -7.5t7.5 -17.5v-550q0 -62 42 -62z" />
    <glyph glyph-name="m" unicode="m" horiz-adv-x="669" 
d="M599 370v-348q0 -10 -8 -17.5t-18 -7.5t-17.5 7.5t-7.5 17.5v338q0 90 -73 90q-33 0 -65.5 -25t-49.5 -60v-343q0 -10 -7.5 -17.5t-17.5 -7.5t-18 7.5t-8 17.5v338q0 90 -73 90q-33 0 -64.5 -25t-50.5 -60v-343q0 -10 -7.5 -17.5t-17.5 -7.5t-17.5 7.5t-7.5 17.5v439
q0 10 7.5 17.5t17.5 7.5t17.5 -7.5t7.5 -17.5v-51q16 32 53 58.5t78 26.5q45 0 72.5 -24t32.5 -63q19 36 56 61.5t78 25.5q108 0 108 -125z" />
    <glyph glyph-name="n" unicode="n" horiz-adv-x="450" 
d="M350 463q29 -32 29 -98v-343q0 -10 -7.5 -17.5t-17.5 -7.5t-18 7.5t-8 17.5v333q0 51 -21 73t-62 22q-36 0 -70.5 -25t-53.5 -60v-343q0 -10 -7.5 -17.5t-17.5 -7.5t-17.5 7.5t-7.5 17.5v439q0 10 7.5 17.5t17.5 7.5t17.5 -7.5t7.5 -17.5v-50q23 35 61 59.5t79 24.5
q60 0 89 -32z" />
    <glyph glyph-name="o" unicode="o" 
d="M133 22q-42 34 -63.5 92t-21.5 128t21.5 127.5t63.5 91.5t101 34q60 0 102 -34t63.5 -91.5t21.5 -127.5t-21.5 -128t-63.5 -92t-102 -34q-59 0 -101 34zM333 94q34 61 34 148q0 86 -34 147t-99 61q-64 0 -98 -61t-34 -147t34 -147.5t98 -61.5q65 0 99 61z" />
    <glyph glyph-name="p" unicode="p" 
d="M375.5 426q45.5 -69 45.5 -184q0 -114 -45.5 -184t-125.5 -70q-39 0 -73.5 23t-55.5 65v-238q0 -10 -7.5 -17.5t-17.5 -7.5t-17.5 7.5t-7.5 17.5v623q0 10 7.5 17.5t17.5 7.5t17.5 -7.5t7.5 -17.5v-51q20 39 55 62t74 23q80 0 125.5 -69zM335 92q32 59 32 150t-32 149.5
t-94 58.5q-37 0 -70.5 -26t-49.5 -63v-238q16 -36 49.5 -63t70.5 -27q62 0 94 59z" />
    <glyph glyph-name="q" unicode="q" 
d="M390.5 478.5q7.5 -7.5 7.5 -17.5v-623q0 -10 -7.5 -17.5t-17.5 -7.5t-18 7.5t-8 17.5v237q-21 -42 -55.5 -64.5t-72.5 -22.5q-80 0 -125.5 70t-45.5 184q0 115 45.5 184t125.5 69q38 0 72.5 -22.5t55.5 -60.5v49q0 10 8 17.5t18 7.5t17.5 -7.5zM298.5 60q33.5 27 48.5 63
v238q-15 37 -48.5 63t-70.5 26q-62 0 -94 -58.5t-32 -149.5t32 -150t94 -59q37 0 70.5 27z" />
    <glyph glyph-name="r" unicode="r" horiz-adv-x="278" 
d="M256.5 483q7.5 -7 7.5 -18q0 -10 -7.5 -17.5t-18.5 -8.5q-35 -1 -67.5 -26.5t-49.5 -60.5v-330q0 -10 -7.5 -17.5t-17.5 -7.5t-17.5 7.5t-7.5 17.5v439q0 10 7.5 17.5t17.5 7.5t17.5 -7.5t7.5 -17.5v-61q40 66 94 85q13 5 23 5q11 0 18.5 -7z" />
    <glyph glyph-name="s" unicode="s" horiz-adv-x="377" 
d="M37 59q0 10 7 17t16 7q10 0 16 -6q44 -46 108 -46q46 0 74 24t28 64t-27 62.5t-81 45.5q-44 19 -70 34.5t-44.5 42.5t-18.5 68q0 53 39.5 88t104.5 35q75 0 126 -49q7 -7 7 -17q0 -9 -6 -15t-16 -6q-9 0 -14 5q-37 39 -97 39q-43 0 -69 -22t-26 -56q0 -36 25 -56t77 -44
q45 -19 72.5 -35.5t47 -45t19.5 -72.5q0 -59 -41 -96t-109 -37q-43 0 -77 13t-63 41q-8 6 -8 17z" />
    <glyph glyph-name="t" unicode="t" horiz-adv-x="249" 
d="M230 40.5q6 -6.5 6 -15.5q0 -13 -11 -19q-25 -18 -58 -18q-84 0 -84 101v349h-46q-9 0 -16 6.5t-7 16.5q0 9 7 15.5t16 6.5h46v110q0 10 7.5 17.5t17.5 7.5t17.5 -7.5t7.5 -17.5v-110h64q9 0 15.5 -6.5t6.5 -15.5q0 -10 -6.5 -16.5t-15.5 -6.5h-64v-343q0 -62 42 -62
q14 0 25 7t15 7q9 0 15 -6.5z" />
    <glyph glyph-name="u" unicode="u" horiz-adv-x="450" 
d="M371.5 478.5q7.5 -7.5 7.5 -17.5v-439q0 -10 -7.5 -17.5t-17.5 -7.5t-18 7.5t-8 17.5v48q-23 -35 -60.5 -58.5t-78.5 -23.5q-60 0 -89 31t-29 98v344q0 10 7.5 17.5t17.5 7.5t17.5 -7.5t7.5 -17.5v-334q0 -50 21.5 -72t61.5 -22q37 0 71.5 24t52.5 59v345q0 10 8 17.5
t18 7.5t17.5 -7.5z" />
    <glyph glyph-name="v" unicode="v" horiz-adv-x="392" 
d="M364.5 478q7.5 -8 7.5 -19q0 -3 -2 -11l-139 -425q-4 -11 -13.5 -18.5t-21.5 -7.5q-13 0 -23 7t-14 19l-138 425q-2 8 -2 11q0 11 7.5 19t18.5 8q9 0 16 -5.5t9 -13.5l126 -407l126 407q1 8 8.5 13.5t15.5 5.5q11 0 18.5 -8z" />
    <glyph glyph-name="w" unicode="w" horiz-adv-x="616" 
d="M424.5 4q-8.5 7 -10.5 17l-106 393l-106 -393q-3 -11 -11.5 -17.5t-18.5 -6.5q-11 0 -19.5 6.5t-11.5 17.5l-115 430l-2 9q0 11 7.5 18.5t18.5 7.5q9 0 16 -5.5t9 -14.5l99 -394l104 391q2 10 11 16.5t19 6.5t18.5 -6.5t10.5 -16.5l105 -391l99 394q2 9 9 14.5t16 5.5
q11 0 18.5 -7.5t6.5 -18.5q0 -6 -1 -10l-115 -429q-3 -11 -11.5 -17.5t-19.5 -6.5t-19.5 7z" />
    <glyph glyph-name="x" unicode="x" horiz-adv-x="393" 
d="M363 22q0 -10 -7 -17.5t-17 -7.5q-14 0 -21 12l-122 199l-121 -198q-8 -13 -21 -13q-11 0 -18 7.5t-7 17.5q0 7 5 14l134 211l-126 200q-5 7 -5 14q0 10 7.5 17.5t17.5 7.5q13 0 20 -12l114 -188l114 188q9 12 21 12q10 0 17 -7.5t7 -17.5q0 -9 -4 -14l-126 -200
l134 -211q4 -5 4 -14z" />
    <glyph glyph-name="y" unicode="y" horiz-adv-x="392" 
d="M46.5 -155.5q6.5 6.5 15.5 7.5q3 0 9 -1.5t11 -1.5q21 1 34 13t24 41l29 87l-148 459l-2 10q0 11 7.5 19t18.5 8q9 0 16 -5.5t9 -13.5l126 -405l126 405q1 8 8.5 13.5t15.5 5.5q11 0 18.5 -8t7.5 -19q0 -5 -2 -10l-183 -559q-15 -45 -40.5 -65.5t-61.5 -20.5q-14 0 -22 2
q-11 2 -17 8t-6 15t6.5 15.5z" />
    <glyph glyph-name="y.alt1" horiz-adv-x="450" 
d="M69 -130q0 10 7 17t17 7q8 0 15 -5q42 -41 103 -41q55 0 86 36t31 103v87q-24 -36 -61 -59t-78 -23q-60 0 -89 31t-29 98v340q0 10 7.5 17.5t17.5 7.5t17.5 -7.5t7.5 -17.5v-329q0 -51 21 -72.5t62 -21.5q37 0 71.5 24t52.5 58v341q0 10 8 17.5t18 7.5t17.5 -7.5
t7.5 -17.5v-473q0 -89 -46.5 -136.5t-120.5 -47.5q-80 0 -134 47q-9 7 -9 19z" />
    <glyph glyph-name="z" unicode="z" horiz-adv-x="379" 
d="M52.5 8.5q-8.5 8.5 -8.5 20.5q0 8 4 15l219 394h-200q-9 0 -16 6.5t-7 15.5q0 10 7 16.5t16 6.5h236q11 0 19.5 -8.5t8.5 -19.5q0 -5 -4 -15l-220 -395h205q9 0 16 -6.5t7 -16.5q0 -9 -7 -15.5t-16 -6.5h-240q-11 0 -19.5 8.5z" />
    <glyph glyph-name="Aacute" unicode="&#xc1;" horiz-adv-x="492" 
d="M471 25q0 -11 -8 -19.5t-20 -8.5q-10 0 -17.5 6t-9.5 15l-42 147h-256l-42 -147q-2 -9 -9.5 -15t-17.5 -6q-12 0 -20 8.5t-8 19.5l2 10l182 604q4 14 15.5 22.5t25.5 8.5q15 0 26 -8.5t16 -22.5l181 -604q2 -6 2 -10zM133 215h226l-113 393zM251 720q-6 0 -10.5 4.5
t-4.5 10.5q0 4 4 10l95 117q5 8 16 8q8 0 14.5 -6.5t6.5 -14.5q0 -7 -6 -13l-103 -110q-4 -6 -12 -6z" />
    <glyph glyph-name="Abreve" unicode="&#x102;" horiz-adv-x="492" 
d="M471 25q0 -11 -8 -19.5t-20 -8.5q-10 0 -17.5 6t-9.5 15l-42 147h-256l-42 -147q-2 -9 -9.5 -15t-17.5 -6q-12 0 -20 8.5t-8 19.5l2 10l182 604q4 14 15.5 22.5t25.5 8.5q15 0 26 -8.5t16 -22.5l181 -604q2 -6 2 -10zM133 215h226l-113 393zM173 734q-35 16 -62 45
q-5 7 -5 13q0 8 5.5 13.5t12.5 5.5q10 0 14 -6q21 -24 49.5 -37t59.5 -13t59 13t48 36q5 7 15 7q7 0 12.5 -6t5.5 -13q0 -6 -5 -13q-26 -29 -61 -45t-74 -16t-74 16z" />
    <glyph glyph-name="Acircumflex" unicode="&#xc2;" horiz-adv-x="492" 
d="M471 25q0 -11 -8 -19.5t-20 -8.5q-10 0 -17.5 6t-9.5 15l-42 147h-256l-42 -147q-2 -9 -9.5 -15t-17.5 -6q-12 0 -20 8.5t-8 19.5l2 10l182 604q4 14 15.5 22.5t25.5 8.5q15 0 26 -8.5t16 -22.5l181 -604q2 -6 2 -10zM133 215h226l-113 393zM247 835l-73 -111
q-4 -8 -13 -8q-6 0 -11 4.5t-5 11.5q0 3 4 11l65 113q4 8 11.5 12.5t15.5 4.5h11q18 0 27 -17l67 -114q0 -1 1.5 -4t1.5 -6q0 -7 -4.5 -11.5t-11.5 -4.5q-9 0 -13 8z" />
    <glyph glyph-name="Adieresis" unicode="&#xc4;" horiz-adv-x="492" 
d="M471 25q0 -11 -8 -19.5t-20 -8.5q-10 0 -17.5 6t-9.5 15l-42 147h-256l-42 -147q-2 -9 -9.5 -15t-17.5 -6q-12 0 -20 8.5t-8 19.5l2 10l182 604q4 14 15.5 22.5t25.5 8.5q15 0 26 -8.5t16 -22.5l181 -604q2 -6 2 -10zM133 215h226l-113 393zM136 746.5q-11 10.5 -11 25.5
t11 26t26 11t25.5 -11t10.5 -26t-10.5 -25.5t-25.5 -10.5t-26 10.5zM304 746.5q-11 10.5 -11 25.5t11 26t26 11t25.5 -11t10.5 -26t-10.5 -25.5t-25.5 -10.5t-26 10.5z" />
    <glyph glyph-name="Agrave" unicode="&#xc0;" horiz-adv-x="492" 
d="M471 25q0 -11 -8 -19.5t-20 -8.5q-10 0 -17.5 6t-9.5 15l-42 147h-256l-42 -147q-2 -9 -9.5 -15t-17.5 -6q-12 0 -20 8.5t-8 19.5l2 10l182 604q4 14 15.5 22.5t25.5 8.5q15 0 26 -8.5t16 -22.5l181 -604q2 -6 2 -10zM133 215h226l-113 393zM127 836q-6 6 -6 13
q0 8 6.5 14.5t14.5 6.5q11 0 16 -8l95 -117q4 -6 4 -10q0 -6 -4.5 -10.5t-11.5 -4.5t-11 6z" />
    <glyph glyph-name="Amacron" unicode="&#x100;" horiz-adv-x="492" 
d="M471 25q0 -11 -8 -19.5t-20 -8.5q-10 0 -17.5 6t-9.5 15l-42 147h-256l-42 -147q-2 -9 -9.5 -15t-17.5 -6q-12 0 -20 8.5t-8 19.5l2 10l182 604q4 14 15.5 22.5t25.5 8.5q15 0 26 -8.5t16 -22.5l181 -604q2 -6 2 -10zM133 215h226l-113 393zM126.5 749.5
q-5.5 5.5 -5.5 12.5q0 8 5.5 13.5t13.5 5.5h211q7 0 13 -5.5t6 -13.5q0 -7 -5.5 -12.5t-13.5 -5.5h-211q-8 0 -13.5 5.5z" />
    <glyph glyph-name="Aogonek" unicode="&#x104;" horiz-adv-x="492" 
d="M469 -145.5q5 -5.5 5 -13.5q0 -7 -3.5 -11.5t-8.5 -6.5q-18 -9 -41 -9q-33 0 -56.5 18.5t-23.5 52.5q0 33 25 63.5t64 51.5q-11 6 -14 18l-42 147h-256l-42 -147q-2 -9 -9.5 -15t-17.5 -6q-12 0 -20 8.5t-8 19.5l2 10l182 604q4 14 15.5 22.5t25.5 8.5q15 0 26 -8.5
t16 -22.5l181 -604q2 -6 2 -10q0 -8 -5 -16q5 0 5.5 -2t-3.5 -5q-39 -31 -59 -56.5t-20 -50.5q0 -19 10.5 -30t28.5 -11q9 0 17 3t11 3q8 0 13 -5.5zM133 215h226l-113 393z" />
    <glyph glyph-name="Aring" unicode="&#xc5;" horiz-adv-x="492" 
d="M471 25q0 -11 -8 -19.5t-20 -8.5q-10 0 -17.5 6t-9.5 15l-42 147h-256l-42 -147q-2 -9 -9.5 -15t-17.5 -6q-12 0 -20 8.5t-8 19.5l2 10l182 604q4 14 15.5 22.5t25.5 8.5q15 0 26 -8.5t16 -22.5l181 -604q2 -6 2 -10zM133 215h226l-113 393zM184 866q26 26 62 26
t61.5 -26t25.5 -62q0 -37 -25 -62.5t-62 -25.5q-36 0 -62 25.5t-26 62.5q0 36 26 62zM286.5 844q-16.5 17 -40.5 17q-23 0 -40 -17t-17 -40q0 -24 17 -41t40 -17q24 0 40.5 17t16.5 41q0 23 -16.5 40z" />
    <glyph glyph-name="Aringacute" unicode="&#x1fa;" horiz-adv-x="492" 
d="M471 25q0 -11 -8 -19.5t-20 -8.5q-10 0 -17.5 6t-9.5 15l-42 147h-256l-42 -147q-2 -9 -9.5 -15t-17.5 -6q-12 0 -20 8.5t-8 19.5l2 10l182 604q4 14 15.5 22.5t25.5 8.5q15 0 26 -8.5t16 -22.5l181 -604q2 -6 2 -10zM133 215h226l-113 393zM184 866q26 26 62 26
t61.5 -26t25.5 -62q0 -37 -25 -62.5t-62 -25.5q-36 0 -62 25.5t-26 62.5q0 36 26 62zM286.5 844q-16.5 17 -40.5 17q-23 0 -40 -17t-17 -40q0 -24 17 -41t40 -17q24 0 40.5 17t16.5 41q0 23 -16.5 40zM250 922q-6 0 -10.5 4.5t-4.5 10.5q0 4 4 10l95 117q5 8 16 8
q8 0 14.5 -6.5t6.5 -14.5q0 -7 -6 -13l-103 -110q-4 -6 -12 -6z" />
    <glyph glyph-name="Atilde" unicode="&#xc3;" horiz-adv-x="492" 
d="M471 25q0 -11 -8 -19.5t-20 -8.5q-10 0 -17.5 6t-9.5 15l-42 147h-256l-42 -147q-2 -9 -9.5 -15t-17.5 -6q-12 0 -20 8.5t-8 19.5l2 10l182 604q4 14 15.5 22.5t25.5 8.5q15 0 26 -8.5t16 -22.5l181 -604q2 -6 2 -10zM133 215h226l-113 393zM258.5 736.5
q-13.5 15.5 -26.5 44.5q-9 21 -17.5 32t-21.5 11q-18 0 -30 -21t-14 -63q0 -7 -4.5 -11.5t-11.5 -4.5t-12 5.5t-5 12.5q4 53 24 86t56 33q24 0 37 -15t27 -45q11 -23 18.5 -33t20.5 -10q19 0 31 21t13 63q0 7 5 11.5t11 4.5q7 0 12 -5t5 -13q-3 -53 -23.5 -86t-56.5 -33
q-24 0 -37.5 15.5z" />
    <glyph glyph-name="uni1EA0" unicode="&#x1ea0;" horiz-adv-x="492" 
d="M471 25q0 -11 -8 -19.5t-20 -8.5q-10 0 -17.5 6t-9.5 15l-42 147h-256l-42 -147q-2 -9 -9.5 -15t-17.5 -6q-12 0 -20 8.5t-8 19.5l2 10l182 604q4 14 15.5 22.5t25.5 8.5q15 0 26 -8.5t16 -22.5l181 -604q2 -6 2 -10zM133 215h226l-113 393zM220 -93q11 11 26 11t26 -11
t11 -26q0 -16 -11 -26.5t-26 -10.5t-26 10.5t-11 26.5q0 15 11 26z" />
    <glyph glyph-name="uni1EA2" unicode="&#x1ea2;" horiz-adv-x="492" 
d="M471 25q0 -11 -8 -19.5t-20 -8.5q-10 0 -17.5 6t-9.5 15l-42 147h-256l-42 -147q-2 -9 -9.5 -15t-17.5 -6q-12 0 -20 8.5t-8 19.5l2 10l182 604q4 14 15.5 22.5t25.5 8.5q15 0 26 -8.5t16 -22.5l181 -604q2 -6 2 -10zM133 215h226l-113 393zM272.5 726q-4.5 5 -4.5 11
q0 2 2 10q15 25 15 53q0 25 -11 37t-30 12q-29 0 -42 -28q-3 -10 -15 -10q-8 0 -13 5.5t-5 12.5l2 9q23 45 73 45q34 0 56 -20.5t22 -61.5q0 -35 -23 -72q-5 -8 -15 -8q-7 0 -11.5 5z" />
    <glyph glyph-name="uni1EA4" unicode="&#x1ea4;" horiz-adv-x="492" 
d="M342.5 781.5q-4.5 3.5 -4.5 7.5q0 2 4 8l95 87q5 6 16 6q8 0 14.5 -4.5t6.5 -10.5t-6 -10l-103 -83q-4 -4 -12 -4q-6 0 -10.5 3.5zM150 703.5q-5 3.5 -5 8.5q0 2 4 8l65 85q4 5 11.5 9t15.5 4h11q18 0 27 -13l67 -86q3 -6 3 -7q0 -5 -4.5 -8.5t-11.5 -3.5q-9 0 -13 6
l-73 83l-73 -83q-4 -6 -13 -6q-6 0 -11 3.5zM469 35q2 -6 2 -10q0 -11 -8 -19.5t-20 -8.5q-10 0 -17.5 6t-9.5 15l-42 147h-256l-42 -147q-2 -9 -9.5 -15t-17.5 -6q-12 0 -20 8.5t-8 19.5l2 10l182 604q4 14 15.5 22.5t25.5 8.5q15 0 26 -8.5t16 -22.5zM133 215h226
l-113 393z" />
    <glyph glyph-name="uni1EAC" unicode="&#x1eac;" horiz-adv-x="492" 
d="M471 25q0 -11 -8 -19.5t-20 -8.5q-10 0 -17.5 6t-9.5 15l-42 147h-256l-42 -147q-2 -9 -9.5 -15t-17.5 -6q-12 0 -20 8.5t-8 19.5l2 10l182 604q4 14 15.5 22.5t25.5 8.5q15 0 26 -8.5t16 -22.5l181 -604q2 -6 2 -10zM133 215h226l-113 393zM247 835l-73 -111
q-4 -8 -13 -8q-6 0 -11 4.5t-5 11.5q0 3 4 11l65 113q4 8 11.5 12.5t15.5 4.5h11q18 0 27 -17l67 -114q0 -1 1.5 -4t1.5 -6q0 -7 -4.5 -11.5t-11.5 -4.5q-9 0 -13 8zM220 -93q11 11 26 11t26 -11t11 -26q0 -16 -11 -26.5t-26 -10.5t-26 10.5t-11 26.5q0 15 11 26z" />
    <glyph glyph-name="uni1EA6" unicode="&#x1ea6;" horiz-adv-x="492" 
d="M20 875q0 6 6.5 10.5t14.5 4.5q12 0 16 -6l95 -87q4 -6 4 -8q0 -5 -4.5 -8t-11.5 -3t-11 4l-103 83q-6 4 -6 10zM149 720l65 85q4 5 11.5 9t15.5 4h11q18 0 27 -13l67 -86q3 -6 3 -7q0 -5 -4.5 -8.5t-11.5 -3.5q-9 0 -13 6l-73 83l-73 -83q-4 -6 -13 -6q-6 0 -11 3.5
t-5 8.5q0 2 4 8zM471 25q0 -11 -8 -19.5t-20 -8.5q-10 0 -17.5 6t-9.5 15l-42 147h-256l-42 -147q-2 -9 -9.5 -15t-17.5 -6q-12 0 -20 8.5t-8 19.5l2 10l182 604q4 14 15.5 22.5t25.5 8.5q15 0 26 -8.5t16 -22.5l181 -604q2 -6 2 -10zM133 215h226l-113 393z" />
    <glyph glyph-name="uni1EA8" unicode="&#x1ea8;" horiz-adv-x="492" 
d="M249 849q-5 4 -5 10l2 6q23 34 73 34q34 0 56 -15.5t22 -45.5q0 -15 -5.5 -27.5t-17.5 -26.5q-4 -6 -15 -6q-7 0 -11.5 3.5t-4.5 8.5q0 1 2 7q15 19 15 40q0 18 -11 27.5t-30 9.5q-28 0 -42 -21q-3 -8 -15 -8q-8 0 -13 4zM150 703.5q-5 3.5 -5 8.5q0 2 4 8l65 85
q4 5 11.5 9t15.5 4h11q18 0 27 -13l67 -86q3 -6 3 -7q0 -5 -4.5 -8.5t-11.5 -3.5q-9 0 -13 6l-73 83l-73 -83q-4 -6 -13 -6q-6 0 -11 3.5zM471 25q0 -11 -8 -19.5t-20 -8.5q-10 0 -17.5 6t-9.5 15l-42 147h-256l-42 -147q-2 -9 -9.5 -15t-17.5 -6q-12 0 -20 8.5t-8 19.5
l2 10l182 604q4 14 15.5 22.5t25.5 8.5q15 0 26 -8.5t16 -22.5l181 -604q2 -6 2 -10zM133 215h226l-113 393z" />
    <glyph glyph-name="uni1EAE" unicode="&#x1eae;" horiz-adv-x="492" 
d="M240.5 808.5q-4.5 3.5 -4.5 7.5q0 2 4 8l95 87q5 6 16 6q8 0 14.5 -4.5t6.5 -10.5t-6 -10l-103 -83q-4 -4 -12 -4q-6 0 -10.5 3.5zM172 728q-35 15 -62 42q-5 5 -5 12t5.5 12t12.5 5q11 0 14 -5q21 -22 49.5 -34.5t59.5 -12.5t59 12t48 34q5 6 15 6q7 0 12.5 -5t5.5 -12
t-5 -12q-26 -27 -61 -42t-74 -15t-74 15zM471 25q0 -11 -8 -19.5t-20 -8.5q-10 0 -17.5 6t-9.5 15l-42 147h-256l-42 -147q-2 -9 -9.5 -15t-17.5 -6q-12 0 -20 8.5t-8 19.5l2 10l182 604q4 14 15.5 22.5t25.5 8.5q15 0 26 -8.5t16 -22.5l181 -604q2 -6 2 -10zM133 215h226
l-113 393z" />
    <glyph glyph-name="uni1EAA" unicode="&#x1eaa;" horiz-adv-x="492" 
d="M121 834q-5 4 -5 9q4 41 24 65.5t56 24.5q24 0 37 -11.5t27 -33.5q11 -17 18.5 -25t20.5 -8q19 0 31 15.5t13 47.5q0 5 5 8.5t11 3.5q7 0 12 -4t5 -9q-3 -40 -23.5 -64.5t-56.5 -24.5q-24 0 -37.5 11.5t-26.5 33.5q-9 16 -17.5 24t-21.5 8q-18 0 -30 -15.5t-14 -47.5
q0 -5 -4.5 -8.5t-11.5 -3.5t-12 4zM346 719q3 -6 3 -7q0 -5 -4.5 -8.5t-11.5 -3.5q-9 0 -13 6l-73 83l-73 -83q-4 -6 -13 -6q-6 0 -11 3.5t-5 8.5q0 2 4 8l65 85q4 5 11.5 9t15.5 4h11q18 0 27 -13zM471 25q0 -11 -8 -19.5t-20 -8.5q-10 0 -17.5 6t-9.5 15l-42 147h-256
l-42 -147q-2 -9 -9.5 -15t-17.5 -6q-12 0 -20 8.5t-8 19.5l2 10l182 604q4 14 15.5 22.5t25.5 8.5q15 0 26 -8.5t16 -22.5l181 -604q2 -6 2 -10zM133 215h226l-113 393z" />
    <glyph glyph-name="uni1EB0" unicode="&#x1eb0;" horiz-adv-x="492" 
d="M121 901q0 6 6.5 10.5t14.5 4.5q12 0 16 -6l95 -87q4 -6 4 -8q0 -5 -4.5 -8t-11.5 -3t-11 4l-103 83q-6 4 -6 10zM172 727.5q-35 14.5 -62 41.5q-5 7 -5 12q0 7 5.5 12.5t12.5 5.5q10 0 14 -6q21 -22 49.5 -34t59.5 -12q30 0 58.5 12t48.5 33q5 7 15 7q7 0 12.5 -5.5
t5.5 -12.5q0 -5 -5 -12q-26 -27 -61 -41.5t-74 -14.5t-74 14.5zM471 25q0 -11 -8 -19.5t-20 -8.5q-10 0 -17.5 6t-9.5 15l-42 147h-256l-42 -147q-2 -9 -9.5 -15t-17.5 -6q-12 0 -20 8.5t-8 19.5l2 10l182 604q4 14 15.5 22.5t25.5 8.5q15 0 26 -8.5t16 -22.5l181 -604
q2 -6 2 -10zM133 215h226l-113 393z" />
    <glyph glyph-name="uni1EB2" unicode="&#x1eb2;" horiz-adv-x="492" 
d="M173 876q-5 4 -5 10l2 6q23 34 73 34q34 0 56 -15.5t22 -45.5q0 -15 -5.5 -27.5t-17.5 -26.5q-4 -6 -15 -6q-7 0 -11.5 3.5t-4.5 8.5q0 1 2 7q15 19 15 40q0 18 -11 27.5t-30 9.5q-28 0 -42 -21q-3 -8 -15 -8q-8 0 -13 4zM172 727.5q-35 14.5 -62 41.5q-5 7 -5 12
q0 7 5.5 12.5t12.5 5.5q10 0 14 -6q21 -22 49.5 -34t59.5 -12q30 0 58.5 12t48.5 33q5 7 15 7q7 0 12.5 -5.5t5.5 -12.5q0 -5 -5 -12q-26 -27 -61 -41.5t-74 -14.5t-74 14.5zM471 25q0 -11 -8 -19.5t-20 -8.5q-10 0 -17.5 6t-9.5 15l-42 147h-256l-42 -147q-2 -9 -9.5 -15
t-17.5 -6q-12 0 -20 8.5t-8 19.5l2 10l182 604q4 14 15.5 22.5t25.5 8.5q15 0 26 -8.5t16 -22.5l181 -604q2 -6 2 -10zM133 215h226l-113 393z" />
    <glyph glyph-name="uni1EB4" unicode="&#x1eb4;" horiz-adv-x="492" 
d="M121 792q-5 4 -5 9q4 41 24 65.5t56 24.5q24 0 37 -11.5t27 -33.5q11 -17 18.5 -25t20.5 -8q19 0 31 15.5t13 47.5q0 5 5 8.5t11 3.5q7 0 12 -4t5 -9q-3 -40 -23.5 -64.5t-56.5 -24.5q-24 0 -37.5 11.5t-26.5 33.5q-9 16 -17.5 24t-21.5 8q-18 0 -30 -15.5t-14 -47.5
q0 -5 -4.5 -8.5t-11.5 -3.5t-12 4zM172 713q-35 12 -62 34q-5 5 -5 10t5.5 9.5t12.5 4.5q10 0 14 -4q21 -18 49.5 -28t59.5 -10q30 0 58.5 10t48.5 27q5 5 15 5q7 0 12.5 -4.5t5.5 -9.5t-5 -10q-26 -22 -61 -34t-74 -12t-74 12zM471 25q0 -11 -8 -19.5t-20 -8.5
q-10 0 -17.5 6t-9.5 15l-42 147h-256l-42 -147q-2 -9 -9.5 -15t-17.5 -6q-12 0 -20 8.5t-8 19.5l2 10l182 604q4 14 15.5 22.5t25.5 8.5q15 0 26 -8.5t16 -22.5l181 -604q2 -6 2 -10zM133 215h226l-113 393z" />
    <glyph glyph-name="uni1EB6" unicode="&#x1eb6;" horiz-adv-x="492" 
d="M471 25q0 -11 -8 -19.5t-20 -8.5q-10 0 -17.5 6t-9.5 15l-42 147h-256l-42 -147q-2 -9 -9.5 -15t-17.5 -6q-12 0 -20 8.5t-8 19.5l2 10l182 604q4 14 15.5 22.5t25.5 8.5q15 0 26 -8.5t16 -22.5l181 -604q2 -6 2 -10zM133 215h226l-113 393zM172 734q-35 16 -62 45
q-5 7 -5 13q0 8 5.5 13.5t12.5 5.5q10 0 14 -6q21 -24 49.5 -37t59.5 -13t59 13t48 36q5 7 15 7q7 0 12.5 -6t5.5 -13q0 -6 -5 -13q-26 -29 -61 -45t-74 -16t-74 16zM220 -93q11 11 26 11t26 -11t11 -26q0 -16 -11 -26.5t-26 -10.5t-26 10.5t-11 26.5q0 15 11 26z" />
    <glyph glyph-name="AE" unicode="&#xc6;" horiz-adv-x="733" 
d="M675 43q7 -7 7 -18q0 -10 -7.5 -17.5t-17.5 -7.5h-273q-14 0 -22 8t-8 22v135h-205l-70 -152q-3 -7 -9.5 -11.5t-14.5 -4.5q-11 0 -18.5 7.5t-7.5 18.5q0 8 2 13l290 608q10 23 35 23h301q10 0 17.5 -7.5t7.5 -17.5t-7 -17.5t-18 -7.5h-248v-250h241q11 0 18 -7t7 -18
q0 -10 -7 -17.5t-18 -7.5h-241v-267h248q11 0 18 -7zM172 215h182v393z" />
    <glyph glyph-name="AEacute" unicode="&#x1fc;" horiz-adv-x="733" 
d="M675 43q7 -7 7 -18q0 -10 -7.5 -17.5t-17.5 -7.5h-273q-14 0 -22 8t-8 22v135h-205l-70 -152q-3 -7 -9.5 -11.5t-14.5 -4.5q-11 0 -18.5 7.5t-7.5 18.5q0 8 2 13l290 608q10 23 35 23h301q10 0 17.5 -7.5t7.5 -17.5t-7 -17.5t-18 -7.5h-248v-250h241q11 0 18 -7t7 -18
q0 -10 -7 -17.5t-18 -7.5h-241v-267h248q11 0 18 -7zM172 215h182v393zM384 720q-6 0 -10.5 4.5t-4.5 10.5q0 4 4 10l95 117q5 8 16 8q8 0 14.5 -6.5t6.5 -14.5q0 -7 -6 -13l-103 -110q-4 -6 -12 -6z" />
    <glyph glyph-name="uni1E02" unicode="&#x1e02;" horiz-adv-x="498" 
d="M83 8q-8 8 -8 22v607q0 14 8 22t23 8h166q75 0 118 -45.5t43 -124.5q0 -61 -28 -100.5t-72 -52.5q47 -7 79 -56t32 -108q0 -84 -43.5 -132t-123.5 -48h-171q-15 0 -23 8zM265 367q55 0 82 34.5t27 89.5q0 56 -27 91t-82 35h-134v-250h134zM269 50q57 0 86.5 35.5
t29.5 98.5q0 56 -29.5 94.5t-86.5 38.5h-138v-267h138zM219 796q11 11 26 11t26 -11t11 -26q0 -16 -11 -26.5t-26 -10.5t-26 10.5t-11 26.5q0 15 11 26z" />
    <glyph glyph-name="Cacute" unicode="&#x106;" horiz-adv-x="511" 
d="M170.5 32.5q-56.5 44.5 -87 123t-30.5 177.5t30.5 177.5t86.5 123t131 44.5q106 0 172 -95q4 -5 4 -14q0 -11 -7.5 -18.5t-18.5 -7.5q-15 0 -22 12q-50 72 -128 72q-56 0 -99.5 -38t-67 -104.5t-23.5 -151.5q0 -84 23.5 -151t67 -105t99.5 -38q41 0 74 21t56 59
q7 14 22 14q11 0 19 -7.5t8 -18.5q0 -9 -5 -16q-66 -103 -174 -103q-74 0 -130.5 44.5zM306 720q-6 0 -10.5 4.5t-4.5 10.5q0 4 4 10l95 117q5 8 16 8q8 0 14.5 -6.5t6.5 -14.5q0 -7 -6 -13l-103 -110q-4 -6 -12 -6z" />
    <glyph glyph-name="Ccedilla" unicode="&#xc7;" horiz-adv-x="511" 
d="M472 125.5q8 -7.5 8 -18.5q0 -9 -5 -16q-61 -96 -161 -103l-17 -45q12 11 33 11q25 0 42 -18t17 -47q0 -34 -26.5 -56t-66.5 -22q-43 0 -75 22q-10 7 -10 16q0 7 4.5 12t11.5 5q6 0 11 -4q25 -18 58 -18q24 0 40.5 12.5t16.5 33.5q0 17 -9.5 27t-26.5 10q-18 0 -30 -11
q-4 -4 -12 -4t-12.5 5t-4.5 13l2 9l18 50q-68 7 -119 53t-78.5 121.5t-27.5 169.5q0 99 30.5 177.5t86.5 123t131 44.5q106 0 172 -95q4 -5 4 -14q0 -11 -7.5 -18.5t-18.5 -7.5q-15 0 -22 12q-50 72 -128 72q-56 0 -99.5 -38t-67 -104.5t-23.5 -151.5q0 -84 23.5 -151
t67 -105t99.5 -38q41 0 74 21t56 59q7 14 22 14q11 0 19 -7.5z" />
    <glyph glyph-name="Ccircumflex" unicode="&#x108;" horiz-adv-x="511" 
d="M170.5 32.5q-56.5 44.5 -87 123t-30.5 177.5t30.5 177.5t86.5 123t131 44.5q106 0 172 -95q4 -5 4 -14q0 -11 -7.5 -18.5t-18.5 -7.5q-15 0 -22 12q-50 72 -128 72q-56 0 -99.5 -38t-67 -104.5t-23.5 -151.5q0 -84 23.5 -151t67 -105t99.5 -38q41 0 74 21t56 59
q7 14 22 14q11 0 19 -7.5t8 -18.5q0 -9 -5 -16q-66 -103 -174 -103q-74 0 -130.5 44.5zM302 835l-73 -111q-4 -8 -13 -8q-6 0 -11 4.5t-5 11.5q0 3 4 11l65 113q4 8 11.5 12.5t15.5 4.5h11q18 0 27 -17l67 -114q0 -1 1.5 -4t1.5 -6q0 -7 -4.5 -11.5t-11.5 -4.5q-9 0 -13 8z
" />
    <glyph glyph-name="Cdotaccent" unicode="&#x10a;" horiz-adv-x="511" 
d="M170.5 32.5q-56.5 44.5 -87 123t-30.5 177.5t30.5 177.5t86.5 123t131 44.5q106 0 172 -95q4 -5 4 -14q0 -11 -7.5 -18.5t-18.5 -7.5q-15 0 -22 12q-50 72 -128 72q-56 0 -99.5 -38t-67 -104.5t-23.5 -151.5q0 -84 23.5 -151t67 -105t99.5 -38q41 0 74 21t56 59
q7 14 22 14q11 0 19 -7.5t8 -18.5q0 -9 -5 -16q-66 -103 -174 -103q-74 0 -130.5 44.5zM276 796q11 11 26 11t26 -11t11 -26q0 -16 -11 -26.5t-26 -10.5t-26 10.5t-11 26.5q0 15 11 26z" />
    <glyph glyph-name="Ccaron" unicode="&#x10c;" horiz-adv-x="511" 
d="M170.5 32.5q-56.5 44.5 -87 123t-30.5 177.5t30.5 177.5t86.5 123t131 44.5q106 0 172 -95q4 -5 4 -14q0 -11 -7.5 -18.5t-18.5 -7.5q-15 0 -22 12q-50 72 -128 72q-56 0 -99.5 -38t-67 -104.5t-23.5 -151.5q0 -84 23.5 -151t67 -105t99.5 -38q41 0 74 21t56 59
q7 14 22 14q11 0 19 -7.5t8 -18.5q0 -9 -5 -16q-66 -103 -174 -103q-74 0 -130.5 44.5zM396.5 868.5q4.5 -4.5 4.5 -11.5q0 -3 -1.5 -6t-1.5 -4l-67 -114q-9 -17 -27 -17h-11q-8 0 -15.5 4.5t-11.5 12.5l-65 113q-4 8 -4 11q0 7 5 11.5t11 4.5q9 0 13 -8l73 -111l73 111
q4 8 13 8q7 0 11.5 -4.5z" />
    <glyph glyph-name="Dcaron" unicode="&#x10e;" horiz-adv-x="549" 
d="M83 8q-8 8 -8 22v607q0 14 8 22t23 8h131q82 0 140.5 -43.5t88.5 -119.5t30 -171q0 -96 -30 -171.5t-88.5 -118.5t-140.5 -43h-131q-15 0 -23 8zM237 50q97 0 148.5 79t51.5 204t-51.5 204.5t-148.5 79.5h-106v-567h106zM372.5 868.5q4.5 -4.5 4.5 -11.5q0 -3 -1.5 -6
t-1.5 -4l-67 -114q-9 -17 -27 -17h-11q-8 0 -15.5 4.5t-11.5 12.5l-65 113q-4 8 -4 11q0 7 5 11.5t11 4.5q9 0 13 -8l73 -111l73 111q4 8 13 8q7 0 11.5 -4.5z" />
    <glyph glyph-name="Dcroat" unicode="&#x110;" horiz-adv-x="573" 
d="M400.5 623.5q58.5 -43.5 88.5 -119.5t30 -171q0 -96 -30 -171.5t-88.5 -118.5t-140.5 -43h-131q-14 0 -22 8t-8 22v278h-62q-9 0 -16 7t-7 16t7 16t16 7h62v283q0 14 8 22t22 8h131q82 0 140.5 -43.5zM409 129q52 79 52 204t-52 204.5t-149 79.5h-106v-263h116
q9 0 15.5 -7t6.5 -16t-6.5 -16t-15.5 -7h-116v-258h106q97 0 149 79z" />
    <glyph glyph-name="uni1E0A" unicode="&#x1e0a;" horiz-adv-x="549" 
d="M83 8q-8 8 -8 22v607q0 14 8 22t23 8h131q82 0 140.5 -43.5t88.5 -119.5t30 -171q0 -96 -30 -171.5t-88.5 -118.5t-140.5 -43h-131q-15 0 -23 8zM237 50q97 0 148.5 79t51.5 204t-51.5 204.5t-148.5 79.5h-106v-567h106zM252 796q11 11 26 11t26 -11t11 -26
q0 -16 -11 -26.5t-26 -10.5t-26 10.5t-11 26.5q0 15 11 26z" />
    <glyph glyph-name="Eacute" unicode="&#xc9;" horiz-adv-x="452" 
d="M83 8q-8 8 -8 22v607q0 14 8 22t23 8h273q10 0 17.5 -7.5t7.5 -17.5t-7.5 -17.5t-17.5 -7.5h-248v-250h241q10 0 17.5 -7.5t7.5 -17.5t-7.5 -17.5t-17.5 -7.5h-241v-267h248q10 0 17.5 -7.5t7.5 -17.5t-7.5 -17.5t-17.5 -7.5h-273q-15 0 -23 8zM248 720q-6 0 -10.5 4.5
t-4.5 10.5q0 4 4 10l95 117q5 8 16 8q8 0 14.5 -6.5t6.5 -14.5q0 -7 -6 -13l-103 -110q-4 -6 -12 -6z" />
    <glyph glyph-name="Ebreve" unicode="&#x114;" horiz-adv-x="452" 
d="M83 8q-8 8 -8 22v607q0 14 8 22t23 8h273q10 0 17.5 -7.5t7.5 -17.5t-7.5 -17.5t-17.5 -7.5h-248v-250h241q10 0 17.5 -7.5t7.5 -17.5t-7.5 -17.5t-17.5 -7.5h-241v-267h248q10 0 17.5 -7.5t7.5 -17.5t-7.5 -17.5t-17.5 -7.5h-273q-15 0 -23 8zM170 734q-35 16 -62 45
q-5 7 -5 13q0 8 5.5 13.5t12.5 5.5q10 0 14 -6q21 -24 49.5 -37t59.5 -13t59 13t48 36q5 7 15 7q7 0 12.5 -6t5.5 -13q0 -6 -5 -13q-26 -29 -61 -45t-74 -16t-74 16z" />
    <glyph glyph-name="Ecircumflex" unicode="&#xca;" horiz-adv-x="452" 
d="M83 8q-8 8 -8 22v607q0 14 8 22t23 8h273q10 0 17.5 -7.5t7.5 -17.5t-7.5 -17.5t-17.5 -7.5h-248v-250h241q10 0 17.5 -7.5t7.5 -17.5t-7.5 -17.5t-17.5 -7.5h-241v-267h248q10 0 17.5 -7.5t7.5 -17.5t-7.5 -17.5t-17.5 -7.5h-273q-15 0 -23 8zM244 835l-73 -111
q-4 -8 -13 -8q-6 0 -11 4.5t-5 11.5q0 3 4 11l65 113q4 8 11.5 12.5t15.5 4.5h11q18 0 27 -17l67 -114q0 -1 1.5 -4t1.5 -6q0 -7 -4.5 -11.5t-11.5 -4.5q-9 0 -13 8z" />
    <glyph glyph-name="Edieresis" unicode="&#xcb;" horiz-adv-x="452" 
d="M83 8q-8 8 -8 22v607q0 14 8 22t23 8h273q10 0 17.5 -7.5t7.5 -17.5t-7.5 -17.5t-17.5 -7.5h-248v-250h241q10 0 17.5 -7.5t7.5 -17.5t-7.5 -17.5t-17.5 -7.5h-241v-267h248q10 0 17.5 -7.5t7.5 -17.5t-7.5 -17.5t-17.5 -7.5h-273q-15 0 -23 8zM133 746.5
q-11 10.5 -11 25.5t11 26t26 11t25.5 -11t10.5 -26t-10.5 -25.5t-25.5 -10.5t-26 10.5zM301 746.5q-11 10.5 -11 25.5t11 26t26 11t25.5 -11t10.5 -26t-10.5 -25.5t-25.5 -10.5t-26 10.5z" />
    <glyph glyph-name="Edotaccent" unicode="&#x116;" horiz-adv-x="452" 
d="M83 8q-8 8 -8 22v607q0 14 8 22t23 8h273q10 0 17.5 -7.5t7.5 -17.5t-7.5 -17.5t-17.5 -7.5h-248v-250h241q10 0 17.5 -7.5t7.5 -17.5t-7.5 -17.5t-17.5 -7.5h-241v-267h248q10 0 17.5 -7.5t7.5 -17.5t-7.5 -17.5t-17.5 -7.5h-273q-15 0 -23 8zM218 796q11 11 26 11
t26 -11t11 -26q0 -16 -11 -26.5t-26 -10.5t-26 10.5t-11 26.5q0 15 11 26z" />
    <glyph glyph-name="Egrave" unicode="&#xc8;" horiz-adv-x="452" 
d="M83 8q-8 8 -8 22v607q0 14 8 22t23 8h273q10 0 17.5 -7.5t7.5 -17.5t-7.5 -17.5t-17.5 -7.5h-248v-250h241q10 0 17.5 -7.5t7.5 -17.5t-7.5 -17.5t-17.5 -7.5h-241v-267h248q10 0 17.5 -7.5t7.5 -17.5t-7.5 -17.5t-17.5 -7.5h-273q-15 0 -23 8zM124 836q-6 6 -6 13
q0 8 6.5 14.5t14.5 6.5q11 0 16 -8l95 -117q4 -6 4 -10q0 -6 -4.5 -10.5t-11.5 -4.5t-11 6z" />
    <glyph glyph-name="Emacron" unicode="&#x112;" horiz-adv-x="452" 
d="M83 8q-8 8 -8 22v607q0 14 8 22t23 8h273q10 0 17.5 -7.5t7.5 -17.5t-7.5 -17.5t-17.5 -7.5h-248v-250h241q10 0 17.5 -7.5t7.5 -17.5t-7.5 -17.5t-17.5 -7.5h-241v-267h248q10 0 17.5 -7.5t7.5 -17.5t-7.5 -17.5t-17.5 -7.5h-273q-15 0 -23 8zM123.5 749.5
q-5.5 5.5 -5.5 12.5q0 8 5.5 13.5t13.5 5.5h211q7 0 13 -5.5t6 -13.5q0 -7 -5.5 -12.5t-13.5 -5.5h-211q-8 0 -13.5 5.5z" />
    <glyph glyph-name="Eogonek" unicode="&#x118;" horiz-adv-x="452" 
d="M396.5 42.5q7.5 -7.5 7.5 -17.5q0 -8 -7 -17q2 -2 -3 -6q-39 -31 -59 -56.5t-20 -50.5q0 -19 10.5 -30t28.5 -11q9 0 17 3t11 3q8 0 13 -5.5t5 -13.5q0 -7 -3.5 -11.5t-8.5 -6.5q-18 -9 -41 -9q-33 0 -56.5 18.5t-23.5 52.5q0 33 25 63.5t64 51.5h-250q-15 0 -23 8t-8 22
v607q0 14 8 22t23 8h273q10 0 17.5 -7.5t7.5 -17.5t-7.5 -17.5t-17.5 -7.5h-248v-250h241q10 0 17.5 -7.5t7.5 -17.5t-7.5 -17.5t-17.5 -7.5h-241v-267h248q10 0 17.5 -7.5z" />
    <glyph glyph-name="Ecaron" unicode="&#x11a;" horiz-adv-x="452" 
d="M83 8q-8 8 -8 22v607q0 14 8 22t23 8h273q10 0 17.5 -7.5t7.5 -17.5t-7.5 -17.5t-17.5 -7.5h-248v-250h241q10 0 17.5 -7.5t7.5 -17.5t-7.5 -17.5t-17.5 -7.5h-241v-267h248q10 0 17.5 -7.5t7.5 -17.5t-7.5 -17.5t-17.5 -7.5h-273q-15 0 -23 8zM338.5 868.5
q4.5 -4.5 4.5 -11.5q0 -3 -1.5 -6t-1.5 -4l-67 -114q-9 -17 -27 -17h-11q-8 0 -15.5 4.5t-11.5 12.5l-65 113q-4 8 -4 11q0 7 5 11.5t11 4.5q9 0 13 -8l73 -111l73 111q4 8 13 8q7 0 11.5 -4.5z" />
    <glyph glyph-name="uni1EB8" unicode="&#x1eb8;" horiz-adv-x="452" 
d="M83 8q-8 8 -8 22v607q0 14 8 22t23 8h273q10 0 17.5 -7.5t7.5 -17.5t-7.5 -17.5t-17.5 -7.5h-248v-250h241q10 0 17.5 -7.5t7.5 -17.5t-7.5 -17.5t-17.5 -7.5h-241v-267h248q10 0 17.5 -7.5t7.5 -17.5t-7.5 -17.5t-17.5 -7.5h-273q-15 0 -23 8zM217 -93q11 11 26 11
t26 -11t11 -26q0 -16 -11 -26.5t-26 -10.5t-26 10.5t-11 26.5q0 15 11 26z" />
    <glyph glyph-name="uni1EBA" unicode="&#x1eba;" horiz-adv-x="452" 
d="M83 8q-8 8 -8 22v607q0 14 8 22t23 8h273q10 0 17.5 -7.5t7.5 -17.5t-7.5 -17.5t-17.5 -7.5h-248v-250h241q10 0 17.5 -7.5t7.5 -17.5t-7.5 -17.5t-17.5 -7.5h-241v-267h248q10 0 17.5 -7.5t7.5 -17.5t-7.5 -17.5t-17.5 -7.5h-273q-15 0 -23 8zM269.5 726q-4.5 5 -4.5 11
q0 2 2 10q15 25 15 53q0 25 -11 37t-30 12q-29 0 -42 -28q-3 -10 -15 -10q-8 0 -13 5.5t-5 12.5l2 9q23 45 73 45q34 0 56 -20.5t22 -61.5q0 -35 -23 -72q-5 -8 -15 -8q-7 0 -11.5 5z" />
    <glyph glyph-name="uni1EBC" unicode="&#x1ebc;" horiz-adv-x="452" 
d="M83 8q-8 8 -8 22v607q0 14 8 22t23 8h273q10 0 17.5 -7.5t7.5 -17.5t-7.5 -17.5t-17.5 -7.5h-248v-250h241q10 0 17.5 -7.5t7.5 -17.5t-7.5 -17.5t-17.5 -7.5h-241v-267h248q10 0 17.5 -7.5t7.5 -17.5t-7.5 -17.5t-17.5 -7.5h-273q-15 0 -23 8zM255.5 736.5
q-13.5 15.5 -26.5 44.5q-9 21 -17.5 32t-21.5 11q-18 0 -30 -21t-14 -63q0 -7 -4.5 -11.5t-11.5 -4.5t-12 5.5t-5 12.5q4 53 24 86t56 33q24 0 37 -15t27 -45q11 -23 18.5 -33t20.5 -10q19 0 31 21t13 63q0 7 5 11.5t11 4.5q7 0 12 -5t5 -13q-3 -53 -23.5 -86t-56.5 -33
q-24 0 -37.5 15.5z" />
    <glyph glyph-name="uni1EBE" unicode="&#x1ebe;" horiz-adv-x="452" 
d="M350 778q-6 0 -10.5 3.5t-4.5 7.5q0 2 4 8l95 87q5 6 16 6q8 0 14.5 -4.5t6.5 -10.5t-6 -10l-103 -83q-4 -4 -12 -4zM244 789l-73 -83q-4 -6 -13 -6q-6 0 -11 3.5t-5 8.5q0 2 4 8l65 85q4 5 11.5 9t15.5 4h11q18 0 27 -13l67 -86q3 -6 3 -7q0 -5 -4.5 -8.5t-11.5 -3.5
q-9 0 -13 6zM83 8q-8 8 -8 22v607q0 14 8 22t23 8h273q10 0 17.5 -7.5t7.5 -17.5t-7.5 -17.5t-17.5 -7.5h-248v-250h241q10 0 17.5 -7.5t7.5 -17.5t-7.5 -17.5t-17.5 -7.5h-241v-267h248q10 0 17.5 -7.5t7.5 -17.5t-7.5 -17.5t-17.5 -7.5h-273q-15 0 -23 8z" />
    <glyph glyph-name="uni1EC0" unicode="&#x1ec0;" horiz-adv-x="452" 
d="M23 865q-6 4 -6 10t6.5 10.5t14.5 4.5q12 0 16 -6l95 -87q4 -6 4 -8q0 -5 -4.5 -8t-11.5 -3t-11 4zM244 789l-73 -83q-4 -6 -13 -6q-6 0 -11 3.5t-5 8.5q0 2 4 8l65 85q4 5 11.5 9t15.5 4h11q18 0 27 -13l67 -86q3 -6 3 -7q0 -5 -4.5 -8.5t-11.5 -3.5q-9 0 -13 6zM83 8
q-8 8 -8 22v607q0 14 8 22t23 8h273q10 0 17.5 -7.5t7.5 -17.5t-7.5 -17.5t-17.5 -7.5h-248v-250h241q10 0 17.5 -7.5t7.5 -17.5t-7.5 -17.5t-17.5 -7.5h-241v-267h248q10 0 17.5 -7.5t7.5 -17.5t-7.5 -17.5t-17.5 -7.5h-273q-15 0 -23 8z" />
    <glyph glyph-name="uni1EC2" unicode="&#x1ec2;" horiz-adv-x="452" 
d="M344.5 781.5q-4.5 3.5 -4.5 8.5q0 1 2 7q15 19 15 40q0 18 -11 27.5t-30 9.5q-28 0 -42 -21q-3 -8 -15 -8q-8 0 -13 4t-5 10l2 6q23 34 73 34q34 0 56 -15.5t22 -45.5q0 -15 -5.5 -27.5t-17.5 -26.5q-4 -6 -15 -6q-7 0 -11.5 3.5zM244 789l-73 -83q-4 -6 -13 -6
q-6 0 -11 3.5t-5 8.5q0 2 4 8l65 85q4 5 11.5 9t15.5 4h11q18 0 27 -13l67 -86q3 -6 3 -7q0 -5 -4.5 -8.5t-11.5 -3.5q-9 0 -13 6zM83 8q-8 8 -8 22v607q0 14 8 22t23 8h273q10 0 17.5 -7.5t7.5 -17.5t-7.5 -17.5t-17.5 -7.5h-248v-250h241q10 0 17.5 -7.5t7.5 -17.5
t-7.5 -17.5t-17.5 -7.5h-241v-267h248q10 0 17.5 -7.5t7.5 -17.5t-7.5 -17.5t-17.5 -7.5h-273q-15 0 -23 8z" />
    <glyph glyph-name="uni1EC4" unicode="&#x1ec4;" horiz-adv-x="452" 
d="M255.5 839.5q-13.5 11.5 -26.5 33.5q-9 16 -17.5 24t-21.5 8q-18 0 -30 -15.5t-14 -47.5q0 -5 -4.5 -8.5t-11.5 -3.5t-12 4t-5 9q4 41 24 65.5t56 24.5q24 0 37 -11.5t27 -33.5q11 -17 18.5 -25t20.5 -8q19 0 31 15.5t13 47.5q0 5 5 8.5t11 3.5q7 0 12 -4t5 -9
q-3 -40 -23.5 -64.5t-56.5 -24.5q-24 0 -37.5 11.5zM244 789l-73 -83q-4 -6 -13 -6q-6 0 -11 3.5t-5 8.5q0 2 4 8l65 85q4 5 11.5 9t15.5 4h11q18 0 27 -13l67 -86q3 -6 3 -7q0 -5 -4.5 -8.5t-11.5 -3.5q-9 0 -13 6zM83 8q-8 8 -8 22v607q0 14 8 22t23 8h273q10 0 17.5 -7.5
t7.5 -17.5t-7.5 -17.5t-17.5 -7.5h-248v-250h241q10 0 17.5 -7.5t7.5 -17.5t-7.5 -17.5t-17.5 -7.5h-241v-267h248q10 0 17.5 -7.5t7.5 -17.5t-7.5 -17.5t-17.5 -7.5h-273q-15 0 -23 8z" />
    <glyph glyph-name="uni1EC6" unicode="&#x1ec6;" horiz-adv-x="452" 
d="M83 8q-8 8 -8 22v607q0 14 8 22t23 8h273q10 0 17.5 -7.5t7.5 -17.5t-7.5 -17.5t-17.5 -7.5h-248v-250h241q10 0 17.5 -7.5t7.5 -17.5t-7.5 -17.5t-17.5 -7.5h-241v-267h248q10 0 17.5 -7.5t7.5 -17.5t-7.5 -17.5t-17.5 -7.5h-273q-15 0 -23 8zM244 835l-73 -111
q-4 -8 -13 -8q-6 0 -11 4.5t-5 11.5q0 3 4 11l65 113q4 8 11.5 12.5t15.5 4.5h11q18 0 27 -17l67 -114q0 -1 1.5 -4t1.5 -6q0 -7 -4.5 -11.5t-11.5 -4.5q-9 0 -13 8zM217 -93q11 11 26 11t26 -11t11 -26q0 -16 -11 -26.5t-26 -10.5t-26 10.5t-11 26.5q0 15 11 26z" />
    <glyph glyph-name="uni1E1E" unicode="&#x1e1e;" horiz-adv-x="441" 
d="M83 5.5q-8 8.5 -8 19.5v612q0 14 8 22t23 8h273q10 0 17.5 -7.5t7.5 -17.5t-7.5 -17.5t-17.5 -7.5h-248v-250h241q10 0 17.5 -7.5t7.5 -17.5t-7.5 -17.5t-17.5 -7.5h-241v-292q0 -11 -8 -19.5t-20 -8.5t-20 8.5zM219 796q11 11 26 11t26 -11t11 -26q0 -16 -11 -26.5
t-26 -10.5t-26 10.5t-11 26.5q0 15 11 26z" />
    <glyph glyph-name="Gcircumflex" unicode="&#x11c;" horiz-adv-x="552" 
d="M484 323q8 -8 8 -22v-198q0 -24 -14 -38q-33 -37 -78.5 -57.5t-97.5 -20.5q-74 0 -130.5 43.5t-87.5 122t-31 180.5t31 180.5t87.5 121.5t130.5 43q57 0 99.5 -24t75.5 -69q5 -8 5 -15q0 -11 -7.5 -18t-18.5 -7q-14 0 -21 11q-52 71 -133 71q-57 0 -100.5 -37.5
t-67 -104.5t-23.5 -152t23.5 -152t67.5 -105t101 -38q43 0 78.5 18.5t56.5 45.5v178h-152q-10 0 -17.5 7.5t-7.5 17.5t7.5 18t17.5 8h176q14 0 22 -8zM303 835l-73 -111q-4 -8 -13 -8q-6 0 -11 4.5t-5 11.5q0 3 4 11l65 113q4 8 11.5 12.5t15.5 4.5h11q18 0 27 -17l67 -114
q0 -1 1.5 -4t1.5 -6q0 -7 -4.5 -11.5t-11.5 -4.5q-9 0 -13 8z" />
    <glyph glyph-name="Gbreve" unicode="&#x11e;" horiz-adv-x="552" 
d="M484 323q8 -8 8 -22v-198q0 -24 -14 -38q-33 -37 -78.5 -57.5t-97.5 -20.5q-74 0 -130.5 43.5t-87.5 122t-31 180.5t31 180.5t87.5 121.5t130.5 43q57 0 99.5 -24t75.5 -69q5 -8 5 -15q0 -11 -7.5 -18t-18.5 -7q-14 0 -21 11q-52 71 -133 71q-57 0 -100.5 -37.5
t-67 -104.5t-23.5 -152t23.5 -152t67.5 -105t101 -38q43 0 78.5 18.5t56.5 45.5v178h-152q-10 0 -17.5 7.5t-7.5 17.5t7.5 18t17.5 8h176q14 0 22 -8zM228 734q-35 16 -62 45q-5 7 -5 13q0 8 5.5 13.5t12.5 5.5q10 0 14 -6q21 -24 49.5 -37t59.5 -13t59 13t48 36q5 7 15 7
q7 0 12.5 -6t5.5 -13q0 -6 -5 -13q-26 -29 -61 -45t-74 -16t-74 16z" />
    <glyph glyph-name="Gdotaccent" unicode="&#x120;" horiz-adv-x="552" 
d="M484 323q8 -8 8 -22v-198q0 -24 -14 -38q-33 -37 -78.5 -57.5t-97.5 -20.5q-74 0 -130.5 43.5t-87.5 122t-31 180.5t31 180.5t87.5 121.5t130.5 43q57 0 99.5 -24t75.5 -69q5 -8 5 -15q0 -11 -7.5 -18t-18.5 -7q-14 0 -21 11q-52 71 -133 71q-57 0 -100.5 -37.5
t-67 -104.5t-23.5 -152t23.5 -152t67.5 -105t101 -38q43 0 78.5 18.5t56.5 45.5v178h-152q-10 0 -17.5 7.5t-7.5 17.5t7.5 18t17.5 8h176q14 0 22 -8zM277 796q11 11 26 11t26 -11t11 -26q0 -16 -11 -26.5t-26 -10.5t-26 10.5t-11 26.5q0 15 11 26z" />
    <glyph glyph-name="uni0122" unicode="&#x122;" horiz-adv-x="552" 
d="M484 323q8 -8 8 -22v-198q0 -24 -14 -38q-33 -37 -78.5 -57.5t-97.5 -20.5q-74 0 -130.5 43.5t-87.5 122t-31 180.5t31 180.5t87.5 121.5t130.5 43q57 0 99.5 -24t75.5 -69q5 -8 5 -15q0 -11 -7.5 -18t-18.5 -7q-14 0 -21 11q-52 71 -133 71q-57 0 -100.5 -37.5
t-67 -104.5t-23.5 -152t23.5 -152t67.5 -105t101 -38q43 0 78.5 18.5t56.5 45.5v178h-152q-10 0 -17.5 7.5t-7.5 17.5t7.5 18t17.5 8h176q14 0 22 -8zM265 -258q-5 5 -5 12q0 8 9 15q17 17 28 38t12 40q-1 -1 -3.5 -1.5t-5.5 -0.5q-16 0 -26 11t-10 27t11 27.5t27 11.5
q19 0 32 -16t13 -43q0 -35 -16 -67t-41 -53q-6 -6 -13 -6t-12 5z" />
    <glyph glyph-name="Gcaron" unicode="&#x1e6;" horiz-adv-x="552" 
d="M484 323q8 -8 8 -22v-198q0 -24 -14 -38q-33 -37 -78.5 -57.5t-97.5 -20.5q-74 0 -130.5 43.5t-87.5 122t-31 180.5t31 180.5t87.5 121.5t130.5 43q57 0 99.5 -24t75.5 -69q5 -8 5 -15q0 -11 -7.5 -18t-18.5 -7q-14 0 -21 11q-52 71 -133 71q-57 0 -100.5 -37.5
t-67 -104.5t-23.5 -152t23.5 -152t67.5 -105t101 -38q43 0 78.5 18.5t56.5 45.5v178h-152q-10 0 -17.5 7.5t-7.5 17.5t7.5 18t17.5 8h176q14 0 22 -8zM397.5 868.5q4.5 -4.5 4.5 -11.5q0 -3 -1.5 -6t-1.5 -4l-67 -114q-9 -17 -27 -17h-11q-8 0 -15.5 4.5t-11.5 12.5l-65 113
q-4 8 -4 11q0 7 5 11.5t11 4.5q9 0 13 -8l73 -111l73 111q4 8 13 8q7 0 11.5 -4.5z" />
    <glyph glyph-name="Gcircumflex.alt1" horiz-adv-x="570" 
d="M528 292q-6 -144 -63.5 -224.5t-164.5 -80.5q-73 0 -129 43.5t-87 122t-31 180.5t31 180.5t87.5 121.5t130.5 43q57 0 99.5 -24t75.5 -69q5 -8 5 -15q0 -11 -7.5 -18t-18.5 -7q-14 0 -21 11q-52 71 -133 71q-57 0 -100.5 -37.5t-67 -104.5t-23.5 -152t23.5 -152t67 -105
t100.5 -38q79 0 121 69t48 173h-185q-10 0 -17.5 7.5t-7.5 17.5t7.5 18t17.5 8h213q32 0 29 -39zM303 835l-73 -111q-4 -8 -13 -8q-6 0 -11 4.5t-5 11.5q0 3 4 11l65 113q4 8 11.5 12.5t15.5 4.5h11q18 0 27 -17l67 -114q0 -1 1.5 -4t1.5 -6q0 -7 -4.5 -11.5t-11.5 -4.5
q-9 0 -13 8z" />
    <glyph glyph-name="Gbreve.alt1" horiz-adv-x="570" 
d="M528 292q-6 -144 -63.5 -224.5t-164.5 -80.5q-73 0 -129 43.5t-87 122t-31 180.5t31 180.5t87.5 121.5t130.5 43q57 0 99.5 -24t75.5 -69q5 -8 5 -15q0 -11 -7.5 -18t-18.5 -7q-14 0 -21 11q-52 71 -133 71q-57 0 -100.5 -37.5t-67 -104.5t-23.5 -152t23.5 -152t67 -105
t100.5 -38q79 0 121 69t48 173h-185q-10 0 -17.5 7.5t-7.5 17.5t7.5 18t17.5 8h213q32 0 29 -39zM228 734q-35 16 -62 45q-5 7 -5 13q0 8 5.5 13.5t12.5 5.5q10 0 14 -6q21 -24 49.5 -37t59.5 -13t59 13t48 36q5 7 15 7q7 0 12.5 -6t5.5 -13q0 -6 -5 -13q-26 -29 -61 -45
t-74 -16t-74 16z" />
    <glyph glyph-name="Gdotaccent.alt1" horiz-adv-x="570" 
d="M528 292q-6 -144 -63.5 -224.5t-164.5 -80.5q-73 0 -129 43.5t-87 122t-31 180.5t31 180.5t87.5 121.5t130.5 43q57 0 99.5 -24t75.5 -69q5 -8 5 -15q0 -11 -7.5 -18t-18.5 -7q-14 0 -21 11q-52 71 -133 71q-57 0 -100.5 -37.5t-67 -104.5t-23.5 -152t23.5 -152t67 -105
t100.5 -38q79 0 121 69t48 173h-185q-10 0 -17.5 7.5t-7.5 17.5t7.5 18t17.5 8h213q32 0 29 -39zM277 796q11 11 26 11t26 -11t11 -26q0 -16 -11 -26.5t-26 -10.5t-26 10.5t-11 26.5q0 15 11 26z" />
    <glyph glyph-name="Gcommaaccent.alt1" horiz-adv-x="570" 
d="M528 292q-6 -144 -63.5 -224.5t-164.5 -80.5q-73 0 -129 43.5t-87 122t-31 180.5t31 180.5t87.5 121.5t130.5 43q57 0 99.5 -24t75.5 -69q5 -8 5 -15q0 -11 -7.5 -18t-18.5 -7q-14 0 -21 11q-52 71 -133 71q-57 0 -100.5 -37.5t-67 -104.5t-23.5 -152t23.5 -152t67 -105
t100.5 -38q79 0 121 69t48 173h-185q-10 0 -17.5 7.5t-7.5 17.5t7.5 18t17.5 8h213q32 0 29 -39zM265 -258q-5 5 -5 12q0 8 9 15q17 17 28 38t12 40q-1 -1 -3.5 -1.5t-5.5 -0.5q-16 0 -26 11t-10 27t11 27.5t27 11.5q19 0 32 -16t13 -43q0 -35 -16 -67t-41 -53q-6 -6 -13 -6
t-12 5z" />
    <glyph glyph-name="Gcaron.alt1" horiz-adv-x="570" 
d="M528 292q-6 -144 -63.5 -224.5t-164.5 -80.5q-73 0 -129 43.5t-87 122t-31 180.5t31 180.5t87.5 121.5t130.5 43q57 0 99.5 -24t75.5 -69q5 -8 5 -15q0 -11 -7.5 -18t-18.5 -7q-14 0 -21 11q-52 71 -133 71q-57 0 -100.5 -37.5t-67 -104.5t-23.5 -152t23.5 -152t67 -105
t100.5 -38q79 0 121 69t48 173h-185q-10 0 -17.5 7.5t-7.5 17.5t7.5 18t17.5 8h213q32 0 29 -39zM397.5 868.5q4.5 -4.5 4.5 -11.5q0 -3 -1.5 -6t-1.5 -4l-67 -114q-9 -17 -27 -17h-11q-8 0 -15.5 4.5t-11.5 12.5l-65 113q-4 8 -4 11q0 7 5 11.5t11 4.5q9 0 13 -8l73 -111
l73 111q4 8 13 8q7 0 11.5 -4.5z" />
    <glyph glyph-name="Hbar" unicode="&#x126;" horiz-adv-x="593" 
d="M573.5 531.5q5.5 -5.5 5.5 -12.5t-5.5 -13t-13.5 -6h-58v-475q0 -11 -8.5 -19.5t-19.5 -8.5q-12 0 -20 8.5t-8 19.5v293h-298v-293q0 -11 -8 -19.5t-20 -8.5q-11 0 -19 8.5t-8 19.5v475h-60q-7 0 -13 6t-6 13t5.5 12.5t13.5 5.5h60v105q0 11 8 19.5t19 8.5q12 0 20 -8.5
t8 -19.5v-105h298v105q0 11 8 19.5t20 8.5q11 0 19.5 -8.5t8.5 -19.5v-105h58q8 0 13.5 -5.5zM446 368v132h-298v-132h298z" />
    <glyph glyph-name="Hcircumflex" unicode="&#x124;" horiz-adv-x="559" 
d="M437 5.5q-8 8.5 -8 19.5v293h-298v-293q0 -11 -8 -19.5t-20 -8.5t-20 8.5t-8 19.5v617q0 11 8 19.5t20 8.5t20 -8.5t8 -19.5v-274h298v274q0 11 8 19.5t20 8.5q11 0 19 -8.5t8 -19.5v-617q0 -11 -8 -19.5t-20 -8.5q-11 0 -19 8.5zM281 835l-73 -111q-4 -8 -13 -8
q-6 0 -11 4.5t-5 11.5q0 3 4 11l65 113q4 8 11.5 12.5t15.5 4.5h11q18 0 27 -17l67 -114q0 -1 1.5 -4t1.5 -6q0 -7 -4.5 -11.5t-11.5 -4.5q-9 0 -13 8z" />
    <glyph glyph-name="uni1E22" unicode="&#x1e22;" horiz-adv-x="559" 
d="M437 5.5q-8 8.5 -8 19.5v293h-298v-293q0 -11 -8 -19.5t-20 -8.5t-20 8.5t-8 19.5v617q0 11 8 19.5t20 8.5t20 -8.5t8 -19.5v-274h298v274q0 11 8 19.5t20 8.5q11 0 19 -8.5t8 -19.5v-617q0 -11 -8 -19.5t-20 -8.5q-11 0 -19 8.5zM255 796q11 11 26 11t26 -11t11 -26
q0 -16 -11 -26.5t-26 -10.5t-26 10.5t-11 26.5q0 15 11 26z" />
    <glyph glyph-name="Iacute" unicode="&#xcd;" horiz-adv-x="206" 
d="M83 5.5q-8 8.5 -8 19.5v617q0 11 8 19.5t20 8.5t20 -8.5t8 -19.5v-617q0 -11 -8 -19.5t-20 -8.5t-20 8.5zM108 720q-6 0 -10.5 4.5t-4.5 10.5q0 4 4 10l95 117q5 8 16 8q8 0 14.5 -6.5t6.5 -14.5q0 -7 -6 -13l-103 -110q-4 -6 -12 -6z" />
    <glyph glyph-name="Ibreve" unicode="&#x12c;" horiz-adv-x="206" 
d="M83 5.5q-8 8.5 -8 19.5v617q0 11 8 19.5t20 8.5t20 -8.5t8 -19.5v-617q0 -11 -8 -19.5t-20 -8.5t-20 8.5zM29 734q-35 16 -62 45q-5 7 -5 13q0 8 5.5 13.5t12.5 5.5q10 0 14 -6q21 -24 49.5 -37t59.5 -13t59 13t48 36q5 7 15 7q7 0 12.5 -6t5.5 -13q0 -6 -5 -13
q-26 -29 -61 -45t-74 -16t-74 16z" />
    <glyph glyph-name="Icircumflex" unicode="&#xce;" horiz-adv-x="206" 
d="M83 5.5q-8 8.5 -8 19.5v617q0 11 8 19.5t20 8.5t20 -8.5t8 -19.5v-617q0 -11 -8 -19.5t-20 -8.5t-20 8.5zM104 835l-73 -111q-4 -8 -13 -8q-6 0 -11 4.5t-5 11.5q0 3 4 11l65 113q4 8 11.5 12.5t15.5 4.5h11q18 0 27 -17l67 -114q0 -1 1.5 -4t1.5 -6q0 -7 -4.5 -11.5
t-11.5 -4.5q-9 0 -13 8z" />
    <glyph glyph-name="Idieresis" unicode="&#xcf;" horiz-adv-x="206" 
d="M83 5.5q-8 8.5 -8 19.5v617q0 11 8 19.5t20 8.5t20 -8.5t8 -19.5v-617q0 -11 -8 -19.5t-20 -8.5t-20 8.5zM-7 746.5q-11 10.5 -11 25.5t11 26t26 11t25.5 -11t10.5 -26t-10.5 -25.5t-25.5 -10.5t-26 10.5zM161 746.5q-11 10.5 -11 25.5t11 26t26 11t25.5 -11t10.5 -26
t-10.5 -25.5t-25.5 -10.5t-26 10.5z" />
    <glyph glyph-name="Idotaccent" unicode="&#x130;" horiz-adv-x="206" 
d="M83 5.5q-8 8.5 -8 19.5v617q0 11 8 19.5t20 8.5t20 -8.5t8 -19.5v-617q0 -11 -8 -19.5t-20 -8.5t-20 8.5zM78 796q11 11 26 11t26 -11t11 -26q0 -16 -11 -26.5t-26 -10.5t-26 10.5t-11 26.5q0 15 11 26z" />
    <glyph glyph-name="Igrave" unicode="&#xcc;" horiz-adv-x="206" 
d="M83 5.5q-8 8.5 -8 19.5v617q0 11 8 19.5t20 8.5t20 -8.5t8 -19.5v-617q0 -11 -8 -19.5t-20 -8.5t-20 8.5zM-16 836q-6 6 -6 13q0 8 6.5 14.5t14.5 6.5q11 0 16 -8l95 -117q4 -6 4 -10q0 -6 -4.5 -10.5t-11.5 -4.5t-11 6z" />
    <glyph glyph-name="Imacron" unicode="&#x12a;" horiz-adv-x="206" 
d="M83 5.5q-8 8.5 -8 19.5v617q0 11 8 19.5t20 8.5t20 -8.5t8 -19.5v-617q0 -11 -8 -19.5t-20 -8.5t-20 8.5zM-16.5 749.5q-5.5 5.5 -5.5 12.5q0 8 5.5 13.5t13.5 5.5h211q7 0 13 -5.5t6 -13.5q0 -7 -5.5 -12.5t-13.5 -5.5h-211q-8 0 -13.5 5.5z" />
    <glyph glyph-name="Iogonek" unicode="&#x12e;" horiz-adv-x="206" 
d="M131 25q0 -9 -5 -16q5 -3 -2 -7q-39 -31 -59 -56.5t-20 -50.5q0 -19 10.5 -30t28.5 -11q9 0 17 3t11 3q8 0 13 -5.5t5 -13.5q0 -7 -3.5 -11.5t-8.5 -6.5q-18 -9 -41 -9q-33 0 -56.5 18.5t-23.5 52.5t25.5 64.5t65.5 51.5q-13 8 -13 24v617q0 11 8 19.5t20 8.5t20 -8.5
t8 -19.5v-617z" />
    <glyph glyph-name="Itilde" unicode="&#x128;" horiz-adv-x="206" 
d="M83 5.5q-8 8.5 -8 19.5v617q0 11 8 19.5t20 8.5t20 -8.5t8 -19.5v-617q0 -11 -8 -19.5t-20 -8.5t-20 8.5zM115.5 736.5q-13.5 15.5 -26.5 44.5q-9 21 -17.5 32t-21.5 11q-18 0 -30 -21t-14 -63q0 -7 -4.5 -11.5t-11.5 -4.5t-12 5.5t-5 12.5q4 53 24 86t56 33q24 0 37 -15
t27 -45q11 -23 18.5 -33t20.5 -10q19 0 31 21t13 63q0 7 5 11.5t11 4.5q7 0 12 -5t5 -13q-3 -53 -23.5 -86t-56.5 -33q-24 0 -37.5 15.5z" />
    <glyph glyph-name="uni1EC8" unicode="&#x1ec8;" horiz-adv-x="206" 
d="M83 5.5q-8 8.5 -8 19.5v617q0 11 8 19.5t20 8.5t20 -8.5t8 -19.5v-617q0 -11 -8 -19.5t-20 -8.5t-20 8.5zM129.5 726q-4.5 5 -4.5 11q0 2 2 10q15 25 15 53q0 25 -11 37t-30 12q-29 0 -42 -28q-3 -10 -15 -10q-8 0 -13 5.5t-5 12.5l2 9q23 45 73 45q34 0 56 -20.5
t22 -61.5q0 -35 -23 -72q-5 -8 -15 -8q-7 0 -11.5 5z" />
    <glyph glyph-name="uni1ECA" unicode="&#x1eca;" horiz-adv-x="206" 
d="M83 5.5q-8 8.5 -8 19.5v617q0 11 8 19.5t20 8.5t20 -8.5t8 -19.5v-617q0 -11 -8 -19.5t-20 -8.5t-20 8.5zM77 -93q11 11 26 11t26 -11t11 -26q0 -16 -11 -26.5t-26 -10.5t-26 10.5t-11 26.5q0 15 11 26z" />
    <glyph glyph-name="IJ" unicode="&#x132;" horiz-adv-x="596" 
d="M306.5 661.5q8.5 -8.5 8.5 -19.5v-480q0 -86 -46 -130t-121 -44q-37 0 -67 12t-56 38q-10 10 -10 20q0 11 8 19t19 8q10 0 16 -6q5 -6 17 -16v579q0 11 8 19.5t20 8.5t20 -8.5t8 -19.5v-602q5 -1 14 -1q54 0 84 32.5t30 91.5v479q0 11 8 19.5t20 8.5q11 0 19.5 -8.5z" />
    <glyph glyph-name="Iacute_J.loclNLD" horiz-adv-x="596" 
d="M612.5 880.5q6.5 -6.5 6.5 -14.5q0 -7 -6 -13l-103 -110q-4 -6 -12 -6q-6 0 -10.5 4.5t-4.5 10.5q0 4 4 10l95 117q5 8 16 8q8 0 14.5 -6.5zM97.5 724.5q-4.5 4.5 -4.5 10.5q0 4 4 10l95 117q5 8 16 8q8 0 14.5 -6.5t6.5 -14.5q0 -7 -6 -13l-103 -110q-4 -6 -12 -6
q-6 0 -10.5 4.5zM306.5 661.5q8.5 -8.5 8.5 -19.5v-480q0 -86 -46 -130t-121 -44q-37 0 -67 12t-56 38q-10 10 -10 20q0 11 8 19t19 8q10 0 16 -6q5 -6 17 -16v579q0 11 8 19.5t20 8.5t20 -8.5t8 -19.5v-602q5 -1 14 -1q54 0 84 32.5t30 91.5v479q0 11 8 19.5t20 8.5
q11 0 19.5 -8.5z" />
    <glyph glyph-name="Jcircumflex" unicode="&#x134;" horiz-adv-x="390" 
d="M15 58q0 11 8 19t19 8q10 0 16 -6q37 -40 87 -40q54 0 84 32.5t30 91.5v479q0 11 8 19.5t20 8.5q11 0 19.5 -8.5t8.5 -19.5v-480q0 -86 -46 -130t-121 -44q-37 0 -67 12t-56 38q-10 10 -10 20zM288 852l-73 -111q-4 -8 -13 -8q-6 0 -11 4.5t-5 11.5q0 3 4 11l65 113
q4 8 11.5 12.5t15.5 4.5h11q18 0 27 -17l67 -114q0 -1 1.5 -4t1.5 -6q0 -7 -4.5 -11.5t-11.5 -4.5q-9 0 -13 8z" />
    <glyph glyph-name="uni0136" unicode="&#x136;" horiz-adv-x="490" 
d="M454 25q0 -11 -8 -19.5t-20 -8.5q-13 0 -22 12l-213 299l-60 -83v-200q0 -11 -8 -19.5t-20 -8.5t-20 8.5t-8 19.5v617q0 11 8 19.5t20 8.5t20 -8.5t8 -19.5v-340l253 356q8 12 22 12q11 0 19.5 -8t8.5 -19q0 -8 -6 -16l-205 -279l225 -308q6 -8 6 -15zM223 -258
q-5 5 -5 12q0 8 9 15q17 17 28 38t12 40q-1 -1 -3.5 -1.5t-5.5 -0.5q-16 0 -26 11t-10 27t11 27.5t27 11.5q19 0 32 -16t13 -43q0 -35 -16 -67t-41 -53q-6 -6 -13 -6t-12 5z" />
    <glyph glyph-name="Lacute" unicode="&#x139;" horiz-adv-x="412" 
d="M83 8q-8 8 -8 22v612q0 11 8 19.5t20 8.5t20 -8.5t8 -19.5v-592h227q10 0 17.5 -7.5t7.5 -17.5t-7.5 -17.5t-17.5 -7.5h-252q-15 0 -23 8zM108 720q-6 0 -10.5 4.5t-4.5 10.5q0 4 4 10l95 117q5 8 16 8q8 0 14.5 -6.5t6.5 -14.5q0 -7 -6 -13l-103 -110q-4 -6 -12 -6z" />
    <glyph glyph-name="Lcaron" unicode="&#x13d;" horiz-adv-x="412" 
d="M83 8q-8 8 -8 22v612q0 11 8 19.5t20 8.5t20 -8.5t8 -19.5v-592h227q10 0 17.5 -7.5t7.5 -17.5t-7.5 -17.5t-17.5 -7.5h-252q-15 0 -23 8zM212 499q-5 5 -5 12q0 8 9 15q17 17 28 38t12 40q-1 -1 -3.5 -1.5t-5.5 -0.5q-16 0 -26 11t-10 27t11 27.5t27 11.5q19 0 32 -16
t13 -43q0 -35 -16 -67t-41 -53q-6 -6 -13 -6t-12 5z" />
    <glyph glyph-name="uni013B" unicode="&#x13b;" horiz-adv-x="412" 
d="M83 8q-8 8 -8 22v612q0 11 8 19.5t20 8.5t20 -8.5t8 -19.5v-592h227q10 0 17.5 -7.5t7.5 -17.5t-7.5 -17.5t-17.5 -7.5h-252q-15 0 -23 8zM191 -258q-5 5 -5 12q0 8 9 15q17 17 28 38t12 40q-1 -1 -3.5 -1.5t-5.5 -0.5q-16 0 -26 11t-10 27t11 27.5t27 11.5q19 0 32 -16
t13 -43q0 -35 -16 -67t-41 -53q-6 -6 -13 -6t-12 5z" />
    <glyph glyph-name="Ldot" unicode="&#x13f;" horiz-adv-x="419" 
d="M83 8q-8 8 -8 22v612q0 11 8 19.5t20 8.5t20 -8.5t8 -19.5v-592h227q10 0 17.5 -7.5t7.5 -17.5t-7.5 -17.5t-17.5 -7.5h-252q-15 0 -23 8zM278.5 311.5q-12.5 12.5 -12.5 30.5q0 17 12.5 29.5t30.5 12.5t30.5 -12.5t12.5 -29.5q0 -18 -12.5 -30.5t-30.5 -12.5t-30.5 12.5
z" />
    <glyph glyph-name="Lslash" unicode="&#x141;" horiz-adv-x="430" 
d="M393.5 42.5q7.5 -7.5 7.5 -17.5t-7.5 -17.5t-17.5 -7.5h-252q-15 0 -23 8t-8 22v260l-45 -26q-9 -3 -11 -3q-9 0 -16 6.5t-7 16.5q0 11 12 19l67 39v300q0 11 8 19.5t20 8.5t20 -8.5t8 -19.5v-268l53 31q4 3 11 3q9 0 15.5 -6.5t6.5 -16.5q0 -11 -12 -18l-74 -44v-273
h227q10 0 17.5 -7.5z" />
    <glyph glyph-name="Nacute" unicode="&#x143;" horiz-adv-x="557" 
d="M432 2q-8 5 -11 13l-290 540v-530q0 -11 -8 -19.5t-20 -8.5t-20 8.5t-8 19.5v611q0 14 10 24t24 10q10 0 18 -5t12 -13l287 -531v521q0 11 8.5 19.5t19.5 8.5q12 0 20 -8.5t8 -19.5v-612q0 -14 -9.5 -23.5t-22.5 -9.5q-10 0 -18 5zM284 720q-6 0 -10.5 4.5t-4.5 10.5
q0 4 4 10l95 117q5 8 16 8q8 0 14.5 -6.5t6.5 -14.5q0 -7 -6 -13l-103 -110q-4 -6 -12 -6z" />
    <glyph glyph-name="Ncaron" unicode="&#x147;" horiz-adv-x="557" 
d="M432 2q-8 5 -11 13l-290 540v-530q0 -11 -8 -19.5t-20 -8.5t-20 8.5t-8 19.5v611q0 14 10 24t24 10q10 0 18 -5t12 -13l287 -531v521q0 11 8.5 19.5t19.5 8.5q12 0 20 -8.5t8 -19.5v-612q0 -14 -9.5 -23.5t-22.5 -9.5q-10 0 -18 5zM374.5 868.5q4.5 -4.5 4.5 -11.5
q0 -3 -1.5 -6t-1.5 -4l-67 -114q-9 -17 -27 -17h-11q-8 0 -15.5 4.5t-11.5 12.5l-65 113q-4 8 -4 11q0 7 5 11.5t11 4.5q9 0 13 -8l73 -111l73 111q4 8 13 8q7 0 11.5 -4.5z" />
    <glyph glyph-name="uni0145" unicode="&#x145;" horiz-adv-x="557" 
d="M432 2q-8 5 -11 13l-290 540v-530q0 -11 -8 -19.5t-20 -8.5t-20 8.5t-8 19.5v611q0 14 10 24t24 10q10 0 18 -5t12 -13l287 -531v521q0 11 8.5 19.5t19.5 8.5q12 0 20 -8.5t8 -19.5v-612q0 -14 -9.5 -23.5t-22.5 -9.5q-10 0 -18 5zM239 -258q-5 5 -5 12q0 8 9 15
q17 17 28 38t12 40q-1 -1 -3.5 -1.5t-5.5 -0.5q-16 0 -26 11t-10 27t11 27.5t27 11.5q19 0 32 -16t13 -43q0 -35 -16 -67t-41 -53q-6 -6 -13 -6t-12 5z" />
    <glyph glyph-name="Ntilde" unicode="&#xd1;" horiz-adv-x="557" 
d="M432 2q-8 5 -11 13l-290 540v-530q0 -11 -8 -19.5t-20 -8.5t-20 8.5t-8 19.5v611q0 14 10 24t24 10q10 0 18 -5t12 -13l287 -531v521q0 11 8.5 19.5t19.5 8.5q12 0 20 -8.5t8 -19.5v-612q0 -14 -9.5 -23.5t-22.5 -9.5q-10 0 -18 5zM291.5 736.5q-13.5 15.5 -26.5 44.5
q-9 21 -17.5 32t-21.5 11q-18 0 -30 -21t-14 -63q0 -7 -4.5 -11.5t-11.5 -4.5t-12 5.5t-5 12.5q4 53 24 86t56 33q24 0 37 -15t27 -45q11 -23 18.5 -33t20.5 -10q19 0 31 21t13 63q0 7 5 11.5t11 4.5q7 0 12 -5t5 -13q-3 -53 -23.5 -86t-56.5 -33q-24 0 -37.5 15.5z" />
    <glyph glyph-name="uni019D" unicode="&#x19d;" horiz-adv-x="557" 
d="M434.5 661.5q8.5 8.5 19.5 8.5q12 0 20 -8.5t8 -19.5v-612q0 -14 -9.5 -23.5t-22.5 -9.5q-10 0 -18 5t-11 13l-290 540v-577q0 -86 -46 -130t-121 -44q-15 0 -23 2q-10 1 -16.5 8t-6.5 17t6.5 17.5t16.5 7.5l21 -1q53 0 83 32.5t30 91.5v657q0 14 10 24t24 10q10 0 18 -5
t12 -13l287 -531v521q0 11 8.5 19.5z" />
    <glyph glyph-name="Eng" unicode="&#x14a;" horiz-adv-x="557" 
d="M474 661.5q8 -8.5 8 -19.5v-665q0 -86 -46 -129.5t-121 -43.5q-36 0 -66 12t-57 38q-9 9 -9 20t7.5 18.5t18.5 7.5q9 0 16 -5q38 -41 87 -41q54 0 84 32t29 92v25l-294 552v-530q0 -11 -8 -19.5t-20 -8.5t-20 8.5t-8 19.5v611q0 14 10 24t24 10q10 0 18 -5t12 -13
l287 -531v521q0 11 8.5 19.5t19.5 8.5q12 0 20 -8.5z" />
    <glyph glyph-name="Oacute" unicode="&#xd3;" horiz-adv-x="590" 
d="M81 508.5q28 78.5 83 124t131 45.5t130.5 -45.5t83 -124t28.5 -175.5t-28.5 -175.5t-83 -124t-130.5 -45.5t-131 45.5t-83 124t-28 175.5t28 175.5zM456.5 483q-21.5 67 -63 105.5t-98.5 38.5q-58 0 -99.5 -38.5t-63 -105.5t-21.5 -150q0 -82 21.5 -149t63 -106t99.5 -39
q57 0 98.5 39t63 106t21.5 149q0 83 -21.5 150zM299 720q-6 0 -10.5 4.5t-4.5 10.5q0 4 4 10l95 117q5 8 16 8q8 0 14.5 -6.5t6.5 -14.5q0 -7 -6 -13l-103 -110q-4 -6 -12 -6z" />
    <glyph glyph-name="Obreve" unicode="&#x14e;" horiz-adv-x="590" 
d="M81 508.5q28 78.5 83 124t131 45.5t130.5 -45.5t83 -124t28.5 -175.5t-28.5 -175.5t-83 -124t-130.5 -45.5t-131 45.5t-83 124t-28 175.5t28 175.5zM456.5 483q-21.5 67 -63 105.5t-98.5 38.5q-58 0 -99.5 -38.5t-63 -105.5t-21.5 -150q0 -82 21.5 -149t63 -106t99.5 -39
q57 0 98.5 39t63 106t21.5 149q0 83 -21.5 150zM221 734q-35 16 -62 45q-5 7 -5 13q0 8 5.5 13.5t12.5 5.5q10 0 14 -6q21 -24 49.5 -37t59.5 -13t59 13t48 36q5 7 15 7q7 0 12.5 -6t5.5 -13q0 -6 -5 -13q-26 -29 -61 -45t-74 -16t-74 16z" />
    <glyph glyph-name="Ocircumflex" unicode="&#xd4;" horiz-adv-x="590" 
d="M81 508.5q28 78.5 83 124t131 45.5t130.5 -45.5t83 -124t28.5 -175.5t-28.5 -175.5t-83 -124t-130.5 -45.5t-131 45.5t-83 124t-28 175.5t28 175.5zM456.5 483q-21.5 67 -63 105.5t-98.5 38.5q-58 0 -99.5 -38.5t-63 -105.5t-21.5 -150q0 -82 21.5 -149t63 -106t99.5 -39
q57 0 98.5 39t63 106t21.5 149q0 83 -21.5 150zM296 835l-73 -111q-4 -8 -13 -8q-6 0 -11 4.5t-5 11.5q0 3 4 11l65 113q4 8 11.5 12.5t15.5 4.5h11q18 0 27 -17l67 -114q0 -1 1.5 -4t1.5 -6q0 -7 -4.5 -11.5t-11.5 -4.5q-9 0 -13 8z" />
    <glyph glyph-name="Odieresis" unicode="&#xd6;" horiz-adv-x="590" 
d="M81 508.5q28 78.5 83 124t131 45.5t130.5 -45.5t83 -124t28.5 -175.5t-28.5 -175.5t-83 -124t-130.5 -45.5t-131 45.5t-83 124t-28 175.5t28 175.5zM456.5 483q-21.5 67 -63 105.5t-98.5 38.5q-58 0 -99.5 -38.5t-63 -105.5t-21.5 -150q0 -82 21.5 -149t63 -106t99.5 -39
q57 0 98.5 39t63 106t21.5 149q0 83 -21.5 150zM185 746.5q-11 10.5 -11 25.5t11 26t26 11t25.5 -11t10.5 -26t-10.5 -25.5t-25.5 -10.5t-26 10.5zM353 746.5q-11 10.5 -11 25.5t11 26t26 11t25.5 -11t10.5 -26t-10.5 -25.5t-25.5 -10.5t-26 10.5z" />
    <glyph glyph-name="Ograve" unicode="&#xd2;" horiz-adv-x="590" 
d="M81 508.5q28 78.5 83 124t131 45.5t130.5 -45.5t83 -124t28.5 -175.5t-28.5 -175.5t-83 -124t-130.5 -45.5t-131 45.5t-83 124t-28 175.5t28 175.5zM456.5 483q-21.5 67 -63 105.5t-98.5 38.5q-58 0 -99.5 -38.5t-63 -105.5t-21.5 -150q0 -82 21.5 -149t63 -106t99.5 -39
q57 0 98.5 39t63 106t21.5 149q0 83 -21.5 150zM176 836q-6 6 -6 13q0 8 6.5 14.5t14.5 6.5q11 0 16 -8l95 -117q4 -6 4 -10q0 -6 -4.5 -10.5t-11.5 -4.5t-11 6z" />
    <glyph glyph-name="Ohungarumlaut" unicode="&#x150;" horiz-adv-x="590" 
d="M81 508.5q28 78.5 83 124t131 45.5t130.5 -45.5t83 -124t28.5 -175.5t-28.5 -175.5t-83 -124t-130.5 -45.5t-131 45.5t-83 124t-28 175.5t28 175.5zM456.5 483q-21.5 67 -63 105.5t-98.5 38.5q-58 0 -99.5 -38.5t-63 -105.5t-21.5 -150q0 -82 21.5 -149t63 -106t99.5 -39
q57 0 98.5 39t63 106t21.5 149q0 83 -21.5 150zM222.5 722q-4.5 4 -4.5 10q0 5 4 12l63 116q7 12 19 12q8 0 14.5 -6t6.5 -15q0 -4 -4 -12l-75 -113q-5 -8 -13 -8q-6 0 -10.5 4zM347.5 722q-4.5 4 -4.5 10q0 2 4 12l63 116q7 12 19 12q8 0 14.5 -6t6.5 -15q0 -7 -4 -12
l-75 -113q-5 -8 -13 -8q-6 0 -10.5 4z" />
    <glyph glyph-name="Omacron" unicode="&#x14c;" horiz-adv-x="590" 
d="M81 508.5q28 78.5 83 124t131 45.5t130.5 -45.5t83 -124t28.5 -175.5t-28.5 -175.5t-83 -124t-130.5 -45.5t-131 45.5t-83 124t-28 175.5t28 175.5zM456.5 483q-21.5 67 -63 105.5t-98.5 38.5q-58 0 -99.5 -38.5t-63 -105.5t-21.5 -150q0 -82 21.5 -149t63 -106t99.5 -39
q57 0 98.5 39t63 106t21.5 149q0 83 -21.5 150zM174.5 749.5q-5.5 5.5 -5.5 12.5q0 8 5.5 13.5t13.5 5.5h211q7 0 13 -5.5t6 -13.5q0 -7 -5.5 -12.5t-13.5 -5.5h-211q-8 0 -13.5 5.5z" />
    <glyph glyph-name="Oslash" unicode="&#xd8;" horiz-adv-x="590" 
d="M516 486q21 -70 21 -153q0 -97 -28.5 -175.5t-83 -124t-130.5 -45.5q-74 0 -131 46l-13 -26q-5 -11 -18 -11q-8 0 -14 6.5t-6 14.5q0 5 3 11l18 35q-39 47 -60 117t-21 152q0 97 28 175.5t83 124t131 45.5q74 0 129 -44l13 25q6 11 18 11q8 0 14 -6.5t6 -14.5
q0 -7 -3 -13l-17 -33q40 -47 61 -117zM124 214.5q13 -55.5 38 -95.5l237 465q-45 43 -104 43q-58 0 -99.5 -38.5t-63 -105.5t-21.5 -150q0 -63 13 -118.5zM393.5 78q41.5 39 63 106t21.5 149q0 64 -13 119.5t-38 95.5l-237 -464q43 -45 105 -45q57 0 98.5 39z" />
    <glyph glyph-name="Oslashacute" unicode="&#x1fe;" horiz-adv-x="590" 
d="M516 486q21 -70 21 -153q0 -97 -28.5 -175.5t-83 -124t-130.5 -45.5q-74 0 -131 46l-13 -26q-5 -11 -18 -11q-8 0 -14 6.5t-6 14.5q0 5 3 11l18 35q-39 47 -60 117t-21 152q0 97 28 175.5t83 124t131 45.5q74 0 129 -44l13 25q6 11 18 11q8 0 14 -6.5t6 -14.5
q0 -7 -3 -13l-17 -33q40 -47 61 -117zM124 214.5q13 -55.5 38 -95.5l237 465q-45 43 -104 43q-58 0 -99.5 -38.5t-63 -105.5t-21.5 -150q0 -63 13 -118.5zM393.5 78q41.5 39 63 106t21.5 149q0 64 -13 119.5t-38 95.5l-237 -464q43 -45 105 -45q57 0 98.5 39zM299 720
q-6 0 -10.5 4.5t-4.5 10.5q0 4 4 10l95 117q5 8 16 8q8 0 14.5 -6.5t6.5 -14.5q0 -7 -6 -13l-103 -110q-4 -6 -12 -6z" />
    <glyph glyph-name="Otilde" unicode="&#xd5;" horiz-adv-x="590" 
d="M81 508.5q28 78.5 83 124t131 45.5t130.5 -45.5t83 -124t28.5 -175.5t-28.5 -175.5t-83 -124t-130.5 -45.5t-131 45.5t-83 124t-28 175.5t28 175.5zM456.5 483q-21.5 67 -63 105.5t-98.5 38.5q-58 0 -99.5 -38.5t-63 -105.5t-21.5 -150q0 -82 21.5 -149t63 -106t99.5 -39
q57 0 98.5 39t63 106t21.5 149q0 83 -21.5 150zM307.5 736.5q-13.5 15.5 -26.5 44.5q-9 21 -17.5 32t-21.5 11q-18 0 -30 -21t-14 -63q0 -7 -4.5 -11.5t-11.5 -4.5t-12 5.5t-5 12.5q4 53 24 86t56 33q24 0 37 -15t27 -45q11 -23 18.5 -33t20.5 -10q19 0 31 21t13 63
q0 7 5 11.5t11 4.5q7 0 12 -5t5 -13q-3 -53 -23.5 -86t-56.5 -33q-24 0 -37.5 15.5z" />
    <glyph glyph-name="uni01EA" unicode="&#x1ea;" horiz-adv-x="590" 
d="M274 -105q0 -19 10.5 -30t28.5 -11q9 0 17 3t11 3q8 0 13 -5.5t5 -13.5q0 -7 -3.5 -11.5t-8.5 -6.5q-18 -9 -41 -9q-33 0 -56.5 18.5t-23.5 52.5q0 29 19 56t50 47q-76 0 -131 45.5t-83 124t-28 175.5t28 175.5t83 124t131 45.5t130.5 -45.5t83 -124t28.5 -175.5
q0 -132 -51.5 -226t-143.5 -114q-68 -55 -68 -98zM132.5 184q21.5 -67 63 -106t99.5 -39q57 0 98.5 39t63 106t21.5 149q0 83 -21.5 150t-63 105.5t-98.5 38.5q-58 0 -99.5 -38.5t-63 -105.5t-21.5 -150q0 -82 21.5 -149z" />
    <glyph glyph-name="uni1ECC" unicode="&#x1ecc;" horiz-adv-x="590" 
d="M81 508.5q28 78.5 83 124t131 45.5t130.5 -45.5t83 -124t28.5 -175.5t-28.5 -175.5t-83 -124t-130.5 -45.5t-131 45.5t-83 124t-28 175.5t28 175.5zM456.5 483q-21.5 67 -63 105.5t-98.5 38.5q-58 0 -99.5 -38.5t-63 -105.5t-21.5 -150q0 -82 21.5 -149t63 -106t99.5 -39
q57 0 98.5 39t63 106t21.5 149q0 83 -21.5 150zM268 -93q11 11 26 11t26 -11t11 -26q0 -16 -11 -26.5t-26 -10.5t-26 10.5t-11 26.5q0 15 11 26z" />
    <glyph glyph-name="uni1ECE" unicode="&#x1ece;" horiz-adv-x="590" 
d="M81 508.5q28 78.5 83 124t131 45.5t130.5 -45.5t83 -124t28.5 -175.5t-28.5 -175.5t-83 -124t-130.5 -45.5t-131 45.5t-83 124t-28 175.5t28 175.5zM456.5 483q-21.5 67 -63 105.5t-98.5 38.5q-58 0 -99.5 -38.5t-63 -105.5t-21.5 -150q0 -82 21.5 -149t63 -106t99.5 -39
q57 0 98.5 39t63 106t21.5 149q0 83 -21.5 150zM320.5 726q-4.5 5 -4.5 11q0 2 2 10q15 25 15 53q0 25 -11 37t-30 12q-29 0 -42 -28q-3 -10 -15 -10q-8 0 -13 5.5t-5 12.5l2 9q23 45 73 45q34 0 56 -20.5t22 -61.5q0 -35 -23 -72q-5 -8 -15 -8q-7 0 -11.5 5z" />
    <glyph glyph-name="uni1ED0" unicode="&#x1ed0;" horiz-adv-x="590" 
d="M402 778q-6 0 -10.5 3.5t-4.5 7.5q0 2 4 8l95 87q5 6 16 6q8 0 14.5 -4.5t6.5 -10.5t-6 -10l-103 -83q-4 -4 -12 -4zM296 789l-73 -83q-4 -6 -13 -6q-6 0 -11 3.5t-5 8.5q0 2 4 8l65 85q4 5 11.5 9t15.5 4h11q18 0 27 -13l67 -86q3 -6 3 -7q0 -5 -4.5 -8.5t-11.5 -3.5
q-9 0 -13 6zM81 508.5q28 78.5 83 124t131 45.5t130.5 -45.5t83 -124t28.5 -175.5t-28.5 -175.5t-83 -124t-130.5 -45.5t-131 45.5t-83 124t-28 175.5t28 175.5zM456.5 483q-21.5 67 -63 105.5t-98.5 38.5q-58 0 -99.5 -38.5t-63 -105.5t-21.5 -150q0 -82 21.5 -149t63 -106
t99.5 -39q57 0 98.5 39t63 106t21.5 149q0 83 -21.5 150z" />
    <glyph glyph-name="uni1ED2" unicode="&#x1ed2;" horiz-adv-x="590" 
d="M75 865q-6 4 -6 10t6.5 10.5t14.5 4.5q11 0 16 -6l95 -87q4 -6 4 -8q0 -5 -4.5 -8t-11.5 -3t-11 4zM296 789l-73 -83q-4 -6 -13 -6q-6 0 -11 3.5t-5 8.5q0 2 4 8l65 85q4 5 11.5 9t15.5 4h11q18 0 27 -13l67 -86q3 -6 3 -7q0 -5 -4.5 -8.5t-11.5 -3.5q-9 0 -13 6z
M81 508.5q28 78.5 83 124t131 45.5t130.5 -45.5t83 -124t28.5 -175.5t-28.5 -175.5t-83 -124t-130.5 -45.5t-131 45.5t-83 124t-28 175.5t28 175.5zM456.5 483q-21.5 67 -63 105.5t-98.5 38.5q-58 0 -99.5 -38.5t-63 -105.5t-21.5 -150q0 -82 21.5 -149t63 -106t99.5 -39
q57 0 98.5 39t63 106t21.5 149q0 83 -21.5 150z" />
    <glyph glyph-name="uni1ED4" unicode="&#x1ed4;" horiz-adv-x="590" 
d="M396.5 781.5q-4.5 3.5 -4.5 8.5q0 1 2 7q15 19 15 40q0 18 -11 27.5t-30 9.5q-28 0 -42 -21q-3 -8 -15 -8q-8 0 -13 4t-5 10l2 6q23 34 73 34q34 0 56 -15.5t22 -45.5q0 -15 -5.5 -27.5t-17.5 -26.5q-4 -6 -15 -6q-7 0 -11.5 3.5zM296 789l-73 -83q-4 -6 -13 -6
q-6 0 -11 3.5t-5 8.5q0 2 4 8l65 85q4 5 11.5 9t15.5 4h11q18 0 27 -13l67 -86q3 -6 3 -7q0 -5 -4.5 -8.5t-11.5 -3.5q-9 0 -13 6zM81 508.5q28 78.5 83 124t131 45.5t130.5 -45.5t83 -124t28.5 -175.5t-28.5 -175.5t-83 -124t-130.5 -45.5t-131 45.5t-83 124t-28 175.5
t28 175.5zM456.5 483q-21.5 67 -63 105.5t-98.5 38.5q-58 0 -99.5 -38.5t-63 -105.5t-21.5 -150q0 -82 21.5 -149t63 -106t99.5 -39q57 0 98.5 39t63 106t21.5 149q0 83 -21.5 150z" />
    <glyph glyph-name="uni1ED6" unicode="&#x1ed6;" horiz-adv-x="590" 
d="M307.5 839.5q-13.5 11.5 -26.5 33.5q-9 16 -17.5 24t-21.5 8q-18 0 -30 -15.5t-14 -47.5q0 -5 -4.5 -8.5t-11.5 -3.5t-12 4t-5 9q4 41 24 65.5t56 24.5q24 0 37 -11.5t27 -33.5q11 -17 18.5 -25t20.5 -8q19 0 31 15.5t13 47.5q0 5 5 8.5t11 3.5q7 0 12 -4t5 -9
q-3 -40 -23.5 -64.5t-56.5 -24.5q-24 0 -37.5 11.5zM296 789l-73 -83q-4 -6 -13 -6q-6 0 -11 3.5t-5 8.5q0 2 4 8l65 85q4 5 11.5 9t15.5 4h11q18 0 27 -13l67 -86q3 -6 3 -7q0 -5 -4.5 -8.5t-11.5 -3.5q-9 0 -13 6zM81 508.5q28 78.5 83 124t131 45.5t130.5 -45.5t83 -124
t28.5 -175.5t-28.5 -175.5t-83 -124t-130.5 -45.5t-131 45.5t-83 124t-28 175.5t28 175.5zM456.5 483q-21.5 67 -63 105.5t-98.5 38.5q-58 0 -99.5 -38.5t-63 -105.5t-21.5 -150q0 -82 21.5 -149t63 -106t99.5 -39q57 0 98.5 39t63 106t21.5 149q0 83 -21.5 150z" />
    <glyph glyph-name="uni1ED8" unicode="&#x1ed8;" horiz-adv-x="590" 
d="M81 508.5q28 78.5 83 124t131 45.5t130.5 -45.5t83 -124t28.5 -175.5t-28.5 -175.5t-83 -124t-130.5 -45.5t-131 45.5t-83 124t-28 175.5t28 175.5zM456.5 483q-21.5 67 -63 105.5t-98.5 38.5q-58 0 -99.5 -38.5t-63 -105.5t-21.5 -150q0 -82 21.5 -149t63 -106t99.5 -39
q57 0 98.5 39t63 106t21.5 149q0 83 -21.5 150zM296 835l-73 -111q-4 -8 -13 -8q-6 0 -11 4.5t-5 11.5q0 3 4 11l65 113q4 8 11.5 12.5t15.5 4.5h11q18 0 27 -17l67 -114q0 -1 1.5 -4t1.5 -6q0 -7 -4.5 -11.5t-11.5 -4.5q-9 0 -13 8zM268 -93q11 11 26 11t26 -11t11 -26
q0 -16 -11 -26.5t-26 -10.5t-26 10.5t-11 26.5q0 15 11 26z" />
    <glyph glyph-name="Ohorn" unicode="&#x1a0;" horiz-adv-x="590" 
d="M539.5 594.5q-18.5 -33.5 -44.5 -53.5q42 -87 42 -208q0 -97 -28.5 -175.5t-83 -124t-130.5 -45.5t-131 45.5t-83 124t-28 175.5t28 175.5t83 124t131 45.5q59 0 105.5 -28.5t78.5 -79.5q19 16 30 37.5t12 40.5l-9 -1q-16 0 -25.5 10.5t-9.5 26.5q0 15 10.5 26t26.5 11
q18 0 31 -15.5t13 -41.5q0 -36 -18.5 -69.5zM393.5 78q41.5 39 63 106t21.5 149q0 83 -21.5 150t-63 105.5t-98.5 38.5q-58 0 -99.5 -38.5t-63 -105.5t-21.5 -150q0 -82 21.5 -149t63 -106t99.5 -39q57 0 98.5 39z" />
    <glyph glyph-name="uni1EDA" unicode="&#x1eda;" horiz-adv-x="590" 
d="M539.5 594.5q-18.5 -33.5 -44.5 -53.5q42 -87 42 -208q0 -97 -28.5 -175.5t-83 -124t-130.5 -45.5t-131 45.5t-83 124t-28 175.5t28 175.5t83 124t131 45.5q59 0 105.5 -28.5t78.5 -79.5q19 16 30 37.5t12 40.5l-9 -1q-16 0 -25.5 10.5t-9.5 26.5q0 15 10.5 26t26.5 11
q18 0 31 -15.5t13 -41.5q0 -36 -18.5 -69.5zM393.5 78q41.5 39 63 106t21.5 149q0 83 -21.5 150t-63 105.5t-98.5 38.5q-58 0 -99.5 -38.5t-63 -105.5t-21.5 -150q0 -82 21.5 -149t63 -106t99.5 -39q57 0 98.5 39zM299 720q-6 0 -10.5 4.5t-4.5 10.5q0 4 4 10l95 117
q5 8 16 8q8 0 14.5 -6.5t6.5 -14.5q0 -7 -6 -13l-103 -110q-4 -6 -12 -6z" />
    <glyph glyph-name="uni1EDC" unicode="&#x1edc;" horiz-adv-x="590" 
d="M539.5 594.5q-18.5 -33.5 -44.5 -53.5q42 -87 42 -208q0 -97 -28.5 -175.5t-83 -124t-130.5 -45.5t-131 45.5t-83 124t-28 175.5t28 175.5t83 124t131 45.5q59 0 105.5 -28.5t78.5 -79.5q19 16 30 37.5t12 40.5l-9 -1q-16 0 -25.5 10.5t-9.5 26.5q0 15 10.5 26t26.5 11
q18 0 31 -15.5t13 -41.5q0 -36 -18.5 -69.5zM393.5 78q41.5 39 63 106t21.5 149q0 83 -21.5 150t-63 105.5t-98.5 38.5q-58 0 -99.5 -38.5t-63 -105.5t-21.5 -150q0 -82 21.5 -149t63 -106t99.5 -39q57 0 98.5 39zM176 836q-6 6 -6 13q0 8 6.5 14.5t14.5 6.5q11 0 16 -8
l95 -117q4 -6 4 -10q0 -6 -4.5 -10.5t-11.5 -4.5t-11 6z" />
    <glyph glyph-name="uni1EDE" unicode="&#x1ede;" horiz-adv-x="590" 
d="M539.5 594.5q-18.5 -33.5 -44.5 -53.5q42 -87 42 -208q0 -97 -28.5 -175.5t-83 -124t-130.5 -45.5t-131 45.5t-83 124t-28 175.5t28 175.5t83 124t131 45.5q59 0 105.5 -28.5t78.5 -79.5q19 16 30 37.5t12 40.5l-9 -1q-16 0 -25.5 10.5t-9.5 26.5q0 15 10.5 26t26.5 11
q18 0 31 -15.5t13 -41.5q0 -36 -18.5 -69.5zM393.5 78q41.5 39 63 106t21.5 149q0 83 -21.5 150t-63 105.5t-98.5 38.5q-58 0 -99.5 -38.5t-63 -105.5t-21.5 -150q0 -82 21.5 -149t63 -106t99.5 -39q57 0 98.5 39zM320.5 726q-4.5 5 -4.5 11q0 2 2 10q15 25 15 53
q0 25 -11 37t-30 12q-29 0 -42 -28q-3 -10 -15 -10q-8 0 -13 5.5t-5 12.5l2 9q23 45 73 45q34 0 56 -20.5t22 -61.5q0 -35 -23 -72q-5 -8 -15 -8q-7 0 -11.5 5z" />
    <glyph glyph-name="uni1EE0" unicode="&#x1ee0;" horiz-adv-x="590" 
d="M539.5 594.5q-18.5 -33.5 -44.5 -53.5q42 -87 42 -208q0 -97 -28.5 -175.5t-83 -124t-130.5 -45.5t-131 45.5t-83 124t-28 175.5t28 175.5t83 124t131 45.5q59 0 105.5 -28.5t78.5 -79.5q19 16 30 37.5t12 40.5l-9 -1q-16 0 -25.5 10.5t-9.5 26.5q0 15 10.5 26t26.5 11
q18 0 31 -15.5t13 -41.5q0 -36 -18.5 -69.5zM393.5 78q41.5 39 63 106t21.5 149q0 83 -21.5 150t-63 105.5t-98.5 38.5q-58 0 -99.5 -38.5t-63 -105.5t-21.5 -150q0 -82 21.5 -149t63 -106t99.5 -39q57 0 98.5 39zM307.5 736.5q-13.5 15.5 -26.5 44.5q-9 21 -17.5 32
t-21.5 11q-18 0 -30 -21t-14 -63q0 -7 -4.5 -11.5t-11.5 -4.5t-12 5.5t-5 12.5q4 53 24 86t56 33q24 0 37 -15t27 -45q11 -23 18.5 -33t20.5 -10q19 0 31 21t13 63q0 7 5 11.5t11 4.5q7 0 12 -5t5 -13q-3 -53 -23.5 -86t-56.5 -33q-24 0 -37.5 15.5z" />
    <glyph glyph-name="uni1EE2" unicode="&#x1ee2;" horiz-adv-x="590" 
d="M539.5 594.5q-18.5 -33.5 -44.5 -53.5q42 -87 42 -208q0 -97 -28.5 -175.5t-83 -124t-130.5 -45.5t-131 45.5t-83 124t-28 175.5t28 175.5t83 124t131 45.5q59 0 105.5 -28.5t78.5 -79.5q19 16 30 37.5t12 40.5l-9 -1q-16 0 -25.5 10.5t-9.5 26.5q0 15 10.5 26t26.5 11
q18 0 31 -15.5t13 -41.5q0 -36 -18.5 -69.5zM393.5 78q41.5 39 63 106t21.5 149q0 83 -21.5 150t-63 105.5t-98.5 38.5q-58 0 -99.5 -38.5t-63 -105.5t-21.5 -150q0 -82 21.5 -149t63 -106t99.5 -39q57 0 98.5 39zM268 -93q11 11 26 11t26 -11t11 -26q0 -16 -11 -26.5
t-26 -10.5t-26 10.5t-11 26.5q0 15 11 26z" />
    <glyph glyph-name="OE" unicode="&#x152;" horiz-adv-x="846" 
d="M788 43q7 -7 7 -18q0 -10 -7.5 -17.5t-17.5 -7.5h-273q-14 0 -22.5 8t-8.5 22v76q-28 -60 -75.5 -89t-100.5 -29q-75 0 -128.5 45.5t-81 124t-27.5 175.5t27.5 175t81 123.5t128.5 45.5q53 0 100.5 -28.5t75.5 -87.5v76q0 14 8.5 22t22.5 8h273q10 0 17.5 -7.5t7.5 -17.5
t-7 -17.5t-18 -7.5h-248v-250h241q11 0 18 -7t7 -18q0 -10 -7 -17.5t-18 -7.5h-241v-267h248q11 0 18 -7zM399.5 80q44.5 41 66.5 117v273q-22 76 -66.5 116t-104.5 40q-58 0 -99.5 -38.5t-63 -105t-21.5 -149.5t21.5 -150t63 -105.5t99.5 -38.5q60 0 104.5 41z" />
    <glyph glyph-name="uni1E56" unicode="&#x1e56;" horiz-adv-x="468" 
d="M83 5.5q-8 8.5 -8 19.5v612q0 14 8 22t23 8h153q56 0 95.5 -26t59.5 -70.5t20 -98.5q0 -53 -20 -97.5t-60 -70.5t-95 -26h-128v-253q0 -11 -8 -19.5t-20 -8.5t-20 8.5zM343 577q-32 40 -88 40h-124v-289h124q56 0 88 40t32 104q0 65 -32 105zM219 796q11 11 26 11t26 -11
t11 -26q0 -16 -11 -26.5t-26 -10.5t-26 10.5t-11 26.5q0 15 11 26z" />
    <glyph glyph-name="Racute" unicode="&#x154;" horiz-adv-x="491" 
d="M436 24q0 -10 -8 -18.5t-20 -8.5q-8 0 -14.5 4.5t-10.5 11.5l-140 265h-112v-253q0 -11 -8 -19.5t-20 -8.5t-20 8.5t-8 19.5v612q0 14 8 22t23 8h154q77 0 125.5 -52t48.5 -142q0 -82 -38.5 -130t-95.5 -57l132 -247q4 -5 4 -15zM131 328h124q56 0 88.5 40t32.5 104
q0 65 -32.5 105t-88.5 40h-124v-289zM249 720q-6 0 -10.5 4.5t-4.5 10.5q0 4 4 10l95 117q5 8 16 8q8 0 14.5 -6.5t6.5 -14.5q0 -7 -6 -13l-103 -110q-4 -6 -12 -6z" />
    <glyph glyph-name="Rcaron" unicode="&#x158;" horiz-adv-x="491" 
d="M436 24q0 -10 -8 -18.5t-20 -8.5q-8 0 -14.5 4.5t-10.5 11.5l-140 265h-112v-253q0 -11 -8 -19.5t-20 -8.5t-20 8.5t-8 19.5v612q0 14 8 22t23 8h154q77 0 125.5 -52t48.5 -142q0 -82 -38.5 -130t-95.5 -57l132 -247q4 -5 4 -15zM131 328h124q56 0 88.5 40t32.5 104
q0 65 -32.5 105t-88.5 40h-124v-289zM339.5 868.5q4.5 -4.5 4.5 -11.5q0 -3 -1.5 -6t-1.5 -4l-67 -114q-9 -17 -27 -17h-11q-8 0 -15.5 4.5t-11.5 12.5l-65 113q-4 8 -4 11q0 7 5 11.5t11 4.5q9 0 13 -8l73 -111l73 111q4 8 13 8q7 0 11.5 -4.5z" />
    <glyph glyph-name="uni0156" unicode="&#x156;" horiz-adv-x="491" 
d="M436 24q0 -10 -8 -18.5t-20 -8.5q-8 0 -14.5 4.5t-10.5 11.5l-140 265h-112v-253q0 -11 -8 -19.5t-20 -8.5t-20 8.5t-8 19.5v612q0 14 8 22t23 8h154q77 0 125.5 -52t48.5 -142q0 -82 -38.5 -130t-95.5 -57l132 -247q4 -5 4 -15zM131 328h124q56 0 88.5 40t32.5 104
q0 65 -32.5 105t-88.5 40h-124v-289zM207 -258q-5 5 -5 12q0 8 9 15q17 17 28 38t12 40q-1 -1 -3.5 -1.5t-5.5 -0.5q-16 0 -26 11t-10 27t11 27.5t27 11.5q19 0 32 -16t13 -43q0 -35 -16 -67t-41 -53q-6 -6 -13 -6t-12 5z" />
    <glyph glyph-name="Sacute" unicode="&#x15a;" horiz-adv-x="459" 
d="M42 74q0 11 8 19.5t19 8.5t17 -7q60 -56 136 -56q66 0 100.5 36t34.5 88q0 41 -19 69.5t-47 47t-74 42.5q-54 27 -86 47.5t-54.5 55.5t-22.5 86q0 49 24 87t65.5 59t91.5 21q87 0 149 -54q11 -7 11 -20q0 -11 -7.5 -19t-18.5 -8q-10 0 -16 6q-48 44 -119 44
q-53 0 -88 -31.5t-35 -82.5q0 -34 17.5 -58.5t43 -40.5t71.5 -40q56 -29 89.5 -52t57.5 -61.5t24 -94.5q0 -48 -21 -88.5t-64 -65t-107 -24.5q-100 0 -171 66q-9 8 -9 20zM232 720q-6 0 -10.5 4.5t-4.5 10.5q0 4 4 10l95 117q5 8 16 8q8 0 14.5 -6.5t6.5 -14.5q0 -7 -6 -13
l-103 -110q-4 -6 -12 -6z" />
    <glyph glyph-name="Scaron" unicode="&#x160;" horiz-adv-x="459" 
d="M42 74q0 11 8 19.5t19 8.5t17 -7q60 -56 136 -56q66 0 100.5 36t34.5 88q0 41 -19 69.5t-47 47t-74 42.5q-54 27 -86 47.5t-54.5 55.5t-22.5 86q0 49 24 87t65.5 59t91.5 21q87 0 149 -54q11 -7 11 -20q0 -11 -7.5 -19t-18.5 -8q-10 0 -16 6q-48 44 -119 44
q-53 0 -88 -31.5t-35 -82.5q0 -34 17.5 -58.5t43 -40.5t71.5 -40q56 -29 89.5 -52t57.5 -61.5t24 -94.5q0 -48 -21 -88.5t-64 -65t-107 -24.5q-100 0 -171 66q-9 8 -9 20zM322.5 868.5q4.5 -4.5 4.5 -11.5q0 -3 -1.5 -6t-1.5 -4l-67 -114q-9 -17 -27 -17h-11q-8 0 -15.5 4.5
t-11.5 12.5l-65 113q-4 8 -4 11q0 7 5 11.5t11 4.5q9 0 13 -8l73 -111l73 111q4 8 13 8q7 0 11.5 -4.5z" />
    <glyph glyph-name="Scircumflex" unicode="&#x15c;" horiz-adv-x="459" 
d="M42 74q0 11 8 19.5t19 8.5t17 -7q60 -56 136 -56q66 0 100.5 36t34.5 88q0 41 -19 69.5t-47 47t-74 42.5q-54 27 -86 47.5t-54.5 55.5t-22.5 86q0 49 24 87t65.5 59t91.5 21q87 0 149 -54q11 -7 11 -20q0 -11 -7.5 -19t-18.5 -8q-10 0 -16 6q-48 44 -119 44
q-53 0 -88 -31.5t-35 -82.5q0 -34 17.5 -58.5t43 -40.5t71.5 -40q56 -29 89.5 -52t57.5 -61.5t24 -94.5q0 -48 -21 -88.5t-64 -65t-107 -24.5q-100 0 -171 66q-9 8 -9 20zM228 835l-73 -111q-4 -8 -13 -8q-6 0 -11 4.5t-5 11.5q0 3 4 11l65 113q4 8 11.5 12.5t15.5 4.5h11
q18 0 27 -17l67 -114q0 -1 1.5 -4t1.5 -6q0 -7 -4.5 -11.5t-11.5 -4.5q-9 0 -13 8z" />
    <glyph glyph-name="uni015E" unicode="&#x15e;" horiz-adv-x="459" 
d="M371.5 45.5q-42.5 -50.5 -126.5 -56.5l-18 -46q12 11 33 11q25 0 42 -18t17 -47q0 -34 -26.5 -56t-66.5 -22q-43 0 -75 22q-10 7 -10 16q0 7 4.5 12t11.5 5q6 0 11 -4q25 -18 58 -18q24 0 40.5 12.5t16.5 33.5q0 17 -9.5 27t-26.5 10q-18 0 -30 -11q-4 -4 -12 -4t-12.5 5
t-4.5 13l2 9l18 49q-92 6 -157 66q-9 8 -9 20q0 11 8 19.5t19 8.5t17 -7q60 -56 136 -56q66 0 100.5 36t34.5 88q0 41 -19 69.5t-47 47t-74 42.5q-54 27 -86 47.5t-54.5 55.5t-22.5 86q0 49 24 87t65.5 59t91.5 21q87 0 149 -54q11 -7 11 -20q0 -11 -7.5 -19t-18.5 -8
q-10 0 -16 6q-48 44 -119 44q-53 0 -88 -31.5t-35 -82.5q0 -34 17.5 -58.5t43 -40.5t71.5 -40q56 -29 89.5 -52t57.5 -61.5t24 -94.5q0 -70 -42.5 -120.5z" />
    <glyph glyph-name="uni0218" unicode="&#x218;" horiz-adv-x="459" 
d="M42 74q0 11 8 19.5t19 8.5t17 -7q60 -56 136 -56q66 0 100.5 36t34.5 88q0 41 -19 69.5t-47 47t-74 42.5q-54 27 -86 47.5t-54.5 55.5t-22.5 86q0 49 24 87t65.5 59t91.5 21q87 0 149 -54q11 -7 11 -20q0 -11 -7.5 -19t-18.5 -8q-10 0 -16 6q-48 44 -119 44
q-53 0 -88 -31.5t-35 -82.5q0 -34 17.5 -58.5t43 -40.5t71.5 -40q56 -29 89.5 -52t57.5 -61.5t24 -94.5q0 -48 -21 -88.5t-64 -65t-107 -24.5q-100 0 -171 66q-9 8 -9 20zM190 -258q-5 5 -5 12q0 8 9 15q17 17 28 38t12 40q-1 -1 -3.5 -1.5t-5.5 -0.5q-16 0 -26 11t-10 27
t11 27.5t27 11.5q19 0 32 -16t13 -43q0 -35 -16 -67t-41 -53q-6 -6 -13 -6t-12 5z" />
    <glyph glyph-name="uni1E60" unicode="&#x1e60;" horiz-adv-x="459" 
d="M42 74q0 11 8 19.5t19 8.5t17 -7q60 -56 136 -56q66 0 100.5 36t34.5 88q0 41 -19 69.5t-47 47t-74 42.5q-54 27 -86 47.5t-54.5 55.5t-22.5 86q0 49 24 87t65.5 59t91.5 21q87 0 149 -54q11 -7 11 -20q0 -11 -7.5 -19t-18.5 -8q-10 0 -16 6q-48 44 -119 44
q-53 0 -88 -31.5t-35 -82.5q0 -34 17.5 -58.5t43 -40.5t71.5 -40q56 -29 89.5 -52t57.5 -61.5t24 -94.5q0 -48 -21 -88.5t-64 -65t-107 -24.5q-100 0 -171 66q-9 8 -9 20zM202 796q11 11 26 11t26 -11t11 -26q0 -16 -11 -26.5t-26 -10.5t-26 10.5t-11 26.5q0 15 11 26z" />
    <glyph glyph-name="uni1E9E" unicode="&#x1e9e;" horiz-adv-x="526" 
d="M442 325q50 -50 50 -140q0 -59 -22.5 -103.5t-63 -69t-91.5 -24.5q-61 0 -107 35q-6 3 -10 9.5t-4 13.5q0 11 8 18.5t18 7.5q6 0 12 -4q36 -31 84 -31q54 0 86.5 41t32.5 107q0 73 -43.5 110.5t-124.5 38.5q-10 0 -17.5 7.5t-7.5 18.5v2q0 18 11 34l127 185
q-34 47 -105 47q-69 0 -106.5 -43.5t-37.5 -127.5v-432q0 -11 -8 -19.5t-20 -8.5t-20 8.5t-8 19.5v432q0 107 52 164t148 57q105 0 156 -68q8 -11 8 -23q0 -11 -9 -26l-127 -181q89 -5 139 -55z" />
    <glyph glyph-name="Tbar" unicode="&#x166;" horiz-adv-x="435" 
d="M403.5 659.5q7.5 -7.5 7.5 -17.5t-7.5 -17.5t-17.5 -7.5h-141v-272h102q8 0 13.5 -5.5t5.5 -12.5t-5.5 -12.5t-13.5 -5.5h-102v-284q0 -11 -8.5 -19.5t-19.5 -8.5q-12 0 -20 8.5t-8 19.5v284h-102q-8 0 -13.5 5.5t-5.5 12.5t5.5 12.5t13.5 5.5h102v272h-140
q-11 0 -18.5 7.5t-7.5 17.5t8 17.5t18 7.5h337q10 0 17.5 -7.5z" />
    <glyph glyph-name="Tcaron" unicode="&#x164;" horiz-adv-x="435" 
d="M197 5.5q-8 8.5 -8 19.5v592h-140q-11 0 -18.5 7.5t-7.5 17.5t8 17.5t18 7.5h337q10 0 17.5 -7.5t7.5 -17.5t-7.5 -17.5t-17.5 -7.5h-141v-592q0 -11 -8.5 -19.5t-19.5 -8.5q-12 0 -20 8.5zM313.5 868.5q4.5 -4.5 4.5 -11.5q0 -3 -1.5 -6t-1.5 -4l-67 -114
q-9 -17 -27 -17h-11q-8 0 -15.5 4.5t-11.5 12.5l-65 113q-4 8 -4 11q0 7 5 11.5t11 4.5q9 0 13 -8l73 -111l73 111q4 8 13 8q7 0 11.5 -4.5z" />
    <glyph glyph-name="uni0162" unicode="&#x162;" horiz-adv-x="435" 
d="M197 5.5q-8 8.5 -8 19.5v592h-140q-11 0 -18.5 7.5t-7.5 17.5t8 17.5t18 7.5h337q10 0 17.5 -7.5t7.5 -17.5t-7.5 -17.5t-17.5 -7.5h-141v-592q0 -11 -8.5 -19.5t-19.5 -8.5q-12 0 -20 8.5zM181 -258q-5 5 -5 12q0 8 9 15q17 17 28 38t12 40q-1 -1 -3.5 -1.5t-5.5 -0.5
q-16 0 -26 11t-10 27t11 27.5t27 11.5q19 0 32 -16t13 -43q0 -35 -16 -67t-41 -53q-6 -6 -13 -6t-12 5z" />
    <glyph glyph-name="uni021A" unicode="&#x21a;" horiz-adv-x="435" 
d="M197 5.5q-8 8.5 -8 19.5v592h-140q-11 0 -18.5 7.5t-7.5 17.5t8 17.5t18 7.5h337q10 0 17.5 -7.5t7.5 -17.5t-7.5 -17.5t-17.5 -7.5h-141v-592q0 -11 -8.5 -19.5t-19.5 -8.5q-12 0 -20 8.5zM181 -258q-5 5 -5 12q0 8 9 15q17 17 28 38t12 40q-1 -1 -3.5 -1.5t-5.5 -0.5
q-16 0 -26 11t-10 27t11 27.5t27 11.5q19 0 32 -16t13 -43q0 -35 -16 -67t-41 -53q-6 -6 -13 -6t-12 5z" />
    <glyph glyph-name="uni1E6A" unicode="&#x1e6a;" horiz-adv-x="435" 
d="M197 5.5q-8 8.5 -8 19.5v592h-140q-11 0 -18.5 7.5t-7.5 17.5t8 17.5t18 7.5h337q10 0 17.5 -7.5t7.5 -17.5t-7.5 -17.5t-17.5 -7.5h-141v-592q0 -11 -8.5 -19.5t-19.5 -8.5q-12 0 -20 8.5zM192 796q11 11 26 11t26 -11t11 -26q0 -16 -11 -26.5t-26 -10.5t-26 10.5
t-11 26.5q0 15 11 26z" />
    <glyph glyph-name="Uacute" unicode="&#xda;" horiz-adv-x="551" 
d="M75 642q0 11 8 19.5t20 8.5t20 -8.5t8 -19.5v-433q0 -84 37.5 -127.5t107.5 -43.5q69 0 106.5 43.5t37.5 127.5v433q0 11 8.5 19.5t19.5 8.5q12 0 20 -8.5t8 -19.5v-432q0 -107 -52 -164.5t-148 -57.5t-148.5 57t-52.5 164v433zM281 720q-6 0 -10.5 4.5t-4.5 10.5
q0 4 4 10l95 117q5 8 16 8q8 0 14.5 -6.5t6.5 -14.5q0 -7 -6 -13l-103 -110q-4 -6 -12 -6z" />
    <glyph glyph-name="Ubreve" unicode="&#x16c;" horiz-adv-x="551" 
d="M75 642q0 11 8 19.5t20 8.5t20 -8.5t8 -19.5v-433q0 -84 37.5 -127.5t107.5 -43.5q69 0 106.5 43.5t37.5 127.5v433q0 11 8.5 19.5t19.5 8.5q12 0 20 -8.5t8 -19.5v-432q0 -107 -52 -164.5t-148 -57.5t-148.5 57t-52.5 164v433zM202 734q-35 16 -62 45q-5 7 -5 13
q0 8 5.5 13.5t12.5 5.5q10 0 14 -6q21 -24 49.5 -37t59.5 -13t59 13t48 36q5 7 15 7q7 0 12.5 -6t5.5 -13q0 -6 -5 -13q-26 -29 -61 -45t-74 -16t-74 16z" />
    <glyph glyph-name="Ucircumflex" unicode="&#xdb;" horiz-adv-x="551" 
d="M75 642q0 11 8 19.5t20 8.5t20 -8.5t8 -19.5v-433q0 -84 37.5 -127.5t107.5 -43.5q69 0 106.5 43.5t37.5 127.5v433q0 11 8.5 19.5t19.5 8.5q12 0 20 -8.5t8 -19.5v-432q0 -107 -52 -164.5t-148 -57.5t-148.5 57t-52.5 164v433zM277 835l-73 -111q-4 -8 -13 -8
q-6 0 -11 4.5t-5 11.5q0 3 4 11l65 113q4 8 11.5 12.5t15.5 4.5h11q18 0 27 -17l67 -114q0 -1 1.5 -4t1.5 -6q0 -7 -4.5 -11.5t-11.5 -4.5q-9 0 -13 8z" />
    <glyph glyph-name="Udieresis" unicode="&#xdc;" horiz-adv-x="551" 
d="M75 642q0 11 8 19.5t20 8.5t20 -8.5t8 -19.5v-433q0 -84 37.5 -127.5t107.5 -43.5q69 0 106.5 43.5t37.5 127.5v433q0 11 8.5 19.5t19.5 8.5q12 0 20 -8.5t8 -19.5v-432q0 -107 -52 -164.5t-148 -57.5t-148.5 57t-52.5 164v433zM166 746.5q-11 10.5 -11 25.5t11 26t26 11
t25.5 -11t10.5 -26t-10.5 -25.5t-25.5 -10.5t-26 10.5zM334 746.5q-11 10.5 -11 25.5t11 26t26 11t25.5 -11t10.5 -26t-10.5 -25.5t-25.5 -10.5t-26 10.5z" />
    <glyph glyph-name="Ugrave" unicode="&#xd9;" horiz-adv-x="551" 
d="M75 642q0 11 8 19.5t20 8.5t20 -8.5t8 -19.5v-433q0 -84 37.5 -127.5t107.5 -43.5q69 0 106.5 43.5t37.5 127.5v433q0 11 8.5 19.5t19.5 8.5q12 0 20 -8.5t8 -19.5v-432q0 -107 -52 -164.5t-148 -57.5t-148.5 57t-52.5 164v433zM157 836q-6 6 -6 13q0 8 6.5 14.5
t14.5 6.5q11 0 16 -8l95 -117q4 -6 4 -10q0 -6 -4.5 -10.5t-11.5 -4.5t-11 6z" />
    <glyph glyph-name="Uhungarumlaut" unicode="&#x170;" horiz-adv-x="551" 
d="M75 642q0 11 8 19.5t20 8.5t20 -8.5t8 -19.5v-433q0 -84 37.5 -127.5t107.5 -43.5q69 0 106.5 43.5t37.5 127.5v433q0 11 8.5 19.5t19.5 8.5q12 0 20 -8.5t8 -19.5v-432q0 -107 -52 -164.5t-148 -57.5t-148.5 57t-52.5 164v433zM204.5 722q-4.5 4 -4.5 10q0 5 4 12
l63 116q7 12 19 12q8 0 14.5 -6t6.5 -15q0 -4 -4 -12l-75 -113q-5 -8 -13 -8q-6 0 -10.5 4zM329.5 722q-4.5 4 -4.5 10q0 2 4 12l63 116q7 12 19 12q8 0 14.5 -6t6.5 -15q0 -7 -4 -12l-75 -113q-5 -8 -13 -8q-6 0 -10.5 4z" />
    <glyph glyph-name="Umacron" unicode="&#x16a;" horiz-adv-x="551" 
d="M75 642q0 11 8 19.5t20 8.5t20 -8.5t8 -19.5v-433q0 -84 37.5 -127.5t107.5 -43.5q69 0 106.5 43.5t37.5 127.5v433q0 11 8.5 19.5t19.5 8.5q12 0 20 -8.5t8 -19.5v-432q0 -107 -52 -164.5t-148 -57.5t-148.5 57t-52.5 164v433zM156.5 749.5q-5.5 5.5 -5.5 12.5
q0 8 5.5 13.5t13.5 5.5h211q7 0 13 -5.5t6 -13.5q0 -7 -5.5 -12.5t-13.5 -5.5h-211q-8 0 -13.5 5.5z" />
    <glyph glyph-name="Uogonek" unicode="&#x172;" horiz-adv-x="551" 
d="M127.5 45q-52.5 57 -52.5 164v433q0 11 8 19.5t20 8.5t20 -8.5t8 -19.5v-433q0 -84 37.5 -127.5t107.5 -43.5q69 0 106.5 43.5t37.5 127.5v433q0 11 8.5 19.5t19.5 8.5q12 0 20 -8.5t8 -19.5v-432q0 -151 -104 -202q-47 -24 -73.5 -54t-26.5 -59q0 -19 11 -30t29 -11
q10 0 18 4l5 1q8 0 14 -5.5t6 -14.5q0 -6 -3.5 -10.5t-8.5 -6.5q-19 -8 -38 -8q-34 0 -57 18.5t-23 52.5q0 56 67 104q-5 -1 -16 -1q-96 0 -148.5 57z" />
    <glyph glyph-name="Uring" unicode="&#x16e;" horiz-adv-x="551" 
d="M75 642q0 11 8 19.5t20 8.5t20 -8.5t8 -19.5v-433q0 -84 37.5 -127.5t107.5 -43.5q69 0 106.5 43.5t37.5 127.5v433q0 11 8.5 19.5t19.5 8.5q12 0 20 -8.5t8 -19.5v-432q0 -107 -52 -164.5t-148 -57.5t-148.5 57t-52.5 164v433zM214 866q26 26 62 26t61.5 -26t25.5 -62
q0 -37 -25 -62.5t-62 -25.5q-36 0 -62 25.5t-26 62.5q0 36 26 62zM316.5 844q-16.5 17 -40.5 17q-23 0 -40 -17t-17 -40q0 -24 17 -41t40 -17q24 0 40.5 17t16.5 41q0 23 -16.5 40z" />
    <glyph glyph-name="Utilde" unicode="&#x168;" horiz-adv-x="551" 
d="M75 642q0 11 8 19.5t20 8.5t20 -8.5t8 -19.5v-433q0 -84 37.5 -127.5t107.5 -43.5q69 0 106.5 43.5t37.5 127.5v433q0 11 8.5 19.5t19.5 8.5q12 0 20 -8.5t8 -19.5v-432q0 -107 -52 -164.5t-148 -57.5t-148.5 57t-52.5 164v433zM288.5 736.5q-13.5 15.5 -26.5 44.5
q-9 21 -17.5 32t-21.5 11q-18 0 -30 -21t-14 -63q0 -7 -4.5 -11.5t-11.5 -4.5t-12 5.5t-5 12.5q4 53 24 86t56 33q24 0 37 -15t27 -45q11 -23 18.5 -33t20.5 -10q19 0 31 21t13 63q0 7 5 11.5t11 4.5q7 0 12 -5t5 -13q-3 -53 -23.5 -86t-56.5 -33q-24 0 -37.5 15.5z" />
    <glyph glyph-name="uni1EE4" unicode="&#x1ee4;" horiz-adv-x="551" 
d="M75 642q0 11 8 19.5t20 8.5t20 -8.5t8 -19.5v-433q0 -84 37.5 -127.5t107.5 -43.5q69 0 106.5 43.5t37.5 127.5v433q0 11 8.5 19.5t19.5 8.5q12 0 20 -8.5t8 -19.5v-432q0 -107 -52 -164.5t-148 -57.5t-148.5 57t-52.5 164v433zM250 -93q11 11 26 11t26 -11t11 -26
q0 -16 -11 -26.5t-26 -10.5t-26 10.5t-11 26.5q0 15 11 26z" />
    <glyph glyph-name="Uhorn" unicode="&#x1af;" horiz-adv-x="551" 
d="M553 644q-28 -40 -77 -63v-371q0 -107 -52 -164.5t-148 -57.5t-148.5 57t-52.5 164v433q0 11 8 19.5t20 8.5t20 -8.5t8 -19.5v-433q0 -84 37.5 -127.5t107.5 -43.5q69 0 106.5 43.5t37.5 127.5v433q0 11 8.5 19.5t19.5 8.5q12 0 20 -8.5t8 -19.5v-25q29 16 48 43.5
t21 53.5l-9 -1q-16 0 -26 10.5t-10 26.5q0 15 10.5 26t26.5 11q19 0 31.5 -15.5t12.5 -42.5q0 -45 -28 -85z" />
    <glyph glyph-name="uni1EE6" unicode="&#x1ee6;" horiz-adv-x="551" 
d="M75 642q0 11 8 19.5t20 8.5t20 -8.5t8 -19.5v-433q0 -84 37.5 -127.5t107.5 -43.5q69 0 106.5 43.5t37.5 127.5v433q0 11 8.5 19.5t19.5 8.5q12 0 20 -8.5t8 -19.5v-432q0 -107 -52 -164.5t-148 -57.5t-148.5 57t-52.5 164v433zM301.5 726q-4.5 5 -4.5 11q0 2 2 10
q15 25 15 53q0 25 -11 37t-30 12q-29 0 -42 -28q-3 -10 -15 -10q-8 0 -13 5.5t-5 12.5l2 9q23 45 73 45q34 0 56 -20.5t22 -61.5q0 -35 -23 -72q-5 -8 -15 -8q-7 0 -11.5 5z" />
    <glyph glyph-name="uni1EE8" unicode="&#x1ee8;" horiz-adv-x="551" 
d="M553 644q-28 -40 -77 -63v-371q0 -107 -52 -164.5t-148 -57.5t-148.5 57t-52.5 164v433q0 11 8 19.5t20 8.5t20 -8.5t8 -19.5v-433q0 -84 37.5 -127.5t107.5 -43.5q69 0 106.5 43.5t37.5 127.5v433q0 11 8.5 19.5t19.5 8.5q12 0 20 -8.5t8 -19.5v-25q29 16 48 43.5
t21 53.5l-9 -1q-16 0 -26 10.5t-10 26.5q0 15 10.5 26t26.5 11q19 0 31.5 -15.5t12.5 -42.5q0 -45 -28 -85zM281 720q-6 0 -10.5 4.5t-4.5 10.5q0 4 4 10l95 117q5 8 16 8q8 0 14.5 -6.5t6.5 -14.5q0 -7 -6 -13l-103 -110q-4 -6 -12 -6z" />
    <glyph glyph-name="uni1EEA" unicode="&#x1eea;" horiz-adv-x="551" 
d="M553 644q-28 -40 -77 -63v-371q0 -107 -52 -164.5t-148 -57.5t-148.5 57t-52.5 164v433q0 11 8 19.5t20 8.5t20 -8.5t8 -19.5v-433q0 -84 37.5 -127.5t107.5 -43.5q69 0 106.5 43.5t37.5 127.5v433q0 11 8.5 19.5t19.5 8.5q12 0 20 -8.5t8 -19.5v-25q29 16 48 43.5
t21 53.5l-9 -1q-16 0 -26 10.5t-10 26.5q0 15 10.5 26t26.5 11q19 0 31.5 -15.5t12.5 -42.5q0 -45 -28 -85zM157 836q-6 6 -6 13q0 8 6.5 14.5t14.5 6.5q11 0 16 -8l95 -117q4 -6 4 -10q0 -6 -4.5 -10.5t-11.5 -4.5t-11 6z" />
    <glyph glyph-name="uni1EEC" unicode="&#x1eec;" horiz-adv-x="551" 
d="M553 644q-28 -40 -77 -63v-371q0 -107 -52 -164.5t-148 -57.5t-148.5 57t-52.5 164v433q0 11 8 19.5t20 8.5t20 -8.5t8 -19.5v-433q0 -84 37.5 -127.5t107.5 -43.5q69 0 106.5 43.5t37.5 127.5v433q0 11 8.5 19.5t19.5 8.5q12 0 20 -8.5t8 -19.5v-25q29 16 48 43.5
t21 53.5l-9 -1q-16 0 -26 10.5t-10 26.5q0 15 10.5 26t26.5 11q19 0 31.5 -15.5t12.5 -42.5q0 -45 -28 -85zM301.5 726q-4.5 5 -4.5 11q0 2 2 10q15 25 15 53q0 25 -11 37t-30 12q-29 0 -42 -28q-3 -10 -15 -10q-8 0 -13 5.5t-5 12.5l2 9q23 45 73 45q34 0 56 -20.5
t22 -61.5q0 -35 -23 -72q-5 -8 -15 -8q-7 0 -11.5 5z" />
    <glyph glyph-name="uni1EEE" unicode="&#x1eee;" horiz-adv-x="551" 
d="M553 644q-28 -40 -77 -63v-371q0 -107 -52 -164.5t-148 -57.5t-148.5 57t-52.5 164v433q0 11 8 19.5t20 8.5t20 -8.5t8 -19.5v-433q0 -84 37.5 -127.5t107.5 -43.5q69 0 106.5 43.5t37.5 127.5v433q0 11 8.5 19.5t19.5 8.5q12 0 20 -8.5t8 -19.5v-25q29 16 48 43.5
t21 53.5l-9 -1q-16 0 -26 10.5t-10 26.5q0 15 10.5 26t26.5 11q19 0 31.5 -15.5t12.5 -42.5q0 -45 -28 -85zM288.5 736.5q-13.5 15.5 -26.5 44.5q-9 21 -17.5 32t-21.5 11q-18 0 -30 -21t-14 -63q0 -7 -4.5 -11.5t-11.5 -4.5t-12 5.5t-5 12.5q4 53 24 86t56 33q24 0 37 -15
t27 -45q11 -23 18.5 -33t20.5 -10q19 0 31 21t13 63q0 7 5 11.5t11 4.5q7 0 12 -5t5 -13q-3 -53 -23.5 -86t-56.5 -33q-24 0 -37.5 15.5z" />
    <glyph glyph-name="uni1EF0" unicode="&#x1ef0;" horiz-adv-x="551" 
d="M553 644q-28 -40 -77 -63v-371q0 -107 -52 -164.5t-148 -57.5t-148.5 57t-52.5 164v433q0 11 8 19.5t20 8.5t20 -8.5t8 -19.5v-433q0 -84 37.5 -127.5t107.5 -43.5q69 0 106.5 43.5t37.5 127.5v433q0 11 8.5 19.5t19.5 8.5q12 0 20 -8.5t8 -19.5v-25q29 16 48 43.5
t21 53.5l-9 -1q-16 0 -26 10.5t-10 26.5q0 15 10.5 26t26.5 11q19 0 31.5 -15.5t12.5 -42.5q0 -45 -28 -85zM250 -93q11 11 26 11t26 -11t11 -26q0 -16 -11 -26.5t-26 -10.5t-26 10.5t-11 26.5q0 15 11 26z" />
    <glyph glyph-name="Wacute" unicode="&#x1e82;" horiz-adv-x="693" 
d="M472 5.5q-10 8.5 -13 21.5l-113 535l-112 -535q-3 -13 -13 -21.5t-24 -8.5q-13 0 -23.5 8.5t-12.5 20.5l-133 604q-1 5 -1 11q0 11 8.5 20t20.5 9q11 0 19 -7t9 -17l115 -557l118 557q2 11 10.5 17.5t19.5 6.5t19.5 -7t9.5 -17l118 -557l115 557q1 10 9 17t19 7
q12 0 20.5 -8.5t8.5 -20.5q0 -6 -1 -11l-132 -604q-3 -12 -13.5 -20.5t-23.5 -8.5q-14 0 -24 8.5zM351 720q-6 0 -10.5 4.5t-4.5 10.5q0 4 4 10l95 117q5 8 16 8q8 0 14.5 -6.5t6.5 -14.5q0 -7 -6 -13l-103 -110q-4 -6 -12 -6z" />
    <glyph glyph-name="Wcircumflex" unicode="&#x174;" horiz-adv-x="693" 
d="M472 5.5q-10 8.5 -13 21.5l-113 535l-112 -535q-3 -13 -13 -21.5t-24 -8.5q-13 0 -23.5 8.5t-12.5 20.5l-133 604q-1 5 -1 11q0 11 8.5 20t20.5 9q11 0 19 -7t9 -17l115 -557l118 557q2 11 10.5 17.5t19.5 6.5t19.5 -7t9.5 -17l118 -557l115 557q1 10 9 17t19 7
q12 0 20.5 -8.5t8.5 -20.5q0 -6 -1 -11l-132 -604q-3 -12 -13.5 -20.5t-23.5 -8.5q-14 0 -24 8.5zM348 835l-73 -111q-4 -8 -13 -8q-6 0 -11 4.5t-5 11.5q0 3 4 11l65 113q4 8 11.5 12.5t15.5 4.5h11q18 0 27 -17l67 -114q0 -1 1.5 -4t1.5 -6q0 -7 -4.5 -11.5t-11.5 -4.5
q-9 0 -13 8z" />
    <glyph glyph-name="Wdieresis" unicode="&#x1e84;" horiz-adv-x="693" 
d="M472 5.5q-10 8.5 -13 21.5l-113 535l-112 -535q-3 -13 -13 -21.5t-24 -8.5q-13 0 -23.5 8.5t-12.5 20.5l-133 604q-1 5 -1 11q0 11 8.5 20t20.5 9q11 0 19 -7t9 -17l115 -557l118 557q2 11 10.5 17.5t19.5 6.5t19.5 -7t9.5 -17l118 -557l115 557q1 10 9 17t19 7
q12 0 20.5 -8.5t8.5 -20.5q0 -6 -1 -11l-132 -604q-3 -12 -13.5 -20.5t-23.5 -8.5q-14 0 -24 8.5zM237 746.5q-11 10.5 -11 25.5t11 26t26 11t25.5 -11t10.5 -26t-10.5 -25.5t-25.5 -10.5t-26 10.5zM405 746.5q-11 10.5 -11 25.5t11 26t26 11t25.5 -11t10.5 -26t-10.5 -25.5
t-25.5 -10.5t-26 10.5z" />
    <glyph glyph-name="Wgrave" unicode="&#x1e80;" horiz-adv-x="693" 
d="M472 5.5q-10 8.5 -13 21.5l-113 535l-112 -535q-3 -13 -13 -21.5t-24 -8.5q-13 0 -23.5 8.5t-12.5 20.5l-133 604q-1 5 -1 11q0 11 8.5 20t20.5 9q11 0 19 -7t9 -17l115 -557l118 557q2 11 10.5 17.5t19.5 6.5t19.5 -7t9.5 -17l118 -557l115 557q1 10 9 17t19 7
q12 0 20.5 -8.5t8.5 -20.5q0 -6 -1 -11l-132 -604q-3 -12 -13.5 -20.5t-23.5 -8.5q-14 0 -24 8.5zM228 836q-6 6 -6 13q0 8 6.5 14.5t14.5 6.5q11 0 16 -8l95 -117q4 -6 4 -10q0 -6 -4.5 -10.5t-11.5 -4.5t-11 6z" />
    <glyph glyph-name="Yacute" unicode="&#xdd;" horiz-adv-x="482" 
d="M455 630l-186 -345v-260q0 -11 -8 -19.5t-20 -8.5t-20 8.5t-8 19.5v260l-186 344q-3 6 -3 13q0 11 8 19.5t20 8.5q17 0 24 -15l165 -314l165 314q8 15 25 15q11 0 19 -8t8 -19q0 -8 -3 -13zM246 720q-6 0 -10.5 4.5t-4.5 10.5q0 4 4 10l95 117q5 8 16 8q8 0 14.5 -6.5
t6.5 -14.5q0 -7 -6 -13l-103 -110q-4 -6 -12 -6z" />
    <glyph glyph-name="Ycircumflex" unicode="&#x176;" horiz-adv-x="482" 
d="M455 630l-186 -345v-260q0 -11 -8 -19.5t-20 -8.5t-20 8.5t-8 19.5v260l-186 344q-3 6 -3 13q0 11 8 19.5t20 8.5q17 0 24 -15l165 -314l165 314q8 15 25 15q11 0 19 -8t8 -19q0 -8 -3 -13zM242 835l-73 -111q-4 -8 -13 -8q-6 0 -11 4.5t-5 11.5q0 3 4 11l65 113
q4 8 11.5 12.5t15.5 4.5h11q18 0 27 -17l67 -114q0 -1 1.5 -4t1.5 -6q0 -7 -4.5 -11.5t-11.5 -4.5q-9 0 -13 8z" />
    <glyph glyph-name="Ydieresis" unicode="&#x178;" horiz-adv-x="482" 
d="M455 630l-186 -345v-260q0 -11 -8 -19.5t-20 -8.5t-20 8.5t-8 19.5v260l-186 344q-3 6 -3 13q0 11 8 19.5t20 8.5q17 0 24 -15l165 -314l165 314q8 15 25 15q11 0 19 -8t8 -19q0 -8 -3 -13zM131 746.5q-11 10.5 -11 25.5t11 26t26 11t25.5 -11t10.5 -26t-10.5 -25.5
t-25.5 -10.5t-26 10.5zM299 746.5q-11 10.5 -11 25.5t11 26t26 11t25.5 -11t10.5 -26t-10.5 -25.5t-25.5 -10.5t-26 10.5z" />
    <glyph glyph-name="Ygrave" unicode="&#x1ef2;" horiz-adv-x="482" 
d="M455 630l-186 -345v-260q0 -11 -8 -19.5t-20 -8.5t-20 8.5t-8 19.5v260l-186 344q-3 6 -3 13q0 11 8 19.5t20 8.5q17 0 24 -15l165 -314l165 314q8 15 25 15q11 0 19 -8t8 -19q0 -8 -3 -13zM122 836q-6 6 -6 13q0 8 6.5 14.5t14.5 6.5q11 0 16 -8l95 -117q4 -6 4 -10
q0 -6 -4.5 -10.5t-11.5 -4.5t-11 6z" />
    <glyph glyph-name="uni0232" unicode="&#x232;" horiz-adv-x="482" 
d="M455 630l-186 -345v-260q0 -11 -8 -19.5t-20 -8.5t-20 8.5t-8 19.5v260l-186 344q-3 6 -3 13q0 11 8 19.5t20 8.5q17 0 24 -15l165 -314l165 314q8 15 25 15q11 0 19 -8t8 -19q0 -8 -3 -13zM121.5 749.5q-5.5 5.5 -5.5 12.5q0 8 5.5 13.5t13.5 5.5h211q7 0 13 -5.5
t6 -13.5q0 -7 -5.5 -12.5t-13.5 -5.5h-211q-8 0 -13.5 5.5z" />
    <glyph glyph-name="uni1EF4" unicode="&#x1ef4;" horiz-adv-x="482" 
d="M455 630l-186 -345v-260q0 -11 -8 -19.5t-20 -8.5t-20 8.5t-8 19.5v260l-186 344q-3 6 -3 13q0 11 8 19.5t20 8.5q17 0 24 -15l165 -314l165 314q8 15 25 15q11 0 19 -8t8 -19q0 -8 -3 -13zM215 -93q11 11 26 11t26 -11t11 -26q0 -16 -11 -26.5t-26 -10.5t-26 10.5
t-11 26.5q0 15 11 26z" />
    <glyph glyph-name="uni1EF6" unicode="&#x1ef6;" horiz-adv-x="482" 
d="M455 630l-186 -345v-260q0 -11 -8 -19.5t-20 -8.5t-20 8.5t-8 19.5v260l-186 344q-3 6 -3 13q0 11 8 19.5t20 8.5q17 0 24 -15l165 -314l165 314q8 15 25 15q11 0 19 -8t8 -19q0 -8 -3 -13zM266.5 726q-4.5 5 -4.5 11q0 2 2 10q15 25 15 53q0 25 -11 37t-30 12
q-29 0 -42 -28q-3 -10 -15 -10q-8 0 -13 5.5t-5 12.5l2 9q23 45 73 45q34 0 56 -20.5t22 -61.5q0 -35 -23 -72q-5 -8 -15 -8q-7 0 -11.5 5z" />
    <glyph glyph-name="uni1EF8" unicode="&#x1ef8;" horiz-adv-x="482" 
d="M455 630l-186 -345v-260q0 -11 -8 -19.5t-20 -8.5t-20 8.5t-8 19.5v260l-186 344q-3 6 -3 13q0 11 8 19.5t20 8.5q17 0 24 -15l165 -314l165 314q8 15 25 15q11 0 19 -8t8 -19q0 -8 -3 -13zM253.5 736.5q-13.5 15.5 -26.5 44.5q-9 21 -17.5 32t-21.5 11q-18 0 -30 -21
t-14 -63q0 -7 -4.5 -11.5t-11.5 -4.5t-12 5.5t-5 12.5q4 53 24 86t56 33q24 0 37 -15t27 -45q11 -23 18.5 -33t20.5 -10q19 0 31 21t13 63q0 7 5 11.5t11 4.5q7 0 12 -5t5 -13q-3 -53 -23.5 -86t-56.5 -33q-24 0 -37.5 15.5z" />
    <glyph glyph-name="Zacute" unicode="&#x179;" horiz-adv-x="453" 
d="M49.5 10q-10.5 10 -10.5 24q0 9 5 16l294 567h-273q-11 0 -18.5 7.5t-7.5 17.5t8 17.5t18 7.5h308q14 0 23.5 -10t9.5 -24q0 -8 -4 -15l-296 -568h282q11 0 18 -7t7 -18q0 -10 -7.5 -17.5t-17.5 -7.5h-314q-14 0 -24.5 10zM231 720q-6 0 -10.5 4.5t-4.5 10.5q0 4 4 10
l95 117q5 8 16 8q8 0 14.5 -6.5t6.5 -14.5q0 -7 -6 -13l-103 -110q-4 -6 -12 -6z" />
    <glyph glyph-name="Zcaron" unicode="&#x17d;" horiz-adv-x="453" 
d="M49.5 10q-10.5 10 -10.5 24q0 9 5 16l294 567h-273q-11 0 -18.5 7.5t-7.5 17.5t8 17.5t18 7.5h308q14 0 23.5 -10t9.5 -24q0 -8 -4 -15l-296 -568h282q11 0 18 -7t7 -18q0 -10 -7.5 -17.5t-17.5 -7.5h-314q-14 0 -24.5 10zM321.5 868.5q4.5 -4.5 4.5 -11.5q0 -3 -1.5 -6
t-1.5 -4l-67 -114q-9 -17 -27 -17h-11q-8 0 -15.5 4.5t-11.5 12.5l-65 113q-4 8 -4 11q0 7 5 11.5t11 4.5q9 0 13 -8l73 -111l73 111q4 8 13 8q7 0 11.5 -4.5z" />
    <glyph glyph-name="Zdotaccent" unicode="&#x17b;" horiz-adv-x="453" 
d="M49.5 10q-10.5 10 -10.5 24q0 9 5 16l294 567h-273q-11 0 -18.5 7.5t-7.5 17.5t8 17.5t18 7.5h308q14 0 23.5 -10t9.5 -24q0 -8 -4 -15l-296 -568h282q11 0 18 -7t7 -18q0 -10 -7.5 -17.5t-17.5 -7.5h-314q-14 0 -24.5 10zM201 796q11 11 26 11t26 -11t11 -26
q0 -16 -11 -26.5t-26 -10.5t-26 10.5t-11 26.5q0 15 11 26z" />
    <glyph glyph-name="Eth" unicode="&#xd0;" horiz-adv-x="573" 
d="M400.5 623.5q58.5 -43.5 88.5 -119.5t30 -171q0 -96 -30 -171.5t-88.5 -118.5t-140.5 -43h-131q-14 0 -22 8t-8 22v278h-62q-9 0 -16 7t-7 16t7 16t16 7h62v283q0 14 8 22t22 8h131q82 0 140.5 -43.5zM409 129q52 79 52 204t-52 204.5t-149 79.5h-106v-263h116
q9 0 15.5 -7t6.5 -16t-6.5 -16t-15.5 -7h-116v-258h106q97 0 149 79z" />
    <glyph glyph-name="Thorn" unicode="&#xde;" horiz-adv-x="468" 
d="M83 5.5q-8 8.5 -8 19.5v617q0 11 8 19.5t20 8.5t20 -8.5t8 -19.5v-100h128q56 0 95.5 -26t59.5 -70.5t20 -98.5q0 -83 -46 -138t-129 -55h-128v-129q0 -11 -8 -19.5t-20 -8.5t-20 8.5zM343 451.5q-32 40.5 -88 40.5h-124v-288h124q56 0 88 39.5t32 103.5t-32 104.5z" />
    <glyph glyph-name="aacute" unicode="&#xe1;" horiz-adv-x="440" 
d="M330.5 457q38.5 -38 38.5 -114v-321q0 -10 -7.5 -17.5t-17.5 -7.5t-18 7.5t-8 17.5v32q-22 -33 -55.5 -49.5t-71.5 -16.5q-40 0 -73 19.5t-52.5 56t-19.5 85.5t19.5 85t52.5 55.5t73 19.5q82 0 127 -65v95q0 54 -26.5 83t-75.5 29q-31 0 -57 -11t-51 -36q-6 -6 -15 -6
t-15.5 6.5t-6.5 15.5t8 17q32 30 66.5 44t75.5 14q71 0 109.5 -38zM270 44q30 17 48 51v106q-18 34 -48 51t-65 17q-49 0 -77.5 -35t-28.5 -86t28.5 -86t77.5 -35q35 0 65 17zM228 573q-6 0 -10.5 4.5t-4.5 10.5q0 4 4 10l95 117q5 8 16 8q8 0 14.5 -6.5t6.5 -14.5
q0 -7 -6 -13l-103 -110q-4 -6 -12 -6z" />
    <glyph glyph-name="abreve" unicode="&#x103;" horiz-adv-x="440" 
d="M330.5 457q38.5 -38 38.5 -114v-321q0 -10 -7.5 -17.5t-17.5 -7.5t-18 7.5t-8 17.5v32q-22 -33 -55.5 -49.5t-71.5 -16.5q-40 0 -73 19.5t-52.5 56t-19.5 85.5t19.5 85t52.5 55.5t73 19.5q82 0 127 -65v95q0 54 -26.5 83t-75.5 29q-31 0 -57 -11t-51 -36q-6 -6 -15 -6
t-15.5 6.5t-6.5 15.5t8 17q32 30 66.5 44t75.5 14q71 0 109.5 -38zM270 44q30 17 48 51v106q-18 34 -48 51t-65 17q-49 0 -77.5 -35t-28.5 -86t28.5 -86t77.5 -35q35 0 65 17zM149 587q-35 16 -62 45q-5 7 -5 13q0 8 5.5 13.5t12.5 5.5q10 0 14 -6q21 -24 49.5 -37t59.5 -13
t59 13t48 36q5 7 15 7q7 0 12.5 -6t5.5 -13q0 -6 -5 -13q-26 -29 -61 -45t-74 -16t-74 16z" />
    <glyph glyph-name="acircumflex" unicode="&#xe2;" horiz-adv-x="440" 
d="M330.5 457q38.5 -38 38.5 -114v-321q0 -10 -7.5 -17.5t-17.5 -7.5t-18 7.5t-8 17.5v32q-22 -33 -55.5 -49.5t-71.5 -16.5q-40 0 -73 19.5t-52.5 56t-19.5 85.5t19.5 85t52.5 55.5t73 19.5q82 0 127 -65v95q0 54 -26.5 83t-75.5 29q-31 0 -57 -11t-51 -36q-6 -6 -15 -6
t-15.5 6.5t-6.5 15.5t8 17q32 30 66.5 44t75.5 14q71 0 109.5 -38zM270 44q30 17 48 51v106q-18 34 -48 51t-65 17q-49 0 -77.5 -35t-28.5 -86t28.5 -86t77.5 -35q35 0 65 17zM224 688l-73 -111q-4 -8 -13 -8q-6 0 -11 4.5t-5 11.5q0 3 4 11l65 113q4 8 11.5 12.5t15.5 4.5
h11q18 0 27 -17l67 -114q0 -1 1.5 -4t1.5 -6q0 -7 -4.5 -11.5t-11.5 -4.5q-9 0 -13 8z" />
    <glyph glyph-name="adieresis" unicode="&#xe4;" horiz-adv-x="440" 
d="M330.5 457q38.5 -38 38.5 -114v-321q0 -10 -7.5 -17.5t-17.5 -7.5t-18 7.5t-8 17.5v32q-22 -33 -55.5 -49.5t-71.5 -16.5q-40 0 -73 19.5t-52.5 56t-19.5 85.5t19.5 85t52.5 55.5t73 19.5q82 0 127 -65v95q0 54 -26.5 83t-75.5 29q-31 0 -57 -11t-51 -36q-6 -6 -15 -6
t-15.5 6.5t-6.5 15.5t8 17q32 30 66.5 44t75.5 14q71 0 109.5 -38zM270 44q30 17 48 51v106q-18 34 -48 51t-65 17q-49 0 -77.5 -35t-28.5 -86t28.5 -86t77.5 -35q35 0 65 17zM113 599.5q-11 10.5 -11 25.5t11 26t26 11t25.5 -11t10.5 -26t-10.5 -25.5t-25.5 -10.5t-26 10.5
zM281 599.5q-11 10.5 -11 25.5t11 26t26 11t25.5 -11t10.5 -26t-10.5 -25.5t-25.5 -10.5t-26 10.5z" />
    <glyph glyph-name="agrave" unicode="&#xe0;" horiz-adv-x="440" 
d="M330.5 457q38.5 -38 38.5 -114v-321q0 -10 -7.5 -17.5t-17.5 -7.5t-18 7.5t-8 17.5v32q-22 -33 -55.5 -49.5t-71.5 -16.5q-40 0 -73 19.5t-52.5 56t-19.5 85.5t19.5 85t52.5 55.5t73 19.5q82 0 127 -65v95q0 54 -26.5 83t-75.5 29q-31 0 -57 -11t-51 -36q-6 -6 -15 -6
t-15.5 6.5t-6.5 15.5t8 17q32 30 66.5 44t75.5 14q71 0 109.5 -38zM270 44q30 17 48 51v106q-18 34 -48 51t-65 17q-49 0 -77.5 -35t-28.5 -86t28.5 -86t77.5 -35q35 0 65 17zM104 689q-6 6 -6 13q0 8 6.5 14.5t14.5 6.5q11 0 16 -8l95 -117q4 -6 4 -10q0 -6 -4.5 -10.5
t-11.5 -4.5t-11 6z" />
    <glyph glyph-name="amacron" unicode="&#x101;" horiz-adv-x="440" 
d="M330.5 457q38.5 -38 38.5 -114v-321q0 -10 -7.5 -17.5t-17.5 -7.5t-18 7.5t-8 17.5v32q-22 -33 -55.5 -49.5t-71.5 -16.5q-40 0 -73 19.5t-52.5 56t-19.5 85.5t19.5 85t52.5 55.5t73 19.5q82 0 127 -65v95q0 54 -26.5 83t-75.5 29q-31 0 -57 -11t-51 -36q-6 -6 -15 -6
t-15.5 6.5t-6.5 15.5t8 17q32 30 66.5 44t75.5 14q71 0 109.5 -38zM270 44q30 17 48 51v106q-18 34 -48 51t-65 17q-49 0 -77.5 -35t-28.5 -86t28.5 -86t77.5 -35q35 0 65 17zM103.5 602.5q-5.5 5.5 -5.5 12.5q0 8 5.5 13.5t13.5 5.5h211q7 0 13 -5.5t6 -13.5
q0 -7 -5.5 -12.5t-13.5 -5.5h-211q-8 0 -13.5 5.5z" />
    <glyph glyph-name="aogonek" unicode="&#x105;" horiz-adv-x="440" 
d="M369 22q0 -6 -4 -14q2 -2 -3 -6q-39 -31 -59 -56.5t-20 -50.5q0 -19 10.5 -30t28.5 -11q9 0 17 3t11 3q8 0 13 -5.5t5 -13.5q0 -7 -3.5 -11.5t-8.5 -6.5q-18 -9 -41 -9q-33 0 -56.5 18.5t-23.5 52.5t26.5 65t67.5 52q-11 8 -11 20v32q-22 -33 -55.5 -49.5t-71.5 -16.5
q-40 0 -73 19.5t-52.5 56t-19.5 85.5t19.5 85t52.5 55.5t73 19.5q82 0 127 -65v95q0 54 -26.5 83t-75.5 29q-31 0 -57 -11t-51 -36q-6 -6 -15 -6t-15.5 6.5t-6.5 15.5t8 17q32 30 66.5 44t75.5 14q71 0 109.5 -38t38.5 -114v-321zM270 44q30 17 48 51v106q-18 34 -48 51
t-65 17q-49 0 -77.5 -35t-28.5 -86t28.5 -86t77.5 -35q35 0 65 17z" />
    <glyph glyph-name="aring" unicode="&#xe5;" horiz-adv-x="440" 
d="M330.5 457q38.5 -38 38.5 -114v-321q0 -10 -7.5 -17.5t-17.5 -7.5t-18 7.5t-8 17.5v32q-22 -33 -55.5 -49.5t-71.5 -16.5q-40 0 -73 19.5t-52.5 56t-19.5 85.5t19.5 85t52.5 55.5t73 19.5q82 0 127 -65v95q0 54 -26.5 83t-75.5 29q-31 0 -57 -11t-51 -36q-6 -6 -15 -6
t-15.5 6.5t-6.5 15.5t8 17q32 30 66.5 44t75.5 14q71 0 109.5 -38zM270 44q30 17 48 51v106q-18 34 -48 51t-65 17q-49 0 -77.5 -35t-28.5 -86t28.5 -86t77.5 -35q35 0 65 17zM161 719q26 26 62 26t61.5 -26t25.5 -62q0 -37 -25 -62.5t-62 -25.5q-36 0 -62 25.5t-26 62.5
q0 36 26 62zM263.5 697q-16.5 17 -40.5 17q-23 0 -40 -17t-17 -40q0 -24 17 -41t40 -17q24 0 40.5 17t16.5 41q0 23 -16.5 40z" />
    <glyph glyph-name="aringacute" unicode="&#x1fb;" horiz-adv-x="440" 
d="M330.5 457q38.5 -38 38.5 -114v-321q0 -10 -7.5 -17.5t-17.5 -7.5t-18 7.5t-8 17.5v32q-22 -33 -55.5 -49.5t-71.5 -16.5q-40 0 -73 19.5t-52.5 56t-19.5 85.5t19.5 85t52.5 55.5t73 19.5q82 0 127 -65v95q0 54 -26.5 83t-75.5 29q-31 0 -57 -11t-51 -36q-6 -6 -15 -6
t-15.5 6.5t-6.5 15.5t8 17q32 30 66.5 44t75.5 14q71 0 109.5 -38zM270 44q30 17 48 51v106q-18 34 -48 51t-65 17q-49 0 -77.5 -35t-28.5 -86t28.5 -86t77.5 -35q35 0 65 17zM161 719q26 26 62 26t61.5 -26t25.5 -62q0 -37 -25 -62.5t-62 -25.5q-36 0 -62 25.5t-26 62.5
q0 36 26 62zM263.5 697q-16.5 17 -40.5 17q-23 0 -40 -17t-17 -40q0 -24 17 -41t40 -17q24 0 40.5 17t16.5 41q0 23 -16.5 40zM227 775q-6 0 -10.5 4.5t-4.5 10.5q0 4 4 10l95 117q5 8 16 8q8 0 14.5 -6.5t6.5 -14.5q0 -7 -6 -13l-103 -110q-4 -6 -12 -6z" />
    <glyph glyph-name="atilde" unicode="&#xe3;" horiz-adv-x="440" 
d="M330.5 457q38.5 -38 38.5 -114v-321q0 -10 -7.5 -17.5t-17.5 -7.5t-18 7.5t-8 17.5v32q-22 -33 -55.5 -49.5t-71.5 -16.5q-40 0 -73 19.5t-52.5 56t-19.5 85.5t19.5 85t52.5 55.5t73 19.5q82 0 127 -65v95q0 54 -26.5 83t-75.5 29q-31 0 -57 -11t-51 -36q-6 -6 -15 -6
t-15.5 6.5t-6.5 15.5t8 17q32 30 66.5 44t75.5 14q71 0 109.5 -38zM270 44q30 17 48 51v106q-18 34 -48 51t-65 17q-49 0 -77.5 -35t-28.5 -86t28.5 -86t77.5 -35q35 0 65 17zM235.5 589.5q-13.5 15.5 -26.5 44.5q-9 21 -17.5 32t-21.5 11q-18 0 -30 -21t-14 -63
q0 -7 -4.5 -11.5t-11.5 -4.5t-12 5.5t-5 12.5q4 53 24 86t56 33q24 0 37 -15t27 -45q11 -23 18.5 -33t20.5 -10q19 0 31 21t13 63q0 7 5 11.5t11 4.5q7 0 12 -5t5 -13q-3 -53 -23.5 -86t-56.5 -33q-24 0 -37.5 15.5z" />
    <glyph glyph-name="uni1EA1" unicode="&#x1ea1;" horiz-adv-x="440" 
d="M330.5 457q38.5 -38 38.5 -114v-321q0 -10 -7.5 -17.5t-17.5 -7.5t-18 7.5t-8 17.5v32q-22 -33 -55.5 -49.5t-71.5 -16.5q-40 0 -73 19.5t-52.5 56t-19.5 85.5t19.5 85t52.5 55.5t73 19.5q82 0 127 -65v95q0 54 -26.5 83t-75.5 29q-31 0 -57 -11t-51 -36q-6 -6 -15 -6
t-15.5 6.5t-6.5 15.5t8 17q32 30 66.5 44t75.5 14q71 0 109.5 -38zM270 44q30 17 48 51v106q-18 34 -48 51t-65 17q-49 0 -77.5 -35t-28.5 -86t28.5 -86t77.5 -35q35 0 65 17zM197 -93q11 11 26 11t26 -11t11 -26q0 -16 -11 -26.5t-26 -10.5t-26 10.5t-11 26.5q0 15 11 26z
" />
    <glyph glyph-name="uni1EA3" unicode="&#x1ea3;" horiz-adv-x="440" 
d="M330.5 457q38.5 -38 38.5 -114v-321q0 -10 -7.5 -17.5t-17.5 -7.5t-18 7.5t-8 17.5v32q-22 -33 -55.5 -49.5t-71.5 -16.5q-40 0 -73 19.5t-52.5 56t-19.5 85.5t19.5 85t52.5 55.5t73 19.5q82 0 127 -65v95q0 54 -26.5 83t-75.5 29q-31 0 -57 -11t-51 -36q-6 -6 -15 -6
t-15.5 6.5t-6.5 15.5t8 17q32 30 66.5 44t75.5 14q71 0 109.5 -38zM270 44q30 17 48 51v106q-18 34 -48 51t-65 17q-49 0 -77.5 -35t-28.5 -86t28.5 -86t77.5 -35q35 0 65 17zM248.5 579q-4.5 5 -4.5 11q0 2 2 10q15 25 15 53q0 25 -11 37t-30 12q-29 0 -42 -28
q-3 -10 -15 -10q-8 0 -13 5.5t-5 12.5l2 9q23 45 73 45q34 0 56 -20.5t22 -61.5q0 -35 -23 -72q-5 -8 -15 -8q-7 0 -11.5 5z" />
    <glyph glyph-name="uni1EA5" unicode="&#x1ea5;" horiz-adv-x="440" 
d="M330.5 457q38.5 -38 38.5 -114v-321q0 -10 -7.5 -17.5t-17.5 -7.5t-18 7.5t-8 17.5v32q-22 -33 -55.5 -49.5t-71.5 -16.5q-40 0 -73 19.5t-52.5 56t-19.5 85.5t19.5 85t52.5 55.5t73 19.5q82 0 127 -65v95q0 54 -26.5 83t-75.5 29q-31 0 -57 -11t-51 -36q-6 -6 -15 -6
t-15.5 6.5t-6.5 15.5t8 17q32 30 66.5 44t75.5 14q71 0 109.5 -38zM270 44q30 17 48 51v106q-18 34 -48 51t-65 17q-49 0 -77.5 -35t-28.5 -86t28.5 -86t77.5 -35q35 0 65 17zM224 688l-73 -111q-4 -8 -13 -8q-6 0 -11 4.5t-5 11.5q0 3 4 11l65 113q4 8 11.5 12.5t15.5 4.5
h11q18 0 27 -17l67 -114q0 -1 1.5 -4t1.5 -6q0 -7 -4.5 -11.5t-11.5 -4.5q-9 0 -13 8zM330 673q-6 0 -10.5 4.5t-4.5 10.5q0 4 4 10l95 117q5 8 16 8q8 0 14.5 -6.5t6.5 -14.5q0 -7 -6 -13l-103 -110q-4 -6 -12 -6z" />
    <glyph glyph-name="uni1EAD" unicode="&#x1ead;" horiz-adv-x="440" 
d="M330.5 457q38.5 -38 38.5 -114v-321q0 -10 -7.5 -17.5t-17.5 -7.5t-18 7.5t-8 17.5v32q-22 -33 -55.5 -49.5t-71.5 -16.5q-40 0 -73 19.5t-52.5 56t-19.5 85.5t19.5 85t52.5 55.5t73 19.5q82 0 127 -65v95q0 54 -26.5 83t-75.5 29q-31 0 -57 -11t-51 -36q-6 -6 -15 -6
t-15.5 6.5t-6.5 15.5t8 17q32 30 66.5 44t75.5 14q71 0 109.5 -38zM270 44q30 17 48 51v106q-18 34 -48 51t-65 17q-49 0 -77.5 -35t-28.5 -86t28.5 -86t77.5 -35q35 0 65 17zM224 688l-73 -111q-4 -8 -13 -8q-6 0 -11 4.5t-5 11.5q0 3 4 11l65 113q4 8 11.5 12.5t15.5 4.5
h11q18 0 27 -17l67 -114q0 -1 1.5 -4t1.5 -6q0 -7 -4.5 -11.5t-11.5 -4.5q-9 0 -13 8zM196 -93q11 11 26 11t26 -11t11 -26q0 -16 -11 -26.5t-26 -10.5t-26 10.5t-11 26.5q0 15 11 26z" />
    <glyph glyph-name="uni1EA7" unicode="&#x1ea7;" horiz-adv-x="440" 
d="M330.5 457q38.5 -38 38.5 -114v-321q0 -10 -7.5 -17.5t-17.5 -7.5t-18 7.5t-8 17.5v32q-22 -33 -55.5 -49.5t-71.5 -16.5q-40 0 -73 19.5t-52.5 56t-19.5 85.5t19.5 85t52.5 55.5t73 19.5q82 0 127 -65v95q0 54 -26.5 83t-75.5 29q-31 0 -57 -11t-51 -36q-6 -6 -15 -6
t-15.5 6.5t-6.5 15.5t8 17q32 30 66.5 44t75.5 14q71 0 109.5 -38zM270 44q30 17 48 51v106q-18 34 -48 51t-65 17q-49 0 -77.5 -35t-28.5 -86t28.5 -86t77.5 -35q35 0 65 17zM224 688l-73 -111q-4 -8 -13 -8q-6 0 -11 4.5t-5 11.5q0 3 4 11l65 113q4 8 11.5 12.5t15.5 4.5
h11q18 0 27 -17l67 -114q0 -1 1.5 -4t1.5 -6q0 -7 -4.5 -11.5t-11.5 -4.5q-9 0 -13 8zM3 789q-6 6 -6 13q0 8 6.5 14.5t14.5 6.5q11 0 16 -8l95 -117q4 -6 4 -10q0 -6 -4.5 -10.5t-11.5 -4.5t-11 6z" />
    <glyph glyph-name="uni1EA9" unicode="&#x1ea9;" horiz-adv-x="440" 
d="M330.5 457q38.5 -38 38.5 -114v-321q0 -10 -7.5 -17.5t-17.5 -7.5t-18 7.5t-8 17.5v32q-22 -33 -55.5 -49.5t-71.5 -16.5q-40 0 -73 19.5t-52.5 56t-19.5 85.5t19.5 85t52.5 55.5t73 19.5q82 0 127 -65v95q0 54 -26.5 83t-75.5 29q-31 0 -57 -11t-51 -36q-6 -6 -15 -6
t-15.5 6.5t-6.5 15.5t8 17q32 30 66.5 44t75.5 14q71 0 109.5 -38zM270 44q30 17 48 51v106q-18 34 -48 51t-65 17q-49 0 -77.5 -35t-28.5 -86t28.5 -86t77.5 -35q35 0 65 17zM224 688l-73 -111q-4 -8 -13 -8q-6 0 -11 4.5t-5 11.5q0 3 4 11l65 113q4 8 11.5 12.5t15.5 4.5
h11q18 0 27 -17l67 -114q0 -1 1.5 -4t1.5 -6q0 -7 -4.5 -11.5t-11.5 -4.5q-9 0 -13 8zM324.5 678q-4.5 5 -4.5 11q0 2 2 10q15 25 15 53q0 25 -11 37t-30 12q-29 0 -42 -28q-3 -10 -15 -10q-8 0 -13 5.5t-5 12.5l2 9q23 45 73 45q34 0 56 -20.5t22 -61.5q0 -35 -23 -72
q-5 -8 -15 -8q-7 0 -11.5 5z" />
    <glyph glyph-name="uni1EAF" unicode="&#x1eaf;" horiz-adv-x="440" 
d="M330.5 457q38.5 -38 38.5 -114v-321q0 -10 -7.5 -17.5t-17.5 -7.5t-18 7.5t-8 17.5v32q-22 -33 -55.5 -49.5t-71.5 -16.5q-40 0 -73 19.5t-52.5 56t-19.5 85.5t19.5 85t52.5 55.5t73 19.5q82 0 127 -65v95q0 54 -26.5 83t-75.5 29q-31 0 -57 -11t-51 -36q-6 -6 -15 -6
t-15.5 6.5t-6.5 15.5t8 17q32 30 66.5 44t75.5 14q71 0 109.5 -38zM270 44q30 17 48 51v106q-18 34 -48 51t-65 17q-49 0 -77.5 -35t-28.5 -86t28.5 -86t77.5 -35q35 0 65 17zM149 587q-35 16 -62 45q-5 7 -5 13q0 8 5.5 13.5t12.5 5.5q10 0 14 -6q21 -24 49.5 -37t59.5 -13
t59 13t48 36q5 7 15 7q7 0 12.5 -6t5.5 -13q0 -6 -5 -13q-26 -29 -61 -45t-74 -16t-74 16zM228 683q-6 0 -10.5 4.5t-4.5 10.5q0 4 4 10l95 117q5 8 16 8q8 0 14.5 -6.5t6.5 -14.5q0 -7 -6 -13l-103 -110q-4 -6 -12 -6z" />
    <glyph glyph-name="uni1EAB" unicode="&#x1eab;" horiz-adv-x="440" 
d="M330.5 457q38.5 -38 38.5 -114v-321q0 -10 -7.5 -17.5t-17.5 -7.5t-18 7.5t-8 17.5v32q-22 -33 -55.5 -49.5t-71.5 -16.5q-40 0 -73 19.5t-52.5 56t-19.5 85.5t19.5 85t52.5 55.5t73 19.5q82 0 127 -65v95q0 54 -26.5 83t-75.5 29q-31 0 -57 -11t-51 -36q-6 -6 -15 -6
t-15.5 6.5t-6.5 15.5t8 17q32 30 66.5 44t75.5 14q71 0 109.5 -38zM270 44q30 17 48 51v106q-18 34 -48 51t-65 17q-49 0 -77.5 -35t-28.5 -86t28.5 -86t77.5 -35q35 0 65 17zM224 688l-73 -111q-4 -8 -13 -8q-6 0 -11 4.5t-5 11.5q0 3 4 11l65 113q4 8 11.5 12.5t15.5 4.5
h11q18 0 27 -17l67 -114q0 -1 1.5 -4t1.5 -6q0 -7 -4.5 -11.5t-11.5 -4.5q-9 0 -13 8zM235.5 754.5q-13.5 15.5 -26.5 44.5q-9 21 -17.5 32t-21.5 11q-18 0 -30 -21t-14 -63q0 -7 -4.5 -11.5t-11.5 -4.5t-12 5.5t-5 12.5q4 53 24 86t56 33q24 0 37 -15t27 -45
q11 -23 18.5 -33t20.5 -10q19 0 31 21t13 63q0 7 5 11.5t11 4.5q7 0 12 -5t5 -13q-3 -53 -23.5 -86t-56.5 -33q-24 0 -37.5 15.5z" />
    <glyph glyph-name="uni1EB1" unicode="&#x1eb1;" horiz-adv-x="440" 
d="M330.5 457q38.5 -38 38.5 -114v-321q0 -10 -7.5 -17.5t-17.5 -7.5t-18 7.5t-8 17.5v32q-22 -33 -55.5 -49.5t-71.5 -16.5q-40 0 -73 19.5t-52.5 56t-19.5 85.5t19.5 85t52.5 55.5t73 19.5q82 0 127 -65v95q0 54 -26.5 83t-75.5 29q-31 0 -57 -11t-51 -36q-6 -6 -15 -6
t-15.5 6.5t-6.5 15.5t8 17q32 30 66.5 44t75.5 14q71 0 109.5 -38zM270 44q30 17 48 51v106q-18 34 -48 51t-65 17q-49 0 -77.5 -35t-28.5 -86t28.5 -86t77.5 -35q35 0 65 17zM149 587q-35 16 -62 45q-5 7 -5 13q0 8 5.5 13.5t12.5 5.5q10 0 14 -6q21 -24 49.5 -37t59.5 -13
t59 13t48 36q5 7 15 7q7 0 12.5 -6t5.5 -13q0 -6 -5 -13q-26 -29 -61 -45t-74 -16t-74 16zM104 799q-6 6 -6 13q0 8 6.5 14.5t14.5 6.5q11 0 16 -8l95 -117q4 -6 4 -10q0 -6 -4.5 -10.5t-11.5 -4.5t-11 6z" />
    <glyph glyph-name="uni1EB3" unicode="&#x1eb3;" horiz-adv-x="440" 
d="M330.5 457q38.5 -38 38.5 -114v-321q0 -10 -7.5 -17.5t-17.5 -7.5t-18 7.5t-8 17.5v32q-22 -33 -55.5 -49.5t-71.5 -16.5q-40 0 -73 19.5t-52.5 56t-19.5 85.5t19.5 85t52.5 55.5t73 19.5q82 0 127 -65v95q0 54 -26.5 83t-75.5 29q-31 0 -57 -11t-51 -36q-6 -6 -15 -6
t-15.5 6.5t-6.5 15.5t8 17q32 30 66.5 44t75.5 14q71 0 109.5 -38zM270 44q30 17 48 51v106q-18 34 -48 51t-65 17q-49 0 -77.5 -35t-28.5 -86t28.5 -86t77.5 -35q35 0 65 17zM149 587q-35 16 -62 45q-5 7 -5 13q0 8 5.5 13.5t12.5 5.5q10 0 14 -6q21 -24 49.5 -37t59.5 -13
t59 13t48 36q5 7 15 7q7 0 12.5 -6t5.5 -13q0 -6 -5 -13q-26 -29 -61 -45t-74 -16t-74 16zM248.5 689q-4.5 5 -4.5 11q0 2 2 10q15 25 15 53q0 25 -11 37t-30 12q-29 0 -42 -28q-3 -10 -15 -10q-8 0 -13 5.5t-5 12.5l2 9q23 45 73 45q34 0 56 -20.5t22 -61.5q0 -35 -23 -72
q-5 -8 -15 -8q-7 0 -11.5 5z" />
    <glyph glyph-name="uni1EB5" unicode="&#x1eb5;" horiz-adv-x="440" 
d="M330.5 457q38.5 -38 38.5 -114v-321q0 -10 -7.5 -17.5t-17.5 -7.5t-18 7.5t-8 17.5v32q-22 -33 -55.5 -49.5t-71.5 -16.5q-40 0 -73 19.5t-52.5 56t-19.5 85.5t19.5 85t52.5 55.5t73 19.5q82 0 127 -65v95q0 54 -26.5 83t-75.5 29q-31 0 -57 -11t-51 -36q-6 -6 -15 -6
t-15.5 6.5t-6.5 15.5t8 17q32 30 66.5 44t75.5 14q71 0 109.5 -38zM270 44q30 17 48 51v106q-18 34 -48 51t-65 17q-49 0 -77.5 -35t-28.5 -86t28.5 -86t77.5 -35q35 0 65 17zM149 587q-35 16 -62 45q-5 7 -5 13q0 8 5.5 13.5t12.5 5.5q10 0 14 -6q21 -24 49.5 -37t59.5 -13
t59 13t48 36q5 7 15 7q7 0 12.5 -6t5.5 -13q0 -6 -5 -13q-26 -29 -61 -45t-74 -16t-74 16zM235.5 699.5q-13.5 15.5 -26.5 44.5q-9 21 -17.5 32t-21.5 11q-18 0 -30 -21t-14 -63q0 -7 -4.5 -11.5t-11.5 -4.5t-12 5.5t-5 12.5q4 53 24 86t56 33q24 0 37 -15t27 -45
q11 -23 18.5 -33t20.5 -10q19 0 31 21t13 63q0 7 5 11.5t11 4.5q7 0 12 -5t5 -13q-3 -53 -23.5 -86t-56.5 -33q-24 0 -37.5 15.5z" />
    <glyph glyph-name="uni1EB7" unicode="&#x1eb7;" horiz-adv-x="440" 
d="M330.5 457q38.5 -38 38.5 -114v-321q0 -10 -7.5 -17.5t-17.5 -7.5t-18 7.5t-8 17.5v32q-22 -33 -55.5 -49.5t-71.5 -16.5q-40 0 -73 19.5t-52.5 56t-19.5 85.5t19.5 85t52.5 55.5t73 19.5q82 0 127 -65v95q0 54 -26.5 83t-75.5 29q-31 0 -57 -11t-51 -36q-6 -6 -15 -6
t-15.5 6.5t-6.5 15.5t8 17q32 30 66.5 44t75.5 14q71 0 109.5 -38zM270 44q30 17 48 51v106q-18 34 -48 51t-65 17q-49 0 -77.5 -35t-28.5 -86t28.5 -86t77.5 -35q35 0 65 17zM149 587q-35 16 -62 45q-5 7 -5 13q0 8 5.5 13.5t12.5 5.5q10 0 14 -6q21 -24 49.5 -37t59.5 -13
t59 13t48 36q5 7 15 7q7 0 12.5 -6t5.5 -13q0 -6 -5 -13q-26 -29 -61 -45t-74 -16t-74 16zM196 -93q11 11 26 11t26 -11t11 -26q0 -16 -11 -26.5t-26 -10.5t-26 10.5t-11 26.5q0 15 11 26z" />
    <glyph glyph-name="ae" unicode="&#xe6;" horiz-adv-x="730" 
d="M423 85.5q37 -53.5 101 -53.5q58 0 100 50q7 7 16 7t15 -6.5t6 -14.5q0 -9 -6 -15q-57 -65 -134 -65q-111 0 -159 114q-19 -52 -59.5 -83t-96.5 -31q-71 0 -115.5 43.5t-44.5 116.5t43 117t109 44q87 0 136 -64v94q0 54 -28.5 83t-81.5 29q-33 0 -61 -11t-55 -37
q-7 -5 -14 -5q-10 0 -16.5 6.5t-6.5 15.5q0 12 9 17q62 58 149 58q54 0 92 -26t47 -78q19 46 55 75t86 29q58 0 97.5 -33.5t59 -88t19.5 -118.5q0 -14 -8 -22t-22 -8h-271q2 -86 39 -139.5zM602.5 395.5q-30.5 56.5 -93.5 56.5q-41 0 -69 -28.5t-41.5 -71.5t-14.5 -87h250
q-1 74 -31.5 130.5zM282 251.5q-32 17.5 -70 17.5q-51 0 -82 -32.5t-31 -86.5t31 -86.5t82 -32.5q55 0 88.5 42t33.5 107v20q-20 34 -52 51.5z" />
    <glyph glyph-name="aeacute" unicode="&#x1fd;" horiz-adv-x="730" 
d="M423 85.5q37 -53.5 101 -53.5q58 0 100 50q7 7 16 7t15 -6.5t6 -14.5q0 -9 -6 -15q-57 -65 -134 -65q-111 0 -159 114q-19 -52 -59.5 -83t-96.5 -31q-71 0 -115.5 43.5t-44.5 116.5t43 117t109 44q87 0 136 -64v94q0 54 -28.5 83t-81.5 29q-33 0 -61 -11t-55 -37
q-7 -5 -14 -5q-10 0 -16.5 6.5t-6.5 15.5q0 12 9 17q62 58 149 58q54 0 92 -26t47 -78q19 46 55 75t86 29q58 0 97.5 -33.5t59 -88t19.5 -118.5q0 -14 -8 -22t-22 -8h-271q2 -86 39 -139.5zM602.5 395.5q-30.5 56.5 -93.5 56.5q-41 0 -69 -28.5t-41.5 -71.5t-14.5 -87h250
q-1 74 -31.5 130.5zM282 251.5q-32 17.5 -70 17.5q-51 0 -82 -32.5t-31 -86.5t31 -86.5t82 -32.5q55 0 88.5 42t33.5 107v20q-20 34 -52 51.5zM366 573q-6 0 -10.5 4.5t-4.5 10.5q0 4 4 10l95 117q5 8 16 8q8 0 14.5 -6.5t6.5 -14.5q0 -7 -6 -13l-103 -110q-4 -6 -12 -6z
" />
    <glyph glyph-name="aacute.alt1" 
d="M390.5 478.5q7.5 -7.5 7.5 -17.5v-439q0 -10 -7.5 -17.5t-17.5 -7.5t-17.5 7.5t-7.5 17.5v51q-20 -39 -55 -62t-74 -23q-80 0 -125.5 69t-45.5 184q0 114 45.5 184t125.5 70q39 0 73.5 -23t55.5 -65v54q0 10 7.5 17.5t17.5 7.5t17.5 -7.5zM298.5 59q33.5 26 49.5 63v237
q-16 37 -49.5 63.5t-70.5 26.5q-62 0 -94 -58.5t-32 -149.5t32 -149.5t94 -58.5q37 0 70.5 26zM242 573q-6 0 -10.5 4.5t-4.5 10.5q0 4 4 10l95 117q5 8 16 8q8 0 14.5 -6.5t6.5 -14.5q0 -7 -6 -13l-103 -110q-4 -6 -12 -6z" />
    <glyph glyph-name="abreve.alt1" 
d="M390.5 478.5q7.5 -7.5 7.5 -17.5v-439q0 -10 -7.5 -17.5t-17.5 -7.5t-17.5 7.5t-7.5 17.5v51q-20 -39 -55 -62t-74 -23q-80 0 -125.5 69t-45.5 184q0 114 45.5 184t125.5 70q39 0 73.5 -23t55.5 -65v54q0 10 7.5 17.5t17.5 7.5t17.5 -7.5zM298.5 59q33.5 26 49.5 63v237
q-16 37 -49.5 63.5t-70.5 26.5q-62 0 -94 -58.5t-32 -149.5t32 -149.5t94 -58.5q37 0 70.5 26zM164 587q-35 16 -62 45q-5 7 -5 13q0 8 5.5 13.5t12.5 5.5q10 0 14 -6q21 -24 49.5 -37t59.5 -13t59 13t48 36q5 7 15 7q7 0 12.5 -6t5.5 -13q0 -6 -5 -13q-26 -29 -61 -45
t-74 -16t-74 16z" />
    <glyph glyph-name="acircumflex.alt1" 
d="M390.5 478.5q7.5 -7.5 7.5 -17.5v-439q0 -10 -7.5 -17.5t-17.5 -7.5t-17.5 7.5t-7.5 17.5v51q-20 -39 -55 -62t-74 -23q-80 0 -125.5 69t-45.5 184q0 114 45.5 184t125.5 70q39 0 73.5 -23t55.5 -65v54q0 10 7.5 17.5t17.5 7.5t17.5 -7.5zM298.5 59q33.5 26 49.5 63v237
q-16 37 -49.5 63.5t-70.5 26.5q-62 0 -94 -58.5t-32 -149.5t32 -149.5t94 -58.5q37 0 70.5 26zM238 688l-73 -111q-4 -8 -13 -8q-6 0 -11 4.5t-5 11.5q0 3 4 11l65 113q4 8 11.5 12.5t15.5 4.5h11q18 0 27 -17l67 -114q0 -1 1.5 -4t1.5 -6q0 -7 -4.5 -11.5t-11.5 -4.5
q-9 0 -13 8z" />
    <glyph glyph-name="adieresis.alt1" 
d="M390.5 478.5q7.5 -7.5 7.5 -17.5v-439q0 -10 -7.5 -17.5t-17.5 -7.5t-17.5 7.5t-7.5 17.5v51q-20 -39 -55 -62t-74 -23q-80 0 -125.5 69t-45.5 184q0 114 45.5 184t125.5 70q39 0 73.5 -23t55.5 -65v54q0 10 7.5 17.5t17.5 7.5t17.5 -7.5zM298.5 59q33.5 26 49.5 63v237
q-16 37 -49.5 63.5t-70.5 26.5q-62 0 -94 -58.5t-32 -149.5t32 -149.5t94 -58.5q37 0 70.5 26zM127 599.5q-11 10.5 -11 25.5t11 26t26 11t25.5 -11t10.5 -26t-10.5 -25.5t-25.5 -10.5t-26 10.5zM295 599.5q-11 10.5 -11 25.5t11 26t26 11t25.5 -11t10.5 -26t-10.5 -25.5
t-25.5 -10.5t-26 10.5z" />
    <glyph glyph-name="agrave.alt1" 
d="M390.5 478.5q7.5 -7.5 7.5 -17.5v-439q0 -10 -7.5 -17.5t-17.5 -7.5t-17.5 7.5t-7.5 17.5v51q-20 -39 -55 -62t-74 -23q-80 0 -125.5 69t-45.5 184q0 114 45.5 184t125.5 70q39 0 73.5 -23t55.5 -65v54q0 10 7.5 17.5t17.5 7.5t17.5 -7.5zM298.5 59q33.5 26 49.5 63v237
q-16 37 -49.5 63.5t-70.5 26.5q-62 0 -94 -58.5t-32 -149.5t32 -149.5t94 -58.5q37 0 70.5 26zM118 689q-6 6 -6 13q0 8 6.5 14.5t14.5 6.5q11 0 16 -8l95 -117q4 -6 4 -10q0 -6 -4.5 -10.5t-11.5 -4.5t-11 6z" />
    <glyph glyph-name="amacron.alt1" 
d="M390.5 478.5q7.5 -7.5 7.5 -17.5v-439q0 -10 -7.5 -17.5t-17.5 -7.5t-17.5 7.5t-7.5 17.5v51q-20 -39 -55 -62t-74 -23q-80 0 -125.5 69t-45.5 184q0 114 45.5 184t125.5 70q39 0 73.5 -23t55.5 -65v54q0 10 7.5 17.5t17.5 7.5t17.5 -7.5zM298.5 59q33.5 26 49.5 63v237
q-16 37 -49.5 63.5t-70.5 26.5q-62 0 -94 -58.5t-32 -149.5t32 -149.5t94 -58.5q37 0 70.5 26zM117.5 602.5q-5.5 5.5 -5.5 12.5q0 8 5.5 13.5t13.5 5.5h211q7 0 13 -5.5t6 -13.5q0 -7 -5.5 -12.5t-13.5 -5.5h-211q-8 0 -13.5 5.5z" />
    <glyph glyph-name="aogonek.alt1" 
d="M398 22q0 -8 -4 -13q4 -3 -2 -7q-39 -31 -59 -56.5t-20 -50.5q0 -19 10.5 -30t28.5 -11q9 0 17 3t11 3q8 0 13 -5.5t5 -13.5q0 -7 -3.5 -11.5t-8.5 -6.5q-18 -9 -41 -9q-33 0 -56.5 18.5t-23.5 52.5t26.5 65t66.5 52q-10 8 -10 20v51q-20 -39 -55 -62t-74 -23
q-80 0 -125.5 69t-45.5 184q0 114 45.5 184t125.5 70q39 0 73.5 -23t55.5 -65v54q0 10 7.5 17.5t17.5 7.5t17.5 -7.5t7.5 -17.5v-439zM298.5 59q33.5 26 49.5 63v237q-16 37 -49.5 63.5t-70.5 26.5q-62 0 -94 -58.5t-32 -149.5t32 -149.5t94 -58.5q37 0 70.5 26z" />
    <glyph glyph-name="aring.alt1" 
d="M390.5 478.5q7.5 -7.5 7.5 -17.5v-439q0 -10 -7.5 -17.5t-17.5 -7.5t-17.5 7.5t-7.5 17.5v51q-20 -39 -55 -62t-74 -23q-80 0 -125.5 69t-45.5 184q0 114 45.5 184t125.5 70q39 0 73.5 -23t55.5 -65v54q0 10 7.5 17.5t17.5 7.5t17.5 -7.5zM298.5 59q33.5 26 49.5 63v237
q-16 37 -49.5 63.5t-70.5 26.5q-62 0 -94 -58.5t-32 -149.5t32 -149.5t94 -58.5q37 0 70.5 26zM175 719q26 26 62 26t61.5 -26t25.5 -62q0 -37 -25 -62.5t-62 -25.5q-36 0 -62 25.5t-26 62.5q0 36 26 62zM277.5 697q-16.5 17 -40.5 17q-23 0 -40 -17t-17 -40q0 -24 17 -41
t40 -17q24 0 40.5 17t16.5 41q0 23 -16.5 40z" />
    <glyph glyph-name="aringacute.alt1" 
d="M390.5 478.5q7.5 -7.5 7.5 -17.5v-439q0 -10 -7.5 -17.5t-17.5 -7.5t-17.5 7.5t-7.5 17.5v51q-20 -39 -55 -62t-74 -23q-80 0 -125.5 69t-45.5 184q0 114 45.5 184t125.5 70q39 0 73.5 -23t55.5 -65v54q0 10 7.5 17.5t17.5 7.5t17.5 -7.5zM298.5 59q33.5 26 49.5 63v237
q-16 37 -49.5 63.5t-70.5 26.5q-62 0 -94 -58.5t-32 -149.5t32 -149.5t94 -58.5q37 0 70.5 26zM175 719q26 26 62 26t61.5 -26t25.5 -62q0 -37 -25 -62.5t-62 -25.5q-36 0 -62 25.5t-26 62.5q0 36 26 62zM277.5 697q-16.5 17 -40.5 17q-23 0 -40 -17t-17 -40q0 -24 17 -41
t40 -17q24 0 40.5 17t16.5 41q0 23 -16.5 40zM241 775q-6 0 -10.5 4.5t-4.5 10.5q0 4 4 10l95 117q5 8 16 8q8 0 14.5 -6.5t6.5 -14.5q0 -7 -6 -13l-103 -110q-4 -6 -12 -6z" />
    <glyph glyph-name="atilde.alt1" 
d="M390.5 478.5q7.5 -7.5 7.5 -17.5v-439q0 -10 -7.5 -17.5t-17.5 -7.5t-17.5 7.5t-7.5 17.5v51q-20 -39 -55 -62t-74 -23q-80 0 -125.5 69t-45.5 184q0 114 45.5 184t125.5 70q39 0 73.5 -23t55.5 -65v54q0 10 7.5 17.5t17.5 7.5t17.5 -7.5zM298.5 59q33.5 26 49.5 63v237
q-16 37 -49.5 63.5t-70.5 26.5q-62 0 -94 -58.5t-32 -149.5t32 -149.5t94 -58.5q37 0 70.5 26zM250.5 589.5q-13.5 15.5 -26.5 44.5q-9 21 -17.5 32t-21.5 11q-18 0 -30 -21t-14 -63q0 -7 -4.5 -11.5t-11.5 -4.5t-12 5.5t-5 12.5q4 53 24 86t56 33q24 0 37 -15t27 -45
q11 -23 18.5 -33t20.5 -10q19 0 31 21t13 63q0 7 5 11.5t11 4.5q7 0 12 -5t5 -13q-3 -53 -23.5 -86t-56.5 -33q-24 0 -37.5 15.5z" />
    <glyph glyph-name="uni1EA1.alt1" 
d="M390.5 478.5q7.5 -7.5 7.5 -17.5v-439q0 -10 -7.5 -17.5t-17.5 -7.5t-17.5 7.5t-7.5 17.5v51q-20 -39 -55 -62t-74 -23q-80 0 -125.5 69t-45.5 184q0 114 45.5 184t125.5 70q39 0 73.5 -23t55.5 -65v54q0 10 7.5 17.5t17.5 7.5t17.5 -7.5zM298.5 59q33.5 26 49.5 63v237
q-16 37 -49.5 63.5t-70.5 26.5q-62 0 -94 -58.5t-32 -149.5t32 -149.5t94 -58.5q37 0 70.5 26zM211 -93q11 11 26 11t26 -11t11 -26q0 -16 -11 -26.5t-26 -10.5t-26 10.5t-11 26.5q0 15 11 26z" />
    <glyph glyph-name="uni1EA3.alt1" 
d="M390.5 478.5q7.5 -7.5 7.5 -17.5v-439q0 -10 -7.5 -17.5t-17.5 -7.5t-17.5 7.5t-7.5 17.5v51q-20 -39 -55 -62t-74 -23q-80 0 -125.5 69t-45.5 184q0 114 45.5 184t125.5 70q39 0 73.5 -23t55.5 -65v54q0 10 7.5 17.5t17.5 7.5t17.5 -7.5zM298.5 59q33.5 26 49.5 63v237
q-16 37 -49.5 63.5t-70.5 26.5q-62 0 -94 -58.5t-32 -149.5t32 -149.5t94 -58.5q37 0 70.5 26zM263.5 579q-4.5 5 -4.5 11q0 2 2 10q15 25 15 53q0 25 -11 37t-30 12q-29 0 -42 -28q-3 -10 -15 -10q-8 0 -13 5.5t-5 12.5l2 9q23 45 73 45q34 0 56 -20.5t22 -61.5
q0 -35 -23 -72q-5 -8 -15 -8q-7 0 -11.5 5z" />
    <glyph glyph-name="uni1EA5.alt1" 
d="M390.5 478.5q7.5 -7.5 7.5 -17.5v-439q0 -10 -7.5 -17.5t-17.5 -7.5t-17.5 7.5t-7.5 17.5v51q-20 -39 -55 -62t-74 -23q-80 0 -125.5 69t-45.5 184q0 114 45.5 184t125.5 70q39 0 73.5 -23t55.5 -65v54q0 10 7.5 17.5t17.5 7.5t17.5 -7.5zM298.5 59q33.5 26 49.5 63v237
q-16 37 -49.5 63.5t-70.5 26.5q-62 0 -94 -58.5t-32 -149.5t32 -149.5t94 -58.5q37 0 70.5 26zM238 688l-73 -111q-4 -8 -13 -8q-6 0 -11 4.5t-5 11.5q0 3 4 11l65 113q4 8 11.5 12.5t15.5 4.5h11q18 0 27 -17l67 -114q0 -1 1.5 -4t1.5 -6q0 -7 -4.5 -11.5t-11.5 -4.5
q-9 0 -13 8zM344 673q-6 0 -10.5 4.5t-4.5 10.5q0 4 4 10l95 117q5 8 16 8q8 0 14.5 -6.5t6.5 -14.5q0 -7 -6 -13l-103 -110q-4 -6 -12 -6z" />
    <glyph glyph-name="uni1EAD.alt1" 
d="M390.5 478.5q7.5 -7.5 7.5 -17.5v-439q0 -10 -7.5 -17.5t-17.5 -7.5t-17.5 7.5t-7.5 17.5v51q-20 -39 -55 -62t-74 -23q-80 0 -125.5 69t-45.5 184q0 114 45.5 184t125.5 70q39 0 73.5 -23t55.5 -65v54q0 10 7.5 17.5t17.5 7.5t17.5 -7.5zM298.5 59q33.5 26 49.5 63v237
q-16 37 -49.5 63.5t-70.5 26.5q-62 0 -94 -58.5t-32 -149.5t32 -149.5t94 -58.5q37 0 70.5 26zM238 688l-73 -111q-4 -8 -13 -8q-6 0 -11 4.5t-5 11.5q0 3 4 11l65 113q4 8 11.5 12.5t15.5 4.5h11q18 0 27 -17l67 -114q0 -1 1.5 -4t1.5 -6q0 -7 -4.5 -11.5t-11.5 -4.5
q-9 0 -13 8zM211 -93q11 11 26 11t26 -11t11 -26q0 -16 -11 -26.5t-26 -10.5t-26 10.5t-11 26.5q0 15 11 26z" />
    <glyph glyph-name="uni1EA7.alt1" 
d="M390.5 478.5q7.5 -7.5 7.5 -17.5v-439q0 -10 -7.5 -17.5t-17.5 -7.5t-17.5 7.5t-7.5 17.5v51q-20 -39 -55 -62t-74 -23q-80 0 -125.5 69t-45.5 184q0 114 45.5 184t125.5 70q39 0 73.5 -23t55.5 -65v54q0 10 7.5 17.5t17.5 7.5t17.5 -7.5zM298.5 59q33.5 26 49.5 63v237
q-16 37 -49.5 63.5t-70.5 26.5q-62 0 -94 -58.5t-32 -149.5t32 -149.5t94 -58.5q37 0 70.5 26zM238 688l-73 -111q-4 -8 -13 -8q-6 0 -11 4.5t-5 11.5q0 3 4 11l65 113q4 8 11.5 12.5t15.5 4.5h11q18 0 27 -17l67 -114q0 -1 1.5 -4t1.5 -6q0 -7 -4.5 -11.5t-11.5 -4.5
q-9 0 -13 8zM17 789q-6 6 -6 13q0 8 6.5 14.5t14.5 6.5q11 0 16 -8l95 -117q4 -6 4 -10q0 -6 -4.5 -10.5t-11.5 -4.5t-11 6z" />
    <glyph glyph-name="uni1EA9.alt1" 
d="M390.5 478.5q7.5 -7.5 7.5 -17.5v-439q0 -10 -7.5 -17.5t-17.5 -7.5t-17.5 7.5t-7.5 17.5v51q-20 -39 -55 -62t-74 -23q-80 0 -125.5 69t-45.5 184q0 114 45.5 184t125.5 70q39 0 73.5 -23t55.5 -65v54q0 10 7.5 17.5t17.5 7.5t17.5 -7.5zM298.5 59q33.5 26 49.5 63v237
q-16 37 -49.5 63.5t-70.5 26.5q-62 0 -94 -58.5t-32 -149.5t32 -149.5t94 -58.5q37 0 70.5 26zM238 688l-73 -111q-4 -8 -13 -8q-6 0 -11 4.5t-5 11.5q0 3 4 11l65 113q4 8 11.5 12.5t15.5 4.5h11q18 0 27 -17l67 -114q0 -1 1.5 -4t1.5 -6q0 -7 -4.5 -11.5t-11.5 -4.5
q-9 0 -13 8zM338.5 678q-4.5 5 -4.5 11q0 2 2 10q15 25 15 53q0 25 -11 37t-30 12q-29 0 -42 -28q-3 -10 -15 -10q-8 0 -13 5.5t-5 12.5l2 9q23 45 73 45q34 0 56 -20.5t22 -61.5q0 -35 -23 -72q-5 -8 -15 -8q-7 0 -11.5 5z" />
    <glyph glyph-name="uni1EAF.alt1" 
d="M390.5 478.5q7.5 -7.5 7.5 -17.5v-439q0 -10 -7.5 -17.5t-17.5 -7.5t-17.5 7.5t-7.5 17.5v51q-20 -39 -55 -62t-74 -23q-80 0 -125.5 69t-45.5 184q0 114 45.5 184t125.5 70q39 0 73.5 -23t55.5 -65v54q0 10 7.5 17.5t17.5 7.5t17.5 -7.5zM298.5 59q33.5 26 49.5 63v237
q-16 37 -49.5 63.5t-70.5 26.5q-62 0 -94 -58.5t-32 -149.5t32 -149.5t94 -58.5q37 0 70.5 26zM163 587q-35 16 -62 45q-5 7 -5 13q0 8 5.5 13.5t12.5 5.5q10 0 14 -6q21 -24 49.5 -37t59.5 -13t59 13t48 36q5 7 15 7q7 0 12.5 -6t5.5 -13q0 -6 -5 -13q-26 -29 -61 -45
t-74 -16t-74 16zM242 683q-6 0 -10.5 4.5t-4.5 10.5q0 4 4 10l95 117q5 8 16 8q8 0 14.5 -6.5t6.5 -14.5q0 -7 -6 -13l-103 -110q-4 -6 -12 -6z" />
    <glyph glyph-name="uni1EAB.alt1" 
d="M390.5 478.5q7.5 -7.5 7.5 -17.5v-439q0 -10 -7.5 -17.5t-17.5 -7.5t-17.5 7.5t-7.5 17.5v51q-20 -39 -55 -62t-74 -23q-80 0 -125.5 69t-45.5 184q0 114 45.5 184t125.5 70q39 0 73.5 -23t55.5 -65v54q0 10 7.5 17.5t17.5 7.5t17.5 -7.5zM298.5 59q33.5 26 49.5 63v237
q-16 37 -49.5 63.5t-70.5 26.5q-62 0 -94 -58.5t-32 -149.5t32 -149.5t94 -58.5q37 0 70.5 26zM238 688l-73 -111q-4 -8 -13 -8q-6 0 -11 4.5t-5 11.5q0 3 4 11l65 113q4 8 11.5 12.5t15.5 4.5h11q18 0 27 -17l67 -114q0 -1 1.5 -4t1.5 -6q0 -7 -4.5 -11.5t-11.5 -4.5
q-9 0 -13 8zM249.5 754.5q-13.5 15.5 -26.5 44.5q-9 21 -17.5 32t-21.5 11q-18 0 -30 -21t-14 -63q0 -7 -4.5 -11.5t-11.5 -4.5t-12 5.5t-5 12.5q4 53 24 86t56 33q24 0 37 -15t27 -45q11 -23 18.5 -33t20.5 -10q19 0 31 21t13 63q0 7 5 11.5t11 4.5q7 0 12 -5t5 -13
q-3 -53 -23.5 -86t-56.5 -33q-24 0 -37.5 15.5z" />
    <glyph glyph-name="uni1EB1.alt1" 
d="M390.5 478.5q7.5 -7.5 7.5 -17.5v-439q0 -10 -7.5 -17.5t-17.5 -7.5t-17.5 7.5t-7.5 17.5v51q-20 -39 -55 -62t-74 -23q-80 0 -125.5 69t-45.5 184q0 114 45.5 184t125.5 70q39 0 73.5 -23t55.5 -65v54q0 10 7.5 17.5t17.5 7.5t17.5 -7.5zM298.5 59q33.5 26 49.5 63v237
q-16 37 -49.5 63.5t-70.5 26.5q-62 0 -94 -58.5t-32 -149.5t32 -149.5t94 -58.5q37 0 70.5 26zM163 587q-35 16 -62 45q-5 7 -5 13q0 8 5.5 13.5t12.5 5.5q10 0 14 -6q21 -24 49.5 -37t59.5 -13t59 13t48 36q5 7 15 7q7 0 12.5 -6t5.5 -13q0 -6 -5 -13q-26 -29 -61 -45
t-74 -16t-74 16zM118 799q-6 6 -6 13q0 8 6.5 14.5t14.5 6.5q11 0 16 -8l95 -117q4 -6 4 -10q0 -6 -4.5 -10.5t-11.5 -4.5t-11 6z" />
    <glyph glyph-name="uni1EB3.alt1" 
d="M390.5 478.5q7.5 -7.5 7.5 -17.5v-439q0 -10 -7.5 -17.5t-17.5 -7.5t-17.5 7.5t-7.5 17.5v51q-20 -39 -55 -62t-74 -23q-80 0 -125.5 69t-45.5 184q0 114 45.5 184t125.5 70q39 0 73.5 -23t55.5 -65v54q0 10 7.5 17.5t17.5 7.5t17.5 -7.5zM298.5 59q33.5 26 49.5 63v237
q-16 37 -49.5 63.5t-70.5 26.5q-62 0 -94 -58.5t-32 -149.5t32 -149.5t94 -58.5q37 0 70.5 26zM163 587q-35 16 -62 45q-5 7 -5 13q0 8 5.5 13.5t12.5 5.5q10 0 14 -6q21 -24 49.5 -37t59.5 -13t59 13t48 36q5 7 15 7q7 0 12.5 -6t5.5 -13q0 -6 -5 -13q-26 -29 -61 -45
t-74 -16t-74 16zM262.5 689q-4.5 5 -4.5 11q0 2 2 10q15 25 15 53q0 25 -11 37t-30 12q-29 0 -42 -28q-3 -10 -15 -10q-8 0 -13 5.5t-5 12.5l2 9q23 45 73 45q34 0 56 -20.5t22 -61.5q0 -35 -23 -72q-5 -8 -15 -8q-7 0 -11.5 5z" />
    <glyph glyph-name="uni1EB5.alt1" 
d="M390.5 478.5q7.5 -7.5 7.5 -17.5v-439q0 -10 -7.5 -17.5t-17.5 -7.5t-17.5 7.5t-7.5 17.5v51q-20 -39 -55 -62t-74 -23q-80 0 -125.5 69t-45.5 184q0 114 45.5 184t125.5 70q39 0 73.5 -23t55.5 -65v54q0 10 7.5 17.5t17.5 7.5t17.5 -7.5zM298.5 59q33.5 26 49.5 63v237
q-16 37 -49.5 63.5t-70.5 26.5q-62 0 -94 -58.5t-32 -149.5t32 -149.5t94 -58.5q37 0 70.5 26zM163 587q-35 16 -62 45q-5 7 -5 13q0 8 5.5 13.5t12.5 5.5q10 0 14 -6q21 -24 49.5 -37t59.5 -13t59 13t48 36q5 7 15 7q7 0 12.5 -6t5.5 -13q0 -6 -5 -13q-26 -29 -61 -45
t-74 -16t-74 16zM249.5 699.5q-13.5 15.5 -26.5 44.5q-9 21 -17.5 32t-21.5 11q-18 0 -30 -21t-14 -63q0 -7 -4.5 -11.5t-11.5 -4.5t-12 5.5t-5 12.5q4 53 24 86t56 33q24 0 37 -15t27 -45q11 -23 18.5 -33t20.5 -10q19 0 31 21t13 63q0 7 5 11.5t11 4.5q7 0 12 -5t5 -13
q-3 -53 -23.5 -86t-56.5 -33q-24 0 -37.5 15.5z" />
    <glyph glyph-name="uni1EB7.alt1" 
d="M390.5 478.5q7.5 -7.5 7.5 -17.5v-439q0 -10 -7.5 -17.5t-17.5 -7.5t-17.5 7.5t-7.5 17.5v51q-20 -39 -55 -62t-74 -23q-80 0 -125.5 69t-45.5 184q0 114 45.5 184t125.5 70q39 0 73.5 -23t55.5 -65v54q0 10 7.5 17.5t17.5 7.5t17.5 -7.5zM298.5 59q33.5 26 49.5 63v237
q-16 37 -49.5 63.5t-70.5 26.5q-62 0 -94 -58.5t-32 -149.5t32 -149.5t94 -58.5q37 0 70.5 26zM163 587q-35 16 -62 45q-5 7 -5 13q0 8 5.5 13.5t12.5 5.5q10 0 14 -6q21 -24 49.5 -37t59.5 -13t59 13t48 36q5 7 15 7q7 0 12.5 -6t5.5 -13q0 -6 -5 -13q-26 -29 -61 -45
t-74 -16t-74 16zM211 -93q11 11 26 11t26 -11t11 -26q0 -16 -11 -26.5t-26 -10.5t-26 10.5t-11 26.5q0 15 11 26z" />
    <glyph glyph-name="ae.alt1" horiz-adv-x="760" 
d="M707 229q-8 -4 -22 -4h-287q2 -85 41.5 -139t107.5 -54q61 0 106 51q6 6 16 6q9 0 15.5 -6.5t6.5 -15.5t-6 -15q-58 -64 -133 -64q-61 0 -98 31t-56 78v-75q0 -10 -7.5 -17.5t-17.5 -7.5t-17.5 7.5t-7.5 17.5v51q-20 -39 -55 -62t-74 -23q-80 0 -125.5 69t-45.5 184
q0 114 45.5 184t125.5 70q38 0 72.5 -22.5t55.5 -63.5v52q0 10 8 17.5t18 7.5t17.5 -7.5t7.5 -17.5v-70q43 104 141 104q86 0 131 -72t45 -182q0 -8 -8 -12zM664 265q-1 73 -34 130t-99 57q-44 0 -73.5 -28.5t-44 -71.5t-15.5 -87h266zM298.5 59q33.5 26 49.5 63v237
q-16 37 -49.5 63.5t-70.5 26.5q-62 0 -94 -58.5t-32 -149.5t32 -149.5t94 -58.5q37 0 70.5 26z" />
    <glyph glyph-name="aeacute.alt1" horiz-adv-x="760" 
d="M707 229q-8 -4 -22 -4h-287q2 -85 41.5 -139t107.5 -54q61 0 106 51q6 6 16 6q9 0 15.5 -6.5t6.5 -15.5t-6 -15q-58 -64 -133 -64q-61 0 -98 31t-56 78v-75q0 -10 -7.5 -17.5t-17.5 -7.5t-17.5 7.5t-7.5 17.5v51q-20 -39 -55 -62t-74 -23q-80 0 -125.5 69t-45.5 184
q0 114 45.5 184t125.5 70q38 0 72.5 -22.5t55.5 -63.5v52q0 10 8 17.5t18 7.5t17.5 -7.5t7.5 -17.5v-70q43 104 141 104q86 0 131 -72t45 -182q0 -8 -8 -12zM664 265q-1 73 -34 130t-99 57q-44 0 -73.5 -28.5t-44 -71.5t-15.5 -87h266zM298.5 59q33.5 26 49.5 63v237
q-16 37 -49.5 63.5t-70.5 26.5q-62 0 -94 -58.5t-32 -149.5t32 -149.5t94 -58.5q37 0 70.5 26zM378 573q-6 0 -10.5 4.5t-4.5 10.5q0 4 4 10l95 117q5 8 16 8q8 0 14.5 -6.5t6.5 -14.5q0 -7 -6 -13l-103 -110q-4 -6 -12 -6z" />
    <glyph glyph-name="uni1E03" unicode="&#x1e03;" 
d="M375.5 425q45.5 -70 45.5 -184q0 -115 -45.5 -184t-125.5 -69q-39 0 -74 23t-55 62v-51q0 -10 -7.5 -17.5t-17.5 -7.5t-17.5 7.5t-7.5 17.5v623q0 10 7.5 17.5t17.5 7.5t17.5 -7.5t7.5 -17.5v-238q21 42 55.5 65t73.5 23q80 0 125.5 -70zM335 91.5q32 58.5 32 149.5
t-32 150t-94 59q-37 0 -70.5 -27t-49.5 -64v-237q16 -37 49.5 -63t70.5 -26q62 0 94 58.5zM217 796q11 11 26 11t26 -11t11 -26q0 -16 -11 -26.5t-26 -10.5t-26 10.5t-11 26.5q0 15 11 26z" />
    <glyph glyph-name="cacute" unicode="&#x107;" horiz-adv-x="400" 
d="M71 370.5q23 57.5 66 91t102 33.5q38 0 65.5 -12.5t51.5 -36.5q8 -6 8 -17q0 -10 -6.5 -16.5t-16.5 -6.5q-7 0 -15 6q-35 38 -84 38q-67 0 -103.5 -59.5t-36.5 -148.5t36.5 -149t103.5 -60q49 0 84 38q5 6 15 6t16.5 -6.5t6.5 -16.5q0 -11 -7 -18q-23 -24 -51.5 -36
t-66.5 -12q-59 0 -102 33.5t-66 91.5t-23 129t23 128.5zM239 573q-6 0 -10.5 4.5t-4.5 10.5q0 4 4 10l95 117q5 8 16 8q8 0 14.5 -6.5t6.5 -14.5q0 -7 -6 -13l-103 -110q-4 -6 -12 -6z" />
    <glyph glyph-name="ccedilla" unicode="&#xe7;" horiz-adv-x="400" 
d="M357.5 70.5q6.5 -6.5 6.5 -16.5q0 -11 -7 -18q-22 -22 -47.5 -34t-59.5 -14l-17 -45q12 11 33 11q25 0 42 -18t17 -47q0 -34 -26.5 -56t-66.5 -22q-43 0 -75 22q-10 7 -10 16q0 7 4.5 12t11.5 5q6 0 11 -4q25 -18 58 -18q24 0 40.5 12.5t16.5 33.5q0 17 -9.5 27t-26.5 10
q-18 0 -30 -11q-4 -4 -12 -4t-12.5 5t-4.5 13l2 9l18 51q-77 10 -121.5 80.5t-44.5 171.5q0 71 23 128.5t66 91t102 33.5q38 0 65.5 -12.5t51.5 -36.5q8 -6 8 -17q0 -10 -6.5 -16.5t-16.5 -6.5q-7 0 -15 6q-35 38 -84 38q-67 0 -103.5 -59.5t-36.5 -148.5t36.5 -149
t103.5 -60q49 0 84 38q5 6 15 6t16.5 -6.5z" />
    <glyph glyph-name="ccircumflex" unicode="&#x109;" horiz-adv-x="400" 
d="M71 370.5q23 57.5 66 91t102 33.5q38 0 65.5 -12.5t51.5 -36.5q8 -6 8 -17q0 -10 -6.5 -16.5t-16.5 -6.5q-7 0 -15 6q-35 38 -84 38q-67 0 -103.5 -59.5t-36.5 -148.5t36.5 -149t103.5 -60q49 0 84 38q5 6 15 6t16.5 -6.5t6.5 -16.5q0 -11 -7 -18q-23 -24 -51.5 -36
t-66.5 -12q-59 0 -102 33.5t-66 91.5t-23 129t23 128.5zM235 688l-73 -111q-4 -8 -13 -8q-6 0 -11 4.5t-5 11.5q0 3 4 11l65 113q4 8 11.5 12.5t15.5 4.5h11q18 0 27 -17l67 -114q0 -1 1.5 -4t1.5 -6q0 -7 -4.5 -11.5t-11.5 -4.5q-9 0 -13 8z" />
    <glyph glyph-name="cdotaccent" unicode="&#x10b;" horiz-adv-x="400" 
d="M71 370.5q23 57.5 66 91t102 33.5q38 0 65.5 -12.5t51.5 -36.5q8 -6 8 -17q0 -10 -6.5 -16.5t-16.5 -6.5q-7 0 -15 6q-35 38 -84 38q-67 0 -103.5 -59.5t-36.5 -148.5t36.5 -149t103.5 -60q49 0 84 38q5 6 15 6t16.5 -6.5t6.5 -16.5q0 -11 -7 -18q-23 -24 -51.5 -36
t-66.5 -12q-59 0 -102 33.5t-66 91.5t-23 129t23 128.5zM208 649q11 11 26 11t26 -11t11 -26q0 -16 -11 -26.5t-26 -10.5t-26 10.5t-11 26.5q0 15 11 26z" />
    <glyph glyph-name="ccaron" unicode="&#x10d;" horiz-adv-x="400" 
d="M71 370.5q23 57.5 66 91t102 33.5q38 0 65.5 -12.5t51.5 -36.5q8 -6 8 -17q0 -10 -6.5 -16.5t-16.5 -6.5q-7 0 -15 6q-35 38 -84 38q-67 0 -103.5 -59.5t-36.5 -148.5t36.5 -149t103.5 -60q49 0 84 38q5 6 15 6t16.5 -6.5t6.5 -16.5q0 -11 -7 -18q-23 -24 -51.5 -36
t-66.5 -12q-59 0 -102 33.5t-66 91.5t-23 129t23 128.5zM329.5 721.5q4.5 -4.5 4.5 -11.5q0 -3 -1.5 -6t-1.5 -4l-67 -114q-9 -17 -27 -17h-11q-8 0 -15.5 4.5t-11.5 12.5l-65 113q-4 8 -4 11q0 7 5 11.5t11 4.5q9 0 13 -8l73 -111l73 111q4 8 13 8q7 0 11.5 -4.5z" />
    <glyph glyph-name="dcaron" unicode="&#x10f;" horiz-adv-x="531" 
d="M390.5 662.5q7.5 -7.5 7.5 -17.5v-623q0 -10 -7.5 -17.5t-17.5 -7.5t-17.5 7.5t-7.5 17.5v51q-20 -39 -55 -62t-74 -23q-80 0 -125.5 69t-45.5 184q0 114 45.5 184t125.5 70q39 0 73.5 -23t55.5 -65v238q0 10 7.5 17.5t17.5 7.5t17.5 -7.5zM298.5 59q33.5 26 49.5 63v238
q-16 36 -49.5 63t-70.5 27q-62 0 -94 -59t-32 -150t32 -149.5t94 -58.5q37 0 70.5 26zM452 500q-5 5 -5 12q0 8 9 15q17 17 28 38t12 40q-1 -1 -3.5 -1.5t-5.5 -0.5q-16 0 -26 11t-10 27t11 27.5t27 11.5q19 0 32 -16t13 -43q0 -35 -16 -67t-41 -53q-6 -6 -13 -6t-12 5z" />
    <glyph glyph-name="dcroat" unicode="&#x111;" horiz-adv-x="470" 
d="M457.5 569.5q5.5 -5.5 5.5 -12.5t-5.5 -13t-13.5 -6h-46v-516q0 -10 -7.5 -17.5t-17.5 -7.5t-17.5 7.5t-7.5 17.5v51q-20 -39 -55 -62t-74 -23q-80 0 -125.5 69t-45.5 184q0 114 45.5 184t125.5 70q39 0 73.5 -23t55.5 -65v131h-125q-7 0 -13 6t-6 13t5.5 12.5t13.5 5.5
h125v70q0 10 7.5 17.5t17.5 7.5t17.5 -7.5t7.5 -17.5v-70h46q8 0 13.5 -5.5zM298.5 59q33.5 26 49.5 63v238q-16 36 -49.5 63t-70.5 27q-62 0 -94 -59t-32 -150t32 -149.5t94 -58.5q37 0 70.5 26z" />
    <glyph glyph-name="uni1E0B" unicode="&#x1e0b;" 
d="M390.5 662.5q7.5 -7.5 7.5 -17.5v-623q0 -10 -7.5 -17.5t-17.5 -7.5t-17.5 7.5t-7.5 17.5v51q-20 -39 -55 -62t-74 -23q-80 0 -125.5 69t-45.5 184q0 114 45.5 184t125.5 70q39 0 73.5 -23t55.5 -65v238q0 10 7.5 17.5t17.5 7.5t17.5 -7.5zM298.5 59q33.5 26 49.5 63v238
q-16 36 -49.5 63t-70.5 27q-62 0 -94 -59t-32 -150t32 -149.5t94 -58.5q37 0 70.5 26zM212 796q11 11 26 11t26 -11t11 -26q0 -16 -11 -26.5t-26 -10.5t-26 10.5t-11 26.5q0 15 11 26z" />
    <glyph glyph-name="eacute" unicode="&#xe9;" horiz-adv-x="463" 
d="M70.5 370.5q22.5 57.5 65 91t99.5 33.5q60 0 101 -33.5t61.5 -88t20.5 -118.5q0 -14 -8 -22t-22 -8h-286q2 -85 41.5 -139.5t106.5 -54.5q61 0 107 52q6 6 15 6t15.5 -6t6.5 -15q0 -8 -7 -15q-59 -65 -140 -65q-62 0 -107 32.5t-68.5 90.5t-23.5 131q0 71 22.5 128.5z
M160.5 423.5q-29.5 -28.5 -44 -71.5t-15.5 -87h265q0 45 -13.5 88t-43.5 71t-75 28q-44 0 -73.5 -28.5zM239 573q-6 0 -10.5 4.5t-4.5 10.5q0 4 4 10l95 117q5 8 16 8q8 0 14.5 -6.5t6.5 -14.5q0 -7 -6 -13l-103 -110q-4 -6 -12 -6z" />
    <glyph glyph-name="ebreve" unicode="&#x115;" horiz-adv-x="463" 
d="M70.5 370.5q22.5 57.5 65 91t99.5 33.5q60 0 101 -33.5t61.5 -88t20.5 -118.5q0 -14 -8 -22t-22 -8h-286q2 -85 41.5 -139.5t106.5 -54.5q61 0 107 52q6 6 15 6t15.5 -6t6.5 -15q0 -8 -7 -15q-59 -65 -140 -65q-62 0 -107 32.5t-68.5 90.5t-23.5 131q0 71 22.5 128.5z
M160.5 423.5q-29.5 -28.5 -44 -71.5t-15.5 -87h265q0 45 -13.5 88t-43.5 71t-75 28q-44 0 -73.5 -28.5zM161 587q-35 16 -62 45q-5 7 -5 13q0 8 5.5 13.5t12.5 5.5q10 0 14 -6q21 -24 49.5 -37t59.5 -13t59 13t48 36q5 7 15 7q7 0 12.5 -6t5.5 -13q0 -6 -5 -13
q-26 -29 -61 -45t-74 -16t-74 16z" />
    <glyph glyph-name="ecircumflex" unicode="&#xea;" horiz-adv-x="463" 
d="M70.5 370.5q22.5 57.5 65 91t99.5 33.5q60 0 101 -33.5t61.5 -88t20.5 -118.5q0 -14 -8 -22t-22 -8h-286q2 -85 41.5 -139.5t106.5 -54.5q61 0 107 52q6 6 15 6t15.5 -6t6.5 -15q0 -8 -7 -15q-59 -65 -140 -65q-62 0 -107 32.5t-68.5 90.5t-23.5 131q0 71 22.5 128.5z
M160.5 423.5q-29.5 -28.5 -44 -71.5t-15.5 -87h265q0 45 -13.5 88t-43.5 71t-75 28q-44 0 -73.5 -28.5zM235 688l-73 -111q-4 -8 -13 -8q-6 0 -11 4.5t-5 11.5q0 3 4 11l65 113q4 8 11.5 12.5t15.5 4.5h11q18 0 27 -17l67 -114q0 -1 1.5 -4t1.5 -6q0 -7 -4.5 -11.5
t-11.5 -4.5q-9 0 -13 8z" />
    <glyph glyph-name="edieresis" unicode="&#xeb;" horiz-adv-x="463" 
d="M70.5 370.5q22.5 57.5 65 91t99.5 33.5q60 0 101 -33.5t61.5 -88t20.5 -118.5q0 -14 -8 -22t-22 -8h-286q2 -85 41.5 -139.5t106.5 -54.5q61 0 107 52q6 6 15 6t15.5 -6t6.5 -15q0 -8 -7 -15q-59 -65 -140 -65q-62 0 -107 32.5t-68.5 90.5t-23.5 131q0 71 22.5 128.5z
M160.5 423.5q-29.5 -28.5 -44 -71.5t-15.5 -87h265q0 45 -13.5 88t-43.5 71t-75 28q-44 0 -73.5 -28.5zM124 599.5q-11 10.5 -11 25.5t11 26t26 11t25.5 -11t10.5 -26t-10.5 -25.5t-25.5 -10.5t-26 10.5zM292 599.5q-11 10.5 -11 25.5t11 26t26 11t25.5 -11t10.5 -26
t-10.5 -25.5t-25.5 -10.5t-26 10.5z" />
    <glyph glyph-name="edotaccent" unicode="&#x117;" horiz-adv-x="463" 
d="M70.5 370.5q22.5 57.5 65 91t99.5 33.5q60 0 101 -33.5t61.5 -88t20.5 -118.5q0 -14 -8 -22t-22 -8h-286q2 -85 41.5 -139.5t106.5 -54.5q61 0 107 52q6 6 15 6t15.5 -6t6.5 -15q0 -8 -7 -15q-59 -65 -140 -65q-62 0 -107 32.5t-68.5 90.5t-23.5 131q0 71 22.5 128.5z
M160.5 423.5q-29.5 -28.5 -44 -71.5t-15.5 -87h265q0 45 -13.5 88t-43.5 71t-75 28q-44 0 -73.5 -28.5zM209 649q11 11 26 11t26 -11t11 -26q0 -16 -11 -26.5t-26 -10.5t-26 10.5t-11 26.5q0 15 11 26z" />
    <glyph glyph-name="egrave" unicode="&#xe8;" horiz-adv-x="463" 
d="M70.5 370.5q22.5 57.5 65 91t99.5 33.5q60 0 101 -33.5t61.5 -88t20.5 -118.5q0 -14 -8 -22t-22 -8h-286q2 -85 41.5 -139.5t106.5 -54.5q61 0 107 52q6 6 15 6t15.5 -6t6.5 -15q0 -8 -7 -15q-59 -65 -140 -65q-62 0 -107 32.5t-68.5 90.5t-23.5 131q0 71 22.5 128.5z
M160.5 423.5q-29.5 -28.5 -44 -71.5t-15.5 -87h265q0 45 -13.5 88t-43.5 71t-75 28q-44 0 -73.5 -28.5zM115 689q-6 6 -6 13q0 8 6.5 14.5t14.5 6.5q11 0 16 -8l95 -117q4 -6 4 -10q0 -6 -4.5 -10.5t-11.5 -4.5t-11 6z" />
    <glyph glyph-name="emacron" unicode="&#x113;" horiz-adv-x="463" 
d="M70.5 370.5q22.5 57.5 65 91t99.5 33.5q60 0 101 -33.5t61.5 -88t20.5 -118.5q0 -14 -8 -22t-22 -8h-286q2 -85 41.5 -139.5t106.5 -54.5q61 0 107 52q6 6 15 6t15.5 -6t6.5 -15q0 -8 -7 -15q-59 -65 -140 -65q-62 0 -107 32.5t-68.5 90.5t-23.5 131q0 71 22.5 128.5z
M160.5 423.5q-29.5 -28.5 -44 -71.5t-15.5 -87h265q0 45 -13.5 88t-43.5 71t-75 28q-44 0 -73.5 -28.5zM114.5 602.5q-5.5 5.5 -5.5 12.5q0 8 5.5 13.5t13.5 5.5h211q7 0 13 -5.5t6 -13.5q0 -7 -5.5 -12.5t-13.5 -5.5h-211q-8 0 -13.5 5.5z" />
    <glyph glyph-name="eogonek" unicode="&#x119;" horiz-adv-x="463" 
d="M140 20.5q-45 32.5 -68.5 90.5t-23.5 131q0 71 22.5 128.5t65 91t99.5 33.5q60 0 101 -33.5t61.5 -88t20.5 -118.5q0 -14 -8.5 -22t-23.5 -8h-284q2 -85 41.5 -139.5t106.5 -54.5q61 0 107 52q6 6 15 6t15 -6t6 -15q0 -7 -5 -14q-48 -53 -69.5 -90.5t-21.5 -67.5
q0 -19 10.5 -30.5t28.5 -11.5q11 0 19 4l5 1q8 0 14 -5.5t6 -14.5q0 -6 -4 -10.5t-9 -6.5q-18 -8 -38 -8q-34 0 -57 18.5t-23 52.5q0 29 17 58.5t43 54.5q-28 -10 -62 -10q-62 0 -107 32.5zM160.5 423.5q-29.5 -28.5 -44 -71.5t-15.5 -87h265q0 45 -13.5 88t-43.5 71t-75 28
q-44 0 -73.5 -28.5z" />
    <glyph glyph-name="ecaron" unicode="&#x11b;" horiz-adv-x="463" 
d="M70.5 370.5q22.5 57.5 65 91t99.5 33.5q60 0 101 -33.5t61.5 -88t20.5 -118.5q0 -14 -8 -22t-22 -8h-286q2 -85 41.5 -139.5t106.5 -54.5q61 0 107 52q6 6 15 6t15.5 -6t6.5 -15q0 -8 -7 -15q-59 -65 -140 -65q-62 0 -107 32.5t-68.5 90.5t-23.5 131q0 71 22.5 128.5z
M160.5 423.5q-29.5 -28.5 -44 -71.5t-15.5 -87h265q0 45 -13.5 88t-43.5 71t-75 28q-44 0 -73.5 -28.5zM329.5 721.5q4.5 -4.5 4.5 -11.5q0 -3 -1.5 -6t-1.5 -4l-67 -114q-9 -17 -27 -17h-11q-8 0 -15.5 4.5t-11.5 12.5l-65 113q-4 8 -4 11q0 7 5 11.5t11 4.5q9 0 13 -8
l73 -111l73 111q4 8 13 8q7 0 11.5 -4.5z" />
    <glyph glyph-name="uni1EB9" unicode="&#x1eb9;" horiz-adv-x="463" 
d="M70.5 370.5q22.5 57.5 65 91t99.5 33.5q60 0 101 -33.5t61.5 -88t20.5 -118.5q0 -14 -8 -22t-22 -8h-286q2 -85 41.5 -139.5t106.5 -54.5q61 0 107 52q6 6 15 6t15.5 -6t6.5 -15q0 -8 -7 -15q-59 -65 -140 -65q-62 0 -107 32.5t-68.5 90.5t-23.5 131q0 71 22.5 128.5z
M160.5 423.5q-29.5 -28.5 -44 -71.5t-15.5 -87h265q0 45 -13.5 88t-43.5 71t-75 28q-44 0 -73.5 -28.5zM209 -93q11 11 26 11t26 -11t11 -26q0 -16 -11 -26.5t-26 -10.5t-26 10.5t-11 26.5q0 15 11 26z" />
    <glyph glyph-name="uni1EBB" unicode="&#x1ebb;" horiz-adv-x="463" 
d="M70.5 370.5q22.5 57.5 65 91t99.5 33.5q60 0 101 -33.5t61.5 -88t20.5 -118.5q0 -14 -8 -22t-22 -8h-286q2 -85 41.5 -139.5t106.5 -54.5q61 0 107 52q6 6 15 6t15.5 -6t6.5 -15q0 -8 -7 -15q-59 -65 -140 -65q-62 0 -107 32.5t-68.5 90.5t-23.5 131q0 71 22.5 128.5z
M160.5 423.5q-29.5 -28.5 -44 -71.5t-15.5 -87h265q0 45 -13.5 88t-43.5 71t-75 28q-44 0 -73.5 -28.5zM260.5 579q-4.5 5 -4.5 11q0 2 2 10q15 25 15 53q0 25 -11 37t-30 12q-29 0 -42 -28q-3 -10 -15 -10q-8 0 -13 5.5t-5 12.5l2 9q23 45 73 45q34 0 56 -20.5t22 -61.5
q0 -35 -23 -72q-5 -8 -15 -8q-7 0 -11.5 5z" />
    <glyph glyph-name="uni1EBD" unicode="&#x1ebd;" horiz-adv-x="463" 
d="M70.5 370.5q22.5 57.5 65 91t99.5 33.5q60 0 101 -33.5t61.5 -88t20.5 -118.5q0 -14 -8 -22t-22 -8h-286q2 -85 41.5 -139.5t106.5 -54.5q61 0 107 52q6 6 15 6t15.5 -6t6.5 -15q0 -8 -7 -15q-59 -65 -140 -65q-62 0 -107 32.5t-68.5 90.5t-23.5 131q0 71 22.5 128.5z
M160.5 423.5q-29.5 -28.5 -44 -71.5t-15.5 -87h265q0 45 -13.5 88t-43.5 71t-75 28q-44 0 -73.5 -28.5zM247.5 589.5q-13.5 15.5 -26.5 44.5q-9 21 -17.5 32t-21.5 11q-18 0 -30 -21t-14 -63q0 -7 -4.5 -11.5t-11.5 -4.5t-12 5.5t-5 12.5q4 53 24 86t56 33q24 0 37 -15
t27 -45q11 -23 18.5 -33t20.5 -10q19 0 31 21t13 63q0 7 5 11.5t11 4.5q7 0 12 -5t5 -13q-3 -53 -23.5 -86t-56.5 -33q-24 0 -37.5 15.5z" />
    <glyph glyph-name="uni1EBF" unicode="&#x1ebf;" horiz-adv-x="463" 
d="M70.5 370.5q22.5 57.5 65 91t99.5 33.5q60 0 101 -33.5t61.5 -88t20.5 -118.5q0 -14 -8 -22t-22 -8h-286q2 -85 41.5 -139.5t106.5 -54.5q61 0 107 52q6 6 15 6t15.5 -6t6.5 -15q0 -8 -7 -15q-59 -65 -140 -65q-62 0 -107 32.5t-68.5 90.5t-23.5 131q0 71 22.5 128.5z
M160.5 423.5q-29.5 -28.5 -44 -71.5t-15.5 -87h265q0 45 -13.5 88t-43.5 71t-75 28q-44 0 -73.5 -28.5zM235 688l-73 -111q-4 -8 -13 -8q-6 0 -11 4.5t-5 11.5q0 3 4 11l65 113q4 8 11.5 12.5t15.5 4.5h11q18 0 27 -17l67 -114q0 -1 1.5 -4t1.5 -6q0 -7 -4.5 -11.5
t-11.5 -4.5q-9 0 -13 8zM341 673q-6 0 -10.5 4.5t-4.5 10.5q0 4 4 10l95 117q5 8 16 8q8 0 14.5 -6.5t6.5 -14.5q0 -7 -6 -13l-103 -110q-4 -6 -12 -6z" />
    <glyph glyph-name="uni1EC1" unicode="&#x1ec1;" horiz-adv-x="463" 
d="M70.5 370.5q22.5 57.5 65 91t99.5 33.5q60 0 101 -33.5t61.5 -88t20.5 -118.5q0 -14 -8 -22t-22 -8h-286q2 -85 41.5 -139.5t106.5 -54.5q61 0 107 52q6 6 15 6t15.5 -6t6.5 -15q0 -8 -7 -15q-59 -65 -140 -65q-62 0 -107 32.5t-68.5 90.5t-23.5 131q0 71 22.5 128.5z
M160.5 423.5q-29.5 -28.5 -44 -71.5t-15.5 -87h265q0 45 -13.5 88t-43.5 71t-75 28q-44 0 -73.5 -28.5zM235 688l-73 -111q-4 -8 -13 -8q-6 0 -11 4.5t-5 11.5q0 3 4 11l65 113q4 8 11.5 12.5t15.5 4.5h11q18 0 27 -17l67 -114q0 -1 1.5 -4t1.5 -6q0 -7 -4.5 -11.5
t-11.5 -4.5q-9 0 -13 8zM14 789q-6 6 -6 13q0 8 6.5 14.5t14.5 6.5q11 0 16 -8l95 -117q4 -6 4 -10q0 -6 -4.5 -10.5t-11.5 -4.5t-11 6z" />
    <glyph glyph-name="uni1EC3" unicode="&#x1ec3;" horiz-adv-x="463" 
d="M70.5 370.5q22.5 57.5 65 91t99.5 33.5q60 0 101 -33.5t61.5 -88t20.5 -118.5q0 -14 -8 -22t-22 -8h-286q2 -85 41.5 -139.5t106.5 -54.5q61 0 107 52q6 6 15 6t15.5 -6t6.5 -15q0 -8 -7 -15q-59 -65 -140 -65q-62 0 -107 32.5t-68.5 90.5t-23.5 131q0 71 22.5 128.5z
M160.5 423.5q-29.5 -28.5 -44 -71.5t-15.5 -87h265q0 45 -13.5 88t-43.5 71t-75 28q-44 0 -73.5 -28.5zM235 688l-73 -111q-4 -8 -13 -8q-6 0 -11 4.5t-5 11.5q0 3 4 11l65 113q4 8 11.5 12.5t15.5 4.5h11q18 0 27 -17l67 -114q0 -1 1.5 -4t1.5 -6q0 -7 -4.5 -11.5
t-11.5 -4.5q-9 0 -13 8zM335.5 678q-4.5 5 -4.5 11q0 2 2 10q15 25 15 53q0 25 -11 37t-30 12q-29 0 -42 -28q-3 -10 -15 -10q-8 0 -13 5.5t-5 12.5l2 9q23 45 73 45q34 0 56 -20.5t22 -61.5q0 -35 -23 -72q-5 -8 -15 -8q-7 0 -11.5 5z" />
    <glyph glyph-name="uni1EC5" unicode="&#x1ec5;" horiz-adv-x="463" 
d="M70.5 370.5q22.5 57.5 65 91t99.5 33.5q60 0 101 -33.5t61.5 -88t20.5 -118.5q0 -14 -8 -22t-22 -8h-286q2 -85 41.5 -139.5t106.5 -54.5q61 0 107 52q6 6 15 6t15.5 -6t6.5 -15q0 -8 -7 -15q-59 -65 -140 -65q-62 0 -107 32.5t-68.5 90.5t-23.5 131q0 71 22.5 128.5z
M160.5 423.5q-29.5 -28.5 -44 -71.5t-15.5 -87h265q0 45 -13.5 88t-43.5 71t-75 28q-44 0 -73.5 -28.5zM235 688l-73 -111q-4 -8 -13 -8q-6 0 -11 4.5t-5 11.5q0 3 4 11l65 113q4 8 11.5 12.5t15.5 4.5h11q18 0 27 -17l67 -114q0 -1 1.5 -4t1.5 -6q0 -7 -4.5 -11.5
t-11.5 -4.5q-9 0 -13 8zM246.5 754.5q-13.5 15.5 -26.5 44.5q-9 21 -17.5 32t-21.5 11q-18 0 -30 -21t-14 -63q0 -7 -4.5 -11.5t-11.5 -4.5t-12 5.5t-5 12.5q4 53 24 86t56 33q24 0 37 -15t27 -45q11 -23 18.5 -33t20.5 -10q19 0 31 21t13 63q0 7 5 11.5t11 4.5q7 0 12 -5
t5 -13q-3 -53 -23.5 -86t-56.5 -33q-24 0 -37.5 15.5z" />
    <glyph glyph-name="uni1EC7" unicode="&#x1ec7;" horiz-adv-x="463" 
d="M70.5 370.5q22.5 57.5 65 91t99.5 33.5q60 0 101 -33.5t61.5 -88t20.5 -118.5q0 -14 -8 -22t-22 -8h-286q2 -85 41.5 -139.5t106.5 -54.5q61 0 107 52q6 6 15 6t15.5 -6t6.5 -15q0 -8 -7 -15q-59 -65 -140 -65q-62 0 -107 32.5t-68.5 90.5t-23.5 131q0 71 22.5 128.5z
M160.5 423.5q-29.5 -28.5 -44 -71.5t-15.5 -87h265q0 45 -13.5 88t-43.5 71t-75 28q-44 0 -73.5 -28.5zM235 688l-73 -111q-4 -8 -13 -8q-6 0 -11 4.5t-5 11.5q0 3 4 11l65 113q4 8 11.5 12.5t15.5 4.5h11q18 0 27 -17l67 -114q0 -1 1.5 -4t1.5 -6q0 -7 -4.5 -11.5
t-11.5 -4.5q-9 0 -13 8zM208 -93q11 11 26 11t26 -11t11 -26q0 -16 -11 -26.5t-26 -10.5t-26 10.5t-11 26.5q0 15 11 26z" />
    <glyph glyph-name="fl.alt1" horiz-adv-x="465" 
d="M241 663.5q5 -5.5 5 -13.5q0 -9 -6 -15.5t-15 -6.5q-3 0 -10.5 2.5t-14.5 2.5q-31 0 -47 -21t-16 -60v-69h63q9 0 16 -6.5t7 -15.5q0 -10 -7 -16.5t-16 -6.5h-63v-396q9 -9 26 -9q14 0 25 7t15 7q9 0 15 -6.5t6 -15.5q0 -12 -11 -19q-25 -18 -58 -18q-25 0 -43 9h-1
q-9 0 -16.5 7.5t-8.5 16.5q-15 25 -15 68v349h-30q-9 0 -15.5 6.5t-6.5 16.5q0 9 6.5 15.5t15.5 6.5h30v162q0 10 7.5 17.5t17.5 7.5q9 0 16 -6t9 -15q28 28 73 28q18 0 35 -6q7 -2 12 -7.5z" />
    <glyph glyph-name="f_f_l.alt1" horiz-adv-x="704" 
d="M241 663.5q5 -5.5 5 -13.5q0 -9 -6 -15.5t-15 -6.5q-3 0 -10.5 2.5t-14.5 2.5q-31 0 -47 -21t-16 -60v-69h63q9 0 16 -6.5t7 -15.5q0 -10 -7 -16.5t-16 -6.5h-63v-396q9 -9 26 -9q14 0 25 7t15 7q9 0 15 -6.5t6 -15.5q0 -12 -11 -19q-25 -18 -58 -18q-25 0 -43 9h-1
q-9 0 -16.5 7.5t-8.5 16.5q-15 25 -15 68v349h-30q-9 0 -15.5 6.5t-6.5 16.5q0 9 6.5 15.5t15.5 6.5h30v162q0 10 7.5 17.5t17.5 7.5q9 0 16 -6t9 -15q28 28 73 28q18 0 35 -6q7 -2 12 -7.5z" />
    <glyph glyph-name="uni1E1F" unicode="&#x1e1f;" horiz-adv-x="239" 
d="M241 663.5q5 -5.5 5 -13.5q0 -9 -6 -15.5t-15 -6.5q-3 0 -10.5 2.5t-14.5 2.5q-31 0 -47 -21t-16 -60v-69h63q9 0 16 -6.5t7 -15.5q0 -10 -7 -16.5t-16 -6.5h-63v-416q0 -10 -8 -17.5t-18 -7.5t-17.5 7.5t-7.5 17.5v416h-45q-9 0 -15.5 6.5t-6.5 16.5q0 9 6.5 15.5
t15.5 6.5h45v69q0 58 29.5 91.5t78.5 33.5q18 0 35 -6q7 -2 12 -7.5zM148 796q11 11 26 11t26 -11t11 -26q0 -16 -11 -26.5t-26 -10.5t-26 10.5t-11 26.5q0 15 11 26z" />
    <glyph glyph-name="gcircumflex" unicode="&#x11d;" 
d="M390.5 478.5q7.5 -7.5 7.5 -17.5v-472q0 -96 -48 -140.5t-128 -44.5q-43 0 -76.5 10.5t-64.5 36.5q-9 9 -9 19t7 17t17 7q8 0 15 -5q44 -41 109 -41q57 0 92 34.5t35 104.5v90q-21 -39 -55.5 -63t-72.5 -24q-80 0 -125.5 69t-45.5 183q0 113 45.5 183t125.5 70
q38 0 72.5 -22.5t55.5 -64.5v53q0 10 8 17.5t18 7.5t17.5 -7.5zM298.5 62q33.5 27 48.5 63v235q-15 36 -48.5 63t-70.5 27q-62 0 -94 -58.5t-32 -149.5q0 -90 32 -148.5t94 -58.5q37 0 70.5 27zM238 688l-73 -111q-4 -8 -13 -8q-6 0 -11 4.5t-5 11.5q0 3 4 11l65 113
q4 8 11.5 12.5t15.5 4.5h11q18 0 27 -17l67 -114q0 -1 1.5 -4t1.5 -6q0 -7 -4.5 -11.5t-11.5 -4.5q-9 0 -13 8z" />
    <glyph glyph-name="gbreve" unicode="&#x11f;" 
d="M390.5 478.5q7.5 -7.5 7.5 -17.5v-472q0 -96 -48 -140.5t-128 -44.5q-43 0 -76.5 10.5t-64.5 36.5q-9 9 -9 19t7 17t17 7q8 0 15 -5q44 -41 109 -41q57 0 92 34.5t35 104.5v90q-21 -39 -55.5 -63t-72.5 -24q-80 0 -125.5 69t-45.5 183q0 113 45.5 183t125.5 70
q38 0 72.5 -22.5t55.5 -64.5v53q0 10 8 17.5t18 7.5t17.5 -7.5zM298.5 62q33.5 27 48.5 63v235q-15 36 -48.5 63t-70.5 27q-62 0 -94 -58.5t-32 -149.5q0 -90 32 -148.5t94 -58.5q37 0 70.5 27zM164 587q-35 16 -62 45q-5 7 -5 13q0 8 5.5 13.5t12.5 5.5q10 0 14 -6
q21 -24 49.5 -37t59.5 -13t59 13t48 36q5 7 15 7q7 0 12.5 -6t5.5 -13q0 -6 -5 -13q-26 -29 -61 -45t-74 -16t-74 16z" />
    <glyph glyph-name="gdotaccent" unicode="&#x121;" 
d="M390.5 478.5q7.5 -7.5 7.5 -17.5v-472q0 -96 -48 -140.5t-128 -44.5q-43 0 -76.5 10.5t-64.5 36.5q-9 9 -9 19t7 17t17 7q8 0 15 -5q44 -41 109 -41q57 0 92 34.5t35 104.5v90q-21 -39 -55.5 -63t-72.5 -24q-80 0 -125.5 69t-45.5 183q0 113 45.5 183t125.5 70
q38 0 72.5 -22.5t55.5 -64.5v53q0 10 8 17.5t18 7.5t17.5 -7.5zM298.5 62q33.5 27 48.5 63v235q-15 36 -48.5 63t-70.5 27q-62 0 -94 -58.5t-32 -149.5q0 -90 32 -148.5t94 -58.5q37 0 70.5 27zM212 649q11 11 26 11t26 -11t11 -26q0 -16 -11 -26.5t-26 -10.5t-26 10.5
t-11 26.5q0 15 11 26z" />
    <glyph glyph-name="uni0123" unicode="&#x123;" 
d="M199.5 575q-12.5 15 -12.5 41q0 36 16 68.5t40 55.5q5 5 12 5t12.5 -5t5.5 -12q0 -9 -7 -14q-18 -17 -29 -38t-12 -40l7 1q15 0 26 -11t11 -27t-11 -27.5t-28 -11.5q-18 0 -30.5 15zM390.5 478.5q7.5 -7.5 7.5 -17.5v-472q0 -96 -48 -140.5t-128 -44.5q-43 0 -76.5 10.5
t-64.5 36.5q-9 9 -9 19t7 17t17 7q8 0 15 -5q44 -41 109 -41q57 0 92 34.5t35 104.5v90q-21 -39 -55.5 -63t-72.5 -24q-80 0 -125.5 69t-45.5 183q0 113 45.5 183t125.5 70q38 0 72.5 -22.5t55.5 -64.5v53q0 10 8 17.5t18 7.5t17.5 -7.5zM298.5 62q33.5 27 48.5 63v235
q-15 36 -48.5 63t-70.5 27q-62 0 -94 -58.5t-32 -149.5q0 -90 32 -148.5t94 -58.5q37 0 70.5 27z" />
    <glyph glyph-name="gcaron" unicode="&#x1e7;" 
d="M390.5 478.5q7.5 -7.5 7.5 -17.5v-472q0 -96 -48 -140.5t-128 -44.5q-43 0 -76.5 10.5t-64.5 36.5q-9 9 -9 19t7 17t17 7q8 0 15 -5q44 -41 109 -41q57 0 92 34.5t35 104.5v90q-21 -39 -55.5 -63t-72.5 -24q-80 0 -125.5 69t-45.5 183q0 113 45.5 183t125.5 70
q38 0 72.5 -22.5t55.5 -64.5v53q0 10 8 17.5t18 7.5t17.5 -7.5zM298.5 62q33.5 27 48.5 63v235q-15 36 -48.5 63t-70.5 27q-62 0 -94 -58.5t-32 -149.5q0 -90 32 -148.5t94 -58.5q37 0 70.5 27zM332.5 721.5q4.5 -4.5 4.5 -11.5q0 -3 -1.5 -6t-1.5 -4l-67 -114
q-9 -17 -27 -17h-11q-8 0 -15.5 4.5t-11.5 12.5l-65 113q-4 8 -4 11q0 7 5 11.5t11 4.5q9 0 13 -8l73 -111l73 111q4 8 13 8q7 0 11.5 -4.5z" />
    <glyph glyph-name="hbar" unicode="&#x127;" horiz-adv-x="458" 
d="M358 464q29 -31 29 -98v-344q0 -10 -7.5 -17.5t-17.5 -7.5t-17.5 7.5t-7.5 17.5v334q0 50 -21.5 72t-62.5 22q-36 0 -70.5 -25t-53.5 -60v-343q0 -10 -7.5 -17.5t-17.5 -7.5t-17.5 7.5t-7.5 17.5v516h-47q-7 0 -12.5 6t-5.5 13t5.5 12.5t12.5 5.5h47v70q0 10 7.5 17.5
t17.5 7.5t17.5 -7.5t7.5 -17.5v-70h124q8 0 13.5 -5.5t5.5 -12.5t-5.5 -13t-13.5 -6h-124v-126q23 35 61.5 59t78.5 24q60 0 89 -31z" />
    <glyph glyph-name="hcircumflex" unicode="&#x125;" horiz-adv-x="450" 
d="M336.5 4.5q-7.5 7.5 -7.5 17.5v334q0 50 -21.5 72t-62.5 22q-36 0 -70.5 -25t-53.5 -60v-343q0 -10 -7.5 -17.5t-17.5 -7.5t-17.5 7.5t-7.5 17.5v623q0 10 7.5 17.5t17.5 7.5t17.5 -7.5t7.5 -17.5v-233q23 35 61.5 59t78.5 24q60 0 89 -31t29 -98v-344q0 -10 -7.5 -17.5
t-17.5 -7.5t-17.5 7.5zM226 835l-73 -111q-4 -8 -13 -8q-6 0 -11 4.5t-5 11.5q0 3 4 11l65 113q4 8 11.5 12.5t15.5 4.5h11q18 0 27 -17l67 -114q0 -1 1.5 -4t1.5 -6q0 -7 -4.5 -11.5t-11.5 -4.5q-9 0 -13 8z" />
    <glyph glyph-name="uni1E23" unicode="&#x1e23;" horiz-adv-x="450" 
d="M336.5 4.5q-7.5 7.5 -7.5 17.5v334q0 50 -21.5 72t-62.5 22q-36 0 -70.5 -25t-53.5 -60v-343q0 -10 -7.5 -17.5t-17.5 -7.5t-17.5 7.5t-7.5 17.5v623q0 10 7.5 17.5t17.5 7.5t17.5 -7.5t7.5 -17.5v-233q23 35 61.5 59t78.5 24q60 0 89 -31t29 -98v-344q0 -10 -7.5 -17.5
t-17.5 -7.5t-17.5 7.5zM200 796q11 11 26 11t26 -11t11 -26q0 -16 -11 -26.5t-26 -10.5t-26 10.5t-11 26.5q0 15 11 26z" />
    <glyph glyph-name="dotlessi" unicode="&#x131;" horiz-adv-x="192" 
d="M78.5 4.5q-7.5 7.5 -7.5 17.5v439q0 10 7.5 17.5t17.5 7.5t17.5 -7.5t7.5 -17.5v-439q0 -10 -7.5 -17.5t-17.5 -7.5t-17.5 7.5z" />
    <glyph glyph-name="iacute" unicode="&#xed;" horiz-adv-x="192" 
d="M78.5 4.5q-7.5 7.5 -7.5 17.5v439q0 10 7.5 17.5t17.5 7.5t17.5 -7.5t7.5 -17.5v-439q0 -10 -7.5 -17.5t-17.5 -7.5t-17.5 7.5zM101 573q-6 0 -10.5 4.5t-4.5 10.5q0 4 4 10l95 117q5 8 16 8q8 0 14.5 -6.5t6.5 -14.5q0 -7 -6 -13l-103 -110q-4 -6 -12 -6z" />
    <glyph glyph-name="ibreve" unicode="&#x12d;" horiz-adv-x="192" 
d="M78.5 4.5q-7.5 7.5 -7.5 17.5v439q0 10 7.5 17.5t17.5 7.5t17.5 -7.5t7.5 -17.5v-439q0 -10 -7.5 -17.5t-17.5 -7.5t-17.5 7.5zM22 587q-35 16 -62 45q-5 7 -5 13q0 8 5.5 13.5t12.5 5.5q10 0 14 -6q21 -24 49.5 -37t59.5 -13t59 13t48 36q5 7 15 7q7 0 12.5 -6t5.5 -13
q0 -6 -5 -13q-26 -29 -61 -45t-74 -16t-74 16z" />
    <glyph glyph-name="icircumflex" unicode="&#xee;" horiz-adv-x="192" 
d="M78.5 4.5q-7.5 7.5 -7.5 17.5v439q0 10 7.5 17.5t17.5 7.5t17.5 -7.5t7.5 -17.5v-439q0 -10 -7.5 -17.5t-17.5 -7.5t-17.5 7.5zM97 688l-73 -111q-4 -8 -13 -8q-6 0 -11 4.5t-5 11.5q0 3 4 11l65 113q4 8 11.5 12.5t15.5 4.5h11q18 0 27 -17l67 -114q0 -1 1.5 -4t1.5 -6
q0 -7 -4.5 -11.5t-11.5 -4.5q-9 0 -13 8z" />
    <glyph glyph-name="idieresis" unicode="&#xef;" horiz-adv-x="192" 
d="M78.5 4.5q-7.5 7.5 -7.5 17.5v439q0 10 7.5 17.5t17.5 7.5t17.5 -7.5t7.5 -17.5v-439q0 -10 -7.5 -17.5t-17.5 -7.5t-17.5 7.5zM-14 599.5q-11 10.5 -11 25.5t11 26t26 11t25.5 -11t10.5 -26t-10.5 -25.5t-25.5 -10.5t-26 10.5zM154 599.5q-11 10.5 -11 25.5t11 26t26 11
t25.5 -11t10.5 -26t-10.5 -25.5t-25.5 -10.5t-26 10.5z" />
    <glyph glyph-name="igrave" unicode="&#xec;" horiz-adv-x="192" 
d="M78.5 4.5q-7.5 7.5 -7.5 17.5v439q0 10 7.5 17.5t17.5 7.5t17.5 -7.5t7.5 -17.5v-439q0 -10 -7.5 -17.5t-17.5 -7.5t-17.5 7.5zM-23 689q-6 6 -6 13q0 8 6.5 14.5t14.5 6.5q11 0 16 -8l95 -117q4 -6 4 -10q0 -6 -4.5 -10.5t-11.5 -4.5t-11 6z" />
    <glyph glyph-name="imacron" unicode="&#x12b;" horiz-adv-x="192" 
d="M78.5 4.5q-7.5 7.5 -7.5 17.5v439q0 10 7.5 17.5t17.5 7.5t17.5 -7.5t7.5 -17.5v-439q0 -10 -7.5 -17.5t-17.5 -7.5t-17.5 7.5zM-23.5 602.5q-5.5 5.5 -5.5 12.5q0 8 5.5 13.5t13.5 5.5h211q7 0 13 -5.5t6 -13.5q0 -7 -5.5 -12.5t-13.5 -5.5h-211q-8 0 -13.5 5.5z" />
    <glyph glyph-name="iogonek" unicode="&#x12f;" horiz-adv-x="192" 
d="M123.5 650.5q11.5 -11.5 11.5 -27.5t-11.5 -27.5t-27.5 -11.5t-27.5 11.5t-11.5 27.5t11.5 27.5t27.5 11.5t27.5 -11.5zM113.5 478.5q7.5 -7.5 7.5 -17.5v-439q0 -6 -4 -14q2 -2 -3 -6q-39 -31 -59 -56.5t-20 -50.5q0 -19 10.5 -30t28.5 -11q9 0 17 3t11 3q8 0 13 -5.5
t5 -13.5q0 -7 -3.5 -11.5t-8.5 -6.5q-18 -9 -41 -9q-33 0 -56.5 18.5t-23.5 52.5t26.5 65t67.5 52q-10 8 -10 20v439q0 10 7.5 17.5t17.5 7.5t17.5 -7.5z" />
    <glyph glyph-name="itilde" unicode="&#x129;" horiz-adv-x="192" 
d="M78.5 4.5q-7.5 7.5 -7.5 17.5v439q0 10 7.5 17.5t17.5 7.5t17.5 -7.5t7.5 -17.5v-439q0 -10 -7.5 -17.5t-17.5 -7.5t-17.5 7.5zM108.5 589.5q-13.5 15.5 -26.5 44.5q-9 21 -17.5 32t-21.5 11q-18 0 -30 -21t-14 -63q0 -7 -4.5 -11.5t-11.5 -4.5t-12 5.5t-5 12.5
q4 53 24 86t56 33q24 0 37 -15t27 -45q11 -23 18.5 -33t20.5 -10q19 0 31 21t13 63q0 7 5 11.5t11 4.5q7 0 12 -5t5 -13q-3 -53 -23.5 -86t-56.5 -33q-24 0 -37.5 15.5z" />
    <glyph glyph-name="uni1EC9" unicode="&#x1ec9;" horiz-adv-x="192" 
d="M78.5 4.5q-7.5 7.5 -7.5 17.5v439q0 10 7.5 17.5t17.5 7.5t17.5 -7.5t7.5 -17.5v-439q0 -10 -7.5 -17.5t-17.5 -7.5t-17.5 7.5zM121.5 579q-4.5 5 -4.5 11q0 2 2 10q15 25 15 53q0 25 -11 37t-30 12q-29 0 -42 -28q-3 -10 -15 -10q-8 0 -13 5.5t-5 12.5l2 9q23 45 73 45
q34 0 56 -20.5t22 -61.5q0 -35 -23 -72q-5 -8 -15 -8q-7 0 -11.5 5z" />
    <glyph glyph-name="uni1ECB" unicode="&#x1ecb;" horiz-adv-x="192" 
d="M68.5 595.5q-11.5 11.5 -11.5 27.5t11.5 27.5t27.5 11.5t27.5 -11.5t11.5 -27.5t-11.5 -27.5t-27.5 -11.5t-27.5 11.5zM78.5 4.5q-7.5 7.5 -7.5 17.5v439q0 10 7.5 17.5t17.5 7.5t17.5 -7.5t7.5 -17.5v-439q0 -10 -7.5 -17.5t-17.5 -7.5t-17.5 7.5zM70 -93q11 11 26 11
t26 -11t11 -26q0 -16 -11 -26.5t-26 -10.5t-26 10.5t-11 26.5q0 15 11 26z" />
    <glyph glyph-name="i.dotaccent" horiz-adv-x="192" 
d="M68.5 595.5q-11.5 11.5 -11.5 27.5t11.5 27.5t27.5 11.5t27.5 -11.5t11.5 -27.5t-11.5 -27.5t-27.5 -11.5t-27.5 11.5zM78.5 4.5q-7.5 7.5 -7.5 17.5v439q0 10 7.5 17.5t17.5 7.5t17.5 -7.5t7.5 -17.5v-439q0 -10 -7.5 -17.5t-17.5 -7.5t-17.5 7.5z" />
    <glyph glyph-name="ij" unicode="&#x133;" horiz-adv-x="384" 
d="M135 618v-5q0 -16 -11.5 -27.5t-27.5 -11.5t-27.5 11.5t-11.5 27.5v5v5q0 16 11.5 27.5t27.5 11.5t27.5 -11.5t11.5 -27.5v-5zM113.5 478.5q7.5 -7.5 7.5 -17.5v-543q0 -57 -26.5 -85.5t-75.5 -28.5q-11 0 -23 3q-8 1 -14 7t-6 16q0 9 5.5 15.5t13.5 6.5q3 0 8.5 -1.5
t11.5 -1.5q26 0 41 17t15 52v543q0 10 7.5 17.5t17.5 7.5t17.5 -7.5z" />
    <glyph glyph-name="iacute_j.loclNLD" horiz-adv-x="384" 
d="M78.5 4.5q-7.5 7.5 -7.5 17.5v439q0 10 7.5 17.5t17.5 7.5t17.5 -7.5t7.5 -17.5v-439q0 -10 -7.5 -17.5t-17.5 -7.5t-17.5 7.5zM101 573q-6 0 -10.5 4.5t-4.5 10.5q0 4 4 10l95 117q5 8 16 8q8 0 14.5 -6.5t6.5 -14.5q0 -7 -6 -13l-103 -110q-4 -6 -12 -6zM188 -193
q-8 1 -14 7t-6 16q0 9 5.5 15.5t13.5 6.5q3 0 8.5 -1.5t11.5 -1.5q26 0 41 17t15 52v543q0 10 7.5 17.5t17.5 7.5t17.5 -7.5t7.5 -17.5v-543q0 -57 -26.5 -85.5t-75.5 -28.5q-11 0 -23 3zM293 573q-6 0 -10.5 4.5t-4.5 10.5q0 4 4 10l95 117q5 8 16 8q8 0 14.5 -6.5
t6.5 -14.5q0 -7 -6 -13l-103 -110q-4 -6 -12 -6z" />
    <glyph glyph-name="uni0237" unicode="&#x237;" horiz-adv-x="192" 
d="M-4 -193q-8 1 -14 7t-6 16q0 9 5.5 15.5t13.5 6.5q3 0 8.5 -1.5t11.5 -1.5q26 0 41 17t15 52v543q0 10 7.5 17.5t17.5 7.5t17.5 -7.5t7.5 -17.5v-543q0 -57 -26.5 -85.5t-75.5 -28.5q-11 0 -23 3z" />
    <glyph glyph-name="jcircumflex" unicode="&#x135;" horiz-adv-x="192" 
d="M-4 -193q-8 1 -14 7t-6 16q0 9 5.5 15.5t13.5 6.5q3 0 8.5 -1.5t11.5 -1.5q26 0 41 17t15 52v543q0 10 7.5 17.5t17.5 7.5t17.5 -7.5t7.5 -17.5v-543q0 -57 -26.5 -85.5t-75.5 -28.5q-11 0 -23 3zM97 688l-73 -111q-4 -8 -13 -8q-6 0 -11 4.5t-5 11.5q0 3 4 11l65 113
q4 8 11.5 12.5t15.5 4.5h11q18 0 27 -17l67 -114q0 -1 1.5 -4t1.5 -6q0 -7 -4.5 -11.5t-11.5 -4.5q-9 0 -13 8z" />
    <glyph glyph-name="uni0137" unicode="&#x137;" horiz-adv-x="424" 
d="M390 23q0 -11 -7.5 -18.5t-17.5 -7.5q-14 0 -21 12l-147 220l-76 -93v-114q0 -10 -7.5 -17.5t-17.5 -7.5t-17.5 7.5t-7.5 17.5v623q0 10 7.5 17.5t17.5 7.5t17.5 -7.5t7.5 -17.5v-443l225 275q8 9 19 9q10 0 16.5 -7t6.5 -17q0 -9 -5 -14l-151 -183l153 -228q5 -7 5 -14z
M180 -258q-5 5 -5 12q0 8 9 15q17 17 28 38t12 40q-1 -1 -3.5 -1.5t-5.5 -0.5q-16 0 -26 11t-10 27t11 27.5t27 11.5q19 0 32 -16t13 -43q0 -35 -16 -67t-41 -53q-6 -6 -13 -6t-12 5z" />
    <glyph glyph-name="kgreenlandic" unicode="&#x138;" horiz-adv-x="424" 
d="M390 23q0 -11 -7.5 -18.5t-17.5 -7.5q-14 0 -21 12l-147 220l-76 -93v-114q0 -10 -7.5 -17.5t-17.5 -7.5t-17.5 7.5t-7.5 17.5v439q0 10 7.5 17.5t17.5 7.5t17.5 -7.5t7.5 -17.5v-259l225 275q8 9 19 9q10 0 16.5 -7t6.5 -17q0 -9 -5 -14l-151 -183l153 -228q5 -7 5 -14z
" />
    <glyph glyph-name="lacute" unicode="&#x13a;" horiz-adv-x="192" 
d="M78.5 4.5q-7.5 7.5 -7.5 17.5v623q0 10 7.5 17.5t17.5 7.5t17.5 -7.5t7.5 -17.5v-623q0 -10 -7.5 -17.5t-17.5 -7.5t-17.5 7.5zM101 720q-6 0 -10.5 4.5t-4.5 10.5q0 4 4 10l95 117q5 8 16 8q8 0 14.5 -6.5t6.5 -14.5q0 -7 -6 -13l-103 -110q-4 -6 -12 -6z" />
    <glyph glyph-name="uni013C" unicode="&#x13c;" horiz-adv-x="192" 
d="M78.5 4.5q-7.5 7.5 -7.5 17.5v623q0 10 7.5 17.5t17.5 7.5t17.5 -7.5t7.5 -17.5v-623q0 -10 -7.5 -17.5t-17.5 -7.5t-17.5 7.5zM59 -258q-5 5 -5 12q0 8 9 15q17 17 28 38t12 40q-1 -1 -3.5 -1.5t-5.5 -0.5q-16 0 -26 11t-10 27t11 27.5t27 11.5q19 0 32 -16t13 -43
q0 -35 -16 -67t-41 -53q-6 -6 -13 -6t-12 5z" />
    <glyph glyph-name="lcaron" unicode="&#x13e;" horiz-adv-x="251" 
d="M78.5 4.5q-7.5 7.5 -7.5 17.5v623q0 10 7.5 17.5t17.5 7.5t17.5 -7.5t7.5 -17.5v-623q0 -10 -7.5 -17.5t-17.5 -7.5t-17.5 7.5zM175 500q-5 5 -5 12q0 8 9 15q17 17 28 38t12 40q-1 -1 -3.5 -1.5t-5.5 -0.5q-16 0 -26 11t-10 27t11 27.5t27 11.5q19 0 32 -16t13 -43
q0 -35 -16 -67t-41 -53q-6 -6 -13 -6t-12 5z" />
    <glyph glyph-name="ldot" unicode="&#x140;" horiz-adv-x="266" 
d="M78.5 4.5q-7.5 7.5 -7.5 17.5v623q0 10 7.5 17.5t17.5 7.5t17.5 -7.5t7.5 -17.5v-623q0 -10 -7.5 -17.5t-17.5 -7.5t-17.5 7.5zM198.5 214.5q-12.5 12.5 -12.5 30.5q0 17 12.5 29.5t30.5 12.5t30.5 -12.5t12.5 -29.5q0 -18 -12.5 -30.5t-30.5 -12.5t-30.5 12.5z" />
    <glyph glyph-name="lslash" unicode="&#x142;" horiz-adv-x="246" 
d="M225.5 403q5.5 -6 5.5 -14q0 -11 -9 -16l-74 -42v-309q0 -10 -7.5 -17.5t-17.5 -7.5t-17.5 7.5t-7.5 17.5v280l-54 -31q-4 -3 -10 -3q-8 0 -14 6t-6 14q0 10 10 17l74 42v298q0 10 7.5 17.5t17.5 7.5t17.5 -7.5t7.5 -17.5v-270l54 31q4 3 10 3q8 0 13.5 -6z" />
    <glyph glyph-name="lacute.alt1" horiz-adv-x="226" 
d="M163 33q14 0 25 7t15 7q9 0 15 -6.5t6 -15.5q0 -12 -11 -19q-25 -18 -58 -18q-84 0 -84 101v556q0 10 7.5 17.5t17.5 7.5t17.5 -7.5t7.5 -17.5v-550q0 -62 42 -62zM102 720q-6 0 -10.5 4.5t-4.5 10.5q0 4 4 10l95 117q5 8 16 8q8 0 14.5 -6.5t6.5 -14.5q0 -7 -6 -13
l-103 -110q-4 -6 -12 -6z" />
    <glyph glyph-name="lcommaaccent.alt1" horiz-adv-x="226" 
d="M163 33q14 0 25 7t15 7q9 0 15 -6.5t6 -15.5q0 -12 -11 -19q-25 -18 -58 -18q-84 0 -84 101v556q0 10 7.5 17.5t17.5 7.5t17.5 -7.5t7.5 -17.5v-550q0 -62 42 -62zM101 -258q-5 5 -5 12q0 8 9 15q17 17 28 38t12 40q-1 -1 -3.5 -1.5t-5.5 -0.5q-16 0 -26 11t-10 27
t11 27.5t27 11.5q19 0 32 -16t13 -43q0 -35 -16 -67t-41 -53q-6 -6 -13 -6t-12 5z" />
    <glyph glyph-name="lcaron.alt1" horiz-adv-x="253" 
d="M163 33q14 0 25 7t15 7q9 0 15 -6.5t6 -15.5q0 -12 -11 -19q-25 -18 -58 -18q-84 0 -84 101v556q0 10 7.5 17.5t17.5 7.5t17.5 -7.5t7.5 -17.5v-550q0 -62 42 -62zM190 499q-5 5 -5 12q0 8 9 15q17 17 28 38t12 40q-1 -1 -3.5 -1.5t-5.5 -0.5q-16 0 -26 11t-10 27
t11 27.5t27 11.5q19 0 32 -16t13 -43q0 -35 -16 -67t-41 -53q-6 -6 -13 -6t-12 5z" />
    <glyph glyph-name="ldot.alt1" horiz-adv-x="265" 
d="M163 33q14 0 25 7t15 7q9 0 15 -6.5t6 -15.5q0 -12 -11 -19q-25 -18 -58 -18q-84 0 -84 101v556q0 10 7.5 17.5t17.5 7.5t17.5 -7.5t7.5 -17.5v-550q0 -62 42 -62zM198.5 214.5q-12.5 12.5 -12.5 30.5q0 17 12.5 29.5t30.5 12.5t30.5 -12.5t12.5 -29.5q0 -18 -12.5 -30.5
t-30.5 -12.5t-30.5 12.5z" />
    <glyph glyph-name="lslash.alt1" horiz-adv-x="253" 
d="M245 40.5q6 -6.5 6 -15.5q0 -12 -11 -19q-25 -18 -58 -18q-84 0 -84 101v213l-54 -31q-4 -3 -10 -3q-8 0 -14 6t-6 14q0 10 10 17l74 42v298q0 10 7.5 17.5t17.5 7.5t17.5 -7.5t7.5 -17.5v-270l54 31q4 3 10 3q8 0 13.5 -6t5.5 -14q0 -11 -9 -16l-74 -42v-236
q0 -62 42 -62q14 0 25 7t15 7q9 0 15 -6.5z" />
    <glyph glyph-name="nacute" unicode="&#x144;" horiz-adv-x="450" 
d="M350 463q29 -32 29 -98v-343q0 -10 -7.5 -17.5t-17.5 -7.5t-18 7.5t-8 17.5v333q0 51 -21 73t-62 22q-36 0 -70.5 -25t-53.5 -60v-343q0 -10 -7.5 -17.5t-17.5 -7.5t-17.5 7.5t-7.5 17.5v439q0 10 7.5 17.5t17.5 7.5t17.5 -7.5t7.5 -17.5v-50q23 35 61 59.5t79 24.5
q60 0 89 -32zM230 573q-6 0 -10.5 4.5t-4.5 10.5q0 4 4 10l95 117q5 8 16 8q8 0 14.5 -6.5t6.5 -14.5q0 -7 -6 -13l-103 -110q-4 -6 -12 -6z" />
    <glyph glyph-name="napostrophe" unicode="&#x149;" horiz-adv-x="450" 
d="M350 463q29 -32 29 -98v-343q0 -10 -7.5 -17.5t-17.5 -7.5t-18 7.5t-8 17.5v333q0 51 -21 73t-62 22q-36 0 -70.5 -25t-53.5 -60v-343q0 -10 -7.5 -17.5t-17.5 -7.5t-17.5 7.5t-7.5 17.5v439q0 10 7.5 17.5t17.5 7.5t17.5 -7.5t7.5 -17.5v-50q23 35 61 59.5t79 24.5
q60 0 89 -32zM62 554q-5 5 -5 12q0 8 9 15q17 17 28 38t12 40q-1 -1 -3.5 -1.5t-5.5 -0.5q-16 0 -26 11t-10 27t11 27.5t27 11.5q19 0 32 -16t13 -43q0 -35 -16 -67t-41 -53q-6 -6 -13 -6t-12 5z" />
    <glyph glyph-name="ncaron" unicode="&#x148;" horiz-adv-x="450" 
d="M350 463q29 -32 29 -98v-343q0 -10 -7.5 -17.5t-17.5 -7.5t-18 7.5t-8 17.5v333q0 51 -21 73t-62 22q-36 0 -70.5 -25t-53.5 -60v-343q0 -10 -7.5 -17.5t-17.5 -7.5t-17.5 7.5t-7.5 17.5v439q0 10 7.5 17.5t17.5 7.5t17.5 -7.5t7.5 -17.5v-50q23 35 61 59.5t79 24.5
q60 0 89 -32zM320.5 721.5q4.5 -4.5 4.5 -11.5q0 -3 -1.5 -6t-1.5 -4l-67 -114q-9 -17 -27 -17h-11q-8 0 -15.5 4.5t-11.5 12.5l-65 113q-4 8 -4 11q0 7 5 11.5t11 4.5q9 0 13 -8l73 -111l73 111q4 8 13 8q7 0 11.5 -4.5z" />
    <glyph glyph-name="uni0146" unicode="&#x146;" horiz-adv-x="450" 
d="M350 463q29 -32 29 -98v-343q0 -10 -7.5 -17.5t-17.5 -7.5t-18 7.5t-8 17.5v333q0 51 -21 73t-62 22q-36 0 -70.5 -25t-53.5 -60v-343q0 -10 -7.5 -17.5t-17.5 -7.5t-17.5 7.5t-7.5 17.5v439q0 10 7.5 17.5t17.5 7.5t17.5 -7.5t7.5 -17.5v-50q23 35 61 59.5t79 24.5
q60 0 89 -32zM188 -258q-5 5 -5 12q0 8 9 15q17 17 28 38t12 40q-1 -1 -3.5 -1.5t-5.5 -0.5q-16 0 -26 11t-10 27t11 27.5t27 11.5q19 0 32 -16t13 -43q0 -35 -16 -67t-41 -53q-6 -6 -13 -6t-12 5z" />
    <glyph glyph-name="ntilde" unicode="&#xf1;" horiz-adv-x="450" 
d="M350 463q29 -32 29 -98v-343q0 -10 -7.5 -17.5t-17.5 -7.5t-18 7.5t-8 17.5v333q0 51 -21 73t-62 22q-36 0 -70.5 -25t-53.5 -60v-343q0 -10 -7.5 -17.5t-17.5 -7.5t-17.5 7.5t-7.5 17.5v439q0 10 7.5 17.5t17.5 7.5t17.5 -7.5t7.5 -17.5v-50q23 35 61 59.5t79 24.5
q60 0 89 -32zM237.5 589.5q-13.5 15.5 -26.5 44.5q-9 21 -17.5 32t-21.5 11q-18 0 -30 -21t-14 -63q0 -7 -4.5 -11.5t-11.5 -4.5t-12 5.5t-5 12.5q4 53 24 86t56 33q24 0 37 -15t27 -45q11 -23 18.5 -33t20.5 -10q19 0 31 21t13 63q0 7 5 11.5t11 4.5q7 0 12 -5t5 -13
q-3 -53 -23.5 -86t-56.5 -33q-24 0 -37.5 15.5z" />
    <glyph glyph-name="uni0272" unicode="&#x272;" horiz-adv-x="450" 
d="M350 463q29 -32 29 -98v-343q0 -10 -7.5 -17.5t-17.5 -7.5t-18 7.5t-8 17.5v333q0 51 -21 73t-62 22q-36 0 -70.5 -25t-53.5 -60v-447q0 -57 -26.5 -85.5t-75.5 -28.5q-11 0 -23 3q-8 1 -14 7t-6 15t7 16.5t17 6.5q6 -3 16 -3q55 2 55 69v543q0 10 7.5 17.5t17.5 7.5
t17.5 -7.5t7.5 -17.5v-50q23 35 61 59.5t79 24.5q60 0 89 -32z" />
    <glyph glyph-name="eng" unicode="&#x14b;" horiz-adv-x="450" 
d="M350 463q29 -32 29 -98v-447q0 -57 -26.5 -85.5t-75.5 -28.5q-11 0 -23 3q-8 1 -14 7t-6 16q0 9 5.5 15.5t13.5 6.5q3 0 8.5 -1.5t11.5 -1.5q55 0 55 69v437q0 51 -21 73t-62 22q-36 0 -70.5 -25t-53.5 -60v-343q0 -10 -7.5 -17.5t-17.5 -7.5t-17.5 7.5t-7.5 17.5v439
q0 10 7.5 17.5t17.5 7.5t17.5 -7.5t7.5 -17.5v-50q23 35 61 59.5t79 24.5q60 0 89 -32z" />
    <glyph glyph-name="oacute" unicode="&#xf3;" 
d="M133 22q-42 34 -63.5 92t-21.5 128t21.5 127.5t63.5 91.5t101 34q60 0 102 -34t63.5 -91.5t21.5 -127.5t-21.5 -128t-63.5 -92t-102 -34q-59 0 -101 34zM333 94q34 61 34 148q0 86 -34 147t-99 61q-64 0 -98 -61t-34 -147t34 -147.5t98 -61.5q65 0 99 61zM239 573
q-6 0 -10.5 4.5t-4.5 10.5q0 4 4 10l95 117q5 8 16 8q8 0 14.5 -6.5t6.5 -14.5q0 -7 -6 -13l-103 -110q-4 -6 -12 -6z" />
    <glyph glyph-name="obreve" unicode="&#x14f;" 
d="M133 22q-42 34 -63.5 92t-21.5 128t21.5 127.5t63.5 91.5t101 34q60 0 102 -34t63.5 -91.5t21.5 -127.5t-21.5 -128t-63.5 -92t-102 -34q-59 0 -101 34zM333 94q34 61 34 148q0 86 -34 147t-99 61q-64 0 -98 -61t-34 -147t34 -147.5t98 -61.5q65 0 99 61zM161 587
q-35 16 -62 45q-5 7 -5 13q0 8 5.5 13.5t12.5 5.5q10 0 14 -6q21 -24 49.5 -37t59.5 -13t59 13t48 36q5 7 15 7q7 0 12.5 -6t5.5 -13q0 -6 -5 -13q-26 -29 -61 -45t-74 -16t-74 16z" />
    <glyph glyph-name="ocircumflex" unicode="&#xf4;" 
d="M133 22q-42 34 -63.5 92t-21.5 128t21.5 127.5t63.5 91.5t101 34q60 0 102 -34t63.5 -91.5t21.5 -127.5t-21.5 -128t-63.5 -92t-102 -34q-59 0 -101 34zM333 94q34 61 34 148q0 86 -34 147t-99 61q-64 0 -98 -61t-34 -147t34 -147.5t98 -61.5q65 0 99 61zM235 688
l-73 -111q-4 -8 -13 -8q-6 0 -11 4.5t-5 11.5q0 3 4 11l65 113q4 8 11.5 12.5t15.5 4.5h11q18 0 27 -17l67 -114q0 -1 1.5 -4t1.5 -6q0 -7 -4.5 -11.5t-11.5 -4.5q-9 0 -13 8z" />
    <glyph glyph-name="odieresis" unicode="&#xf6;" 
d="M133 22q-42 34 -63.5 92t-21.5 128t21.5 127.5t63.5 91.5t101 34q60 0 102 -34t63.5 -91.5t21.5 -127.5t-21.5 -128t-63.5 -92t-102 -34q-59 0 -101 34zM333 94q34 61 34 148q0 86 -34 147t-99 61q-64 0 -98 -61t-34 -147t34 -147.5t98 -61.5q65 0 99 61zM125 599.5
q-11 10.5 -11 25.5t11 26t26 11t25.5 -11t10.5 -26t-10.5 -25.5t-25.5 -10.5t-26 10.5zM293 599.5q-11 10.5 -11 25.5t11 26t26 11t25.5 -11t10.5 -26t-10.5 -25.5t-25.5 -10.5t-26 10.5z" />
    <glyph glyph-name="ograve" unicode="&#xf2;" 
d="M133 22q-42 34 -63.5 92t-21.5 128t21.5 127.5t63.5 91.5t101 34q60 0 102 -34t63.5 -91.5t21.5 -127.5t-21.5 -128t-63.5 -92t-102 -34q-59 0 -101 34zM333 94q34 61 34 148q0 86 -34 147t-99 61q-64 0 -98 -61t-34 -147t34 -147.5t98 -61.5q65 0 99 61zM116 689
q-6 6 -6 13q0 8 6.5 14.5t14.5 6.5q11 0 16 -8l95 -117q4 -6 4 -10q0 -6 -4.5 -10.5t-11.5 -4.5t-11 6z" />
    <glyph glyph-name="ohungarumlaut" unicode="&#x151;" 
d="M133 22q-42 34 -63.5 92t-21.5 128t21.5 127.5t63.5 91.5t101 34q60 0 102 -34t63.5 -91.5t21.5 -127.5t-21.5 -128t-63.5 -92t-102 -34q-59 0 -101 34zM333 94q34 61 34 148q0 86 -34 147t-99 61q-64 0 -98 -61t-34 -147t34 -147.5t98 -61.5q65 0 99 61zM162.5 575
q-4.5 4 -4.5 10q0 5 4 12l63 116q7 12 19 12q8 0 14.5 -6t6.5 -15q0 -4 -4 -12l-75 -113q-5 -8 -13 -8q-6 0 -10.5 4zM287.5 575q-4.5 4 -4.5 10q0 2 4 12l63 116q7 12 19 12q8 0 14.5 -6t6.5 -15q0 -7 -4 -12l-75 -113q-5 -8 -13 -8q-6 0 -10.5 4z" />
    <glyph glyph-name="omacron" unicode="&#x14d;" 
d="M133 22q-42 34 -63.5 92t-21.5 128t21.5 127.5t63.5 91.5t101 34q60 0 102 -34t63.5 -91.5t21.5 -127.5t-21.5 -128t-63.5 -92t-102 -34q-59 0 -101 34zM333 94q34 61 34 148q0 86 -34 147t-99 61q-64 0 -98 -61t-34 -147t34 -147.5t98 -61.5q65 0 99 61zM114.5 602.5
q-5.5 5.5 -5.5 12.5q0 8 5.5 13.5t13.5 5.5h211q7 0 13 -5.5t6 -13.5q0 -7 -5.5 -12.5t-13.5 -5.5h-211q-8 0 -13.5 5.5z" />
    <glyph glyph-name="oslash" unicode="&#xf8;" 
d="M407.5 345.5q13.5 -48.5 13.5 -103.5q0 -70 -21.5 -128t-63.5 -92t-102 -34q-66 0 -112 43l-16 -26q-2 -3 -6 -5.5t-8 -2.5q-7 0 -12 5t-5 12q0 6 3 10l21 34q-25 35 -38 82.5t-13 101.5q0 70 21.5 127.5t63.5 91.5t101 34q64 0 110 -40l14 23q6 8 14 8q7 0 12 -5t5 -12
q0 -4 -2 -10l-19 -31q26 -34 39.5 -82.5zM129 107l188 305q-35 38 -83 38q-64 0 -98 -61t-34 -147q0 -78 27 -135zM333 94q34 61 34 148q0 83 -29 138l-189 -305q34 -42 85 -42q65 0 99 61z" />
    <glyph glyph-name="oslashacute" unicode="&#x1ff;" 
d="M407.5 345.5q13.5 -48.5 13.5 -103.5q0 -70 -21.5 -128t-63.5 -92t-102 -34q-66 0 -112 43l-16 -26q-2 -3 -6 -5.5t-8 -2.5q-7 0 -12 5t-5 12q0 6 3 10l21 34q-25 35 -38 82.5t-13 101.5q0 70 21.5 127.5t63.5 91.5t101 34q64 0 110 -40l14 23q6 8 14 8q7 0 12 -5t5 -12
q0 -4 -2 -10l-19 -31q26 -34 39.5 -82.5zM129 107l188 305q-35 38 -83 38q-64 0 -98 -61t-34 -147q0 -78 27 -135zM333 94q34 61 34 148q0 83 -29 138l-189 -305q34 -42 85 -42q65 0 99 61zM239 573q-6 0 -10.5 4.5t-4.5 10.5q0 4 4 10l95 117q5 8 16 8q8 0 14.5 -6.5
t6.5 -14.5q0 -7 -6 -13l-103 -110q-4 -6 -12 -6z" />
    <glyph glyph-name="otilde" unicode="&#xf5;" 
d="M133 22q-42 34 -63.5 92t-21.5 128t21.5 127.5t63.5 91.5t101 34q60 0 102 -34t63.5 -91.5t21.5 -127.5t-21.5 -128t-63.5 -92t-102 -34q-59 0 -101 34zM333 94q34 61 34 148q0 86 -34 147t-99 61q-64 0 -98 -61t-34 -147t34 -147.5t98 -61.5q65 0 99 61zM247.5 589.5
q-13.5 15.5 -26.5 44.5q-9 21 -17.5 32t-21.5 11q-18 0 -30 -21t-14 -63q0 -7 -4.5 -11.5t-11.5 -4.5t-12 5.5t-5 12.5q4 53 24 86t56 33q24 0 37 -15t27 -45q11 -23 18.5 -33t20.5 -10q19 0 31 21t13 63q0 7 5 11.5t11 4.5q7 0 12 -5t5 -13q-3 -53 -23.5 -86t-56.5 -33
q-24 0 -37.5 15.5z" />
    <glyph glyph-name="uni01EB" unicode="&#x1eb;" 
d="M209 -105q0 -19 10.5 -30t28.5 -11q9 0 17 3t11 3q8 0 13 -5.5t5 -13.5q0 -7 -3.5 -11.5t-8.5 -6.5q-18 -9 -41 -9q-33 0 -56.5 18.5t-23.5 52.5q0 29 19 56t50 47q-58 1 -99 35.5t-62 92t-21 126.5q0 70 21.5 127.5t63.5 91.5t101 34q60 0 102 -34t63.5 -91.5
t21.5 -127.5q0 -94 -37.5 -163t-106.5 -86q-68 -55 -68 -98zM136 94.5q34 -61.5 98 -61.5q65 0 99 61t34 148q0 86 -34 147t-99 61q-64 0 -98 -61t-34 -147t34 -147.5z" />
    <glyph glyph-name="uni1ECD" unicode="&#x1ecd;" 
d="M133 22q-42 34 -63.5 92t-21.5 128t21.5 127.5t63.5 91.5t101 34q60 0 102 -34t63.5 -91.5t21.5 -127.5t-21.5 -128t-63.5 -92t-102 -34q-59 0 -101 34zM333 94q34 61 34 148q0 86 -34 147t-99 61q-64 0 -98 -61t-34 -147t34 -147.5t98 -61.5q65 0 99 61zM209 -93
q11 11 26 11t26 -11t11 -26q0 -16 -11 -26.5t-26 -10.5t-26 10.5t-11 26.5q0 15 11 26z" />
    <glyph glyph-name="uni1ECF" unicode="&#x1ecf;" 
d="M133 22q-42 34 -63.5 92t-21.5 128t21.5 127.5t63.5 91.5t101 34q60 0 102 -34t63.5 -91.5t21.5 -127.5t-21.5 -128t-63.5 -92t-102 -34q-59 0 -101 34zM333 94q34 61 34 148q0 86 -34 147t-99 61q-64 0 -98 -61t-34 -147t34 -147.5t98 -61.5q65 0 99 61zM260.5 579
q-4.5 5 -4.5 11q0 2 2 10q15 25 15 53q0 25 -11 37t-30 12q-29 0 -42 -28q-3 -10 -15 -10q-8 0 -13 5.5t-5 12.5l2 9q23 45 73 45q34 0 56 -20.5t22 -61.5q0 -35 -23 -72q-5 -8 -15 -8q-7 0 -11.5 5z" />
    <glyph glyph-name="uni1ED1" unicode="&#x1ed1;" 
d="M133 22q-42 34 -63.5 92t-21.5 128t21.5 127.5t63.5 91.5t101 34q60 0 102 -34t63.5 -91.5t21.5 -127.5t-21.5 -128t-63.5 -92t-102 -34q-59 0 -101 34zM333 94q34 61 34 148q0 86 -34 147t-99 61q-64 0 -98 -61t-34 -147t34 -147.5t98 -61.5q65 0 99 61zM235 688
l-73 -111q-4 -8 -13 -8q-6 0 -11 4.5t-5 11.5q0 3 4 11l65 113q4 8 11.5 12.5t15.5 4.5h11q18 0 27 -17l67 -114q0 -1 1.5 -4t1.5 -6q0 -7 -4.5 -11.5t-11.5 -4.5q-9 0 -13 8zM341 673q-6 0 -10.5 4.5t-4.5 10.5q0 4 4 10l95 117q5 8 16 8q8 0 14.5 -6.5t6.5 -14.5
q0 -7 -6 -13l-103 -110q-4 -6 -12 -6z" />
    <glyph glyph-name="uni1ED3" unicode="&#x1ed3;" 
d="M133 22q-42 34 -63.5 92t-21.5 128t21.5 127.5t63.5 91.5t101 34q60 0 102 -34t63.5 -91.5t21.5 -127.5t-21.5 -128t-63.5 -92t-102 -34q-59 0 -101 34zM333 94q34 61 34 148q0 86 -34 147t-99 61q-64 0 -98 -61t-34 -147t34 -147.5t98 -61.5q65 0 99 61zM235 688
l-73 -111q-4 -8 -13 -8q-6 0 -11 4.5t-5 11.5q0 3 4 11l65 113q4 8 11.5 12.5t15.5 4.5h11q18 0 27 -17l67 -114q0 -1 1.5 -4t1.5 -6q0 -7 -4.5 -11.5t-11.5 -4.5q-9 0 -13 8zM14 789q-6 6 -6 13q0 8 6.5 14.5t14.5 6.5q11 0 16 -8l95 -117q4 -6 4 -10q0 -6 -4.5 -10.5
t-11.5 -4.5t-11 6z" />
    <glyph glyph-name="uni1ED5" unicode="&#x1ed5;" 
d="M133 22q-42 34 -63.5 92t-21.5 128t21.5 127.5t63.5 91.5t101 34q60 0 102 -34t63.5 -91.5t21.5 -127.5t-21.5 -128t-63.5 -92t-102 -34q-59 0 -101 34zM333 94q34 61 34 148q0 86 -34 147t-99 61q-64 0 -98 -61t-34 -147t34 -147.5t98 -61.5q65 0 99 61zM235 688
l-73 -111q-4 -8 -13 -8q-6 0 -11 4.5t-5 11.5q0 3 4 11l65 113q4 8 11.5 12.5t15.5 4.5h11q18 0 27 -17l67 -114q0 -1 1.5 -4t1.5 -6q0 -7 -4.5 -11.5t-11.5 -4.5q-9 0 -13 8zM335.5 678q-4.5 5 -4.5 11q0 2 2 10q15 25 15 53q0 25 -11 37t-30 12q-29 0 -42 -28
q-3 -10 -15 -10q-8 0 -13 5.5t-5 12.5l2 9q23 45 73 45q34 0 56 -20.5t22 -61.5q0 -35 -23 -72q-5 -8 -15 -8q-7 0 -11.5 5z" />
    <glyph glyph-name="uni1ED7" unicode="&#x1ed7;" 
d="M133 22q-42 34 -63.5 92t-21.5 128t21.5 127.5t63.5 91.5t101 34q60 0 102 -34t63.5 -91.5t21.5 -127.5t-21.5 -128t-63.5 -92t-102 -34q-59 0 -101 34zM333 94q34 61 34 148q0 86 -34 147t-99 61q-64 0 -98 -61t-34 -147t34 -147.5t98 -61.5q65 0 99 61zM235 688
l-73 -111q-4 -8 -13 -8q-6 0 -11 4.5t-5 11.5q0 3 4 11l65 113q4 8 11.5 12.5t15.5 4.5h11q18 0 27 -17l67 -114q0 -1 1.5 -4t1.5 -6q0 -7 -4.5 -11.5t-11.5 -4.5q-9 0 -13 8zM246.5 754.5q-13.5 15.5 -26.5 44.5q-9 21 -17.5 32t-21.5 11q-18 0 -30 -21t-14 -63
q0 -7 -4.5 -11.5t-11.5 -4.5t-12 5.5t-5 12.5q4 53 24 86t56 33q24 0 37 -15t27 -45q11 -23 18.5 -33t20.5 -10q19 0 31 21t13 63q0 7 5 11.5t11 4.5q7 0 12 -5t5 -13q-3 -53 -23.5 -86t-56.5 -33q-24 0 -37.5 15.5z" />
    <glyph glyph-name="uni1ED9" unicode="&#x1ed9;" 
d="M133 22q-42 34 -63.5 92t-21.5 128t21.5 127.5t63.5 91.5t101 34q60 0 102 -34t63.5 -91.5t21.5 -127.5t-21.5 -128t-63.5 -92t-102 -34q-59 0 -101 34zM333 94q34 61 34 148q0 86 -34 147t-99 61q-64 0 -98 -61t-34 -147t34 -147.5t98 -61.5q65 0 99 61zM235 688
l-73 -111q-4 -8 -13 -8q-6 0 -11 4.5t-5 11.5q0 3 4 11l65 113q4 8 11.5 12.5t15.5 4.5h11q18 0 27 -17l67 -114q0 -1 1.5 -4t1.5 -6q0 -7 -4.5 -11.5t-11.5 -4.5q-9 0 -13 8zM209 -93q11 11 26 11t26 -11t11 -26q0 -16 -11 -26.5t-26 -10.5t-26 10.5t-11 26.5q0 15 11 26z
" />
    <glyph glyph-name="ohorn" unicode="&#x1a1;" 
d="M417.5 465.5q-15.5 -31.5 -38.5 -52.5q42 -69 42 -171q0 -70 -21.5 -128t-63.5 -92t-102 -34q-59 0 -101 34t-63.5 92t-21.5 128t21.5 127.5t63.5 91.5t101 34q75 0 125 -56q17 17 27 37t11 38l-9 -1q-16 0 -25.5 10.5t-9.5 26.5q0 15 10.5 26t26.5 11q18 0 30.5 -15.5
t12.5 -41.5q0 -33 -15.5 -64.5zM333 94q34 61 34 148q0 86 -34 147t-99 61q-64 0 -98 -61t-34 -147t34 -147.5t98 -61.5q65 0 99 61z" />
    <glyph glyph-name="uni1EDB" unicode="&#x1edb;" 
d="M417.5 465.5q-15.5 -31.5 -38.5 -52.5q42 -69 42 -171q0 -70 -21.5 -128t-63.5 -92t-102 -34q-59 0 -101 34t-63.5 92t-21.5 128t21.5 127.5t63.5 91.5t101 34q75 0 125 -56q17 17 27 37t11 38l-9 -1q-16 0 -25.5 10.5t-9.5 26.5q0 15 10.5 26t26.5 11q18 0 30.5 -15.5
t12.5 -41.5q0 -33 -15.5 -64.5zM333 94q34 61 34 148q0 86 -34 147t-99 61q-64 0 -98 -61t-34 -147t34 -147.5t98 -61.5q65 0 99 61zM238 573q-6 0 -10.5 4.5t-4.5 10.5q0 4 4 10l95 117q5 8 16 8q8 0 14.5 -6.5t6.5 -14.5q0 -7 -6 -13l-103 -110q-4 -6 -12 -6z" />
    <glyph glyph-name="uni1EDD" unicode="&#x1edd;" 
d="M417.5 465.5q-15.5 -31.5 -38.5 -52.5q42 -69 42 -171q0 -70 -21.5 -128t-63.5 -92t-102 -34q-59 0 -101 34t-63.5 92t-21.5 128t21.5 127.5t63.5 91.5t101 34q75 0 125 -56q17 17 27 37t11 38l-9 -1q-16 0 -25.5 10.5t-9.5 26.5q0 15 10.5 26t26.5 11q18 0 30.5 -15.5
t12.5 -41.5q0 -33 -15.5 -64.5zM333 94q34 61 34 148q0 86 -34 147t-99 61q-64 0 -98 -61t-34 -147t34 -147.5t98 -61.5q65 0 99 61zM114 689q-6 6 -6 13q0 8 6.5 14.5t14.5 6.5q11 0 16 -8l95 -117q4 -6 4 -10q0 -6 -4.5 -10.5t-11.5 -4.5t-11 6z" />
    <glyph glyph-name="uni1EDF" unicode="&#x1edf;" 
d="M417.5 465.5q-15.5 -31.5 -38.5 -52.5q42 -69 42 -171q0 -70 -21.5 -128t-63.5 -92t-102 -34q-59 0 -101 34t-63.5 92t-21.5 128t21.5 127.5t63.5 91.5t101 34q75 0 125 -56q17 17 27 37t11 38l-9 -1q-16 0 -25.5 10.5t-9.5 26.5q0 15 10.5 26t26.5 11q18 0 30.5 -15.5
t12.5 -41.5q0 -33 -15.5 -64.5zM333 94q34 61 34 148q0 86 -34 147t-99 61q-64 0 -98 -61t-34 -147t34 -147.5t98 -61.5q65 0 99 61zM258.5 579q-4.5 5 -4.5 11q0 2 2 10q15 25 15 53q0 25 -11 37t-30 12q-29 0 -42 -28q-3 -10 -15 -10q-8 0 -13 5.5t-5 12.5l2 9
q23 45 73 45q34 0 56 -20.5t22 -61.5q0 -35 -23 -72q-5 -8 -15 -8q-7 0 -11.5 5z" />
    <glyph glyph-name="uni1EE1" unicode="&#x1ee1;" 
d="M417.5 465.5q-15.5 -31.5 -38.5 -52.5q42 -69 42 -171q0 -70 -21.5 -128t-63.5 -92t-102 -34q-59 0 -101 34t-63.5 92t-21.5 128t21.5 127.5t63.5 91.5t101 34q75 0 125 -56q17 17 27 37t11 38l-9 -1q-16 0 -25.5 10.5t-9.5 26.5q0 15 10.5 26t26.5 11q18 0 30.5 -15.5
t12.5 -41.5q0 -33 -15.5 -64.5zM333 94q34 61 34 148q0 86 -34 147t-99 61q-64 0 -98 -61t-34 -147t34 -147.5t98 -61.5q65 0 99 61zM245.5 589.5q-13.5 15.5 -26.5 44.5q-9 21 -17.5 32t-21.5 11q-18 0 -30 -21t-14 -63q0 -7 -4.5 -11.5t-11.5 -4.5t-12 5.5t-5 12.5
q4 53 24 86t56 33q24 0 37 -15t27 -45q11 -23 18.5 -33t20.5 -10q19 0 31 21t13 63q0 7 5 11.5t11 4.5q7 0 12 -5t5 -13q-3 -53 -23.5 -86t-56.5 -33q-24 0 -37.5 15.5z" />
    <glyph glyph-name="uni1EE3" unicode="&#x1ee3;" 
d="M417.5 465.5q-15.5 -31.5 -38.5 -52.5q42 -69 42 -171q0 -70 -21.5 -128t-63.5 -92t-102 -34q-59 0 -101 34t-63.5 92t-21.5 128t21.5 127.5t63.5 91.5t101 34q75 0 125 -56q17 17 27 37t11 38l-9 -1q-16 0 -25.5 10.5t-9.5 26.5q0 15 10.5 26t26.5 11q18 0 30.5 -15.5
t12.5 -41.5q0 -33 -15.5 -64.5zM333 94q34 61 34 148q0 86 -34 147t-99 61q-64 0 -98 -61t-34 -147t34 -147.5t98 -61.5q65 0 99 61zM209 -93q11 11 26 11t26 -11t11 -26q0 -16 -11 -26.5t-26 -10.5t-26 10.5t-11 26.5q0 15 11 26z" />
    </font>
</defs>
</svg>
