<?xml version="1.0" standalone="no"?>
<!DOCTYPE svg PUBLIC "-//W3C//DTD SVG 1.1//EN" "http://www.w3.org/Graphics/SVG/1.1/DTD/svg11.dtd" >
<svg xmlns="http://www.w3.org/2000/svg" xmlns:xlink="http://www.w3.org/1999/xlink" version="1.1">
<metadata>
Created by FontForge 20170910 at Tue Jan  3 21:37:29 2017
 By Jimmy Wärting
Copyright (c) Mark Simonson, 2016. All rights reserved.
</metadata>
<defs>
<font id="ProximaSoftCond-Bold" horiz-adv-x="479" >
  <font-face 
    font-family="Proxima Soft Cond"
    font-weight="700"
    font-stretch="condensed"
    units-per-em="1000"
    panose-1="2 0 5 6 3 0 0 2 0 4"
    ascent="790"
    descent="-210"
    x-height="483"
    cap-height="667"
    bbox="-346 -345 971 1080"
    underline-thickness="20"
    underline-position="-133"
    unicode-range="U+000D-FB04"
  />
<missing-glyph horiz-adv-x="469" 
d="M70.5 -78.5q-11.5 11.5 -11.5 30.5v758q0 19 11.5 30.5t30.5 11.5h267q19 0 30.5 -11.5t11.5 -30.5v-758q0 -19 -11.5 -30.5t-30.5 -11.5h-267q-19 0 -30.5 11.5zM378 722h-288v-782h288v782z" />
    <glyph glyph-name="f_b" unicode="fb" horiz-adv-x="792" 
d="M390.5 464q40.5 -31 62.5 -88.5t22 -134.5q0 -118 -48.5 -185.5t-130.5 -67.5q-28 0 -54.5 12t-47.5 35q-6 -18 -22 -30t-35 -12q-8 0 -11 1q-4 -1 -12 -1q-25 0 -42.5 18t-17.5 43v324q-20 2 -33.5 17t-13.5 36t13.5 35.5t33.5 16.5v130q0 25 17.5 43t42.5 18
q19 0 36 -12q28 15 68 15q22 0 37 -4q19 -3 31 -15.5t12 -32.5t-12 -34t-32 -14h-10q-21 0 -34 -15t-13 -42v-37h34q5 0 8 -1q26 13 57 13q54 0 94.5 -31zM326.5 135q24.5 41 24.5 106q0 64 -23.5 105t-65.5 43q-14 -11 -31 -11h-12q-8 -4 -22 -16v-241q13 -12 29.5 -19.5
t31.5 -7.5q44 0 68.5 41z" />
    <glyph glyph-name="f_f" unicode="ff" horiz-adv-x="577" 
d="M210 562q-13 -15 -13 -42v-37h34q21 0 36.5 -15t15.5 -37t-15.5 -37.5t-36.5 -15.5h-34v-324q0 -25 -17.5 -43t-42.5 -18t-43 18t-18 43v324h-19q-20 0 -35 15.5t-15 37.5t15 37t35 15h19v38q0 73 38.5 114.5t103.5 41.5q22 0 37 -4q19 -3 31 -15.5t12 -32.5t-12 -34
t-32 -14h-10q-21 0 -34 -15z" />
    <glyph glyph-name="f_h" unicode="fh" horiz-adv-x="788" 
d="M414 461q32 -34 32 -96v-311q0 -25 -17.5 -43t-42.5 -18t-42.5 18t-17.5 43v266q0 69 -64 69q-13 -11 -31 -11h-9q-15 -8 -25 -20v-304q0 -25 -17.5 -43t-42.5 -18q-8 0 -11 1q-4 -1 -11 -1q-25 0 -43 18t-18 43v324q-20 2 -33.5 17t-13.5 36t13.5 35.5t33.5 16.5v130
q0 25 18 43t43 18q20 0 35 -12q30 15 68 15q22 0 37 -4q19 -3 31 -15.5t12 -32.5t-12 -34t-32 -14h-10q-21 0 -34 -15t-13 -42v-37h34q10 0 17 -3q35 15 68 15q66 0 98 -34z" />
    <glyph glyph-name="fi" unicode="fi" horiz-adv-x="517" 
d="M210 562q-13 -15 -13 -42v-37h34q21 0 36.5 -15t15.5 -37t-15.5 -37.5t-36.5 -15.5h-34v-324q0 -25 -17.5 -43t-42.5 -18q-8 0 -12 1q-3 -1 -11 -1q-25 0 -42.5 18t-17.5 43v324q-20 2 -33.5 17t-13.5 36q0 22 15 37t35 15h19v38q0 29 6 53q-18 8 -29 25.5t-11 38.5
q0 30 21.5 51.5t50.5 21.5q21 0 38 -10.5t26 -28.5q20 5 40 5q22 0 37 -4q19 -3 31 -15.5t12 -32.5t-12 -34t-32 -14h-10q-21 0 -34 -15z" />
    <glyph glyph-name="f_j" unicode="fj" horiz-adv-x="517" 
d="M210 562q-13 -15 -13 -42v-37h34q21 0 36.5 -15t15.5 -37t-15.5 -37.5t-36.5 -15.5h-34v-324q0 -28 -23 -48v-38q0 -77 -36.5 -120.5t-105.5 -43.5h-7q-24 0 -40.5 15.5t-16.5 40.5q0 19 11 32.5t27 14.5l4 1q44 2 44 61v409q-20 2 -33.5 17t-13.5 36q0 22 15 37t35 15
h19v38q0 25 4 44q-17 9 -27.5 26t-10.5 37q0 30 21.5 51.5t50.5 21.5q18 0 33 -8t25 -22q21 6 46 6q22 0 37 -4q19 -3 31 -15.5t12 -32.5t-12 -34t-32 -14h-10q-21 0 -34 -15z" />
    <glyph glyph-name="f_k" unicode="fk" horiz-adv-x="758" 
d="M446 53q0 -25 -17 -42.5t-42 -17.5q-16 0 -29 8t-22 22l-109 166l-30 -38v-97q0 -25 -17.5 -43t-42.5 -18q-8 0 -12 1q-3 -1 -11 -1q-25 0 -42.5 18t-17.5 43v324q-20 2 -33.5 17t-13.5 36t13.5 35.5t33.5 16.5v130q0 25 17.5 43t42.5 18q19 0 36 -12q28 15 68 15
q22 0 37 -4q19 -3 31 -15.5t12 -32.5t-12 -34t-32 -14h-10q-21 0 -34 -15t-13 -42v-37h34q21 0 36.5 -15t15.5 -37t-15.5 -37.5t-36.5 -15.5h-34v-85l135 173q9 11 21 17.5t25 6.5q23 0 39.5 -17t16.5 -40q0 -20 -12 -34l-112 -136l127 -180q9 -13 9 -30z" />
    <glyph glyph-name="fl" unicode="fl" horiz-adv-x="517" 
d="M210 562q-13 -15 -13 -42v-37h34q21 0 36.5 -15t15.5 -37t-15.5 -37.5t-36.5 -15.5h-34v-324q0 -25 -17.5 -43t-42.5 -18q-8 0 -12 1q-3 -1 -11 -1q-25 0 -42.5 18t-17.5 43v324q-20 2 -33.5 17t-13.5 36t13.5 35.5t33.5 16.5v130q0 25 17.5 43t42.5 18q19 0 36 -12
q28 15 68 15q22 0 37 -4q19 -3 31 -15.5t12 -32.5t-12 -34t-32 -14h-10q-21 0 -34 -15z" />
    <glyph glyph-name="f_f_i" unicode="ffi" horiz-adv-x="805" 
d="M210 562q-13 -15 -13 -42v-37h34q21 0 36.5 -15t15.5 -37t-15.5 -37.5t-36.5 -15.5h-34v-324q0 -25 -17.5 -43t-42.5 -18q-8 0 -12 1q-3 -1 -11 -1q-25 0 -42.5 18t-17.5 43v324q-20 2 -33.5 17t-13.5 36q0 22 15 37t35 15h19v38q0 29 6 53q-18 8 -29 25.5t-11 38.5
q0 30 21.5 51.5t50.5 21.5q21 0 38 -10.5t26 -28.5q20 5 40 5q22 0 37 -4q19 -3 31 -15.5t12 -32.5t-12 -34t-32 -14h-10q-21 0 -34 -15z" />
    <glyph glyph-name="f_f_j" unicode="ffj" horiz-adv-x="805" 
d="M210 562q-13 -15 -13 -42v-37h34q21 0 36.5 -15t15.5 -37t-15.5 -37.5t-36.5 -15.5h-34v-324q0 -28 -23 -48v-38q0 -77 -36.5 -120.5t-105.5 -43.5h-7q-24 0 -40.5 15.5t-16.5 40.5q0 19 11 32.5t27 14.5l4 1q44 2 44 61v409q-20 2 -33.5 17t-13.5 36q0 22 15 37t35 15
h19v38q0 25 4 44q-17 9 -27.5 26t-10.5 37q0 30 21.5 51.5t50.5 21.5q18 0 33 -8t25 -22q21 6 46 6q22 0 37 -4q19 -3 31 -15.5t12 -32.5t-12 -34t-32 -14h-10q-21 0 -34 -15z" />
    <glyph glyph-name="f_f_l" unicode="ffl" horiz-adv-x="805" 
d="M210 562q-13 -15 -13 -42v-37h34q21 0 36.5 -15t15.5 -37t-15.5 -37.5t-36.5 -15.5h-34v-324q0 -25 -17.5 -43t-42.5 -18q-8 0 -12 1q-3 -1 -11 -1q-25 0 -42.5 18t-17.5 43v324q-20 2 -33.5 17t-13.5 36t13.5 35.5t33.5 16.5v130q0 25 17.5 43t42.5 18q19 0 36 -12
q28 15 68 15q22 0 37 -4q19 -3 31 -15.5t12 -32.5t-12 -34t-32 -14h-10q-21 0 -34 -15z" />
    <glyph glyph-name=".notdef" horiz-adv-x="469" 
d="M70.5 -78.5q-11.5 11.5 -11.5 30.5v758q0 19 11.5 30.5t30.5 11.5h267q19 0 30.5 -11.5t11.5 -30.5v-758q0 -19 -11.5 -30.5t-30.5 -11.5h-267q-19 0 -30.5 11.5zM378 722h-288v-782h288v782z" />
    <glyph glyph-name="NULL" horiz-adv-x="0" 
 />
    <glyph glyph-name="NULL" horiz-adv-x="0" 
 />
    <glyph glyph-name="nonmarkingreturn" unicode="&#xd;" horiz-adv-x="0" 
 />
    <glyph glyph-name="space" unicode=" " horiz-adv-x="210" 
 />
    <glyph glyph-name="uni00A0" unicode="&#xa0;" horiz-adv-x="210" 
 />
    <glyph glyph-name="uni2009" unicode="&#x2009;" horiz-adv-x="125" 
 />
    <glyph glyph-name="uni200A" unicode="&#x200a;" horiz-adv-x="56" 
 />
    <glyph glyph-name="uni2001" unicode="&#x2001;" horiz-adv-x="1000" 
 />
    <glyph glyph-name="uni2003" unicode="&#x2003;" horiz-adv-x="1000" 
 />
    <glyph glyph-name="uni2000" unicode="&#x2000;" horiz-adv-x="500" 
 />
    <glyph glyph-name="uni2002" unicode="&#x2002;" horiz-adv-x="500" 
 />
    <glyph glyph-name="uni2005" unicode="&#x2005;" horiz-adv-x="250" 
 />
    <glyph glyph-name="uni2006" unicode="&#x2006;" horiz-adv-x="167" 
 />
    <glyph glyph-name="uni2004" unicode="&#x2004;" horiz-adv-x="333" 
 />
    <glyph glyph-name="uni2007" unicode="&#x2007;" horiz-adv-x="532" 
 />
    <glyph glyph-name="uni2008" unicode="&#x2008;" horiz-adv-x="252" 
 />
    <glyph glyph-name="zero" unicode="0" horiz-adv-x="537" 
d="M57.5 501.5q25.5 78.5 78.5 127t132 48.5t132 -48.5t78.5 -126.5t25.5 -169q0 -90 -25 -168.5t-78.5 -127.5t-132.5 -49t-132 49t-78.5 127.5t-25.5 168.5t25.5 168.5zM345.5 498.5q-22.5 59.5 -77.5 59.5q-54 0 -76.5 -59.5t-22.5 -165.5t22.5 -166t76.5 -60
q55 0 77.5 60t22.5 166t-22.5 165.5z" />
    <glyph glyph-name="zero.pzero" horiz-adv-x="537" 
d="M400 628.5q53 -48.5 78.5 -126.5t25.5 -169q0 -90 -25 -168.5t-78.5 -127.5t-132.5 -49t-132 49t-78.5 127.5t-25.5 168.5t25.5 168.5t78.5 127t132 48.5t132 -48.5zM191.5 498.5q-22.5 -59.5 -22.5 -165.5q0 -56 5 -90l158 280q-24 35 -64 35q-54 0 -76.5 -59.5z
M345.5 167q22.5 60 22.5 166q0 46 -5 94l-160 -282q24 -38 65 -38q55 0 77.5 60z" />
    <glyph glyph-name="one" unicode="1" horiz-adv-x="377" 
d="M203 13q-20 20 -20 48v433l-66 -68q-15 -17 -39 -17q-23 0 -39.5 16t-16.5 39q0 21 16 39l147 148q23 23 55 23t55 -23t23 -55v-535q0 -28 -19.5 -48t-47.5 -20t-48 20z" />
    <glyph glyph-name="two" unicode="2" horiz-adv-x="507" 
d="M46 22q-22 22 -22 53q0 32 25 55q125 119 179.5 176t75.5 93.5t21 74.5t-25.5 61t-63.5 23q-60 0 -109 -41q-17 -14 -37 -14q-24 0 -41.5 17.5t-17.5 41.5q0 13 6 25t15 20q77 70 187 70q64 0 114.5 -25t79 -70.5t28.5 -106.5q0 -50 -23.5 -99t-72.5 -108t-139 -150h187
q24 0 41.5 -17.5t17.5 -41.5q0 -25 -17.5 -42t-41.5 -17h-314q-31 0 -53 22z" />
    <glyph glyph-name="three" unicode="3" horiz-adv-x="497" 
d="M43 55q-22 19 -22 45q0 25 17 42.5t42 17.5q20 0 36 -13q50 -41 111 -41q51 0 76.5 24t25.5 65q0 86 -106 86h-16q-25 0 -41.5 17t-16.5 41t15.5 41t39.5 17h16q46 0 73 20.5t27 58.5q0 41 -26.5 62t-71.5 21q-56 0 -104 -37q-14 -12 -34 -12q-23 0 -39.5 16.5
t-16.5 39.5q0 25 20 42q75 69 185 69q101 0 160 -47t59 -134q0 -56 -36.5 -98.5t-89.5 -53.5q35 -5 66 -26.5t50.5 -56t19.5 -77.5q0 -58 -28 -102.5t-80 -69t-121 -24.5q-111 0 -190 67z" />
    <glyph glyph-name="four" unicode="4" horiz-adv-x="514" 
d="M483 242.5q18 -17.5 18 -41.5t-18 -41.5t-42 -17.5h-15v-81q0 -28 -19.5 -48t-47.5 -20t-47.5 20t-19.5 48v81h-199q-33 0 -56 23.5t-23 56.5q0 20 10 38l203 360q14 24 38.5 39t53.5 15q44 0 75.5 -31.5t31.5 -75.5v-307h15q24 0 42 -17.5zM141 260h151v271z" />
    <glyph glyph-name="five" unicode="5" horiz-adv-x="527" 
d="M61 73q-6 12 -6 25q0 25 17.5 42t41.5 17q21 0 37 -13q47 -38 107 -38q46 0 73.5 30.5t27.5 75.5q0 50 -25 78t-70 28q-51 0 -88 -34q-21 -19 -49 -19t-49 21t-21 49v261q0 35 18.5 53t52.5 18h277q24 0 41 -17t17 -41t-17 -41.5t-41 -17.5h-215v-172q21 24 53.5 39
t69.5 15q51 0 92.5 -25.5t65.5 -74.5t24 -116t-28.5 -119t-81.5 -80.5t-123 -28.5q-112 0 -185 65q-10 8 -16 20z" />
    <glyph glyph-name="six" unicode="6" horiz-adv-x="525" 
d="M63 511q31 78 91.5 122t144.5 44q72 0 131 -40q13 -8 20.5 -21t7.5 -28q0 -23 -17 -40t-41 -17q-17 0 -29 9q-29 19 -70 19q-40 0 -70.5 -27.5t-46.5 -73.5t-16 -100v-11q20 36 58.5 60t83.5 24q51 0 93.5 -25t68 -74t25.5 -117q0 -64 -27.5 -116t-77.5 -81.5t-114 -29.5
q-125 0 -185.5 96.5t-60.5 247.5q0 101 31 179zM334.5 291.5q-26.5 26.5 -66.5 26.5q-30 0 -55.5 -19t-44.5 -50q5 -58 28.5 -100.5t74.5 -42.5q43 0 66.5 31.5t23.5 72.5q0 55 -26.5 81.5z" />
    <glyph glyph-name="seven" unicode="7" horiz-adv-x="469" 
d="M145.5 13q-19.5 20 -19.5 48q0 12 4 23l169 465h-224q-24 0 -41.5 17.5t-17.5 41.5q0 25 17.5 42t41.5 17h319q26 0 44.5 -18t18.5 -44q0 -13 -4 -22l-196 -545q-8 -20 -25.5 -32.5t-38.5 -12.5q-28 0 -47.5 20z" />
    <glyph glyph-name="eight" unicode="8" horiz-adv-x="523" 
d="M68 275.5q37 47.5 91 68.5q-51 19 -84.5 60t-33.5 99t31 97t81.5 58t108.5 19q57 0 107.5 -19t82 -58t31.5 -97t-34 -99t-85 -60q54 -21 91 -68t37 -105q0 -87 -64 -135t-166 -48q-103 0 -167 48t-64 134q0 58 37 105.5zM324.5 539q-23.5 21 -62.5 21q-40 0 -63.5 -21
t-23.5 -58q0 -38 29 -60.5t58 -29.5q29 7 57.5 29.5t28.5 60.5q0 37 -23.5 58zM340 239.5q-17 22.5 -39.5 35.5t-38.5 15q-17 -2 -39.5 -15t-39 -35.5t-16.5 -51.5q0 -39 26.5 -61t68.5 -22q41 0 68 22t27 61q0 29 -17 51.5z" />
    <glyph glyph-name="nine" unicode="9" horiz-adv-x="525" 
d="M75 50q-8 13 -8 28q0 23 17 40t41 17q17 0 29 -9q29 -19 70 -19q61 0 97 58t36 142v12q-20 -36 -58.5 -60t-83.5 -24q-51 0 -93.5 25t-68 74t-25.5 117q0 64 27.5 116t77.5 81.5t114 29.5q124 0 184.5 -96.5t60.5 -248.5q0 -100 -31 -178t-91.5 -122t-144.5 -44
q-72 0 -130 41q-12 7 -20 20zM328.5 517.5q-23.5 42.5 -74.5 42.5q-43 0 -66.5 -31.5t-23.5 -72.5q0 -55 27 -81.5t66 -26.5q30 0 55.5 19t43.5 49q-4 59 -27.5 101.5z" />
    <glyph glyph-name="zero.tnum" horiz-adv-x="532" 
d="M54.5 501.5q25.5 78.5 78.5 127t132 48.5t132 -48.5t78.5 -126.5t25.5 -169q0 -90 -25 -168.5t-78.5 -127.5t-132.5 -49t-132 49t-78.5 127.5t-25.5 168.5t25.5 168.5zM342.5 498.5q-22.5 59.5 -77.5 59.5q-54 0 -76.5 -59.5t-22.5 -165.5t22.5 -166t76.5 -60
q55 0 77.5 60t22.5 166t-22.5 165.5z" />
    <glyph glyph-name="zero.tzero" horiz-adv-x="532" 
d="M397 628.5q53 -48.5 78.5 -126.5t25.5 -169q0 -90 -25 -168.5t-78.5 -127.5t-132.5 -49t-132 49t-78.5 127.5t-25.5 168.5t25.5 168.5t78.5 127t132 48.5t132 -48.5zM188.5 498.5q-22.5 -59.5 -22.5 -165.5q0 -56 5 -91l159 281q-24 35 -65 35q-54 0 -76.5 -59.5z
M342.5 167q22.5 60 22.5 166q0 58 -5 93l-160 -282q24 -37 65 -37q55 0 77.5 60z" />
    <glyph glyph-name="one.tnum" horiz-adv-x="532" 
d="M267.5 13q-19.5 20 -19.5 48v433l-66 -68q-15 -17 -40 -17q-22 0 -38.5 16.5t-16.5 38.5q0 21 16 39l147 148q21 23 55 23q32 0 54.5 -23t22.5 -55v-535q0 -28 -19.5 -48t-47.5 -20t-47.5 20z" />
    <glyph glyph-name="one.tnum_alt" horiz-adv-x="532" 
d="M126.5 17q-17.5 17 -17.5 42q0 24 17.5 41.5t41.5 17.5h64v376l-75 -78q-17 -17 -40 -17t-39.5 16t-16.5 39q0 21 17 40l155 157q23 23 56 23q32 0 54.5 -23t22.5 -55v-478h66q24 0 41.5 -17.5t17.5 -41.5q0 -25 -17.5 -42t-41.5 -17h-264q-24 0 -41.5 17z" />
    <glyph glyph-name="two.tnum" horiz-adv-x="532" 
d="M58 22q-22 22 -22 53q0 32 25 55q125 119 179.5 176t75.5 93.5t21 74.5t-25.5 61t-63.5 23q-60 0 -109 -41q-17 -14 -37 -14q-24 0 -41.5 17.5t-17.5 41.5q0 13 6 25t15 20q77 70 187 70q64 0 114.5 -25t79 -70.5t28.5 -106.5q0 -50 -23.5 -99t-72.5 -108t-139 -150h187
q24 0 41.5 -17.5t17.5 -41.5q0 -25 -17.5 -42t-41.5 -17h-314q-31 0 -53 22z" />
    <glyph glyph-name="three.tnum" horiz-adv-x="532" 
d="M56 55q-22 19 -22 45q0 25 17 42.5t42 17.5q20 0 36 -13q50 -41 111 -41q51 0 76.5 24t25.5 65q0 86 -106 86h-16q-25 0 -41.5 17t-16.5 41t15.5 41t39.5 17h16q46 0 73 20.5t27 58.5q0 41 -26.5 62t-71.5 21q-56 0 -104 -37q-14 -12 -34 -12q-23 0 -39.5 16.5
t-16.5 39.5q0 25 20 42q75 69 185 69q101 0 160 -47t59 -134q0 -56 -36.5 -98.5t-89.5 -53.5q35 -5 66 -26.5t50.5 -56t19.5 -77.5q0 -58 -28 -102.5t-80 -69t-121 -24.5q-111 0 -190 67z" />
    <glyph glyph-name="four.tnum" horiz-adv-x="532" 
d="M491 242.5q18 -17.5 18 -41.5t-18 -41.5t-42 -17.5h-15v-81q0 -28 -19.5 -48t-47.5 -20t-47.5 20t-19.5 48v81h-199q-33 0 -56 23.5t-23 56.5q0 20 10 38l203 360q14 24 38.5 39t53.5 15q44 0 75.5 -31.5t31.5 -75.5v-307h15q24 0 42 -17.5zM149 260h151v271z" />
    <glyph glyph-name="five.tnum" horiz-adv-x="532" 
d="M61 73q-6 12 -6 25q0 25 17.5 42t41.5 17q21 0 37 -13q47 -38 107 -38q46 0 73.5 30.5t27.5 75.5q0 50 -25 78t-70 28q-51 0 -88 -34q-21 -19 -49 -19t-49 21t-21 49v261q0 35 18.5 53t52.5 18h277q24 0 41 -17t17 -41t-17 -41.5t-41 -17.5h-215v-172q21 24 53.5 39
t69.5 15q51 0 92.5 -25.5t65.5 -74.5t24 -116t-28.5 -119t-81.5 -80.5t-123 -28.5q-112 0 -185 65q-10 8 -16 20z" />
    <glyph glyph-name="six.tnum" horiz-adv-x="532" 
d="M68 511q31 78 91.5 122t144.5 44q72 0 131 -40q13 -8 20.5 -21t7.5 -28q0 -23 -17 -40t-41 -17q-17 0 -29 9q-29 19 -70 19q-40 0 -70.5 -27.5t-46.5 -73.5t-16 -100v-11q20 36 58.5 60t83.5 24q51 0 93.5 -25t68 -74t25.5 -117q0 -64 -27.5 -116t-77.5 -81.5t-114 -29.5
q-125 0 -185.5 96.5t-60.5 247.5q0 101 31 179zM339.5 291.5q-26.5 26.5 -66.5 26.5q-30 0 -55.5 -19t-44.5 -50q5 -58 28.5 -100.5t74.5 -42.5q43 0 66.5 31.5t23.5 72.5q0 55 -26.5 81.5z" />
    <glyph glyph-name="seven.tnum" horiz-adv-x="532" 
d="M176.5 13q-19.5 20 -19.5 48q0 12 4 23l169 465h-224q-24 0 -41.5 17.5t-17.5 41.5q0 25 17.5 42t41.5 17h319q26 0 44.5 -18t18.5 -44q0 -13 -4 -22l-196 -545q-8 -20 -25.5 -32.5t-38.5 -12.5q-28 0 -47.5 20z" />
    <glyph glyph-name="eight.tnum" horiz-adv-x="532" 
d="M72 275.5q37 47.5 91 68.5q-51 19 -84.5 60t-33.5 99t31 97t81.5 58t108.5 19q57 0 107.5 -19t82 -58t31.5 -97t-34 -99t-85 -60q54 -21 91 -68t37 -105q0 -87 -64 -135t-166 -48q-103 0 -167 48t-64 134q0 58 37 105.5zM328.5 539q-23.5 21 -62.5 21q-40 0 -63.5 -21
t-23.5 -58q0 -38 29 -60.5t58 -29.5q29 7 57.5 29.5t28.5 60.5q0 37 -23.5 58zM344 239.5q-17 22.5 -39.5 35.5t-38.5 15q-17 -2 -39.5 -15t-39 -35.5t-16.5 -51.5q0 -39 26.5 -61t68.5 -22q41 0 68 22t27 61q0 29 -17 51.5z" />
    <glyph glyph-name="nine.tnum" horiz-adv-x="532" 
d="M79 50q-8 13 -8 28q0 23 17 40t41 17q17 0 29 -9q29 -19 70 -19q61 0 97 58t36 142v12q-20 -36 -58.5 -60t-83.5 -24q-51 0 -93.5 25t-68 74t-25.5 117q0 64 27.5 116t77.5 81.5t114 29.5q124 0 184.5 -96.5t60.5 -248.5q0 -100 -31 -178t-91.5 -122t-144.5 -44
q-72 0 -130 41q-12 7 -20 20zM332.5 517.5q-23.5 42.5 -74.5 42.5q-43 0 -66.5 -31.5t-23.5 -72.5q0 -55 27 -81.5t66 -26.5q30 0 55.5 19t43.5 49q-4 59 -27.5 101.5z" />
    <glyph glyph-name="A" unicode="A" horiz-adv-x="551" 
d="M533 59q0 -27 -19 -46.5t-46 -19.5q-23 0 -40.5 14t-22.5 35l-20 79h-219l-20 -79q-5 -21 -23 -35t-40 -14q-28 0 -47 19.5t-19 46.5q0 7 4 19l153 521q10 33 38 54t63 21t63 -21t39 -54l153 -521q3 -9 3 -19zM196 238h159l-80 310z" />
    <glyph glyph-name="B" unicode="B" horiz-adv-x="558" 
d="M77.5 18q-18.5 18 -18.5 53v525q0 35 18.5 53t53.5 18h204q85 0 130.5 -48.5t45.5 -121.5q0 -61 -29.5 -101t-77.5 -52q51 -8 84.5 -55t33.5 -109q0 -80 -45.5 -130t-132.5 -50h-213q-35 0 -53.5 18zM303 396q35 0 53 21.5t18 56.5t-18 57t-53 22h-110v-157h110zM308 114
q37 0 57 22.5t20 61.5q0 36 -20 60t-57 24h-115v-168h115z" />
    <glyph glyph-name="C" unicode="C" horiz-adv-x="543" 
d="M164.5 32q-63.5 44 -98 122t-34.5 179t34.5 179t98 122t147.5 44q125 0 194 -105q11 -14 11 -33q0 -25 -17.5 -42.5t-42.5 -17.5q-15 0 -28 7.5t-22 19.5q-36 52 -95 52q-65 0 -103.5 -63t-38.5 -163t38.5 -163t103.5 -63q61 0 98 58q8 12 21 20t28 8q25 0 42.5 -17.5
t17.5 -42.5q0 -18 -10 -31q-72 -114 -197 -114q-84 0 -147.5 44z" />
    <glyph glyph-name="D" unicode="D" horiz-adv-x="597" 
d="M77.5 18q-18.5 18 -18.5 53v525q0 35 18.5 53t53.5 18h143q90 0 155.5 -42t100 -118t34.5 -174t-34 -173.5t-99.5 -117.5t-156.5 -42h-143q-35 0 -53.5 18zM274 118q73 0 113 59t40 156q0 101 -39.5 158.5t-113.5 57.5h-81v-431h81z" />
    <glyph glyph-name="E" unicode="E" horiz-adv-x="481" 
d="M77.5 18q-18.5 18 -18.5 53v525q0 35 18.5 53t53.5 18h258q24 0 41.5 -17t17.5 -41t-17.5 -41.5t-41.5 -17.5h-196v-153h189q24 0 41.5 -17t17.5 -41t-17.5 -41t-41.5 -17h-189v-164h196q24 0 41.5 -17.5t17.5 -41.5t-17.5 -41t-41.5 -17h-258q-35 0 -53.5 18z" />
    <glyph glyph-name="F" unicode="F" horiz-adv-x="473" 
d="M78.5 13q-19.5 20 -19.5 48v535q0 35 18.5 53t53.5 18h258q24 0 41.5 -17t17.5 -41t-17.5 -41.5t-41.5 -17.5h-196v-153h189q24 0 41.5 -17t17.5 -41t-17.5 -41t-41.5 -17h-189v-220q0 -28 -19.5 -48t-47.5 -20t-47.5 20z" />
    <glyph glyph-name="G" unicode="G" horiz-adv-x="586" 
d="M524 347.5q18 -18.5 18 -48.5v-154q0 -28 -8 -49t-28 -38q-80 -70 -192 -70q-84 0 -148 43t-99 121.5t-35 180.5q0 103 35 181t99 121t148 43q117 0 187 -97q14 -17 14 -36q0 -25 -17.5 -42t-42.5 -17q-31 0 -47 24q-38 49 -94 49q-65 0 -104.5 -60t-39.5 -166t40 -166
t108 -60q30 0 56.5 11.5t40.5 28.5v101h-74q-23 0 -40.5 17t-17.5 41t17.5 42t40.5 18h135q30 0 48 -18.5z" />
    <glyph glyph-name="G.alt1" horiz-adv-x="598" 
d="M552.5 346q17.5 -19 17.5 -54q0 -12 -1 -18q-15 -138 -81.5 -212t-181.5 -74q-80 0 -142 43t-97 121.5t-35 180.5q0 103 35 181t99 121t148 43q118 0 187 -97q14 -14 14 -35q0 -25 -17.5 -42.5t-42.5 -17.5q-14 0 -26.5 6.5t-20.5 17.5q-38 49 -94 49q-65 0 -104.5 -60
t-39.5 -166t39.5 -166t104.5 -60q53 0 84.5 42t37.5 100h-95q-23 0 -40.5 17t-17.5 41t17 41t41 17h160q34 0 51.5 -19z" />
    <glyph glyph-name="H" unicode="H" horiz-adv-x="608" 
d="M433.5 13q-19.5 20 -19.5 47v224h-221v-223q0 -28 -19.5 -48t-47.5 -20t-47.5 20t-19.5 48v545q0 28 19.5 48t47.5 20t47.5 -20t19.5 -48v-204h221v205q0 27 19.5 47t47.5 20t48 -20t20 -47v-547q0 -27 -20 -47t-48 -20t-47.5 20z" />
    <glyph glyph-name="I" unicode="I" horiz-adv-x="252" 
d="M78.5 13q-19.5 20 -19.5 48v545q0 28 19.5 48t47.5 20t47.5 -20t19.5 -48v-545q0 -28 -19.5 -48t-47.5 -20t-47.5 20z" />
    <glyph glyph-name="J" unicode="J" horiz-adv-x="417" 
d="M25.5 32q-10.5 14 -10.5 32q0 25 17 42t42 17q10 0 20 -5q20 -11 44 -11q40 0 63.5 23.5t23.5 66.5v409q0 28 19.5 48t47.5 20t47.5 -20t19.5 -48v-413q0 -102 -56 -153.5t-152 -51.5q-55 0 -99 24q-16 6 -26.5 20z" />
    <glyph glyph-name="K" unicode="K" horiz-adv-x="553" 
d="M524 59q0 -27 -19 -46.5t-46 -19.5q-17 0 -31.5 8.5t-22.5 22.5l-163 235l-49 -72v-126q0 -28 -19.5 -48t-47.5 -20t-47.5 20t-19.5 48v545q0 28 19.5 48t47.5 20t47.5 -20t19.5 -48v-244l198 283q9 13 23 21t29 8q27 0 45.5 -19t18.5 -45q0 -22 -12 -35l-168 -223
l185 -257q12 -15 12 -36z" />
    <glyph glyph-name="L" unicode="L" horiz-adv-x="444" 
d="M77.5 18q-18.5 18 -18.5 53v535q0 28 19.5 48t47.5 20t47.5 -20t19.5 -48v-488h172q24 0 41.5 -17.5t17.5 -41.5q0 -25 -17.5 -42t-41.5 -17h-234q-35 0 -53.5 18z" />
    <glyph glyph-name="M" unicode="M" horiz-adv-x="735" 
d="M564 12.5q-19 19.5 -19 46.5v396l-141 -430q-9 -31 -36 -31q-14 0 -23.5 8t-13.5 23l-139 430v-395q0 -27 -19.5 -47t-46.5 -20q-28 0 -47.5 20t-19.5 47v511q0 42 30 72.5t73 30.5q33 0 60 -20t37 -51l109 -341l110 341q10 31 36.5 51t60.5 20q42 0 72 -30t30 -72v-513
q0 -27 -19.5 -46.5t-46.5 -19.5q-28 0 -47 19.5z" />
    <glyph glyph-name="N" unicode="N" horiz-adv-x="606" 
d="M430 4.5q-18 11.5 -28 30.5l-210 390v-365q0 -27 -19.5 -47t-46.5 -20q-28 0 -47.5 20t-19.5 47v531q0 34 24.5 58.5t58.5 24.5q23 0 42.5 -12.5t29.5 -32.5l200 -370v348q0 27 19.5 47t47.5 20t47.5 -20t19.5 -47v-536q0 -32 -23 -55t-55 -23q-22 0 -40 11.5z" />
    <glyph glyph-name="O" unicode="O" horiz-adv-x="622" 
d="M65.5 510.5q33.5 78.5 96.5 123t148 44.5q86 0 149 -44.5t96.5 -123t33.5 -177.5q0 -100 -33.5 -178t-96.5 -122.5t-149 -44.5q-85 0 -148 44.5t-96.5 122.5t-33.5 178q0 99 33.5 177.5zM414.5 496q-37.5 63 -104.5 63q-66 0 -103 -63t-37 -163q0 -99 37 -162.5
t103 -63.5q67 0 104.5 63.5t37.5 162.5q0 100 -37.5 163z" />
    <glyph glyph-name="P" unicode="P" horiz-adv-x="533" 
d="M78.5 13q-19.5 20 -19.5 48v535q0 35 18.5 53t53.5 18h174q66 0 112.5 -29t70 -77t23.5 -107q0 -58 -23.5 -106.5t-70 -77t-112.5 -28.5h-112v-181q0 -28 -19.5 -48t-47.5 -20t-47.5 20zM350.5 523.5q-23.5 26.5 -61.5 26.5h-96v-192h96q38 0 61.5 26.5t23.5 69.5
t-23.5 69.5z" />
    <glyph glyph-name="Q" unicode="Q" horiz-adv-x="622" 
d="M527 33q0 -21 -14 -37t-36 -17q-15 -2 -28.5 4.5t-21.5 19.5l-5 8q-51 -23 -112 -23q-85 0 -148 44.5t-96.5 122.5t-33.5 178q0 99 33.5 177.5t96.5 123t148 44.5q86 0 149 -44.5t96.5 -123t33.5 -177.5q0 -78 -20.5 -143t-59.5 -111l10 -16q8 -11 8 -30zM355 116l-39 61
q-8 13 -8 26q-2 23 12.5 40.5t37.5 19.5q15 1 28.5 -5.5t21.5 -19.5l22 -35q22 53 22 130q0 100 -37.5 163t-104.5 63q-66 0 -103 -63t-37 -163q0 -99 37 -162.5t103 -63.5q24 0 45 9z" />
    <glyph glyph-name="R" unicode="R" horiz-adv-x="551" 
d="M494.5 13.5q-19.5 -20.5 -47.5 -20.5q-18 0 -34.5 10t-24.5 26l-115 213h-80v-181q0 -28 -19.5 -48t-47.5 -20t-47.5 20t-19.5 48v535q0 35 18.5 53t53.5 18h177q60 0 106 -27t71.5 -75t25.5 -109q0 -75 -30.5 -121.5t-74.5 -65.5l97 -177q10 -15 10 -33
q1 -25 -18.5 -45.5zM193 358h95q39 0 62.5 26.5t23.5 69.5q0 44 -23.5 70t-62.5 26h-95v-192z" />
    <glyph glyph-name="S" unicode="S" horiz-adv-x="498" 
d="M37.5 62q-7.5 13 -7.5 29q0 26 18 43.5t43 17.5q19 0 32 -9q56 -37 119 -37q43 0 67.5 21t24.5 53q0 35 -26 55t-83 44q-59 23 -96.5 44t-65 60.5t-27.5 100.5q0 53 27 97.5t78 70.5t120 26q84 0 157 -41q14 -8 22.5 -22t8.5 -30q0 -25 -17.5 -42.5t-42.5 -17.5
q-14 0 -28 7q-52 28 -103 28q-40 0 -62.5 -18.5t-22.5 -49.5t25.5 -49.5t80.5 -41.5q58 -23 97 -45.5t66.5 -63t27.5 -101.5q0 -59 -26.5 -105t-77.5 -72t-122 -26q-107 0 -186 52q-13 9 -20.5 22z" />
    <glyph glyph-name="T" unicode="T" horiz-adv-x="473" 
d="M189.5 13q-19.5 20 -19.5 48v488h-96q-24 0 -41.5 17.5t-17.5 41.5q0 25 17.5 42t41.5 17h325q24 0 41.5 -17t17.5 -42q0 -24 -17.5 -41.5t-41.5 -17.5h-95v-488q0 -28 -19.5 -48t-47.5 -20t-47.5 20z" />
    <glyph glyph-name="U" unicode="U" horiz-adv-x="606" 
d="M59 606q0 28 20 48t48 20t47.5 -20t19.5 -48v-377q0 -59 28 -91t81 -32t81 32t28 91v377q0 28 20 48t48 20t47.5 -20t19.5 -48v-376q0 -115 -65 -178.5t-179 -63.5t-179 63.5t-65 178.5v376z" />
    <glyph glyph-name="V" unicode="V" horiz-adv-x="548" 
d="M210 14q-28 21 -38 54l-152 517q-3 11 -3 20q0 28 20 48.5t48 20.5q24 0 42.5 -14.5t23.5 -36.5l123 -465l122 465q6 22 24 36.5t42 14.5q29 0 49 -20t20 -49q0 -6 -4 -20l-151 -517q-11 -33 -39 -54t-63 -21q-36 0 -64 21z" />
    <glyph glyph-name="W" unicode="W" horiz-adv-x="767" 
d="M486.5 12.5q-23.5 19.5 -28.5 49.5l-75 382l-74 -382q-5 -30 -28.5 -49.5t-53.5 -19.5t-53 18.5t-29 46.5l-120 529q-2 5 -2 18q0 29 20 49t48 20q25 0 44 -16t23 -40l78 -415l86 421q5 22 22 36t40 14q22 0 39 -14t22 -36l87 -421l76 414q5 24 24 40.5t44 16.5
q28 0 48 -20t20 -49q0 -8 -2 -18l-119 -529q-7 -28 -30 -46.5t-53 -18.5t-53.5 19.5z" />
    <glyph glyph-name="X" unicode="X" horiz-adv-x="550" 
d="M529 59q0 -27 -19 -46.5t-46 -19.5q-18 0 -33 8.5t-23 23.5l-133 214l-133 -214q-8 -15 -23 -23.5t-33 -8.5q-27 0 -46 19.5t-19 46.5q0 18 11 35l160 248l-149 231q-11 16 -11 35q0 27 19 46.5t46 19.5q18 0 33 -9t23 -25l122 -200l122 200q8 16 23 25t33 9
q27 0 46 -19.5t19 -46.5q0 -19 -9 -33l-151 -234l160 -247q11 -17 11 -35z" />
    <glyph glyph-name="Y" unicode="Y" horiz-adv-x="537" 
d="M502 577l-166 -303v-213q0 -28 -19.5 -48t-47.5 -20t-47.5 20t-19.5 48v212l-167 304q-9 14 -9 32q0 27 19 46t46 19q18 0 33.5 -10t23.5 -27l121 -242l121 243q8 16 23.5 26t33.5 10q26 0 45 -19t19 -46q0 -19 -9 -32z" />
    <glyph glyph-name="Z" unicode="Z" horiz-adv-x="484" 
d="M51.5 22.5q-22.5 22.5 -22.5 54.5q0 20 10 37l238 435h-189q-24 0 -41.5 17.5t-17.5 41.5q0 25 17.5 42t41.5 17h285q31 0 53 -22t22 -53q0 -19 -10 -36l-240 -438h198q24 0 41.5 -17.5t17.5 -41.5q0 -25 -17.5 -42t-41.5 -17h-290q-32 0 -54.5 22.5z" />
    <glyph glyph-name="a" unicode="a" 
d="M373.5 453.5q51.5 -41.5 51.5 -129.5v-269q0 -26 -18 -44t-43 -18q-23 0 -40.5 16t-20.5 39q-19 -28 -53.5 -44t-72.5 -16q-39 0 -73 19t-55 55.5t-21 85.5q0 75 43.5 115.5t105.5 40.5q39 0 73.5 -14.5t53.5 -42.5v64q0 39 -23.5 61.5t-65.5 22.5q-45 0 -86 -27
q-10 -6 -24 -6q-19 0 -33 13.5t-14 32.5q0 13 6 23.5t16 16.5q71 47 157 47q85 0 136.5 -41.5zM270 81q22 12 34 34v62q-12 22 -34 34.5t-47 12.5q-34 0 -54.5 -21.5t-20.5 -56.5t20.5 -56t54.5 -21q25 0 47 12z" />
    <glyph glyph-name="a.alt1" horiz-adv-x="504" 
d="M432.5 472q17.5 -18 17.5 -43v-375q0 -25 -17.5 -43t-42.5 -18t-43 18t-18 43v6q-22 -35 -54 -53.5t-67 -18.5q-82 0 -130.5 67.5t-48.5 185.5q0 77 22 134.5t62.5 88.5t94.5 31q36 0 68.5 -18.5t52.5 -54.5v9q0 25 18 42t43 17t42.5 -18zM294 110.5q24 16.5 36 40.5v180
q-12 24 -36 40.5t-48 16.5q-44 0 -68.5 -40.5t-24.5 -106.5q0 -65 24.5 -106t68.5 -41q24 0 48 16.5z" />
    <glyph glyph-name="b" unicode="b" horiz-adv-x="504" 
d="M390.5 464q40.5 -31 62.5 -88.5t22 -134.5q0 -118 -48.5 -185.5t-130.5 -67.5q-35 0 -67 18.5t-54 53.5v-8q0 -25 -18 -42t-43 -17t-42.5 18t-17.5 43v559q0 25 17.5 43t42.5 18t42.5 -18t17.5 -43v-193q20 37 52.5 56t69.5 19q54 0 94.5 -31zM326.5 135
q24.5 41 24.5 106q0 66 -24.5 107t-68.5 41q-24 0 -48 -16.5t-36 -41.5v-180q12 -24 36 -40.5t48 -16.5q44 0 68.5 41z" />
    <glyph glyph-name="c" unicode="c" horiz-adv-x="418" 
d="M56.5 372.5q27.5 57.5 78 90t115.5 32.5q66 0 117 -34q11 -6 18 -18t7 -25q0 -22 -15 -37t-37 -15q-15 0 -26 7q-24 16 -51 16q-51 0 -80.5 -41.5t-29.5 -105.5q0 -65 29.5 -106.5t80.5 -41.5q27 0 51 16q11 8 25 8q22 0 37.5 -15.5t15.5 -37.5q0 -13 -7 -25t-18 -19
q-49 -33 -117 -33q-65 0 -115.5 32.5t-78 90t-27.5 131.5q0 73 27.5 130.5z" />
    <glyph glyph-name="d" unicode="d" horiz-adv-x="504" 
d="M432.5 656q17.5 -18 17.5 -43v-559q0 -26 -17.5 -44t-42.5 -18t-43 18t-18 43v7q-22 -35 -54 -53.5t-67 -18.5q-82 0 -130.5 67.5t-48.5 185.5q0 77 22 134.5t62.5 88.5t94.5 31q36 0 68.5 -19t53.5 -57v194q0 25 17.5 43t42.5 18t42.5 -18zM294 110.5q24 16.5 36 40.5
v181q-12 24 -36 40.5t-48 16.5q-44 0 -68.5 -41t-24.5 -107q0 -65 24.5 -106t68.5 -41q24 0 48 16.5z" />
    <glyph glyph-name="e" unicode="e" 
d="M55.5 370q26.5 58 75.5 91.5t114 33.5q64 0 111.5 -31.5t72 -84.5t24.5 -117q0 -28 -18.5 -43.5t-53.5 -15.5h-231q4 -52 34 -85t83 -33q41 0 78 25q10 7 25 7q19 0 32.5 -13.5t13.5 -32.5q0 -23 -21 -37q-62 -46 -141 -46q-67 0 -118 31.5t-79 89.5t-28 133
q0 70 26.5 128zM174.5 364q-22.5 -34 -24.5 -79h187q-2 45 -24 79t-70 34q-46 0 -68.5 -34z" />
    <glyph glyph-name="f" unicode="f" horiz-adv-x="288" 
d="M210 562q-13 -15 -13 -42v-37h34q21 0 36.5 -15t15.5 -37t-15.5 -37.5t-36.5 -15.5h-34v-324q0 -25 -17.5 -43t-42.5 -18t-43 18t-18 43v324h-19q-20 0 -35 15.5t-15 37.5t15 37t35 15h19v38q0 73 38.5 114.5t103.5 41.5q22 0 37 -4q19 -3 31 -15.5t12 -32.5t-12 -34
t-32 -14h-10q-21 0 -34 -15z" />
    <glyph glyph-name="f.alt1" horiz-adv-x="288" 
d="M210 562q-13 -15 -13 -42v-37h34q21 0 36.5 -15t15.5 -37t-15.5 -37.5t-36.5 -15.5h-34v-324q0 -25 -17.5 -43t-42.5 -18t-43 18t-18 43v324h-19q-20 0 -35 15.5t-15 37.5t15 37t35 15h19v38q0 73 38.5 114.5t103.5 41.5q22 0 37 -4q19 -3 31 -15.5t12 -32.5t-12 -34
t-32 -14h-10q-21 0 -34 -15z" />
    <glyph glyph-name="g" unicode="g" horiz-adv-x="504" 
d="M431.5 472q17.5 -18 17.5 -43v-404q0 -121 -63.5 -171t-158.5 -50q-85 0 -145 37q-12 7 -18.5 18.5t-6.5 25.5q0 21 15 35.5t36 14.5q15 0 25 -6q41 -24 88 -24q46 0 77 27.5t31 86.5v60q-22 -36 -54 -55.5t-68 -19.5q-82 0 -130 64t-48 181q0 115 48 180.5t130 65.5
q37 0 69 -18.5t53 -56.5v11q0 24 18 41.5t42 17.5q25 0 42.5 -18zM294 126q24 16 35 40v166q-11 24 -34.5 40.5t-48.5 16.5q-45 0 -69 -38t-24 -102t24 -101.5t69 -37.5q24 0 48 16z" />
    <glyph glyph-name="h" unicode="h" horiz-adv-x="500" 
d="M343.5 11q-17.5 18 -17.5 43v266q0 69 -64 69q-27 0 -50 -17.5t-37 -42.5v-275q0 -25 -17.5 -43t-42.5 -18t-43 18t-18 43v559q0 25 18 43t43 18t42.5 -18t17.5 -43v-193q20 31 58.5 53t82.5 22q66 0 98 -34t32 -96v-311q0 -25 -17.5 -43t-42.5 -18t-42.5 18z" />
    <glyph glyph-name="i" unicode="i" horiz-adv-x="228" 
d="M63.5 587q-21.5 21 -21.5 51t21.5 51.5t50.5 21.5q30 0 51 -21.5t21 -51.5t-21 -51t-51 -21q-29 0 -50.5 21zM71.5 11q-17.5 18 -17.5 43v375q0 25 17.5 43t42.5 18t42.5 -18t17.5 -43v-375q0 -25 -17.5 -43t-42.5 -18t-42.5 18z" />
    <glyph glyph-name="j" unicode="j" horiz-adv-x="228" 
d="M63.5 577q-21.5 21 -21.5 51t21.5 51.5t50.5 21.5q30 0 51 -21.5t21 -51.5t-21 -51t-51 -21q-29 0 -50.5 21zM25 -196q-24 0 -40.5 15.5t-16.5 40.5q0 19 11 32.5t27 14.5l4 1q44 2 44 61v460q0 25 17.5 43t42.5 18t42.5 -18t17.5 -43v-461q0 -77 -36.5 -120.5
t-105.5 -43.5h-7z" />
    <glyph glyph-name="k" unicode="k" horiz-adv-x="469" 
d="M446 53q0 -25 -17 -42.5t-42 -17.5q-16 0 -29 8t-22 22l-109 166l-53 -68v-67q0 -25 -17.5 -43t-42.5 -18t-42.5 18t-17.5 43v559q0 25 17.5 43t42.5 18t42.5 -18t17.5 -43v-349l158 202q9 11 21 17.5t25 6.5q23 0 39.5 -17t16.5 -40q0 -20 -12 -34l-112 -136l127 -180
q9 -13 9 -30z" />
    <glyph glyph-name="l" unicode="l" horiz-adv-x="228" 
d="M71.5 11q-17.5 18 -17.5 43v559q0 25 17.5 43t42.5 18t42.5 -18t17.5 -43v-559q0 -25 -17.5 -43t-42.5 -18t-42.5 18z" />
    <glyph glyph-name="l.alt1" horiz-adv-x="265" 
d="M209 94q5 0 9 1t8 1q20 -1 31.5 -15.5t11.5 -34.5q0 -18 -10 -31t-26 -18q-22 -9 -55 -9q-124 0 -124 128v497q0 25 17.5 43t42.5 18t42.5 -18t17.5 -43v-469q0 -49 35 -50z" />
    <glyph glyph-name="m" unicode="m" horiz-adv-x="744" 
d="M658 463.5q32 -31.5 32 -96.5v-313q0 -25 -17.5 -43t-42.5 -18t-42.5 18t-17.5 43v271q0 64 -55 64q-26 0 -48 -18t-35 -42v-275q0 -25 -17.5 -43t-42.5 -18t-42.5 18t-17.5 43v271q0 64 -55 64q-25 0 -47.5 -18t-35.5 -42v-275q0 -25 -17.5 -43t-42.5 -18t-42.5 18
t-17.5 43v375q0 25 17.5 43t42.5 18q26 0 43.5 -17.5t17.5 -43.5v-9q15 27 54 51t81 24q46 0 76.5 -21.5t40.5 -62.5q18 34 58 59t83 25q58 0 90 -31.5z" />
    <glyph glyph-name="n" unicode="n" horiz-adv-x="500" 
d="M413 460q32 -35 32 -97v-309q0 -25 -17.5 -43t-42.5 -18t-42.5 18t-17.5 43v264q0 71 -63 71q-28 0 -50.5 -17.5t-37.5 -42.5v-275q0 -25 -17.5 -43t-42.5 -18t-42.5 18t-17.5 43v375q0 25 17.5 43t42.5 18q26 0 43.5 -17.5t17.5 -43.5v-9q20 31 58.5 53t82.5 22
q65 0 97 -35z" />
    <glyph glyph-name="o" unicode="o" horiz-adv-x="495" 
d="M129 22.5q-49 34.5 -74.5 92.5t-25.5 127t25.5 126.5t75 92t117.5 34.5q69 0 118.5 -34.5t75 -92t25.5 -126.5q0 -70 -25.5 -127.5t-75 -92t-118.5 -34.5t-118 34.5zM318 136q24 42 24 106t-24 105.5t-71 41.5q-46 0 -69.5 -42t-23.5 -105q0 -64 23.5 -106t69.5 -42
q47 0 71 42z" />
    <glyph glyph-name="p" unicode="p" horiz-adv-x="504" 
d="M426.5 427.5q48.5 -67.5 48.5 -185.5q0 -117 -48.5 -185.5t-130.5 -68.5q-36 0 -68.5 19t-53.5 57v-194q0 -25 -17.5 -43t-42.5 -18t-42.5 18t-17.5 43v559q0 26 17.5 44t42.5 18t43 -18t18 -43v-6q21 34 53.5 52.5t67.5 18.5q82 0 130.5 -67.5zM326.5 135
q24.5 41 24.5 107q0 65 -24.5 106t-69.5 41q-24 0 -47.5 -16t-35.5 -40v-182q12 -24 35.5 -40.5t47.5 -16.5q45 0 69.5 41z" />
    <glyph glyph-name="q" unicode="q" horiz-adv-x="504" 
d="M431.5 472q17.5 -18 17.5 -43v-559q0 -25 -17.5 -43t-42.5 -18t-42.5 18t-17.5 43v192q-21 -37 -53.5 -55.5t-68.5 -18.5q-82 0 -130 68.5t-48 185.5q0 118 48 185.5t130 67.5q36 0 68.5 -18.5t53.5 -53.5v8q0 24 18 41.5t42 17.5q25 0 42.5 -18zM293.5 110.5
q23.5 16.5 35.5 40.5v182q-11 24 -34.5 40t-48.5 16q-44 0 -68.5 -41t-24.5 -106q0 -66 24.5 -107t68.5 -41q24 0 47.5 16.5z" />
    <glyph glyph-name="r" unicode="r" horiz-adv-x="320" 
d="M302 475q14 -15 14 -39q0 -22 -12.5 -37t-36.5 -20q-25 -2 -52 -18t-41 -39v-268q0 -25 -17.5 -43t-42.5 -18t-42.5 18t-17.5 43v375q0 25 17.5 43t42.5 18t43 -17.5t18 -42.5v-14q26 46 61 64q17 10 30 10q22 0 36 -15z" />
    <glyph glyph-name="s" unicode="s" horiz-adv-x="412" 
d="M32 48q-6 11 -6 24q0 21 14.5 35t34.5 14q14 0 26 -7q52 -32 100 -32q34 0 52.5 13t18.5 37q0 22 -20.5 35t-62.5 27q-49 16 -79.5 30.5t-53.5 45t-23 80.5q0 40 21 73t60.5 52.5t94.5 19.5q75 0 136 -39q23 -13 23 -39q0 -19 -13.5 -33t-33.5 -14q-13 0 -23 7
q-42 25 -87 25q-29 0 -46.5 -12.5t-17.5 -32.5t19.5 -32.5t58.5 -24.5q49 -15 81.5 -31t56.5 -48t24 -83q0 -66 -50 -108t-134 -42q-88 0 -154 43q-11 6 -17 17z" />
    <glyph glyph-name="t" unicode="t" horiz-adv-x="298" 
d="M278.5 80.5q11.5 -14.5 11.5 -34.5q0 -18 -10 -31t-26 -18q-22 -9 -56 -9q-63 0 -93 32t-30 96v262h-20q-20 0 -35 15.5t-15 37.5t15 37t35 15h20v78q0 25 17.5 43t42.5 18t42.5 -18t17.5 -43v-78h34q22 0 37 -15t15 -37t-15 -37.5t-37 -15.5h-34v-234q0 -23 8.5 -36
t25.5 -14q5 0 9.5 1t8.5 1q20 -1 31.5 -15.5z" />
    <glyph glyph-name="u" unicode="u" horiz-adv-x="499" 
d="M427.5 472q17.5 -18 17.5 -43v-375q0 -26 -17.5 -43.5t-42.5 -17.5t-43 18t-18 43v6q-21 -30 -59 -51t-82 -21q-65 0 -97 34t-32 96v311q0 25 17.5 43t42.5 18t42.5 -18t17.5 -43v-265q0 -37 16.5 -53.5t47.5 -16.5q27 0 50 17t37 42v276q0 25 17.5 43t42.5 18t42.5 -18z
" />
    <glyph glyph-name="v" unicode="v" horiz-adv-x="447" 
d="M411 472q17 -18 17 -43q0 -8 -4 -20l-119 -357q-9 -26 -31.5 -42.5t-50.5 -16.5t-50.5 16.5t-31.5 42.5l-119 358q-3 9 -3 20q0 25 17 42.5t42 17.5q20 0 36 -12t21 -31l88 -303l88 304q5 18 21.5 30t36.5 12q25 0 42 -18z" />
    <glyph glyph-name="w" unicode="w" horiz-adv-x="688" 
d="M444.5 10q-21.5 17 -28.5 43l-72 276l-72 -276q-7 -26 -28.5 -43t-48.5 -17q-28 0 -49.5 17t-28.5 43l-96 362q-2 8 -2 15q0 25 17 42.5t42 17.5q21 0 37 -13t21 -33l67 -289l73 283q5 22 24.5 37t43.5 15t42 -14.5t24 -36.5l75 -284l67 289q5 20 21 33t37 13
q25 0 42.5 -17.5t17.5 -42.5q0 -7 -2 -15l-97 -362q-7 -27 -28.5 -43.5t-49.5 -16.5q-27 0 -48.5 17z" />
    <glyph glyph-name="x" unicode="x" horiz-adv-x="435" 
d="M412 49q0 -22 -16 -39t-40 -17q-14 0 -27 7t-20 20l-91 142l-93 -141q-8 -13 -20 -20.5t-27 -7.5q-24 0 -40 17t-16 39q0 15 11 30l115 167l-109 157q-10 13 -10 30q0 23 16.5 40t40.5 17q13 0 25.5 -7t20.5 -20l85 -131l85 131q17 27 47 27q23 0 39.5 -17t16.5 -39
q0 -16 -9 -30l-109 -158l115 -166q10 -13 10 -31z" />
    <glyph glyph-name="y" unicode="y" horiz-adv-x="445" 
d="M53.5 -107.5q13.5 14.5 32.5 16.5l7 1q20 2 32 10t19 25l16 46l-140 420q-3 9 -3 19q0 25 17 42.5t42 17.5q20 0 36.5 -12t20.5 -31l88 -304l89 305q5 19 21 30.5t36 11.5q25 0 42.5 -17.5t17.5 -42.5q0 -7 -4 -19l-165 -493q-21 -63 -58 -88.5t-90 -25.5h-10
q-27 1 -43.5 16t-16.5 37q0 21 13.5 35.5z" />
    <glyph glyph-name="y.alt1" horiz-adv-x="499" 
d="M67 -140.5q-7 11.5 -7 25.5q0 21 15 35.5t36 14.5q13 0 25 -6q38 -24 86 -24q49 0 76 30t27 85v60q-21 -31 -59 -52t-83 -21q-65 0 -97 34t-32 96v292q0 25 17.5 43t42.5 18t42.5 -18t17.5 -43v-247q0 -69 64 -69q27 0 50 17t37 41v258q0 25 17.5 43t42.5 18t42.5 -18
t17.5 -43v-402q0 -107 -57.5 -165t-160.5 -58q-80 0 -141 37q-12 7 -19 18.5z" />
    <glyph glyph-name="z" unicode="z" horiz-adv-x="407" 
d="M45.5 18q-17.5 18 -17.5 43q0 20 10 33l177 284h-135q-21 0 -36.5 15.5t-15.5 37.5q0 21 15.5 36.5t36.5 15.5h237q24 0 41 -17t17 -41q0 -19 -10 -32l-179 -288h141q21 0 36.5 -15.5t15.5 -36.5q0 -22 -15.5 -37.5t-36.5 -15.5h-239q-25 0 -42.5 18z" />
    <glyph glyph-name="Aacute" unicode="&#xc1;" horiz-adv-x="551" 
d="M533 59q0 -27 -19 -46.5t-46 -19.5q-23 0 -40.5 14t-22.5 35l-20 79h-219l-20 -79q-5 -21 -23 -35t-40 -14q-28 0 -47 19.5t-19 46.5q0 7 4 19l153 521q10 33 38 54t63 21t63 -21t39 -54l153 -521q3 -9 3 -19zM196 238h159l-80 310zM278 714q-13 0 -22.5 9.5t-9.5 22.5
q0 10 6 19l72 96q11 17 31 17q16 0 27 -11.5t11 -27.5t-10 -26l-81 -87q-9 -12 -24 -12z" />
    <glyph glyph-name="Abreve" unicode="&#x102;" horiz-adv-x="551" 
d="M533 59q0 -27 -19 -46.5t-46 -19.5q-23 0 -40.5 14t-22.5 35l-20 79h-219l-20 -79q-5 -21 -23 -35t-40 -14q-28 0 -47 19.5t-19 46.5q0 7 4 19l153 521q10 33 38 54t63 21t63 -21t39 -54l153 -521q3 -9 3 -19zM196 238h159l-80 310zM207 731q-33 13 -59 37q-12 10 -12 26
q0 14 10.5 24.5t24.5 10.5q15 0 24 -9q35 -33 80 -33q46 0 80 32q10 10 24 10t24 -10.5t10 -24.5t-11 -25q-54 -51 -127 -51q-35 0 -68 13z" />
    <glyph glyph-name="Acircumflex" unicode="&#xc2;" horiz-adv-x="551" 
d="M533 59q0 -27 -19 -46.5t-46 -19.5q-23 0 -40.5 14t-22.5 35l-20 79h-219l-20 -79q-5 -21 -23 -35t-40 -14q-28 0 -47 19.5t-19 46.5q0 7 4 19l153 521q10 33 38 54t63 21t63 -21t39 -54l153 -521q3 -9 3 -19zM196 238h159l-80 310zM276 814l-57 -84q-8 -13 -25 -13
q-13 0 -22.5 9t-9.5 23q0 7 6 19l40 75q7 13 21.5 21.5t29.5 8.5h35q14 0 28.5 -8.5t21.5 -21.5l41 -75q5 -10 5 -19q0 -14 -9.5 -23t-22.5 -9q-17 0 -25 13z" />
    <glyph glyph-name="Adieresis" unicode="&#xc4;" horiz-adv-x="551" 
d="M533 59q0 -27 -19 -46.5t-46 -19.5q-23 0 -40.5 14t-22.5 35l-20 79h-219l-20 -79q-5 -21 -23 -35t-40 -14q-28 0 -47 19.5t-19 46.5q0 7 4 19l153 521q10 33 38 54t63 21t63 -21t39 -54l153 -521q3 -9 3 -19zM196 238h159l-80 310zM136 742q-19 19 -19 45q0 27 19 46
t46 19t45.5 -19t18.5 -46q0 -26 -18.5 -45t-45.5 -19t-46 19zM323 741.5q-19 18.5 -19 45.5t19 46t46 19t46 -19t19 -46t-19 -45.5t-46 -18.5t-46 18.5z" />
    <glyph glyph-name="Agrave" unicode="&#xc0;" horiz-adv-x="551" 
d="M533 59q0 -27 -19 -46.5t-46 -19.5q-23 0 -40.5 14t-22.5 35l-20 79h-219l-20 -79q-5 -21 -23 -35t-40 -14q-28 0 -47 19.5t-19 46.5q0 7 4 19l153 521q10 33 38 54t63 21t63 -21t39 -54l153 -521q3 -9 3 -19zM196 238h159l-80 310zM170 813q-10 10 -10 26t11 27.5
t27 11.5q20 0 31 -17l72 -96q6 -9 6 -19q0 -13 -9.5 -22.5t-22.5 -9.5q-15 0 -24 12z" />
    <glyph glyph-name="Amacron" unicode="&#x100;" horiz-adv-x="551" 
d="M533 59q0 -27 -19 -46.5t-46 -19.5q-23 0 -40.5 14t-22.5 35l-20 79h-219l-20 -79q-5 -21 -23 -35t-40 -14q-28 0 -47 19.5t-19 46.5q0 7 4 19l153 521q10 33 38 54t63 21t63 -21t39 -54l153 -521q3 -9 3 -19zM196 238h159l-80 310zM138.5 740q-10.5 10 -10.5 25
q0 14 10.5 24t24.5 10h225q14 0 24 -10t10 -24q0 -15 -10 -25t-24 -10h-225q-14 0 -24.5 10z" />
    <glyph glyph-name="Aogonek" unicode="&#x104;" horiz-adv-x="554" 
d="M523 -116q11 -11 11 -27q0 -15 -9 -24t-19 -12q-22 -7 -56 -7q-43 0 -73.5 20.5t-30.5 59.5q0 34 27 60.5t71 42.5q-14 6 -24.5 18t-14.5 27l-20 79h-219l-20 -79q-5 -21 -23 -35t-40 -14q-28 0 -47 19.5t-19 46.5q0 7 4 19l153 521q10 33 38 54t63 21t63 -21t39 -54
l153 -521q3 -9 3 -19q0 -17 -8 -32t-22 -24q-31 -27 -43.5 -43t-12.5 -35q0 -14 10 -23t24 -9q5 0 9 1t7 1q15 0 26 -11zM196 238h159l-80 310z" />
    <glyph glyph-name="Aring" unicode="&#xc5;" horiz-adv-x="551" 
d="M533 59q0 -27 -19 -46.5t-46 -19.5q-23 0 -40.5 14t-22.5 35l-20 79h-219l-20 -79q-5 -21 -23 -35t-40 -14q-28 0 -47 19.5t-19 46.5q0 7 4 19l153 521q10 33 38 54t63 21t63 -21t39 -54l153 -521q3 -9 3 -19zM196 238h159l-80 310zM207.5 866.5q28.5 28.5 68.5 28.5
t68 -28.5t28 -68.5t-28 -68.5t-68 -28.5t-68.5 28.5t-28.5 68.5t28.5 68.5zM306 828.5q-12 12.5 -30 12.5q-17 0 -30 -13t-13 -30q0 -18 13 -30.5t30 -12.5q18 0 30 12.5t12 30.5t-12 30.5z" />
    <glyph glyph-name="Aringacute" unicode="&#x1fa;" horiz-adv-x="551" 
d="M533 59q0 -27 -19 -46.5t-46 -19.5q-23 0 -40.5 14t-22.5 35l-20 79h-219l-20 -79q-5 -21 -23 -35t-40 -14q-28 0 -47 19.5t-19 46.5q0 7 4 19l153 521q10 33 38 54t63 21t63 -21t39 -54l153 -521q3 -9 3 -19zM196 238h159l-80 310zM207.5 866.5q28.5 28.5 68.5 28.5
t68 -28.5t28 -68.5t-28 -68.5t-68 -28.5t-68.5 28.5t-28.5 68.5t28.5 68.5zM306 828.5q-12 12.5 -30 12.5q-17 0 -30 -13t-13 -30q0 -18 13 -30.5t30 -12.5q18 0 30 12.5t12 30.5t-12 30.5zM278 916q-13 0 -22.5 9.5t-9.5 22.5q0 10 6 19l72 96q11 17 31 17q16 0 27 -11.5
t11 -27.5t-10 -26l-81 -87q-9 -12 -24 -12z" />
    <glyph glyph-name="Atilde" unicode="&#xc3;" horiz-adv-x="551" 
d="M533 59q0 -27 -19 -46.5t-46 -19.5q-23 0 -40.5 14t-22.5 35l-20 79h-219l-20 -79q-5 -21 -23 -35t-40 -14q-28 0 -47 19.5t-19 46.5q0 7 4 19l153 521q10 33 38 54t63 21t63 -21t39 -54l153 -521q3 -9 3 -19zM196 238h159l-80 310zM287 732.5q-15 11.5 -30 31.5
q-11 15 -18 21.5t-16 6.5q-23 0 -30 -46q-2 -11 -10.5 -18.5t-19.5 -7.5q-14 0 -23.5 11t-7.5 25q7 50 31 77.5t63 27.5q23 0 38 -11.5t30 -32.5q11 -14 18.5 -20.5t16.5 -6.5q10 0 18 11.5t11 34.5q1 11 10 18.5t20 7.5q14 0 23.5 -10.5t7.5 -24.5q-6 -51 -30 -78.5
t-64 -27.5q-23 0 -38 11.5z" />
    <glyph glyph-name="uni1EA0" unicode="&#x1ea0;" horiz-adv-x="551" 
d="M533 59q0 -27 -19 -46.5t-46 -19.5q-23 0 -40.5 14t-22.5 35l-20 79h-219l-20 -79q-5 -21 -23 -35t-40 -14q-28 0 -47 19.5t-19 46.5q0 7 4 19l153 521q10 33 38 54t63 21t63 -21t39 -54l153 -521q3 -9 3 -19zM196 238h159l-80 310zM229.5 -74.5q19.5 19.5 45.5 19.5
t45 -19.5t19 -45.5q0 -27 -19 -46t-45 -19t-45.5 19t-19.5 46q0 26 19.5 45.5z" />
    <glyph glyph-name="uni1EA2" unicode="&#x1ea2;" horiz-adv-x="551" 
d="M533 59q0 -27 -19 -46.5t-46 -19.5q-23 0 -40.5 14t-22.5 35l-20 79h-219l-20 -79q-5 -21 -23 -35t-40 -14q-28 0 -47 19.5t-19 46.5q0 7 4 19l153 521q10 33 38 54t63 21t63 -21t39 -54l153 -521q3 -9 3 -19zM196 238h159l-80 310zM302.5 725.5q-8.5 7.5 -8.5 17.5
q0 6 3 15q5 15 5 33q0 19 -8.5 28.5t-22.5 9.5q-19 0 -30 -18q-8 -15 -26 -15q-12 0 -20 8.5t-8 20.5q0 10 7 19q25 39 78 39q40 0 65.5 -22.5t25.5 -67.5q0 -28 -14 -58q-9 -17 -27 -17q-11 0 -19.5 7.5z" />
    <glyph glyph-name="uni1EA4" unicode="&#x1ea4;" horiz-adv-x="551" 
d="M400.5 780q-9.5 7 -9.5 17q0 8 6 15l72 72q12 12 31 12q16 0 27 -8.5t11 -20.5t-10 -19l-81 -66q-9 -9 -24 -9q-13 0 -22.5 7zM171.5 707.5q-9.5 6.5 -9.5 17.5q0 4 6 14l40 56q7 10 21.5 16.5t29.5 6.5h35q15 0 29 -6.5t21 -16.5l41 -56q5 -8 5 -14q0 -11 -9.5 -17.5
t-22.5 -6.5q-17 0 -25 9l-57 63l-57 -63q-8 -9 -25 -9q-13 0 -22.5 6.5zM530 78q3 -9 3 -19q0 -27 -19 -46.5t-46 -19.5q-23 0 -40.5 14t-22.5 35l-20 79h-219l-20 -79q-5 -21 -23 -35t-40 -14q-28 0 -47 19.5t-19 46.5q0 7 4 19l153 521q10 33 38 54t63 21t63 -21t39 -54z
M196 238h159l-80 310z" />
    <glyph glyph-name="uni1EAC" unicode="&#x1eac;" horiz-adv-x="551" 
d="M533 59q0 -27 -19 -46.5t-46 -19.5q-23 0 -40.5 14t-22.5 35l-20 79h-219l-20 -79q-5 -21 -23 -35t-40 -14q-28 0 -47 19.5t-19 46.5q0 7 4 19l153 521q10 33 38 54t63 21t63 -21t39 -54l153 -521q3 -9 3 -19zM196 238h159l-80 310zM276 814l-57 -84q-8 -13 -25 -13
q-13 0 -22.5 9t-9.5 23q0 7 6 19l40 75q7 13 21.5 21.5t29.5 8.5h35q14 0 28.5 -8.5t21.5 -21.5l41 -75q5 -10 5 -19q0 -14 -9.5 -23t-22.5 -9q-17 0 -25 13zM229.5 -74.5q19.5 19.5 45.5 19.5t45 -19.5t19 -45.5q0 -27 -19 -46t-45 -19t-45.5 19t-19.5 46q0 26 19.5 45.5z
" />
    <glyph glyph-name="uni1EA6" unicode="&#x1ea6;" horiz-adv-x="551" 
d="M17 867q0 12 11 20.5t27 8.5q19 0 31 -12l72 -72q6 -7 6 -15q0 -10 -9.5 -17t-22.5 -7q-15 0 -24 9l-81 66q-10 7 -10 19zM171.5 707.5q-9.5 6.5 -9.5 17.5q0 4 6 14l40 56q7 10 21.5 16.5t29.5 6.5h35q15 0 29 -6.5t21 -16.5l41 -56q5 -8 5 -14q0 -11 -9.5 -17.5
t-22.5 -6.5q-17 0 -25 9l-57 63l-57 -63q-8 -9 -25 -9q-13 0 -22.5 6.5zM533 59q0 -27 -19 -46.5t-46 -19.5q-23 0 -40.5 14t-22.5 35l-20 79h-219l-20 -79q-5 -21 -23 -35t-40 -14q-28 0 -47 19.5t-19 46.5q0 7 4 19l153 521q10 33 38 54t63 21t63 -21t39 -54l153 -521
q3 -9 3 -19zM196 238h159l-80 310z" />
    <glyph glyph-name="uni1EA8" unicode="&#x1ea8;" horiz-adv-x="551" 
d="M301 840q-8 6 -8 16q0 7 7 14q26 29 78 29q40 0 65.5 -17t25.5 -50q0 -22 -14 -44q-9 -13 -27 -13q-11 0 -19.5 5.5t-8.5 13.5q0 5 3 11q5 12 5 25q0 14 -8.5 21.5t-22.5 7.5q-19 0 -30 -14q-8 -11 -26 -11q-12 0 -20 6zM171.5 707.5q-9.5 6.5 -9.5 17.5q0 4 6 14l40 56
q7 10 21.5 16.5t29.5 6.5h35q15 0 29 -6.5t21 -16.5l41 -56q5 -8 5 -14q0 -11 -9.5 -17.5t-22.5 -6.5q-17 0 -25 9l-57 63l-57 -63q-8 -9 -25 -9q-13 0 -22.5 6.5zM533 59q0 -27 -19 -46.5t-46 -19.5q-23 0 -40.5 14t-22.5 35l-20 79h-219l-20 -79q-5 -21 -23 -35t-40 -14
q-28 0 -47 19.5t-19 46.5q0 7 4 19l153 521q10 33 38 54t63 21t63 -21t39 -54l153 -521q3 -9 3 -19zM196 238h159l-80 310z" />
    <glyph glyph-name="uni1EAE" unicode="&#x1eae;" horiz-adv-x="551" 
d="M255.5 805q-9.5 7 -9.5 17q0 8 6 15l72 72q12 12 31 12q16 0 27 -8.5t11 -20.5t-10 -19l-81 -66q-9 -9 -24 -9q-13 0 -22.5 7zM136 760q0 11 10.5 18.5t24.5 7.5q16 0 24 -7q34 -25 80 -25t80 25q10 7 24 7t24 -7.5t10 -18.5q0 -12 -11 -19q-52 -39 -127 -39
q-74 0 -127 38q-12 7 -12 20zM533 59q0 -27 -19 -46.5t-46 -19.5q-23 0 -40.5 14t-22.5 35l-20 79h-219l-20 -79q-5 -21 -23 -35t-40 -14q-28 0 -47 19.5t-19 46.5q0 7 4 19l153 521q10 33 38 54t63 21t63 -21t39 -54l153 -521q3 -9 3 -19zM196 238h159l-80 310z" />
    <glyph glyph-name="uni1EAA" unicode="&#x1eaa;" horiz-adv-x="551" 
d="M139.5 840q-9.5 8 -7.5 19q7 37 31 58t63 21q23 0 37.5 -8.5t30.5 -24.5q11 -11 18.5 -16t16.5 -5q10 0 18 8.5t11 26.5q1 8 10 13.5t20 5.5q14 0 23.5 -8t7.5 -18q-6 -38 -30 -58.5t-64 -20.5q-23 0 -38 8.5t-30 23.5q-11 11 -18 16t-16 5q-23 0 -30 -35
q-2 -8 -10.5 -13.5t-19.5 -5.5q-14 0 -23.5 8zM323 811.5q14 -6.5 21 -16.5l41 -56q5 -8 5 -14q0 -11 -9.5 -17.5t-22.5 -6.5q-17 0 -25 9l-57 63l-57 -63q-8 -9 -25 -9q-13 0 -22.5 6.5t-9.5 17.5q0 4 6 14l40 56q7 10 21.5 16.5t29.5 6.5h35q15 0 29 -6.5zM533 59
q0 -27 -19 -46.5t-46 -19.5q-23 0 -40.5 14t-22.5 35l-20 79h-219l-20 -79q-5 -21 -23 -35t-40 -14q-28 0 -47 19.5t-19 46.5q0 7 4 19l153 521q10 33 38 54t63 21t63 -21t39 -54l153 -521q3 -9 3 -19zM196 238h159l-80 310z" />
    <glyph glyph-name="uni1EB0" unicode="&#x1eb0;" horiz-adv-x="551" 
d="M160 890q0 12 11 20.5t27 8.5q19 0 31 -12l72 -72q6 -7 6 -15q0 -10 -9.5 -17t-22.5 -7q-15 0 -24 9l-81 66q-10 7 -10 19zM139.5 747.5q-3.5 5.5 -3.5 10.5q0 11 10.5 19t24.5 8t24 -7q34 -25 80 -25q47 0 80 24q10 8 24 8t24 -8t10 -19t-11 -18q-55 -39 -127 -39
t-127 38q-5 3 -8.5 8.5zM533 59q0 -27 -19 -46.5t-46 -19.5q-23 0 -40.5 14t-22.5 35l-20 79h-219l-20 -79q-5 -21 -23 -35t-40 -14q-28 0 -47 19.5t-19 46.5q0 7 4 19l153 521q10 33 38 54t63 21t63 -21t39 -54l153 -521q3 -9 3 -19zM196 238h159l-80 310z" />
    <glyph glyph-name="uni1EB2" unicode="&#x1eb2;" horiz-adv-x="551" 
d="M195 864q-8 6 -8 16q0 7 7 14q26 29 78 29q40 0 65.5 -17t25.5 -50q0 -22 -14 -44q-9 -13 -27 -13q-11 0 -19.5 5.5t-8.5 13.5q0 5 3 11q5 12 5 25q0 14 -8.5 21.5t-22.5 7.5q-19 0 -30 -14q-8 -11 -26 -11q-12 0 -20 6zM139.5 747.5q-3.5 5.5 -3.5 10.5q0 11 10.5 19
t24.5 8t24 -7q34 -25 80 -25q47 0 80 24q10 8 24 8t24 -8t10 -19t-11 -18q-55 -39 -127 -39t-127 38q-5 3 -8.5 8.5zM533 59q0 -27 -19 -46.5t-46 -19.5q-23 0 -40.5 14t-22.5 35l-20 79h-219l-20 -79q-5 -21 -23 -35t-40 -14q-28 0 -47 19.5t-19 46.5q0 7 4 19l153 521
q10 33 38 54t63 21t63 -21t39 -54l153 -521q3 -9 3 -19zM196 238h159l-80 310z" />
    <glyph glyph-name="uni1EB4" unicode="&#x1eb4;" horiz-adv-x="551" 
d="M139.5 809q-9.5 8 -7.5 19q7 37 31 58t63 21q23 0 37.5 -8.5t30.5 -24.5q11 -11 18.5 -16t16.5 -5q10 0 18 8.5t11 26.5q1 8 10 13.5t20 5.5q14 0 23.5 -8t7.5 -18q-6 -38 -30 -58.5t-64 -20.5q-23 0 -38 8.5t-30 23.5q-11 11 -18 16t-16 5q-23 0 -30 -35
q-2 -8 -10.5 -13.5t-19.5 -5.5q-14 0 -23.5 8zM379 785q14 0 24 -8t10 -19t-11 -18q-55 -39 -127 -39t-127 38q-5 3 -8.5 8.5t-3.5 10.5q0 11 10.5 19t24.5 8t24 -7q34 -25 80 -25q47 0 80 24q10 8 24 8zM533 59q0 -27 -19 -46.5t-46 -19.5q-23 0 -40.5 14t-22.5 35l-20 79
h-219l-20 -79q-5 -21 -23 -35t-40 -14q-28 0 -47 19.5t-19 46.5q0 7 4 19l153 521q10 33 38 54t63 21t63 -21t39 -54l153 -521q3 -9 3 -19zM196 238h159l-80 310z" />
    <glyph glyph-name="uni1EB6" unicode="&#x1eb6;" horiz-adv-x="551" 
d="M533 59q0 -27 -19 -46.5t-46 -19.5q-23 0 -40.5 14t-22.5 35l-20 79h-219l-20 -79q-5 -21 -23 -35t-40 -14q-28 0 -47 19.5t-19 46.5q0 7 4 19l153 521q10 33 38 54t63 21t63 -21t39 -54l153 -521q3 -9 3 -19zM196 238h159l-80 310zM207 731q-33 13 -59 37q-12 10 -12 26
q0 14 10.5 24.5t24.5 10.5q15 0 24 -9q35 -33 80 -33q46 0 80 32q10 10 24 10t24 -10.5t10 -24.5t-11 -25q-54 -51 -127 -51q-35 0 -68 13zM229.5 -74.5q19.5 19.5 45.5 19.5t45 -19.5t19 -45.5q0 -27 -19 -46t-45 -19t-45.5 19t-19.5 46q0 26 19.5 45.5z" />
    <glyph glyph-name="AE" unicode="&#xc6;" horiz-adv-x="778" 
d="M730.5 99.5q17.5 -17.5 17.5 -41.5t-17.5 -41t-40.5 -17h-259q-34 0 -52.5 18.5t-18.5 52.5v50h-182l-38 -90q-7 -17 -22.5 -27.5t-33.5 -10.5q-25 0 -43.5 18.5t-18.5 43.5q0 10 6 26l251 533q13 27 33 40t50 13h328q23 0 40.5 -17t17.5 -41t-17.5 -41.5t-40.5 -17.5
h-196v-153h189q23 0 40.5 -17t17.5 -41t-17.5 -41t-40.5 -17h-189v-164h196q23 0 40.5 -17.5zM228 238h132v311z" />
    <glyph glyph-name="AEacute" unicode="&#x1fc;" horiz-adv-x="778" 
d="M730.5 99.5q17.5 -17.5 17.5 -41.5t-17.5 -41t-40.5 -17h-259q-34 0 -52.5 18.5t-18.5 52.5v50h-182l-38 -90q-7 -17 -22.5 -27.5t-33.5 -10.5q-25 0 -43.5 18.5t-18.5 43.5q0 10 6 26l251 533q13 27 33 40t50 13h328q23 0 40.5 -17t17.5 -41t-17.5 -41.5t-40.5 -17.5
h-196v-153h189q23 0 40.5 -17t17.5 -41t-17.5 -41t-40.5 -17h-189v-164h196q23 0 40.5 -17.5zM228 238h132v311zM427 714q-13 0 -22.5 9.5t-9.5 22.5q0 10 6 19l72 96q11 17 31 17q16 0 27 -11.5t11 -27.5t-10 -26l-81 -87q-9 -12 -24 -12z" />
    <glyph glyph-name="uni1E02" unicode="&#x1e02;" horiz-adv-x="558" 
d="M77.5 18q-18.5 18 -18.5 53v525q0 35 18.5 53t53.5 18h204q85 0 130.5 -48.5t45.5 -121.5q0 -61 -29.5 -101t-77.5 -52q51 -8 84.5 -55t33.5 -109q0 -80 -45.5 -130t-132.5 -50h-213q-35 0 -53.5 18zM303 396q35 0 53 21.5t18 56.5t-18 57t-53 22h-110v-157h110zM308 114
q37 0 57 22.5t20 61.5q0 36 -20 60t-57 24h-115v-168h115zM232.5 832.5q19.5 19.5 45.5 19.5t45 -19.5t19 -45.5q0 -27 -19 -46t-45 -19t-45.5 19t-19.5 46q0 26 19.5 45.5z" />
    <glyph glyph-name="Cacute" unicode="&#x106;" horiz-adv-x="543" 
d="M164.5 32q-63.5 44 -98 122t-34.5 179t34.5 179t98 122t147.5 44q125 0 194 -105q11 -14 11 -33q0 -25 -17.5 -42.5t-42.5 -17.5q-15 0 -28 7.5t-22 19.5q-36 52 -95 52q-65 0 -103.5 -63t-38.5 -163t38.5 -163t103.5 -63q61 0 98 58q8 12 21 20t28 8q25 0 42.5 -17.5
t17.5 -42.5q0 -18 -10 -31q-72 -114 -197 -114q-84 0 -147.5 44zM315 714q-13 0 -22.5 9.5t-9.5 22.5q0 10 6 19l72 96q11 17 31 17q16 0 27 -11.5t11 -27.5t-10 -26l-81 -87q-9 -12 -24 -12z" />
    <glyph glyph-name="Ccedilla" unicode="&#xc7;" horiz-adv-x="543" 
d="M501.5 175.5q17.5 -17.5 17.5 -42.5q0 -18 -10 -31q-65 -103 -173 -113l-17 -41q13 10 32 10q27 0 45 -19t18 -49q0 -39 -29.5 -62t-74.5 -23q-43 0 -79 20q-7 3 -12 9t-5 16q0 11 7.5 19t18.5 8q6 0 13 -4q28 -16 54 -16q20 0 33 9t13 25q0 12 -6.5 19t-19.5 7
q-14 0 -22 -7q-8 -6 -17 -6q-13 0 -21.5 9t-8.5 22q0 7 3 12l16 43q-75 9 -130 54.5t-85 120t-30 168.5q0 101 34.5 179t98 122t147.5 44q125 0 194 -105q11 -14 11 -33q0 -25 -17.5 -42.5t-42.5 -17.5q-15 0 -28 7.5t-22 19.5q-36 52 -95 52q-65 0 -103.5 -63t-38.5 -163
t38.5 -163t103.5 -63q61 0 98 58q8 12 21 20t28 8q25 0 42.5 -17.5z" />
    <glyph glyph-name="Ccircumflex" unicode="&#x108;" horiz-adv-x="543" 
d="M164.5 32q-63.5 44 -98 122t-34.5 179t34.5 179t98 122t147.5 44q125 0 194 -105q11 -14 11 -33q0 -25 -17.5 -42.5t-42.5 -17.5q-15 0 -28 7.5t-22 19.5q-36 52 -95 52q-65 0 -103.5 -63t-38.5 -163t38.5 -163t103.5 -63q61 0 98 58q8 12 21 20t28 8q25 0 42.5 -17.5
t17.5 -42.5q0 -18 -10 -31q-72 -114 -197 -114q-84 0 -147.5 44zM313 814l-57 -84q-8 -13 -25 -13q-13 0 -22.5 9t-9.5 23q0 7 6 19l40 75q7 13 21.5 21.5t29.5 8.5h35q14 0 28.5 -8.5t21.5 -21.5l41 -75q5 -10 5 -19q0 -14 -9.5 -23t-22.5 -9q-17 0 -25 13z" />
    <glyph glyph-name="Cdotaccent" unicode="&#x10a;" horiz-adv-x="543" 
d="M164.5 32q-63.5 44 -98 122t-34.5 179t34.5 179t98 122t147.5 44q125 0 194 -105q11 -14 11 -33q0 -25 -17.5 -42.5t-42.5 -17.5q-15 0 -28 7.5t-22 19.5q-36 52 -95 52q-65 0 -103.5 -63t-38.5 -163t38.5 -163t103.5 -63q61 0 98 58q8 12 21 20t28 8q25 0 42.5 -17.5
t17.5 -42.5q0 -18 -10 -31q-72 -114 -197 -114q-84 0 -147.5 44zM266.5 832.5q19.5 19.5 45.5 19.5t45 -19.5t19 -45.5q0 -27 -19 -46t-45 -19t-45.5 19t-19.5 46q0 26 19.5 45.5z" />
    <glyph glyph-name="Ccaron" unicode="&#x10c;" horiz-adv-x="543" 
d="M164.5 32q-63.5 44 -98 122t-34.5 179t34.5 179t98 122t147.5 44q125 0 194 -105q11 -14 11 -33q0 -25 -17.5 -42.5t-42.5 -17.5q-15 0 -28 7.5t-22 19.5q-36 52 -95 52q-65 0 -103.5 -63t-38.5 -163t38.5 -163t103.5 -63q61 0 98 58q8 12 21 20t28 8q25 0 42.5 -17.5
t17.5 -42.5q0 -18 -10 -31q-72 -114 -197 -114q-84 0 -147.5 44zM414.5 864q9.5 -9 9.5 -23q0 -9 -5 -19l-41 -75q-7 -13 -21.5 -21.5t-28.5 -8.5h-35q-15 0 -29.5 8.5t-21.5 21.5l-40 75q-6 12 -6 19q0 14 9.5 23t22.5 9q17 0 25 -13l57 -84l57 84q8 13 25 13q13 0 22.5 -9
z" />
    <glyph glyph-name="Dcaron" unicode="&#x10e;" horiz-adv-x="597" 
d="M77.5 18q-18.5 18 -18.5 53v525q0 35 18.5 53t53.5 18h143q90 0 155.5 -42t100 -118t34.5 -174t-34 -173.5t-99.5 -117.5t-156.5 -42h-143q-35 0 -53.5 18zM274 118q73 0 113 59t40 156q0 101 -39.5 158.5t-113.5 57.5h-81v-431h81zM399.5 864q9.5 -9 9.5 -23
q0 -9 -5 -19l-41 -75q-7 -13 -21.5 -21.5t-28.5 -8.5h-35q-15 0 -29.5 8.5t-21.5 21.5l-40 75q-6 12 -6 19q0 14 9.5 23t22.5 9q17 0 25 -13l57 -84l57 84q8 13 25 13q13 0 22.5 -9z" />
    <glyph glyph-name="Dcroat" unicode="&#x110;" horiz-adv-x="620" 
d="M453.5 625q65.5 -42 100 -118t34.5 -174t-34.5 -173.5t-100 -117.5t-155.5 -42h-144q-34 0 -52.5 18.5t-18.5 52.5v209h-26q-21 0 -36.5 14.5t-15.5 35.5t15.5 36t36.5 15h26v215q0 35 18.5 53t52.5 18h143q91 0 156.5 -42zM410 177q40 59 40 156q0 101 -39.5 158.5
t-113.5 57.5h-80v-168h64q21 0 36 -15t15 -36t-15 -35.5t-36 -14.5h-64v-162h80q73 0 113 59z" />
    <glyph glyph-name="uni1E0A" unicode="&#x1e0a;" horiz-adv-x="597" 
d="M77.5 18q-18.5 18 -18.5 53v525q0 35 18.5 53t53.5 18h143q90 0 155.5 -42t100 -118t34.5 -174t-34 -173.5t-99.5 -117.5t-156.5 -42h-143q-35 0 -53.5 18zM274 118q73 0 113 59t40 156q0 101 -39.5 158.5t-113.5 57.5h-81v-431h81zM251.5 832.5q19.5 19.5 45.5 19.5
t45 -19.5t19 -45.5q0 -27 -19 -46t-45 -19t-45.5 19t-19.5 46q0 26 19.5 45.5z" />
    <glyph glyph-name="Eacute" unicode="&#xc9;" horiz-adv-x="481" 
d="M77.5 18q-18.5 18 -18.5 53v525q0 35 18.5 53t53.5 18h258q24 0 41.5 -17t17.5 -41t-17.5 -41.5t-41.5 -17.5h-196v-153h189q24 0 41.5 -17t17.5 -41t-17.5 -41t-41.5 -17h-189v-164h196q24 0 41.5 -17.5t17.5 -41.5t-17.5 -41t-41.5 -17h-258q-35 0 -53.5 18zM258 714
q-13 0 -22.5 9.5t-9.5 22.5q0 10 6 19l72 96q11 17 31 17q16 0 27 -11.5t11 -27.5t-10 -26l-81 -87q-9 -12 -24 -12z" />
    <glyph glyph-name="Ebreve" unicode="&#x114;" horiz-adv-x="481" 
d="M77.5 18q-18.5 18 -18.5 53v525q0 35 18.5 53t53.5 18h258q24 0 41.5 -17t17.5 -41t-17.5 -41.5t-41.5 -17.5h-196v-153h189q24 0 41.5 -17t17.5 -41t-17.5 -41t-41.5 -17h-189v-164h196q24 0 41.5 -17.5t17.5 -41.5t-17.5 -41t-41.5 -17h-258q-35 0 -53.5 18zM186 731
q-33 13 -59 37q-12 10 -12 26q0 14 10.5 24.5t24.5 10.5q15 0 24 -9q35 -33 80 -33q46 0 80 32q10 10 24 10t24 -10.5t10 -24.5t-11 -25q-54 -51 -127 -51q-35 0 -68 13z" />
    <glyph glyph-name="Ecircumflex" unicode="&#xca;" horiz-adv-x="481" 
d="M77.5 18q-18.5 18 -18.5 53v525q0 35 18.5 53t53.5 18h258q24 0 41.5 -17t17.5 -41t-17.5 -41.5t-41.5 -17.5h-196v-153h189q24 0 41.5 -17t17.5 -41t-17.5 -41t-41.5 -17h-189v-164h196q24 0 41.5 -17.5t17.5 -41.5t-17.5 -41t-41.5 -17h-258q-35 0 -53.5 18zM256 814
l-57 -84q-8 -13 -25 -13q-13 0 -22.5 9t-9.5 23q0 7 6 19l40 75q7 13 21.5 21.5t29.5 8.5h35q14 0 28.5 -8.5t21.5 -21.5l41 -75q5 -10 5 -19q0 -14 -9.5 -23t-22.5 -9q-17 0 -25 13z" />
    <glyph glyph-name="Edieresis" unicode="&#xcb;" horiz-adv-x="481" 
d="M77.5 18q-18.5 18 -18.5 53v525q0 35 18.5 53t53.5 18h258q24 0 41.5 -17t17.5 -41t-17.5 -41.5t-41.5 -17.5h-196v-153h189q24 0 41.5 -17t17.5 -41t-17.5 -41t-41.5 -17h-189v-164h196q24 0 41.5 -17.5t17.5 -41.5t-17.5 -41t-41.5 -17h-258q-35 0 -53.5 18zM116 742
q-19 19 -19 45q0 27 19 46t46 19t45.5 -19t18.5 -46q0 -26 -18.5 -45t-45.5 -19t-46 19zM303 741.5q-19 18.5 -19 45.5t19 46t46 19t46 -19t19 -46t-19 -45.5t-46 -18.5t-46 18.5z" />
    <glyph glyph-name="Edotaccent" unicode="&#x116;" horiz-adv-x="481" 
d="M77.5 18q-18.5 18 -18.5 53v525q0 35 18.5 53t53.5 18h258q24 0 41.5 -17t17.5 -41t-17.5 -41.5t-41.5 -17.5h-196v-153h189q24 0 41.5 -17t17.5 -41t-17.5 -41t-41.5 -17h-189v-164h196q24 0 41.5 -17.5t17.5 -41.5t-17.5 -41t-41.5 -17h-258q-35 0 -53.5 18z
M209.5 832.5q19.5 19.5 45.5 19.5t45 -19.5t19 -45.5q0 -27 -19 -46t-45 -19t-45.5 19t-19.5 46q0 26 19.5 45.5z" />
    <glyph glyph-name="Egrave" unicode="&#xc8;" horiz-adv-x="481" 
d="M77.5 18q-18.5 18 -18.5 53v525q0 35 18.5 53t53.5 18h258q24 0 41.5 -17t17.5 -41t-17.5 -41.5t-41.5 -17.5h-196v-153h189q24 0 41.5 -17t17.5 -41t-17.5 -41t-41.5 -17h-189v-164h196q24 0 41.5 -17.5t17.5 -41.5t-17.5 -41t-41.5 -17h-258q-35 0 -53.5 18zM150 813
q-10 10 -10 26t11 27.5t27 11.5q20 0 31 -17l72 -96q6 -9 6 -19q0 -13 -9.5 -22.5t-22.5 -9.5q-15 0 -24 12z" />
    <glyph glyph-name="Emacron" unicode="&#x112;" horiz-adv-x="481" 
d="M77.5 18q-18.5 18 -18.5 53v525q0 35 18.5 53t53.5 18h258q24 0 41.5 -17t17.5 -41t-17.5 -41.5t-41.5 -17.5h-196v-153h189q24 0 41.5 -17t17.5 -41t-17.5 -41t-41.5 -17h-189v-164h196q24 0 41.5 -17.5t17.5 -41.5t-17.5 -41t-41.5 -17h-258q-35 0 -53.5 18zM117.5 740
q-10.5 10 -10.5 25q0 14 10.5 24t24.5 10h225q14 0 24 -10t10 -24q0 -15 -10 -25t-24 -10h-225q-14 0 -24.5 10z" />
    <glyph glyph-name="Eogonek" unicode="&#x118;" horiz-adv-x="481" 
d="M365.5 -40q-12.5 -16 -12.5 -35q0 -14 10 -23t24 -9q5 0 9 1t7 1q15 0 26 -11t11 -27q0 -15 -9 -24t-19 -12q-22 -7 -56 -7q-43 0 -73.5 20.5t-30.5 59.5q0 36 29.5 63t76.5 43h-227q-35 0 -53.5 18t-18.5 53v525q0 35 18.5 53t53.5 18h258q24 0 41.5 -17t17.5 -41
t-17.5 -41.5t-41.5 -17.5h-196v-153h189q24 0 41.5 -17t17.5 -41t-17.5 -41t-41.5 -17h-189v-164h196q24 0 41.5 -17.5t17.5 -41.5q0 -19 -11 -33.5t-28 -20.5q-31 -28 -43.5 -44z" />
    <glyph glyph-name="Ecaron" unicode="&#x11a;" horiz-adv-x="481" 
d="M77.5 18q-18.5 18 -18.5 53v525q0 35 18.5 53t53.5 18h258q24 0 41.5 -17t17.5 -41t-17.5 -41.5t-41.5 -17.5h-196v-153h189q24 0 41.5 -17t17.5 -41t-17.5 -41t-41.5 -17h-189v-164h196q24 0 41.5 -17.5t17.5 -41.5t-17.5 -41t-41.5 -17h-258q-35 0 -53.5 18zM357.5 864
q9.5 -9 9.5 -23q0 -9 -5 -19l-41 -75q-7 -13 -21.5 -21.5t-28.5 -8.5h-35q-15 0 -29.5 8.5t-21.5 21.5l-40 75q-6 12 -6 19q0 14 9.5 23t22.5 9q17 0 25 -13l57 -84l57 84q8 13 25 13q13 0 22.5 -9z" />
    <glyph glyph-name="uni1EB8" unicode="&#x1eb8;" horiz-adv-x="481" 
d="M77.5 18q-18.5 18 -18.5 53v525q0 35 18.5 53t53.5 18h258q24 0 41.5 -17t17.5 -41t-17.5 -41.5t-41.5 -17.5h-196v-153h189q24 0 41.5 -17t17.5 -41t-17.5 -41t-41.5 -17h-189v-164h196q24 0 41.5 -17.5t17.5 -41.5t-17.5 -41t-41.5 -17h-258q-35 0 -53.5 18z
M209.5 -74.5q19.5 19.5 45.5 19.5t45 -19.5t19 -45.5q0 -27 -19 -46t-45 -19t-45.5 19t-19.5 46q0 26 19.5 45.5z" />
    <glyph glyph-name="uni1EBA" unicode="&#x1eba;" horiz-adv-x="481" 
d="M77.5 18q-18.5 18 -18.5 53v525q0 35 18.5 53t53.5 18h258q24 0 41.5 -17t17.5 -41t-17.5 -41.5t-41.5 -17.5h-196v-153h189q24 0 41.5 -17t17.5 -41t-17.5 -41t-41.5 -17h-189v-164h196q24 0 41.5 -17.5t17.5 -41.5t-17.5 -41t-41.5 -17h-258q-35 0 -53.5 18z
M282.5 725.5q-8.5 7.5 -8.5 17.5q0 6 3 15q5 15 5 33q0 19 -8.5 28.5t-22.5 9.5q-19 0 -30 -18q-8 -15 -26 -15q-12 0 -20 8.5t-8 20.5q0 10 7 19q25 39 78 39q40 0 65.5 -22.5t25.5 -67.5q0 -28 -14 -58q-9 -17 -27 -17q-11 0 -19.5 7.5z" />
    <glyph glyph-name="uni1EBC" unicode="&#x1ebc;" horiz-adv-x="481" 
d="M77.5 18q-18.5 18 -18.5 53v525q0 35 18.5 53t53.5 18h258q24 0 41.5 -17t17.5 -41t-17.5 -41.5t-41.5 -17.5h-196v-153h189q24 0 41.5 -17t17.5 -41t-17.5 -41t-41.5 -17h-189v-164h196q24 0 41.5 -17.5t17.5 -41.5t-17.5 -41t-41.5 -17h-258q-35 0 -53.5 18zM266 732.5
q-15 11.5 -30 31.5q-11 15 -18 21.5t-16 6.5q-23 0 -30 -46q-2 -11 -10.5 -18.5t-19.5 -7.5q-14 0 -23.5 11t-7.5 25q7 50 31 77.5t63 27.5q23 0 38 -11.5t30 -32.5q11 -14 18.5 -20.5t16.5 -6.5q10 0 18 11.5t11 34.5q1 11 10 18.5t20 7.5q14 0 23.5 -10.5t7.5 -24.5
q-6 -51 -30 -78.5t-64 -27.5q-23 0 -38 11.5z" />
    <glyph glyph-name="uni1EBE" unicode="&#x1ebe;" horiz-adv-x="481" 
d="M403 773q-13 0 -22.5 7t-9.5 17q0 8 6 15l72 72q12 12 31 12q16 0 27 -8.5t11 -20.5t-10 -19l-81 -66q-9 -9 -24 -9zM256 773l-57 -63q-8 -9 -25 -9q-13 0 -22.5 6.5t-9.5 17.5q0 4 6 14l40 56q7 10 21.5 16.5t29.5 6.5h35q15 0 29 -6.5t21 -16.5l41 -56q5 -8 5 -14
q0 -11 -9.5 -17.5t-22.5 -6.5q-17 0 -25 9zM77.5 18q-18.5 18 -18.5 53v525q0 35 18.5 53t53.5 18h258q24 0 41.5 -17t17.5 -41t-17.5 -41.5t-41.5 -17.5h-196v-153h189q24 0 41.5 -17t17.5 -41t-17.5 -41t-41.5 -17h-189v-164h196q24 0 41.5 -17.5t17.5 -41.5t-17.5 -41
t-41.5 -17h-258q-35 0 -53.5 18z" />
    <glyph glyph-name="uni1EC0" unicode="&#x1ec0;" horiz-adv-x="481" 
d="M7 848q-10 7 -10 19t11 20.5t27 8.5q19 0 31 -12l72 -72q6 -7 6 -15q0 -10 -9.5 -17t-22.5 -7q-15 0 -24 9zM256 773l-57 -63q-8 -9 -25 -9q-13 0 -22.5 6.5t-9.5 17.5q0 4 6 14l40 56q7 10 21.5 16.5t29.5 6.5h35q15 0 29 -6.5t21 -16.5l41 -56q5 -8 5 -14
q0 -11 -9.5 -17.5t-22.5 -6.5q-17 0 -25 9zM77.5 18q-18.5 18 -18.5 53v525q0 35 18.5 53t53.5 18h258q24 0 41.5 -17t17.5 -41t-17.5 -41.5t-41.5 -17.5h-196v-153h189q24 0 41.5 -17t17.5 -41t-17.5 -41t-41.5 -17h-189v-164h196q24 0 41.5 -17.5t17.5 -41.5t-17.5 -41
t-41.5 -17h-258q-35 0 -53.5 18z" />
    <glyph glyph-name="uni1EC2" unicode="&#x1ec2;" horiz-adv-x="481" 
d="M388.5 780.5q-8.5 5.5 -8.5 13.5q0 5 3 11q5 12 5 25q0 14 -8.5 21.5t-22.5 7.5q-19 0 -30 -14q-8 -11 -26 -11q-12 0 -20 6t-8 16q0 7 7 14q26 29 78 29q40 0 65.5 -17t25.5 -50q0 -22 -14 -44q-9 -13 -27 -13q-11 0 -19.5 5.5zM256 773l-57 -63q-8 -9 -25 -9
q-13 0 -22.5 6.5t-9.5 17.5q0 4 6 14l40 56q7 10 21.5 16.5t29.5 6.5h35q15 0 29 -6.5t21 -16.5l41 -56q5 -8 5 -14q0 -11 -9.5 -17.5t-22.5 -6.5q-17 0 -25 9zM77.5 18q-18.5 18 -18.5 53v525q0 35 18.5 53t53.5 18h258q24 0 41.5 -17t17.5 -41t-17.5 -41.5t-41.5 -17.5
h-196v-153h189q24 0 41.5 -17t17.5 -41t-17.5 -41t-41.5 -17h-189v-164h196q24 0 41.5 -17.5t17.5 -41.5t-17.5 -41t-41.5 -17h-258q-35 0 -53.5 18z" />
    <glyph glyph-name="uni1EC4" unicode="&#x1ec4;" horiz-adv-x="481" 
d="M267 841.5q-15 8.5 -30 23.5q-11 11 -18 16t-16 5q-23 0 -30 -35q-2 -8 -10.5 -13.5t-19.5 -5.5q-14 0 -23.5 8t-7.5 19q7 37 31 58t63 21q23 0 37.5 -8.5t30.5 -24.5q11 -11 18.5 -16t16.5 -5q10 0 18 8.5t11 26.5q1 8 10 13.5t20 5.5q14 0 23.5 -8t7.5 -18
q-6 -38 -30 -58.5t-64 -20.5q-23 0 -38 8.5zM256 773l-57 -63q-8 -9 -25 -9q-13 0 -22.5 6.5t-9.5 17.5q0 4 6 14l40 56q7 10 21.5 16.5t29.5 6.5h35q15 0 29 -6.5t21 -16.5l41 -56q5 -8 5 -14q0 -11 -9.5 -17.5t-22.5 -6.5q-17 0 -25 9zM77.5 18q-18.5 18 -18.5 53v525
q0 35 18.5 53t53.5 18h258q24 0 41.5 -17t17.5 -41t-17.5 -41.5t-41.5 -17.5h-196v-153h189q24 0 41.5 -17t17.5 -41t-17.5 -41t-41.5 -17h-189v-164h196q24 0 41.5 -17.5t17.5 -41.5t-17.5 -41t-41.5 -17h-258q-35 0 -53.5 18z" />
    <glyph glyph-name="uni1EC6" unicode="&#x1ec6;" horiz-adv-x="481" 
d="M77.5 18q-18.5 18 -18.5 53v525q0 35 18.5 53t53.5 18h258q24 0 41.5 -17t17.5 -41t-17.5 -41.5t-41.5 -17.5h-196v-153h189q24 0 41.5 -17t17.5 -41t-17.5 -41t-41.5 -17h-189v-164h196q24 0 41.5 -17.5t17.5 -41.5t-17.5 -41t-41.5 -17h-258q-35 0 -53.5 18zM256 814
l-57 -84q-8 -13 -25 -13q-13 0 -22.5 9t-9.5 23q0 7 6 19l40 75q7 13 21.5 21.5t29.5 8.5h35q14 0 28.5 -8.5t21.5 -21.5l41 -75q5 -10 5 -19q0 -14 -9.5 -23t-22.5 -9q-17 0 -25 13zM209.5 -74.5q19.5 19.5 45.5 19.5t45 -19.5t19 -45.5q0 -27 -19 -46t-45 -19t-45.5 19
t-19.5 46q0 26 19.5 45.5z" />
    <glyph glyph-name="uni1E1E" unicode="&#x1e1e;" horiz-adv-x="473" 
d="M78.5 13q-19.5 20 -19.5 48v535q0 35 18.5 53t53.5 18h258q24 0 41.5 -17t17.5 -41t-17.5 -41.5t-41.5 -17.5h-196v-153h189q24 0 41.5 -17t17.5 -41t-17.5 -41t-41.5 -17h-189v-220q0 -28 -19.5 -48t-47.5 -20t-47.5 20zM210.5 832.5q19.5 19.5 45.5 19.5t45 -19.5
t19 -45.5q0 -27 -19 -46t-45 -19t-45.5 19t-19.5 46q0 26 19.5 45.5z" />
    <glyph glyph-name="Gcircumflex" unicode="&#x11c;" horiz-adv-x="586" 
d="M524 347.5q18 -18.5 18 -48.5v-154q0 -28 -8 -49t-28 -38q-80 -70 -192 -70q-84 0 -148 43t-99 121.5t-35 180.5q0 103 35 181t99 121t148 43q117 0 187 -97q14 -17 14 -36q0 -25 -17.5 -42t-42.5 -17q-31 0 -47 24q-38 49 -94 49q-65 0 -104.5 -60t-39.5 -166t40 -166
t108 -60q30 0 56.5 11.5t40.5 28.5v101h-74q-23 0 -40.5 17t-17.5 41t17.5 42t40.5 18h135q30 0 48 -18.5zM315 814l-57 -84q-8 -13 -25 -13q-13 0 -22.5 9t-9.5 23q0 7 6 19l40 75q7 13 21.5 21.5t29.5 8.5h35q14 0 28.5 -8.5t21.5 -21.5l41 -75q5 -10 5 -19
q0 -14 -9.5 -23t-22.5 -9q-17 0 -25 13z" />
    <glyph glyph-name="Gbreve" unicode="&#x11e;" horiz-adv-x="586" 
d="M524 347.5q18 -18.5 18 -48.5v-154q0 -28 -8 -49t-28 -38q-80 -70 -192 -70q-84 0 -148 43t-99 121.5t-35 180.5q0 103 35 181t99 121t148 43q117 0 187 -97q14 -17 14 -36q0 -25 -17.5 -42t-42.5 -17q-31 0 -47 24q-38 49 -94 49q-65 0 -104.5 -60t-39.5 -166t40 -166
t108 -60q30 0 56.5 11.5t40.5 28.5v101h-74q-23 0 -40.5 17t-17.5 41t17.5 42t40.5 18h135q30 0 48 -18.5zM246 731q-33 13 -59 37q-12 10 -12 26q0 14 10.5 24.5t24.5 10.5q15 0 24 -9q35 -33 80 -33q46 0 80 32q10 10 24 10t24 -10.5t10 -24.5t-11 -25q-54 -51 -127 -51
q-35 0 -68 13z" />
    <glyph glyph-name="Gdotaccent" unicode="&#x120;" horiz-adv-x="586" 
d="M524 347.5q18 -18.5 18 -48.5v-154q0 -28 -8 -49t-28 -38q-80 -70 -192 -70q-84 0 -148 43t-99 121.5t-35 180.5q0 103 35 181t99 121t148 43q117 0 187 -97q14 -17 14 -36q0 -25 -17.5 -42t-42.5 -17q-31 0 -47 24q-38 49 -94 49q-65 0 -104.5 -60t-39.5 -166t40 -166
t108 -60q30 0 56.5 11.5t40.5 28.5v101h-74q-23 0 -40.5 17t-17.5 41t17.5 42t40.5 18h135q30 0 48 -18.5zM269.5 832.5q19.5 19.5 45.5 19.5t45 -19.5t19 -45.5q0 -27 -19 -46t-45 -19t-45.5 19t-19.5 46q0 26 19.5 45.5z" />
    <glyph glyph-name="uni0122" unicode="&#x122;" horiz-adv-x="586" 
d="M524 347.5q18 -18.5 18 -48.5v-154q0 -28 -8 -49t-28 -38q-80 -70 -192 -70q-84 0 -148 43t-99 121.5t-35 180.5q0 103 35 181t99 121t148 43q117 0 187 -97q14 -17 14 -36q0 -25 -17.5 -42t-42.5 -17q-31 0 -47 24q-38 49 -94 49q-65 0 -104.5 -60t-39.5 -166t40 -166
t108 -60q30 0 56.5 11.5t40.5 28.5v101h-74q-23 0 -40.5 17t-17.5 41t17.5 42t40.5 18h135q30 0 48 -18.5zM278 -274q-8 8 -8 18q0 11 13 22q14 13 24.5 30.5t13.5 32.5q-6 -3 -15 -3q-22 0 -36.5 15.5t-14.5 39.5q0 25 17 42.5t42 17.5q28 0 48 -21t20 -57
q0 -40 -18.5 -76.5t-49.5 -62.5q-8 -6 -17 -6q-11 0 -19 8z" />
    <glyph glyph-name="Gcaron" unicode="&#x1e6;" horiz-adv-x="586" 
d="M524 347.5q18 -18.5 18 -48.5v-154q0 -28 -8 -49t-28 -38q-80 -70 -192 -70q-84 0 -148 43t-99 121.5t-35 180.5q0 103 35 181t99 121t148 43q117 0 187 -97q14 -17 14 -36q0 -25 -17.5 -42t-42.5 -17q-31 0 -47 24q-38 49 -94 49q-65 0 -104.5 -60t-39.5 -166t40 -166
t108 -60q30 0 56.5 11.5t40.5 28.5v101h-74q-23 0 -40.5 17t-17.5 41t17.5 42t40.5 18h135q30 0 48 -18.5zM417.5 864q9.5 -9 9.5 -23q0 -9 -5 -19l-41 -75q-7 -13 -21.5 -21.5t-28.5 -8.5h-35q-15 0 -29.5 8.5t-21.5 21.5l-40 75q-6 12 -6 19q0 14 9.5 23t22.5 9
q17 0 25 -13l57 -84l57 84q8 13 25 13q13 0 22.5 -9z" />
    <glyph glyph-name="Gcircumflex.alt1" horiz-adv-x="598" 
d="M552.5 346q17.5 -19 17.5 -54q0 -12 -1 -18q-15 -138 -81.5 -212t-181.5 -74q-80 0 -142 43t-97 121.5t-35 180.5q0 103 35 181t99 121t148 43q118 0 187 -97q14 -14 14 -35q0 -25 -17.5 -42.5t-42.5 -17.5q-14 0 -26.5 6.5t-20.5 17.5q-38 49 -94 49q-65 0 -104.5 -60
t-39.5 -166t39.5 -166t104.5 -60q53 0 84.5 42t37.5 100h-95q-23 0 -40.5 17t-17.5 41t17 41t41 17h160q34 0 51.5 -19zM315 814l-57 -84q-8 -13 -25 -13q-13 0 -22.5 9t-9.5 23q0 7 6 19l40 75q7 13 21.5 21.5t29.5 8.5h35q14 0 28.5 -8.5t21.5 -21.5l41 -75q5 -10 5 -19
q0 -14 -9.5 -23t-22.5 -9q-17 0 -25 13z" />
    <glyph glyph-name="Gbreve.alt1" horiz-adv-x="598" 
d="M552.5 346q17.5 -19 17.5 -54q0 -12 -1 -18q-15 -138 -81.5 -212t-181.5 -74q-80 0 -142 43t-97 121.5t-35 180.5q0 103 35 181t99 121t148 43q118 0 187 -97q14 -14 14 -35q0 -25 -17.5 -42.5t-42.5 -17.5q-14 0 -26.5 6.5t-20.5 17.5q-38 49 -94 49q-65 0 -104.5 -60
t-39.5 -166t39.5 -166t104.5 -60q53 0 84.5 42t37.5 100h-95q-23 0 -40.5 17t-17.5 41t17 41t41 17h160q34 0 51.5 -19zM246 731q-33 13 -59 37q-12 10 -12 26q0 14 10.5 24.5t24.5 10.5q15 0 24 -9q35 -33 80 -33q46 0 80 32q10 10 24 10t24 -10.5t10 -24.5t-11 -25
q-54 -51 -127 -51q-35 0 -68 13z" />
    <glyph glyph-name="Gdotaccent.alt1" horiz-adv-x="598" 
d="M552.5 346q17.5 -19 17.5 -54q0 -12 -1 -18q-15 -138 -81.5 -212t-181.5 -74q-80 0 -142 43t-97 121.5t-35 180.5q0 103 35 181t99 121t148 43q118 0 187 -97q14 -14 14 -35q0 -25 -17.5 -42.5t-42.5 -17.5q-14 0 -26.5 6.5t-20.5 17.5q-38 49 -94 49q-65 0 -104.5 -60
t-39.5 -166t39.5 -166t104.5 -60q53 0 84.5 42t37.5 100h-95q-23 0 -40.5 17t-17.5 41t17 41t41 17h160q34 0 51.5 -19zM269.5 832.5q19.5 19.5 45.5 19.5t45 -19.5t19 -45.5q0 -27 -19 -46t-45 -19t-45.5 19t-19.5 46q0 26 19.5 45.5z" />
    <glyph glyph-name="Gcommaaccent.alt1" horiz-adv-x="598" 
d="M552.5 346q17.5 -19 17.5 -54q0 -12 -1 -18q-15 -138 -81.5 -212t-181.5 -74q-80 0 -142 43t-97 121.5t-35 180.5q0 103 35 181t99 121t148 43q118 0 187 -97q14 -14 14 -35q0 -25 -17.5 -42.5t-42.5 -17.5q-14 0 -26.5 6.5t-20.5 17.5q-38 49 -94 49q-65 0 -104.5 -60
t-39.5 -166t39.5 -166t104.5 -60q53 0 84.5 42t37.5 100h-95q-23 0 -40.5 17t-17.5 41t17 41t41 17h160q34 0 51.5 -19zM278 -274q-8 8 -8 18q0 11 13 22q14 13 24.5 30.5t13.5 32.5q-6 -3 -15 -3q-22 0 -36.5 15.5t-14.5 39.5q0 25 17 42.5t42 17.5q28 0 48 -21t20 -57
q0 -40 -18.5 -76.5t-49.5 -62.5q-8 -6 -17 -6q-11 0 -19 8z" />
    <glyph glyph-name="Gcaron.alt1" horiz-adv-x="598" 
d="M552.5 346q17.5 -19 17.5 -54q0 -12 -1 -18q-15 -138 -81.5 -212t-181.5 -74q-80 0 -142 43t-97 121.5t-35 180.5q0 103 35 181t99 121t148 43q118 0 187 -97q14 -14 14 -35q0 -25 -17.5 -42.5t-42.5 -17.5q-14 0 -26.5 6.5t-20.5 17.5q-38 49 -94 49q-65 0 -104.5 -60
t-39.5 -166t39.5 -166t104.5 -60q53 0 84.5 42t37.5 100h-95q-23 0 -40.5 17t-17.5 41t17 41t41 17h160q34 0 51.5 -19zM417.5 864q9.5 -9 9.5 -23q0 -9 -5 -19l-41 -75q-7 -13 -21.5 -21.5t-28.5 -8.5h-35q-15 0 -29.5 8.5t-21.5 21.5l-40 75q-6 12 -6 19q0 14 9.5 23
t22.5 9q17 0 25 -13l57 -84l57 84q8 13 25 13q13 0 22.5 -9z" />
    <glyph glyph-name="Hbar" unicode="&#x126;" horiz-adv-x="631" 
d="M615 558.5q10 -10.5 10 -24.5t-10 -24.5t-24 -10.5h-30v-439q0 -27 -20 -47t-48 -20q-27 0 -47 20t-20 47v224h-221v-223q0 -28 -19.5 -48t-46.5 -20q-28 0 -48 20t-20 48v438h-31q-14 0 -24.5 10.5t-10.5 24.5q0 15 10.5 25t24.5 10h31v37q0 28 19.5 48t47.5 20
t47.5 -20t19.5 -48v-37h221v38q0 27 20 47t48 20t47.5 -20t19.5 -47v-38h30q14 0 24 -10.5zM426 402v97h-221v-97h221z" />
    <glyph glyph-name="Hcircumflex" unicode="&#x124;" horiz-adv-x="608" 
d="M433.5 13q-19.5 20 -19.5 47v224h-221v-223q0 -28 -19.5 -48t-47.5 -20t-47.5 20t-19.5 48v545q0 28 19.5 48t47.5 20t47.5 -20t19.5 -48v-204h221v205q0 27 19.5 47t47.5 20t48 -20t20 -47v-547q0 -27 -20 -47t-48 -20t-47.5 20zM305 814l-57 -84q-8 -13 -25 -13
q-13 0 -22.5 9t-9.5 23q0 7 6 19l40 75q7 13 21.5 21.5t29.5 8.5h35q14 0 28.5 -8.5t21.5 -21.5l41 -75q5 -10 5 -19q0 -14 -9.5 -23t-22.5 -9q-17 0 -25 13z" />
    <glyph glyph-name="uni1E22" unicode="&#x1e22;" horiz-adv-x="608" 
d="M433.5 13q-19.5 20 -19.5 47v224h-221v-223q0 -28 -19.5 -48t-47.5 -20t-47.5 20t-19.5 48v545q0 28 19.5 48t47.5 20t47.5 -20t19.5 -48v-204h221v205q0 27 19.5 47t47.5 20t48 -20t20 -47v-547q0 -27 -20 -47t-48 -20t-47.5 20zM259.5 832.5q19.5 19.5 45.5 19.5
t45 -19.5t19 -45.5q0 -27 -19 -46t-45 -19t-45.5 19t-19.5 46q0 26 19.5 45.5z" />
    <glyph glyph-name="Iacute" unicode="&#xcd;" horiz-adv-x="252" 
d="M78.5 13q-19.5 20 -19.5 48v545q0 28 19.5 48t47.5 20t47.5 -20t19.5 -48v-545q0 -28 -19.5 -48t-47.5 -20t-47.5 20zM129 714q-13 0 -22.5 9.5t-9.5 22.5q0 10 6 19l72 96q11 17 31 17q16 0 27 -11.5t11 -27.5t-10 -26l-81 -87q-9 -12 -24 -12z" />
    <glyph glyph-name="Ibreve" unicode="&#x12c;" horiz-adv-x="252" 
d="M78.5 13q-19.5 20 -19.5 48v545q0 28 19.5 48t47.5 20t47.5 -20t19.5 -48v-545q0 -28 -19.5 -48t-47.5 -20t-47.5 20zM58 731q-33 13 -59 37q-12 10 -12 26q0 14 10.5 24.5t24.5 10.5q15 0 24 -9q35 -33 80 -33q46 0 80 32q10 10 24 10t24 -10.5t10 -24.5t-11 -25
q-54 -51 -127 -51q-35 0 -68 13z" />
    <glyph glyph-name="Icircumflex" unicode="&#xce;" horiz-adv-x="252" 
d="M78.5 13q-19.5 20 -19.5 48v545q0 28 19.5 48t47.5 20t47.5 -20t19.5 -48v-545q0 -28 -19.5 -48t-47.5 -20t-47.5 20zM127 814l-57 -84q-8 -13 -25 -13q-13 0 -22.5 9t-9.5 23q0 7 6 19l40 75q7 13 21.5 21.5t29.5 8.5h35q14 0 28.5 -8.5t21.5 -21.5l41 -75q5 -10 5 -19
q0 -14 -9.5 -23t-22.5 -9q-17 0 -25 13z" />
    <glyph glyph-name="Idieresis" unicode="&#xcf;" horiz-adv-x="252" 
d="M78.5 13q-19.5 20 -19.5 48v545q0 28 19.5 48t47.5 20t47.5 -20t19.5 -48v-545q0 -28 -19.5 -48t-47.5 -20t-47.5 20zM-13 742q-19 19 -19 45q0 27 19 46t46 19t45.5 -19t18.5 -46q0 -26 -18.5 -45t-45.5 -19t-46 19zM174 741.5q-19 18.5 -19 45.5t19 46t46 19t46 -19
t19 -46t-19 -45.5t-46 -18.5t-46 18.5z" />
    <glyph glyph-name="Idotaccent" unicode="&#x130;" horiz-adv-x="252" 
d="M78.5 13q-19.5 20 -19.5 48v545q0 28 19.5 48t47.5 20t47.5 -20t19.5 -48v-545q0 -28 -19.5 -48t-47.5 -20t-47.5 20zM81.5 832.5q19.5 19.5 45.5 19.5t45 -19.5t19 -45.5q0 -27 -19 -46t-45 -19t-45.5 19t-19.5 46q0 26 19.5 45.5z" />
    <glyph glyph-name="Igrave" unicode="&#xcc;" horiz-adv-x="252" 
d="M78.5 13q-19.5 20 -19.5 48v545q0 28 19.5 48t47.5 20t47.5 -20t19.5 -48v-545q0 -28 -19.5 -48t-47.5 -20t-47.5 20zM22 813q-10 10 -10 26t11 27.5t27 11.5q20 0 31 -17l72 -96q6 -9 6 -19q0 -13 -9.5 -22.5t-22.5 -9.5q-15 0 -24 12z" />
    <glyph glyph-name="Imacron" unicode="&#x12a;" horiz-adv-x="252" 
d="M78.5 13q-19.5 20 -19.5 48v545q0 28 19.5 48t47.5 20t47.5 -20t19.5 -48v-545q0 -28 -19.5 -48t-47.5 -20t-47.5 20zM-10.5 740q-10.5 10 -10.5 25q0 14 10.5 24t24.5 10h225q14 0 24 -10t10 -24q0 -15 -10 -25t-24 -10h-225q-14 0 -24.5 10z" />
    <glyph glyph-name="Iogonek" unicode="&#x12e;" horiz-adv-x="252" 
d="M117 -40.5q-12 -15.5 -12 -34.5q0 -14 10 -23t24 -9q5 0 9 1t7 1q15 0 26 -11t11 -27q0 -15 -9 -24t-19 -12q-22 -7 -56 -7q-43 0 -73.5 20.5t-30.5 59.5q0 34 27 60.5t72 42.5q-20 8 -32 25t-12 39v545q0 28 19.5 48t47.5 20t47.5 -20t19.5 -48v-545q0 -19 -9 -34.5
t-24 -24.5q-31 -27 -43 -42.5z" />
    <glyph glyph-name="Itilde" unicode="&#x128;" horiz-adv-x="252" 
d="M78.5 13q-19.5 20 -19.5 48v545q0 28 19.5 48t47.5 20t47.5 -20t19.5 -48v-545q0 -28 -19.5 -48t-47.5 -20t-47.5 20zM138 732.5q-15 11.5 -30 31.5q-11 15 -18 21.5t-16 6.5q-23 0 -30 -46q-2 -11 -10.5 -18.5t-19.5 -7.5q-14 0 -23.5 11t-7.5 25q7 50 31 77.5t63 27.5
q23 0 38 -11.5t30 -32.5q11 -14 18.5 -20.5t16.5 -6.5q10 0 18 11.5t11 34.5q1 11 10 18.5t20 7.5q14 0 23.5 -10.5t7.5 -24.5q-6 -51 -30 -78.5t-64 -27.5q-23 0 -38 11.5z" />
    <glyph glyph-name="uni1EC8" unicode="&#x1ec8;" horiz-adv-x="252" 
d="M78.5 13q-19.5 20 -19.5 48v545q0 28 19.5 48t47.5 20t47.5 -20t19.5 -48v-545q0 -28 -19.5 -48t-47.5 -20t-47.5 20zM153.5 725.5q-8.5 7.5 -8.5 17.5q0 6 3 15q5 15 5 33q0 19 -8.5 28.5t-22.5 9.5q-19 0 -30 -18q-8 -15 -26 -15q-12 0 -20 8.5t-8 20.5q0 10 7 19
q25 39 78 39q40 0 65.5 -22.5t25.5 -67.5q0 -28 -14 -58q-9 -17 -27 -17q-11 0 -19.5 7.5z" />
    <glyph glyph-name="uni1ECA" unicode="&#x1eca;" horiz-adv-x="252" 
d="M78.5 13q-19.5 20 -19.5 48v545q0 28 19.5 48t47.5 20t47.5 -20t19.5 -48v-545q0 -28 -19.5 -48t-47.5 -20t-47.5 20zM81.5 -74.5q19.5 19.5 45.5 19.5t45 -19.5t19 -45.5q0 -27 -19 -46t-45 -19t-45.5 19t-19.5 46q0 26 19.5 45.5z" />
    <glyph glyph-name="IJ" unicode="&#x132;" horiz-adv-x="670" 
d="M339.5 654q19.5 -20 19.5 -48v-413q0 -102 -56 -153.5t-152 -51.5q-55 0 -99 24q-16 6 -26.5 20t-10.5 32q0 21 12 36.5t32 20.5v485q0 28 19.5 48t47.5 20t47.5 -20t19.5 -48v-483q32 24 32 74v409q0 28 19.5 48t47.5 20t47.5 -20z" />
    <glyph glyph-name="Iacute_J.loclNLD" horiz-adv-x="669" 
d="M78.5 13q-19.5 20 -19.5 48v545q0 28 19.5 48t47.5 20t47.5 -20t19.5 -48v-545q0 -28 -19.5 -48t-47.5 -20t-47.5 20zM129 714q-13 0 -22.5 9.5t-9.5 22.5q0 10 6 19l72 96q11 17 31 17q16 0 27 -11.5t11 -27.5t-10 -26l-81 -87q-9 -12 -24 -12zM277.5 32
q-10.5 14 -10.5 32q0 25 17 42t42 17q10 0 20 -5q20 -11 44 -11q40 0 63.5 23.5t23.5 66.5v409q0 28 19.5 48t47.5 20t47.5 -20t19.5 -48v-413q0 -102 -56 -153.5t-152 -51.5q-55 0 -99 24q-16 6 -26.5 20zM548 731q-13 0 -22.5 9.5t-9.5 22.5q0 10 6 19l72 96q11 17 31 17
q16 0 27 -11.5t11 -27.5t-10 -26l-81 -87q-9 -12 -24 -12z" />
    <glyph glyph-name="Jcircumflex" unicode="&#x134;" horiz-adv-x="417" 
d="M25.5 32q-10.5 14 -10.5 32q0 25 17 42t42 17q10 0 20 -5q20 -11 44 -11q40 0 63.5 23.5t23.5 66.5v409q0 28 19.5 48t47.5 20t47.5 -20t19.5 -48v-413q0 -102 -56 -153.5t-152 -51.5q-55 0 -99 24q-16 6 -26.5 20zM294 831l-57 -84q-8 -13 -25 -13q-13 0 -22.5 9
t-9.5 23q0 7 6 19l40 75q7 13 21.5 21.5t29.5 8.5h35q14 0 28.5 -8.5t21.5 -21.5l41 -75q5 -10 5 -19q0 -14 -9.5 -23t-22.5 -9q-17 0 -25 13z" />
    <glyph glyph-name="uni0136" unicode="&#x136;" horiz-adv-x="553" 
d="M524 59q0 -27 -19 -46.5t-46 -19.5q-17 0 -31.5 8.5t-22.5 22.5l-163 235l-49 -72v-126q0 -28 -19.5 -48t-47.5 -20t-47.5 20t-19.5 48v545q0 28 19.5 48t47.5 20t47.5 -20t19.5 -48v-244l198 283q9 13 23 21t29 8q27 0 45.5 -19t18.5 -45q0 -22 -12 -35l-168 -223
l185 -257q12 -15 12 -36zM248 -274q-8 8 -8 18q0 11 13 22q14 13 24.5 30.5t13.5 32.5q-6 -3 -15 -3q-22 0 -36.5 15.5t-14.5 39.5q0 25 17 42.5t42 17.5q28 0 48 -21t20 -57q0 -40 -18.5 -76.5t-49.5 -62.5q-8 -6 -17 -6q-11 0 -19 8z" />
    <glyph glyph-name="Lacute" unicode="&#x139;" horiz-adv-x="444" 
d="M77.5 18q-18.5 18 -18.5 53v535q0 28 19.5 48t47.5 20t47.5 -20t19.5 -48v-488h172q24 0 41.5 -17.5t17.5 -41.5q0 -25 -17.5 -42t-41.5 -17h-234q-35 0 -53.5 18zM129 714q-13 0 -22.5 9.5t-9.5 22.5q0 10 6 19l72 96q11 17 31 17q16 0 27 -11.5t11 -27.5t-10 -26
l-81 -87q-9 -12 -24 -12z" />
    <glyph glyph-name="Lcaron" unicode="&#x13d;" horiz-adv-x="444" 
d="M77.5 18q-18.5 18 -18.5 53v535q0 28 19.5 48t47.5 20t47.5 -20t19.5 -48v-488h172q24 0 41.5 -17.5t17.5 -41.5q0 -25 -17.5 -42t-41.5 -17h-234q-35 0 -53.5 18zM280 465q-8 8 -8 18q0 11 13 22q14 13 24.5 30.5t13.5 32.5q-6 -3 -15 -3q-22 0 -36.5 15.5t-14.5 39.5
q0 25 17 42.5t42 17.5q28 0 48 -21t20 -57q0 -40 -18.5 -76.5t-49.5 -62.5q-8 -6 -17 -6q-11 0 -19 8z" />
    <glyph glyph-name="uni013B" unicode="&#x13b;" horiz-adv-x="444" 
d="M77.5 18q-18.5 18 -18.5 53v535q0 28 19.5 48t47.5 20t47.5 -20t19.5 -48v-488h172q24 0 41.5 -17.5t17.5 -41.5q0 -25 -17.5 -42t-41.5 -17h-234q-35 0 -53.5 18zM202 -274q-8 8 -8 18q0 11 13 22q14 13 24.5 30.5t13.5 32.5q-6 -3 -15 -3q-22 0 -36.5 15.5t-14.5 39.5
q0 25 17 42.5t42 17.5q28 0 48 -21t20 -57q0 -40 -18.5 -76.5t-49.5 -62.5q-8 -6 -17 -6q-11 0 -19 8z" />
    <glyph glyph-name="Ldot" unicode="&#x13f;" horiz-adv-x="485" 
d="M77.5 18q-18.5 18 -18.5 53v535q0 28 19.5 48t47.5 20t47.5 -20t19.5 -48v-488h172q24 0 41.5 -17.5t17.5 -41.5q0 -25 -17.5 -42t-41.5 -17h-234q-35 0 -53.5 18zM314 287q-23 23 -23 54q0 32 23 55t54 23t54 -23t23 -55q0 -31 -23 -54t-54 -23t-54 23z" />
    <glyph glyph-name="Lslash" unicode="&#x141;" horiz-adv-x="453" 
d="M418.5 100.5q17.5 -17.5 17.5 -41.5q0 -25 -17.5 -42t-41.5 -17h-234q-35 0 -53.5 18t-18.5 53v168q-10 -5 -21 -5q-19 0 -33 14t-14 34q0 13 6.5 24t17.5 17l44 26v257q0 28 19.5 48t47.5 20t47.5 -20t19.5 -48v-179l6 3q12 7 24 7q19 0 33 -14t14 -33q0 -14 -6.5 -25
t-16.5 -17l-54 -31v-199h172q24 0 41.5 -17.5z" />
    <glyph glyph-name="Nacute" unicode="&#x143;" horiz-adv-x="606" 
d="M430 4.5q-18 11.5 -28 30.5l-210 390v-365q0 -27 -19.5 -47t-46.5 -20q-28 0 -47.5 20t-19.5 47v531q0 34 24.5 58.5t58.5 24.5q23 0 42.5 -12.5t29.5 -32.5l200 -370v348q0 27 19.5 47t47.5 20t47.5 -20t19.5 -47v-536q0 -32 -23 -55t-55 -23q-22 0 -40 11.5zM306 714
q-13 0 -22.5 9.5t-9.5 22.5q0 10 6 19l72 96q11 17 31 17q16 0 27 -11.5t11 -27.5t-10 -26l-81 -87q-9 -12 -24 -12z" />
    <glyph glyph-name="Ncaron" unicode="&#x147;" horiz-adv-x="606" 
d="M430 4.5q-18 11.5 -28 30.5l-210 390v-365q0 -27 -19.5 -47t-46.5 -20q-28 0 -47.5 20t-19.5 47v531q0 34 24.5 58.5t58.5 24.5q23 0 42.5 -12.5t29.5 -32.5l200 -370v348q0 27 19.5 47t47.5 20t47.5 -20t19.5 -47v-536q0 -32 -23 -55t-55 -23q-22 0 -40 11.5zM405.5 864
q9.5 -9 9.5 -23q0 -9 -5 -19l-41 -75q-7 -13 -21.5 -21.5t-28.5 -8.5h-35q-15 0 -29.5 8.5t-21.5 21.5l-40 75q-6 12 -6 19q0 14 9.5 23t22.5 9q17 0 25 -13l57 -84l57 84q8 13 25 13q13 0 22.5 -9z" />
    <glyph glyph-name="uni0145" unicode="&#x145;" horiz-adv-x="606" 
d="M430 4.5q-18 11.5 -28 30.5l-210 390v-365q0 -27 -19.5 -47t-46.5 -20q-28 0 -47.5 20t-19.5 47v531q0 34 24.5 58.5t58.5 24.5q23 0 42.5 -12.5t29.5 -32.5l200 -370v348q0 27 19.5 47t47.5 20t47.5 -20t19.5 -47v-536q0 -32 -23 -55t-55 -23q-22 0 -40 11.5zM271 -274
q-8 8 -8 18q0 11 13 22q14 13 24.5 30.5t13.5 32.5q-6 -3 -15 -3q-22 0 -36.5 15.5t-14.5 39.5q0 25 17 42.5t42 17.5q28 0 48 -21t20 -57q0 -40 -18.5 -76.5t-49.5 -62.5q-8 -6 -17 -6q-11 0 -19 8z" />
    <glyph glyph-name="Ntilde" unicode="&#xd1;" horiz-adv-x="606" 
d="M430 4.5q-18 11.5 -28 30.5l-210 390v-365q0 -27 -19.5 -47t-46.5 -20q-28 0 -47.5 20t-19.5 47v531q0 34 24.5 58.5t58.5 24.5q23 0 42.5 -12.5t29.5 -32.5l200 -370v348q0 27 19.5 47t47.5 20t47.5 -20t19.5 -47v-536q0 -32 -23 -55t-55 -23q-22 0 -40 11.5zM315 732.5
q-15 11.5 -30 31.5q-11 15 -18 21.5t-16 6.5q-23 0 -30 -46q-2 -11 -10.5 -18.5t-19.5 -7.5q-14 0 -23.5 11t-7.5 25q7 50 31 77.5t63 27.5q23 0 38 -11.5t30 -32.5q11 -14 18.5 -20.5t16.5 -6.5q10 0 18 11.5t11 34.5q1 11 10 18.5t20 7.5q14 0 23.5 -10.5t7.5 -24.5
q-6 -51 -30 -78.5t-64 -27.5q-23 0 -38 11.5z" />
    <glyph glyph-name="uni019D" unicode="&#x19d;" horiz-adv-x="606" 
d="M433.5 654q19.5 20 47.5 20t47.5 -20t19.5 -47v-536q0 -32 -23 -55t-55 -23q-22 0 -40 11.5t-28 30.5l-210 390v-416q0 -102 -55.5 -153.5t-150.5 -51.5h-7q-24 1 -41 17.5t-17 41.5q0 24 15.5 41.5t38.5 17.5h2q38 0 60 24t22 66v579q0 34 24.5 58.5t58.5 24.5
q23 0 42.5 -12.5t29.5 -32.5l200 -370v348q0 27 19.5 47z" />
    <glyph glyph-name="Eng" unicode="&#x14a;" horiz-adv-x="606" 
d="M528.5 654q19.5 -20 19.5 -47v-597q0 -103 -56 -154.5t-152 -51.5q-56 0 -101 24q-16 6 -26 20t-10 32q0 24 17.5 41t41.5 17q11 0 21 -5q20 -11 45 -11q39 0 60 23t21 66v3l-217 408v-362q0 -27 -19.5 -47t-46.5 -20q-28 0 -47.5 20t-19.5 47v531q0 34 24.5 58.5
t58.5 24.5q23 0 42.5 -12t29.5 -32l200 -368v345q0 27 19.5 47t47.5 20t47.5 -20z" />
    <glyph glyph-name="Oacute" unicode="&#xd3;" horiz-adv-x="622" 
d="M65.5 510.5q33.5 78.5 96.5 123t148 44.5q86 0 149 -44.5t96.5 -123t33.5 -177.5q0 -100 -33.5 -178t-96.5 -122.5t-149 -44.5q-85 0 -148 44.5t-96.5 122.5t-33.5 178q0 99 33.5 177.5zM414.5 496q-37.5 63 -104.5 63q-66 0 -103 -63t-37 -163q0 -99 37 -162.5
t103 -63.5q67 0 104.5 63.5t37.5 162.5q0 100 -37.5 163zM313 714q-13 0 -22.5 9.5t-9.5 22.5q0 10 6 19l72 96q11 17 31 17q16 0 27 -11.5t11 -27.5t-10 -26l-81 -87q-9 -12 -24 -12z" />
    <glyph glyph-name="Obreve" unicode="&#x14e;" horiz-adv-x="622" 
d="M65.5 510.5q33.5 78.5 96.5 123t148 44.5q86 0 149 -44.5t96.5 -123t33.5 -177.5q0 -100 -33.5 -178t-96.5 -122.5t-149 -44.5q-85 0 -148 44.5t-96.5 122.5t-33.5 178q0 99 33.5 177.5zM414.5 496q-37.5 63 -104.5 63q-66 0 -103 -63t-37 -163q0 -99 37 -162.5
t103 -63.5q67 0 104.5 63.5t37.5 162.5q0 100 -37.5 163zM242 731q-33 13 -59 37q-12 10 -12 26q0 14 10.5 24.5t24.5 10.5q15 0 24 -9q35 -33 80 -33q46 0 80 32q10 10 24 10t24 -10.5t10 -24.5t-11 -25q-54 -51 -127 -51q-35 0 -68 13z" />
    <glyph glyph-name="Ocircumflex" unicode="&#xd4;" horiz-adv-x="622" 
d="M65.5 510.5q33.5 78.5 96.5 123t148 44.5q86 0 149 -44.5t96.5 -123t33.5 -177.5q0 -100 -33.5 -178t-96.5 -122.5t-149 -44.5q-85 0 -148 44.5t-96.5 122.5t-33.5 178q0 99 33.5 177.5zM414.5 496q-37.5 63 -104.5 63q-66 0 -103 -63t-37 -163q0 -99 37 -162.5
t103 -63.5q67 0 104.5 63.5t37.5 162.5q0 100 -37.5 163zM311 814l-57 -84q-8 -13 -25 -13q-13 0 -22.5 9t-9.5 23q0 7 6 19l40 75q7 13 21.5 21.5t29.5 8.5h35q14 0 28.5 -8.5t21.5 -21.5l41 -75q5 -10 5 -19q0 -14 -9.5 -23t-22.5 -9q-17 0 -25 13z" />
    <glyph glyph-name="Odieresis" unicode="&#xd6;" horiz-adv-x="622" 
d="M65.5 510.5q33.5 78.5 96.5 123t148 44.5q86 0 149 -44.5t96.5 -123t33.5 -177.5q0 -100 -33.5 -178t-96.5 -122.5t-149 -44.5q-85 0 -148 44.5t-96.5 122.5t-33.5 178q0 99 33.5 177.5zM414.5 496q-37.5 63 -104.5 63q-66 0 -103 -63t-37 -163q0 -99 37 -162.5
t103 -63.5q67 0 104.5 63.5t37.5 162.5q0 100 -37.5 163zM171 742q-19 19 -19 45q0 27 19 46t46 19t45.5 -19t18.5 -46q0 -26 -18.5 -45t-45.5 -19t-46 19zM358 741.5q-19 18.5 -19 45.5t19 46t46 19t46 -19t19 -46t-19 -45.5t-46 -18.5t-46 18.5z" />
    <glyph glyph-name="Ograve" unicode="&#xd2;" horiz-adv-x="622" 
d="M65.5 510.5q33.5 78.5 96.5 123t148 44.5q86 0 149 -44.5t96.5 -123t33.5 -177.5q0 -100 -33.5 -178t-96.5 -122.5t-149 -44.5q-85 0 -148 44.5t-96.5 122.5t-33.5 178q0 99 33.5 177.5zM414.5 496q-37.5 63 -104.5 63q-66 0 -103 -63t-37 -163q0 -99 37 -162.5
t103 -63.5q67 0 104.5 63.5t37.5 162.5q0 100 -37.5 163zM205 813q-10 10 -10 26t11 27.5t27 11.5q20 0 31 -17l72 -96q6 -9 6 -19q0 -13 -9.5 -22.5t-22.5 -9.5q-15 0 -24 12z" />
    <glyph glyph-name="Ohungarumlaut" unicode="&#x150;" horiz-adv-x="622" 
d="M65.5 510.5q33.5 78.5 96.5 123t148 44.5q86 0 149 -44.5t96.5 -123t33.5 -177.5q0 -100 -33.5 -178t-96.5 -122.5t-149 -44.5q-85 0 -148 44.5t-96.5 122.5t-33.5 178q0 99 33.5 177.5zM414.5 496q-37.5 63 -104.5 63q-66 0 -103 -63t-37 -163q0 -99 37 -162.5
t103 -63.5q67 0 104.5 63.5t37.5 162.5q0 100 -37.5 163zM229.5 726q-9.5 9 -9.5 21q0 9 6 19l42 84q5 11 14.5 17.5t20.5 6.5q15 0 26 -11t11 -26q0 -13 -8 -24l-56 -83q-8 -13 -25 -13q-12 0 -21.5 9zM368.5 726q-9.5 9 -9.5 21q0 9 6 19l42 84q5 11 14.5 17.5t20.5 6.5
q15 0 26 -11t11 -26q0 -11 -8 -24l-57 -83q-8 -13 -24 -13q-12 0 -21.5 9z" />
    <glyph glyph-name="Omacron" unicode="&#x14c;" horiz-adv-x="622" 
d="M65.5 510.5q33.5 78.5 96.5 123t148 44.5q86 0 149 -44.5t96.5 -123t33.5 -177.5q0 -100 -33.5 -178t-96.5 -122.5t-149 -44.5q-85 0 -148 44.5t-96.5 122.5t-33.5 178q0 99 33.5 177.5zM414.5 496q-37.5 63 -104.5 63q-66 0 -103 -63t-37 -163q0 -99 37 -162.5
t103 -63.5q67 0 104.5 63.5t37.5 162.5q0 100 -37.5 163zM173.5 740q-10.5 10 -10.5 25q0 14 10.5 24t24.5 10h225q14 0 24 -10t10 -24q0 -15 -10 -25t-24 -10h-225q-14 0 -24.5 10z" />
    <glyph glyph-name="Oslash" unicode="&#xd8;" horiz-adv-x="622" 
d="M568 476.5q21 -65.5 21 -143.5q0 -100 -33.5 -178t-96.5 -122.5t-149 -44.5q-82 0 -147 43l-13 -21q-5 -8 -13 -12.5t-18 -4.5q-15 0 -25.5 11t-10.5 26q0 13 5 19l21 33q-38 47 -57.5 111t-19.5 140q0 99 33.5 177.5t96.5 123t148 44.5q80 0 142 -40l12 19q5 8 13 12.5
t18 4.5q15 0 25.5 -11t10.5 -26q0 -11 -5 -19l-18 -29q39 -47 60 -112.5zM188 211l198 320q-33 28 -76 28q-66 0 -103 -63t-37 -163q0 -70 18 -122zM414.5 170.5q37.5 63.5 37.5 162.5q0 77 -22 130l-200 -323q35 -33 80 -33q67 0 104.5 63.5z" />
    <glyph glyph-name="Oslashacute" unicode="&#x1fe;" horiz-adv-x="622" 
d="M568 476.5q21 -65.5 21 -143.5q0 -100 -33.5 -178t-96.5 -122.5t-149 -44.5q-82 0 -147 43l-13 -21q-5 -8 -13 -12.5t-18 -4.5q-15 0 -25.5 11t-10.5 26q0 13 5 19l21 33q-38 47 -57.5 111t-19.5 140q0 99 33.5 177.5t96.5 123t148 44.5q80 0 142 -40l12 19q5 8 13 12.5
t18 4.5q15 0 25.5 -11t10.5 -26q0 -11 -5 -19l-18 -29q39 -47 60 -112.5zM188 211l198 320q-33 28 -76 28q-66 0 -103 -63t-37 -163q0 -70 18 -122zM414.5 170.5q37.5 63.5 37.5 162.5q0 77 -22 130l-200 -323q35 -33 80 -33q67 0 104.5 63.5zM313 714q-13 0 -22.5 9.5
t-9.5 22.5q0 10 6 19l72 96q11 17 31 17q16 0 27 -11.5t11 -27.5t-10 -26l-81 -87q-9 -12 -24 -12z" />
    <glyph glyph-name="Otilde" unicode="&#xd5;" horiz-adv-x="622" 
d="M65.5 510.5q33.5 78.5 96.5 123t148 44.5q86 0 149 -44.5t96.5 -123t33.5 -177.5q0 -100 -33.5 -178t-96.5 -122.5t-149 -44.5q-85 0 -148 44.5t-96.5 122.5t-33.5 178q0 99 33.5 177.5zM414.5 496q-37.5 63 -104.5 63q-66 0 -103 -63t-37 -163q0 -99 37 -162.5
t103 -63.5q67 0 104.5 63.5t37.5 162.5q0 100 -37.5 163zM322 732.5q-15 11.5 -30 31.5q-11 15 -18 21.5t-16 6.5q-23 0 -30 -46q-2 -11 -10.5 -18.5t-19.5 -7.5q-14 0 -23.5 11t-7.5 25q7 50 31 77.5t63 27.5q23 0 38 -11.5t30 -32.5q11 -14 18.5 -20.5t16.5 -6.5
q10 0 18 11.5t11 34.5q1 11 10 18.5t20 7.5q14 0 23.5 -10.5t7.5 -24.5q-6 -51 -30 -78.5t-64 -27.5q-23 0 -38 11.5z" />
    <glyph glyph-name="uni01EA" unicode="&#x1ea;" horiz-adv-x="622" 
d="M310 -44.5q-9 -14.5 -9 -30.5q0 -14 10 -23t24 -9q5 0 9 1t7 1q15 0 26 -11t11 -27q0 -15 -9 -24t-19 -12q-22 -7 -56 -7q-43 0 -73.5 20.5t-30.5 59.5q0 30 21.5 54t58.5 42q-77 8 -133 53.5t-85.5 120.5t-29.5 169q0 99 33.5 177.5t96.5 123t148 44.5q86 0 149 -44.5
t96.5 -123t33.5 -177.5q0 -94 -29.5 -169t-85.5 -120.5t-133 -53.5q-22 -20 -31 -34.5zM207 170.5q37 -63.5 103 -63.5q67 0 104.5 63.5t37.5 162.5q0 100 -37.5 163t-104.5 63q-66 0 -103 -63t-37 -163q0 -99 37 -162.5z" />
    <glyph glyph-name="uni1ECC" unicode="&#x1ecc;" horiz-adv-x="622" 
d="M65.5 510.5q33.5 78.5 96.5 123t148 44.5q86 0 149 -44.5t96.5 -123t33.5 -177.5q0 -100 -33.5 -178t-96.5 -122.5t-149 -44.5q-85 0 -148 44.5t-96.5 122.5t-33.5 178q0 99 33.5 177.5zM414.5 496q-37.5 63 -104.5 63q-66 0 -103 -63t-37 -163q0 -99 37 -162.5
t103 -63.5q67 0 104.5 63.5t37.5 162.5q0 100 -37.5 163zM264.5 -74.5q19.5 19.5 45.5 19.5t45 -19.5t19 -45.5q0 -27 -19 -46t-45 -19t-45.5 19t-19.5 46q0 26 19.5 45.5z" />
    <glyph glyph-name="uni1ECE" unicode="&#x1ece;" horiz-adv-x="622" 
d="M65.5 510.5q33.5 78.5 96.5 123t148 44.5q86 0 149 -44.5t96.5 -123t33.5 -177.5q0 -100 -33.5 -178t-96.5 -122.5t-149 -44.5q-85 0 -148 44.5t-96.5 122.5t-33.5 178q0 99 33.5 177.5zM414.5 496q-37.5 63 -104.5 63q-66 0 -103 -63t-37 -163q0 -99 37 -162.5
t103 -63.5q67 0 104.5 63.5t37.5 162.5q0 100 -37.5 163zM337.5 725.5q-8.5 7.5 -8.5 17.5q0 6 3 15q5 15 5 33q0 19 -8.5 28.5t-22.5 9.5q-19 0 -30 -18q-8 -15 -26 -15q-12 0 -20 8.5t-8 20.5q0 10 7 19q25 39 78 39q40 0 65.5 -22.5t25.5 -67.5q0 -28 -14 -58
q-9 -17 -27 -17q-11 0 -19.5 7.5z" />
    <glyph glyph-name="uni1ED0" unicode="&#x1ed0;" horiz-adv-x="622" 
d="M458 773q-13 0 -22.5 7t-9.5 17q0 8 6 15l72 72q12 12 31 12q16 0 27 -8.5t11 -20.5t-10 -19l-81 -66q-9 -9 -24 -9zM311 773l-57 -63q-8 -9 -25 -9q-13 0 -22.5 6.5t-9.5 17.5q0 4 6 14l40 56q7 10 21.5 16.5t29.5 6.5h35q15 0 29 -6.5t21 -16.5l41 -56q5 -8 5 -14
q0 -11 -9.5 -17.5t-22.5 -6.5q-17 0 -25 9zM65.5 510.5q33.5 78.5 96.5 123t148 44.5q86 0 149 -44.5t96.5 -123t33.5 -177.5q0 -100 -33.5 -178t-96.5 -122.5t-149 -44.5q-85 0 -148 44.5t-96.5 122.5t-33.5 178q0 99 33.5 177.5zM414.5 496q-37.5 63 -104.5 63
q-66 0 -103 -63t-37 -163q0 -99 37 -162.5t103 -63.5q67 0 104.5 63.5t37.5 162.5q0 100 -37.5 163z" />
    <glyph glyph-name="uni1ED2" unicode="&#x1ed2;" horiz-adv-x="622" 
d="M62 848q-10 7 -10 19t11 20.5t27 8.5q19 0 31 -12l72 -72q6 -7 6 -15q0 -10 -9.5 -17t-22.5 -7q-15 0 -24 9zM311 773l-57 -63q-8 -9 -25 -9q-13 0 -22.5 6.5t-9.5 17.5q0 4 6 14l40 56q7 10 21.5 16.5t29.5 6.5h35q15 0 29 -6.5t21 -16.5l41 -56q5 -8 5 -14
q0 -11 -9.5 -17.5t-22.5 -6.5q-17 0 -25 9zM65.5 510.5q33.5 78.5 96.5 123t148 44.5q86 0 149 -44.5t96.5 -123t33.5 -177.5q0 -100 -33.5 -178t-96.5 -122.5t-149 -44.5q-85 0 -148 44.5t-96.5 122.5t-33.5 178q0 99 33.5 177.5zM414.5 496q-37.5 63 -104.5 63
q-66 0 -103 -63t-37 -163q0 -99 37 -162.5t103 -63.5q67 0 104.5 63.5t37.5 162.5q0 100 -37.5 163z" />
    <glyph glyph-name="uni1ED4" unicode="&#x1ed4;" horiz-adv-x="622" 
d="M443.5 780.5q-8.5 5.5 -8.5 13.5q0 5 3 11q5 12 5 25q0 14 -8.5 21.5t-22.5 7.5q-19 0 -30 -14q-8 -11 -26 -11q-12 0 -20 6t-8 16q0 7 7 14q26 29 78 29q40 0 65.5 -17t25.5 -50q0 -22 -14 -44q-9 -13 -27 -13q-11 0 -19.5 5.5zM311 773l-57 -63q-8 -9 -25 -9
q-13 0 -22.5 6.5t-9.5 17.5q0 4 6 14l40 56q7 10 21.5 16.5t29.5 6.5h35q15 0 29 -6.5t21 -16.5l41 -56q5 -8 5 -14q0 -11 -9.5 -17.5t-22.5 -6.5q-17 0 -25 9zM65.5 510.5q33.5 78.5 96.5 123t148 44.5q86 0 149 -44.5t96.5 -123t33.5 -177.5q0 -100 -33.5 -178
t-96.5 -122.5t-149 -44.5q-85 0 -148 44.5t-96.5 122.5t-33.5 178q0 99 33.5 177.5zM414.5 496q-37.5 63 -104.5 63q-66 0 -103 -63t-37 -163q0 -99 37 -162.5t103 -63.5q67 0 104.5 63.5t37.5 162.5q0 100 -37.5 163z" />
    <glyph glyph-name="uni1ED6" unicode="&#x1ed6;" horiz-adv-x="622" 
d="M322 841.5q-15 8.5 -30 23.5q-11 11 -18 16t-16 5q-23 0 -30 -35q-2 -8 -10.5 -13.5t-19.5 -5.5q-14 0 -23.5 8t-7.5 19q7 37 31 58t63 21q23 0 37.5 -8.5t30.5 -24.5q11 -11 18.5 -16t16.5 -5q10 0 18 8.5t11 26.5q1 8 10 13.5t20 5.5q14 0 23.5 -8t7.5 -18
q-6 -38 -30 -58.5t-64 -20.5q-23 0 -38 8.5zM311 773l-57 -63q-8 -9 -25 -9q-13 0 -22.5 6.5t-9.5 17.5q0 4 6 14l40 56q7 10 21.5 16.5t29.5 6.5h35q15 0 29 -6.5t21 -16.5l41 -56q5 -8 5 -14q0 -11 -9.5 -17.5t-22.5 -6.5q-17 0 -25 9zM65.5 510.5q33.5 78.5 96.5 123
t148 44.5q86 0 149 -44.5t96.5 -123t33.5 -177.5q0 -100 -33.5 -178t-96.5 -122.5t-149 -44.5q-85 0 -148 44.5t-96.5 122.5t-33.5 178q0 99 33.5 177.5zM414.5 496q-37.5 63 -104.5 63q-66 0 -103 -63t-37 -163q0 -99 37 -162.5t103 -63.5q67 0 104.5 63.5t37.5 162.5
q0 100 -37.5 163z" />
    <glyph glyph-name="uni1ED8" unicode="&#x1ed8;" horiz-adv-x="622" 
d="M65.5 510.5q33.5 78.5 96.5 123t148 44.5q86 0 149 -44.5t96.5 -123t33.5 -177.5q0 -100 -33.5 -178t-96.5 -122.5t-149 -44.5q-85 0 -148 44.5t-96.5 122.5t-33.5 178q0 99 33.5 177.5zM414.5 496q-37.5 63 -104.5 63q-66 0 -103 -63t-37 -163q0 -99 37 -162.5
t103 -63.5q67 0 104.5 63.5t37.5 162.5q0 100 -37.5 163zM311 814l-57 -84q-8 -13 -25 -13q-13 0 -22.5 9t-9.5 23q0 7 6 19l40 75q7 13 21.5 21.5t29.5 8.5h35q14 0 28.5 -8.5t21.5 -21.5l41 -75q5 -10 5 -19q0 -14 -9.5 -23t-22.5 -9q-17 0 -25 13zM264.5 -74.5
q19.5 19.5 45.5 19.5t45 -19.5t19 -45.5q0 -27 -19 -46t-45 -19t-45.5 19t-19.5 46q0 26 19.5 45.5z" />
    <glyph glyph-name="Ohorn" unicode="&#x1a0;" horiz-adv-x="622" 
d="M594.5 593q-18.5 -34 -50.5 -58q45 -87 45 -202q0 -100 -33.5 -178t-96.5 -122.5t-149 -44.5q-85 0 -148 44.5t-96.5 122.5t-33.5 178q0 99 33.5 177.5t96.5 123t148 44.5q66 0 119 -27t90 -77q15 13 25.5 30t13.5 32q-4 -2 -13 -2q-20 0 -33.5 14t-13.5 36t16 38t38 16
q25 0 43 -19.5t18 -52.5q0 -39 -18.5 -73zM414.5 170.5q37.5 63.5 37.5 162.5q0 100 -37.5 163t-104.5 63q-66 0 -103 -63t-37 -163q0 -99 37 -162.5t103 -63.5q67 0 104.5 63.5z" />
    <glyph glyph-name="uni1EDA" unicode="&#x1eda;" horiz-adv-x="622" 
d="M594.5 593q-18.5 -34 -50.5 -58q45 -87 45 -202q0 -100 -33.5 -178t-96.5 -122.5t-149 -44.5q-85 0 -148 44.5t-96.5 122.5t-33.5 178q0 99 33.5 177.5t96.5 123t148 44.5q66 0 119 -27t90 -77q15 13 25.5 30t13.5 32q-4 -2 -13 -2q-20 0 -33.5 14t-13.5 36t16 38t38 16
q25 0 43 -19.5t18 -52.5q0 -39 -18.5 -73zM414.5 170.5q37.5 63.5 37.5 162.5q0 100 -37.5 163t-104.5 63q-66 0 -103 -63t-37 -163q0 -99 37 -162.5t103 -63.5q67 0 104.5 63.5zM313 714q-13 0 -22.5 9.5t-9.5 22.5q0 10 6 19l72 96q11 17 31 17q16 0 27 -11.5t11 -27.5
t-10 -26l-81 -87q-9 -12 -24 -12z" />
    <glyph glyph-name="uni1EDC" unicode="&#x1edc;" horiz-adv-x="622" 
d="M594.5 593q-18.5 -34 -50.5 -58q45 -87 45 -202q0 -100 -33.5 -178t-96.5 -122.5t-149 -44.5q-85 0 -148 44.5t-96.5 122.5t-33.5 178q0 99 33.5 177.5t96.5 123t148 44.5q66 0 119 -27t90 -77q15 13 25.5 30t13.5 32q-4 -2 -13 -2q-20 0 -33.5 14t-13.5 36t16 38t38 16
q25 0 43 -19.5t18 -52.5q0 -39 -18.5 -73zM414.5 170.5q37.5 63.5 37.5 162.5q0 100 -37.5 163t-104.5 63q-66 0 -103 -63t-37 -163q0 -99 37 -162.5t103 -63.5q67 0 104.5 63.5zM205 813q-10 10 -10 26t11 27.5t27 11.5q20 0 31 -17l72 -96q6 -9 6 -19q0 -13 -9.5 -22.5
t-22.5 -9.5q-15 0 -24 12z" />
    <glyph glyph-name="uni1EDE" unicode="&#x1ede;" horiz-adv-x="622" 
d="M594.5 593q-18.5 -34 -50.5 -58q45 -87 45 -202q0 -100 -33.5 -178t-96.5 -122.5t-149 -44.5q-85 0 -148 44.5t-96.5 122.5t-33.5 178q0 99 33.5 177.5t96.5 123t148 44.5q66 0 119 -27t90 -77q15 13 25.5 30t13.5 32q-4 -2 -13 -2q-20 0 -33.5 14t-13.5 36t16 38t38 16
q25 0 43 -19.5t18 -52.5q0 -39 -18.5 -73zM414.5 170.5q37.5 63.5 37.5 162.5q0 100 -37.5 163t-104.5 63q-66 0 -103 -63t-37 -163q0 -99 37 -162.5t103 -63.5q67 0 104.5 63.5zM337.5 725.5q-8.5 7.5 -8.5 17.5q0 6 3 15q5 15 5 33q0 19 -8.5 28.5t-22.5 9.5
q-19 0 -30 -18q-8 -15 -26 -15q-12 0 -20 8.5t-8 20.5q0 10 7 19q25 39 78 39q40 0 65.5 -22.5t25.5 -67.5q0 -28 -14 -58q-9 -17 -27 -17q-11 0 -19.5 7.5z" />
    <glyph glyph-name="uni1EE0" unicode="&#x1ee0;" horiz-adv-x="622" 
d="M594.5 593q-18.5 -34 -50.5 -58q45 -87 45 -202q0 -100 -33.5 -178t-96.5 -122.5t-149 -44.5q-85 0 -148 44.5t-96.5 122.5t-33.5 178q0 99 33.5 177.5t96.5 123t148 44.5q66 0 119 -27t90 -77q15 13 25.5 30t13.5 32q-4 -2 -13 -2q-20 0 -33.5 14t-13.5 36t16 38t38 16
q25 0 43 -19.5t18 -52.5q0 -39 -18.5 -73zM414.5 170.5q37.5 63.5 37.5 162.5q0 100 -37.5 163t-104.5 63q-66 0 -103 -63t-37 -163q0 -99 37 -162.5t103 -63.5q67 0 104.5 63.5zM322 732.5q-15 11.5 -30 31.5q-11 15 -18 21.5t-16 6.5q-23 0 -30 -46q-2 -11 -10.5 -18.5
t-19.5 -7.5q-14 0 -23.5 11t-7.5 25q7 50 31 77.5t63 27.5q23 0 38 -11.5t30 -32.5q11 -14 18.5 -20.5t16.5 -6.5q10 0 18 11.5t11 34.5q1 11 10 18.5t20 7.5q14 0 23.5 -10.5t7.5 -24.5q-6 -51 -30 -78.5t-64 -27.5q-23 0 -38 11.5z" />
    <glyph glyph-name="uni1EE2" unicode="&#x1ee2;" horiz-adv-x="622" 
d="M594.5 593q-18.5 -34 -50.5 -58q45 -87 45 -202q0 -100 -33.5 -178t-96.5 -122.5t-149 -44.5q-85 0 -148 44.5t-96.5 122.5t-33.5 178q0 99 33.5 177.5t96.5 123t148 44.5q66 0 119 -27t90 -77q15 13 25.5 30t13.5 32q-4 -2 -13 -2q-20 0 -33.5 14t-13.5 36t16 38t38 16
q25 0 43 -19.5t18 -52.5q0 -39 -18.5 -73zM414.5 170.5q37.5 63.5 37.5 162.5q0 100 -37.5 163t-104.5 63q-66 0 -103 -63t-37 -163q0 -99 37 -162.5t103 -63.5q67 0 104.5 63.5zM264.5 -74.5q19.5 19.5 45.5 19.5t45 -19.5t19 -45.5q0 -27 -19 -46t-45 -19t-45.5 19
t-19.5 46q0 26 19.5 45.5z" />
    <glyph glyph-name="OE" unicode="&#x152;" horiz-adv-x="858" 
d="M810.5 99.5q17.5 -17.5 17.5 -41.5t-17.5 -41t-40.5 -17h-259q-33 0 -51 16.5t-20 48.5q-23 -38 -64.5 -57.5t-84.5 -19.5q-79 0 -138 44.5t-90 122.5t-31 178t31 178t90 122t138 44q43 0 84.5 -19t64.5 -56q2 32 20 48.5t51 16.5h259q23 0 40.5 -17t17.5 -41
t-17.5 -41.5t-40.5 -17.5h-196v-153h189q23 0 40.5 -17t17.5 -41t-17.5 -41t-40.5 -17h-189v-164h196q23 0 40.5 -17.5zM389.5 134q33.5 27 50.5 76v246q-17 49 -50 75.5t-76 26.5q-70 0 -107 -62t-37 -163q0 -100 37.5 -163t106.5 -63q42 0 75.5 27z" />
    <glyph glyph-name="uni1E56" unicode="&#x1e56;" horiz-adv-x="533" 
d="M78.5 13q-19.5 20 -19.5 48v535q0 35 18.5 53t53.5 18h174q66 0 112.5 -29t70 -77t23.5 -107q0 -58 -23.5 -106.5t-70 -77t-112.5 -28.5h-112v-181q0 -28 -19.5 -48t-47.5 -20t-47.5 20zM350.5 523.5q-23.5 26.5 -61.5 26.5h-96v-192h96q38 0 61.5 26.5t23.5 69.5
t-23.5 69.5zM229.5 832.5q19.5 19.5 45.5 19.5t45 -19.5t19 -45.5q0 -27 -19 -46t-45 -19t-45.5 19t-19.5 46q0 26 19.5 45.5z" />
    <glyph glyph-name="Racute" unicode="&#x154;" horiz-adv-x="551" 
d="M494.5 13.5q-19.5 -20.5 -47.5 -20.5q-18 0 -34.5 10t-24.5 26l-115 213h-80v-181q0 -28 -19.5 -48t-47.5 -20t-47.5 20t-19.5 48v535q0 35 18.5 53t53.5 18h177q60 0 106 -27t71.5 -75t25.5 -109q0 -75 -30.5 -121.5t-74.5 -65.5l97 -177q10 -15 10 -33
q1 -25 -18.5 -45.5zM193 358h95q39 0 62.5 26.5t23.5 69.5q0 44 -23.5 70t-62.5 26h-95v-192zM278 714q-13 0 -22.5 9.5t-9.5 22.5q0 10 6 19l72 96q11 17 31 17q16 0 27 -11.5t11 -27.5t-10 -26l-81 -87q-9 -12 -24 -12z" />
    <glyph glyph-name="Rcaron" unicode="&#x158;" horiz-adv-x="551" 
d="M494.5 13.5q-19.5 -20.5 -47.5 -20.5q-18 0 -34.5 10t-24.5 26l-115 213h-80v-181q0 -28 -19.5 -48t-47.5 -20t-47.5 20t-19.5 48v535q0 35 18.5 53t53.5 18h177q60 0 106 -27t71.5 -75t25.5 -109q0 -75 -30.5 -121.5t-74.5 -65.5l97 -177q10 -15 10 -33
q1 -25 -18.5 -45.5zM193 358h95q39 0 62.5 26.5t23.5 69.5q0 44 -23.5 70t-62.5 26h-95v-192zM377.5 864q9.5 -9 9.5 -23q0 -9 -5 -19l-41 -75q-7 -13 -21.5 -21.5t-28.5 -8.5h-35q-15 0 -29.5 8.5t-21.5 21.5l-40 75q-6 12 -6 19q0 14 9.5 23t22.5 9q17 0 25 -13l57 -84
l57 84q8 13 25 13q13 0 22.5 -9z" />
    <glyph glyph-name="uni0156" unicode="&#x156;" horiz-adv-x="551" 
d="M494.5 13.5q-19.5 -20.5 -47.5 -20.5q-18 0 -34.5 10t-24.5 26l-115 213h-80v-181q0 -28 -19.5 -48t-47.5 -20t-47.5 20t-19.5 48v535q0 35 18.5 53t53.5 18h177q60 0 106 -27t71.5 -75t25.5 -109q0 -75 -30.5 -121.5t-74.5 -65.5l97 -177q10 -15 10 -33
q1 -25 -18.5 -45.5zM193 358h95q39 0 62.5 26.5t23.5 69.5q0 44 -23.5 70t-62.5 26h-95v-192zM238 -274q-8 8 -8 18q0 11 13 22q14 13 24.5 30.5t13.5 32.5q-6 -3 -15 -3q-22 0 -36.5 15.5t-14.5 39.5q0 25 17 42.5t42 17.5q28 0 48 -21t20 -57q0 -40 -18.5 -76.5
t-49.5 -62.5q-8 -6 -17 -6q-11 0 -19 8z" />
    <glyph glyph-name="Sacute" unicode="&#x15a;" horiz-adv-x="498" 
d="M37.5 62q-7.5 13 -7.5 29q0 26 18 43.5t43 17.5q19 0 32 -9q56 -37 119 -37q43 0 67.5 21t24.5 53q0 35 -26 55t-83 44q-59 23 -96.5 44t-65 60.5t-27.5 100.5q0 53 27 97.5t78 70.5t120 26q84 0 157 -41q14 -8 22.5 -22t8.5 -30q0 -25 -17.5 -42.5t-42.5 -17.5
q-14 0 -28 7q-52 28 -103 28q-40 0 -62.5 -18.5t-22.5 -49.5t25.5 -49.5t80.5 -41.5q58 -23 97 -45.5t66.5 -63t27.5 -101.5q0 -59 -26.5 -105t-77.5 -72t-122 -26q-107 0 -186 52q-13 9 -20.5 22zM251 714q-13 0 -22.5 9.5t-9.5 22.5q0 10 6 19l72 96q11 17 31 17
q16 0 27 -11.5t11 -27.5t-10 -26l-81 -87q-9 -12 -24 -12z" />
    <glyph glyph-name="Scaron" unicode="&#x160;" horiz-adv-x="498" 
d="M37.5 62q-7.5 13 -7.5 29q0 26 18 43.5t43 17.5q19 0 32 -9q56 -37 119 -37q43 0 67.5 21t24.5 53q0 35 -26 55t-83 44q-59 23 -96.5 44t-65 60.5t-27.5 100.5q0 53 27 97.5t78 70.5t120 26q84 0 157 -41q14 -8 22.5 -22t8.5 -30q0 -25 -17.5 -42.5t-42.5 -17.5
q-14 0 -28 7q-52 28 -103 28q-40 0 -62.5 -18.5t-22.5 -49.5t25.5 -49.5t80.5 -41.5q58 -23 97 -45.5t66.5 -63t27.5 -101.5q0 -59 -26.5 -105t-77.5 -72t-122 -26q-107 0 -186 52q-13 9 -20.5 22zM350.5 864q9.5 -9 9.5 -23q0 -9 -5 -19l-41 -75q-7 -13 -21.5 -21.5
t-28.5 -8.5h-35q-15 0 -29.5 8.5t-21.5 21.5l-40 75q-6 12 -6 19q0 14 9.5 23t22.5 9q17 0 25 -13l57 -84l57 84q8 13 25 13q13 0 22.5 -9z" />
    <glyph glyph-name="Scircumflex" unicode="&#x15c;" horiz-adv-x="498" 
d="M37.5 62q-7.5 13 -7.5 29q0 26 18 43.5t43 17.5q19 0 32 -9q56 -37 119 -37q43 0 67.5 21t24.5 53q0 35 -26 55t-83 44q-59 23 -96.5 44t-65 60.5t-27.5 100.5q0 53 27 97.5t78 70.5t120 26q84 0 157 -41q14 -8 22.5 -22t8.5 -30q0 -25 -17.5 -42.5t-42.5 -17.5
q-14 0 -28 7q-52 28 -103 28q-40 0 -62.5 -18.5t-22.5 -49.5t25.5 -49.5t80.5 -41.5q58 -23 97 -45.5t66.5 -63t27.5 -101.5q0 -59 -26.5 -105t-77.5 -72t-122 -26q-107 0 -186 52q-13 9 -20.5 22zM249 814l-57 -84q-8 -13 -25 -13q-13 0 -22.5 9t-9.5 23q0 7 6 19l40 75
q7 13 21.5 21.5t29.5 8.5h35q14 0 28.5 -8.5t21.5 -21.5l41 -75q5 -10 5 -19q0 -14 -9.5 -23t-22.5 -9q-17 0 -25 13z" />
    <glyph glyph-name="uni015E" unicode="&#x15e;" horiz-adv-x="498" 
d="M418.5 52q-51.5 -55 -144.5 -63l-17 -41q13 10 32 10q27 0 45 -19t18 -49q0 -39 -29.5 -62t-74.5 -23q-43 0 -79 20q-7 3 -12 9t-5 16q0 11 7.5 19t18.5 8q6 0 13 -4q28 -16 54 -16q20 0 33 9t13 25q0 12 -6.5 19t-19.5 7q-14 0 -22 -7q-8 -6 -17 -6q-13 0 -21.5 9
t-8.5 22q0 7 3 12l16 42q-90 6 -157 51q-13 9 -20.5 22t-7.5 29q0 26 18 43.5t43 17.5q19 0 32 -9q56 -37 119 -37q43 0 67.5 21t24.5 53q0 35 -26 55t-83 44q-59 23 -96.5 44t-65 60.5t-27.5 100.5q0 53 27 97.5t78 70.5t120 26q84 0 157 -41q14 -8 22.5 -22t8.5 -30
q0 -25 -17.5 -42.5t-42.5 -17.5q-14 0 -28 7q-52 28 -103 28q-40 0 -62.5 -18.5t-22.5 -49.5t25.5 -49.5t80.5 -41.5q58 -23 97 -45.5t66.5 -63t27.5 -101.5q0 -84 -51.5 -139z" />
    <glyph glyph-name="uni0218" unicode="&#x218;" horiz-adv-x="498" 
d="M37.5 62q-7.5 13 -7.5 29q0 26 18 43.5t43 17.5q19 0 32 -9q56 -37 119 -37q43 0 67.5 21t24.5 53q0 35 -26 55t-83 44q-59 23 -96.5 44t-65 60.5t-27.5 100.5q0 53 27 97.5t78 70.5t120 26q84 0 157 -41q14 -8 22.5 -22t8.5 -30q0 -25 -17.5 -42.5t-42.5 -17.5
q-14 0 -28 7q-52 28 -103 28q-40 0 -62.5 -18.5t-22.5 -49.5t25.5 -49.5t80.5 -41.5q58 -23 97 -45.5t66.5 -63t27.5 -101.5q0 -59 -26.5 -105t-77.5 -72t-122 -26q-107 0 -186 52q-13 9 -20.5 22zM211 -274q-8 8 -8 18q0 11 13 22q14 13 24.5 30.5t13.5 32.5q-6 -3 -15 -3
q-22 0 -36.5 15.5t-14.5 39.5q0 25 17 42.5t42 17.5q28 0 48 -21t20 -57q0 -40 -18.5 -76.5t-49.5 -62.5q-8 -6 -17 -6q-11 0 -19 8z" />
    <glyph glyph-name="uni1E60" unicode="&#x1e60;" horiz-adv-x="498" 
d="M37.5 62q-7.5 13 -7.5 29q0 26 18 43.5t43 17.5q19 0 32 -9q56 -37 119 -37q43 0 67.5 21t24.5 53q0 35 -26 55t-83 44q-59 23 -96.5 44t-65 60.5t-27.5 100.5q0 53 27 97.5t78 70.5t120 26q84 0 157 -41q14 -8 22.5 -22t8.5 -30q0 -25 -17.5 -42.5t-42.5 -17.5
q-14 0 -28 7q-52 28 -103 28q-40 0 -62.5 -18.5t-22.5 -49.5t25.5 -49.5t80.5 -41.5q58 -23 97 -45.5t66.5 -63t27.5 -101.5q0 -59 -26.5 -105t-77.5 -72t-122 -26q-107 0 -186 52q-13 9 -20.5 22zM202.5 832.5q19.5 19.5 45.5 19.5t45 -19.5t19 -45.5q0 -27 -19 -46
t-45 -19t-45.5 19t-19.5 46q0 26 19.5 45.5z" />
    <glyph glyph-name="uni1E9E" unicode="&#x1e9e;" horiz-adv-x="589" 
d="M521 337q46 -52 46 -135q0 -62 -27 -111t-75.5 -76t-110.5 -27q-45 0 -79 16q-18 5 -29 20.5t-11 35.5q0 25 17.5 42.5t41.5 16.5q8 0 15 -3q20 -10 43 -10q38 0 61.5 25.5t23.5 71.5q0 49 -31 71.5t-93 25.5q-21 2 -35.5 17.5t-14.5 38.5v5q0 32 25 65l84 112
q-28 22 -67 22q-54 0 -82.5 -32t-28.5 -91v-376q0 -28 -19.5 -48t-47.5 -20t-48 20t-20 48v375q0 115 66 178.5t180 63.5q51 0 95.5 -14.5t76.5 -47.5q27 -24 27 -53q0 -25 -21 -54l-82 -109q74 -11 120 -63z" />
    <glyph glyph-name="Tbar" unicode="&#x166;" horiz-adv-x="473" 
d="M304 549v-213h74q14 0 24 -10t10 -24t-10 -24.5t-24 -10.5h-74v-206q0 -28 -19.5 -48t-47.5 -20t-47.5 20t-19.5 48v206h-75q-14 0 -24 10.5t-10 24.5t10 24t24 10h75v213h-96q-24 0 -41.5 17.5t-17.5 41.5q0 25 17.5 42t41.5 17h325q24 0 41.5 -17t17.5 -42
q0 -24 -17.5 -41.5t-41.5 -17.5h-95z" />
    <glyph glyph-name="Tcaron" unicode="&#x164;" horiz-adv-x="473" 
d="M189.5 13q-19.5 20 -19.5 48v488h-96q-24 0 -41.5 17.5t-17.5 41.5q0 25 17.5 42t41.5 17h325q24 0 41.5 -17t17.5 -42q0 -24 -17.5 -41.5t-41.5 -17.5h-95v-488q0 -28 -19.5 -48t-47.5 -20t-47.5 20zM339.5 864q9.5 -9 9.5 -23q0 -9 -5 -19l-41 -75q-7 -13 -21.5 -21.5
t-28.5 -8.5h-35q-15 0 -29.5 8.5t-21.5 21.5l-40 75q-6 12 -6 19q0 14 9.5 23t22.5 9q17 0 25 -13l57 -84l57 84q8 13 25 13q13 0 22.5 -9z" />
    <glyph glyph-name="uni0162" unicode="&#x162;" horiz-adv-x="473" 
d="M189.5 13q-19.5 20 -19.5 48v488h-96q-24 0 -41.5 17.5t-17.5 41.5q0 25 17.5 42t41.5 17h325q24 0 41.5 -17t17.5 -42q0 -24 -17.5 -41.5t-41.5 -17.5h-95v-488q0 -28 -19.5 -48t-47.5 -20t-47.5 20zM200 -274q-8 8 -8 18q0 11 13 22q14 13 24.5 30.5t13.5 32.5
q-6 -3 -15 -3q-22 0 -36.5 15.5t-14.5 39.5q0 25 17 42.5t42 17.5q28 0 48 -21t20 -57q0 -40 -18.5 -76.5t-49.5 -62.5q-8 -6 -17 -6q-11 0 -19 8z" />
    <glyph glyph-name="uni021A" unicode="&#x21a;" horiz-adv-x="473" 
d="M189.5 13q-19.5 20 -19.5 48v488h-96q-24 0 -41.5 17.5t-17.5 41.5q0 25 17.5 42t41.5 17h325q24 0 41.5 -17t17.5 -42q0 -24 -17.5 -41.5t-41.5 -17.5h-95v-488q0 -28 -19.5 -48t-47.5 -20t-47.5 20zM200 -274q-8 8 -8 18q0 11 13 22q14 13 24.5 30.5t13.5 32.5
q-6 -3 -15 -3q-22 0 -36.5 15.5t-14.5 39.5q0 25 17 42.5t42 17.5q28 0 48 -21t20 -57q0 -40 -18.5 -76.5t-49.5 -62.5q-8 -6 -17 -6q-11 0 -19 8z" />
    <glyph glyph-name="uni1E6A" unicode="&#x1e6a;" horiz-adv-x="473" 
d="M189.5 13q-19.5 20 -19.5 48v488h-96q-24 0 -41.5 17.5t-17.5 41.5q0 25 17.5 42t41.5 17h325q24 0 41.5 -17t17.5 -42q0 -24 -17.5 -41.5t-41.5 -17.5h-95v-488q0 -28 -19.5 -48t-47.5 -20t-47.5 20zM191.5 832.5q19.5 19.5 45.5 19.5t45 -19.5t19 -45.5q0 -27 -19 -46
t-45 -19t-45.5 19t-19.5 46q0 26 19.5 45.5z" />
    <glyph glyph-name="Uacute" unicode="&#xda;" horiz-adv-x="606" 
d="M59 606q0 28 20 48t48 20t47.5 -20t19.5 -48v-377q0 -59 28 -91t81 -32t81 32t28 91v377q0 28 20 48t48 20t47.5 -20t19.5 -48v-376q0 -115 -65 -178.5t-179 -63.5t-179 63.5t-65 178.5v376zM306 714q-13 0 -22.5 9.5t-9.5 22.5q0 10 6 19l72 96q11 17 31 17
q16 0 27 -11.5t11 -27.5t-10 -26l-81 -87q-9 -12 -24 -12z" />
    <glyph glyph-name="Ubreve" unicode="&#x16c;" horiz-adv-x="606" 
d="M59 606q0 28 20 48t48 20t47.5 -20t19.5 -48v-377q0 -59 28 -91t81 -32t81 32t28 91v377q0 28 20 48t48 20t47.5 -20t19.5 -48v-376q0 -115 -65 -178.5t-179 -63.5t-179 63.5t-65 178.5v376zM235 731q-33 13 -59 37q-12 10 -12 26q0 14 10.5 24.5t24.5 10.5q15 0 24 -9
q35 -33 80 -33q46 0 80 32q10 10 24 10t24 -10.5t10 -24.5t-11 -25q-54 -51 -127 -51q-35 0 -68 13z" />
    <glyph glyph-name="Ucircumflex" unicode="&#xdb;" horiz-adv-x="606" 
d="M59 606q0 28 20 48t48 20t47.5 -20t19.5 -48v-377q0 -59 28 -91t81 -32t81 32t28 91v377q0 28 20 48t48 20t47.5 -20t19.5 -48v-376q0 -115 -65 -178.5t-179 -63.5t-179 63.5t-65 178.5v376zM304 814l-57 -84q-8 -13 -25 -13q-13 0 -22.5 9t-9.5 23q0 7 6 19l40 75
q7 13 21.5 21.5t29.5 8.5h35q14 0 28.5 -8.5t21.5 -21.5l41 -75q5 -10 5 -19q0 -14 -9.5 -23t-22.5 -9q-17 0 -25 13z" />
    <glyph glyph-name="Udieresis" unicode="&#xdc;" horiz-adv-x="606" 
d="M59 606q0 28 20 48t48 20t47.5 -20t19.5 -48v-377q0 -59 28 -91t81 -32t81 32t28 91v377q0 28 20 48t48 20t47.5 -20t19.5 -48v-376q0 -115 -65 -178.5t-179 -63.5t-179 63.5t-65 178.5v376zM164 742q-19 19 -19 45q0 27 19 46t46 19t45.5 -19t18.5 -46q0 -26 -18.5 -45
t-45.5 -19t-46 19zM351 741.5q-19 18.5 -19 45.5t19 46t46 19t46 -19t19 -46t-19 -45.5t-46 -18.5t-46 18.5z" />
    <glyph glyph-name="Ugrave" unicode="&#xd9;" horiz-adv-x="606" 
d="M59 606q0 28 20 48t48 20t47.5 -20t19.5 -48v-377q0 -59 28 -91t81 -32t81 32t28 91v377q0 28 20 48t48 20t47.5 -20t19.5 -48v-376q0 -115 -65 -178.5t-179 -63.5t-179 63.5t-65 178.5v376zM199 813q-10 10 -10 26t11 27.5t27 11.5q20 0 31 -17l72 -96q6 -9 6 -19
q0 -13 -9.5 -22.5t-22.5 -9.5q-15 0 -24 12z" />
    <glyph glyph-name="Uhungarumlaut" unicode="&#x170;" horiz-adv-x="606" 
d="M59 606q0 28 20 48t48 20t47.5 -20t19.5 -48v-377q0 -59 28 -91t81 -32t81 32t28 91v377q0 28 20 48t48 20t47.5 -20t19.5 -48v-376q0 -115 -65 -178.5t-179 -63.5t-179 63.5t-65 178.5v376zM222.5 726q-9.5 9 -9.5 21q0 9 6 19l42 84q5 11 14.5 17.5t20.5 6.5
q15 0 26 -11t11 -26q0 -13 -8 -24l-56 -83q-8 -13 -25 -13q-12 0 -21.5 9zM361.5 726q-9.5 9 -9.5 21q0 9 6 19l42 84q5 11 14.5 17.5t20.5 6.5q15 0 26 -11t11 -26q0 -11 -8 -24l-57 -83q-8 -13 -24 -13q-12 0 -21.5 9z" />
    <glyph glyph-name="Umacron" unicode="&#x16a;" horiz-adv-x="606" 
d="M59 606q0 28 20 48t48 20t47.5 -20t19.5 -48v-377q0 -59 28 -91t81 -32t81 32t28 91v377q0 28 20 48t48 20t47.5 -20t19.5 -48v-376q0 -115 -65 -178.5t-179 -63.5t-179 63.5t-65 178.5v376zM166.5 740q-10.5 10 -10.5 25q0 14 10.5 24t24.5 10h225q14 0 24 -10t10 -24
q0 -15 -10 -25t-24 -10h-225q-14 0 -24.5 10z" />
    <glyph glyph-name="Uogonek" unicode="&#x172;" horiz-adv-x="606" 
d="M124 51.5q-65 63.5 -65 178.5v376q0 28 20 48t48 20t47.5 -20t19.5 -48v-377q0 -59 28 -91t81 -32t81 32t28 91v377q0 28 20 48t48 20t47.5 -20t19.5 -48v-376q0 -79 -31.5 -133.5t-89.5 -81.5q-48 -25 -69.5 -46.5t-21.5 -43.5q0 -15 10 -23.5t24 -8.5q5 0 8 1
q17 2 29.5 -9.5t12.5 -28.5q0 -13 -8.5 -23t-20.5 -14q-28 -5 -52 -5q-43 0 -73.5 20.5t-30.5 59.5q0 29 20 53.5t54 40.5h-5q-114 0 -179 63.5z" />
    <glyph glyph-name="Uring" unicode="&#x16e;" horiz-adv-x="606" 
d="M59 606q0 28 20 48t48 20t47.5 -20t19.5 -48v-377q0 -59 28 -91t81 -32t81 32t28 91v377q0 28 20 48t48 20t47.5 -20t19.5 -48v-376q0 -115 -65 -178.5t-179 -63.5t-179 63.5t-65 178.5v376zM235.5 866.5q28.5 28.5 68.5 28.5t68 -28.5t28 -68.5t-28 -68.5t-68 -28.5
t-68.5 28.5t-28.5 68.5t28.5 68.5zM334 828.5q-12 12.5 -30 12.5q-17 0 -30 -13t-13 -30q0 -18 13 -30.5t30 -12.5q18 0 30 12.5t12 30.5t-12 30.5z" />
    <glyph glyph-name="Utilde" unicode="&#x168;" horiz-adv-x="606" 
d="M59 606q0 28 20 48t48 20t47.5 -20t19.5 -48v-377q0 -59 28 -91t81 -32t81 32t28 91v377q0 28 20 48t48 20t47.5 -20t19.5 -48v-376q0 -115 -65 -178.5t-179 -63.5t-179 63.5t-65 178.5v376zM315 732.5q-15 11.5 -30 31.5q-11 15 -18 21.5t-16 6.5q-23 0 -30 -46
q-2 -11 -10.5 -18.5t-19.5 -7.5q-14 0 -23.5 11t-7.5 25q7 50 31 77.5t63 27.5q23 0 38 -11.5t30 -32.5q11 -14 18.5 -20.5t16.5 -6.5q10 0 18 11.5t11 34.5q1 11 10 18.5t20 7.5q14 0 23.5 -10.5t7.5 -24.5q-6 -51 -30 -78.5t-64 -27.5q-23 0 -38 11.5z" />
    <glyph glyph-name="uni1EE4" unicode="&#x1ee4;" horiz-adv-x="606" 
d="M59 606q0 28 20 48t48 20t47.5 -20t19.5 -48v-377q0 -59 28 -91t81 -32t81 32t28 91v377q0 28 20 48t48 20t47.5 -20t19.5 -48v-376q0 -115 -65 -178.5t-179 -63.5t-179 63.5t-65 178.5v376zM257.5 -74.5q19.5 19.5 45.5 19.5t45 -19.5t19 -45.5q0 -27 -19 -46t-45 -19
t-45.5 19t-19.5 46q0 26 19.5 45.5z" />
    <glyph glyph-name="Uhorn" unicode="&#x1af;" horiz-adv-x="606" 
d="M622.5 641.5q-26.5 -41.5 -75.5 -67.5v-344q0 -115 -65 -178.5t-179 -63.5t-179 63.5t-65 178.5v376q0 28 20 48t48 20t47.5 -20t19.5 -48v-377q0 -59 28 -91t81 -32t81 32t28 91v377q0 28 20 48t48 20q22 0 40 -13.5t24 -34.5q19 13 33.5 33t17.5 38q-4 -2 -13 -2
q-20 0 -33.5 14t-13.5 36t16 38t38 16q25 0 42.5 -19.5t17.5 -52.5q0 -44 -26.5 -85.5z" />
    <glyph glyph-name="uni1EE6" unicode="&#x1ee6;" horiz-adv-x="606" 
d="M59 606q0 28 20 48t48 20t47.5 -20t19.5 -48v-377q0 -59 28 -91t81 -32t81 32t28 91v377q0 28 20 48t48 20t47.5 -20t19.5 -48v-376q0 -115 -65 -178.5t-179 -63.5t-179 63.5t-65 178.5v376zM330.5 725.5q-8.5 7.5 -8.5 17.5q0 6 3 15q5 15 5 33q0 19 -8.5 28.5
t-22.5 9.5q-19 0 -30 -18q-8 -15 -26 -15q-12 0 -20 8.5t-8 20.5q0 10 7 19q25 39 78 39q40 0 65.5 -22.5t25.5 -67.5q0 -28 -14 -58q-9 -17 -27 -17q-11 0 -19.5 7.5z" />
    <glyph glyph-name="uni1EE8" unicode="&#x1ee8;" horiz-adv-x="606" 
d="M622.5 641.5q-26.5 -41.5 -75.5 -67.5v-344q0 -115 -65 -178.5t-179 -63.5t-179 63.5t-65 178.5v376q0 28 20 48t48 20t47.5 -20t19.5 -48v-377q0 -59 28 -91t81 -32t81 32t28 91v377q0 28 20 48t48 20q22 0 40 -13.5t24 -34.5q19 13 33.5 33t17.5 38q-4 -2 -13 -2
q-20 0 -33.5 14t-13.5 36t16 38t38 16q25 0 42.5 -19.5t17.5 -52.5q0 -44 -26.5 -85.5zM306 714q-13 0 -22.5 9.5t-9.5 22.5q0 10 6 19l72 96q11 17 31 17q16 0 27 -11.5t11 -27.5t-10 -26l-81 -87q-9 -12 -24 -12z" />
    <glyph glyph-name="uni1EEA" unicode="&#x1eea;" horiz-adv-x="606" 
d="M622.5 641.5q-26.5 -41.5 -75.5 -67.5v-344q0 -115 -65 -178.5t-179 -63.5t-179 63.5t-65 178.5v376q0 28 20 48t48 20t47.5 -20t19.5 -48v-377q0 -59 28 -91t81 -32t81 32t28 91v377q0 28 20 48t48 20q22 0 40 -13.5t24 -34.5q19 13 33.5 33t17.5 38q-4 -2 -13 -2
q-20 0 -33.5 14t-13.5 36t16 38t38 16q25 0 42.5 -19.5t17.5 -52.5q0 -44 -26.5 -85.5zM199 813q-10 10 -10 26t11 27.5t27 11.5q20 0 31 -17l72 -96q6 -9 6 -19q0 -13 -9.5 -22.5t-22.5 -9.5q-15 0 -24 12z" />
    <glyph glyph-name="uni1EEC" unicode="&#x1eec;" horiz-adv-x="606" 
d="M622.5 641.5q-26.5 -41.5 -75.5 -67.5v-344q0 -115 -65 -178.5t-179 -63.5t-179 63.5t-65 178.5v376q0 28 20 48t48 20t47.5 -20t19.5 -48v-377q0 -59 28 -91t81 -32t81 32t28 91v377q0 28 20 48t48 20q22 0 40 -13.5t24 -34.5q19 13 33.5 33t17.5 38q-4 -2 -13 -2
q-20 0 -33.5 14t-13.5 36t16 38t38 16q25 0 42.5 -19.5t17.5 -52.5q0 -44 -26.5 -85.5zM330.5 725.5q-8.5 7.5 -8.5 17.5q0 6 3 15q5 15 5 33q0 19 -8.5 28.5t-22.5 9.5q-19 0 -30 -18q-8 -15 -26 -15q-12 0 -20 8.5t-8 20.5q0 10 7 19q25 39 78 39q40 0 65.5 -22.5
t25.5 -67.5q0 -28 -14 -58q-9 -17 -27 -17q-11 0 -19.5 7.5z" />
    <glyph glyph-name="uni1EEE" unicode="&#x1eee;" horiz-adv-x="606" 
d="M622.5 641.5q-26.5 -41.5 -75.5 -67.5v-344q0 -115 -65 -178.5t-179 -63.5t-179 63.5t-65 178.5v376q0 28 20 48t48 20t47.5 -20t19.5 -48v-377q0 -59 28 -91t81 -32t81 32t28 91v377q0 28 20 48t48 20q22 0 40 -13.5t24 -34.5q19 13 33.5 33t17.5 38q-4 -2 -13 -2
q-20 0 -33.5 14t-13.5 36t16 38t38 16q25 0 42.5 -19.5t17.5 -52.5q0 -44 -26.5 -85.5zM315 732.5q-15 11.5 -30 31.5q-11 15 -18 21.5t-16 6.5q-23 0 -30 -46q-2 -11 -10.5 -18.5t-19.5 -7.5q-14 0 -23.5 11t-7.5 25q7 50 31 77.5t63 27.5q23 0 38 -11.5t30 -32.5
q11 -14 18.5 -20.5t16.5 -6.5q10 0 18 11.5t11 34.5q1 11 10 18.5t20 7.5q14 0 23.5 -10.5t7.5 -24.5q-6 -51 -30 -78.5t-64 -27.5q-23 0 -38 11.5z" />
    <glyph glyph-name="uni1EF0" unicode="&#x1ef0;" horiz-adv-x="606" 
d="M622.5 641.5q-26.5 -41.5 -75.5 -67.5v-344q0 -115 -65 -178.5t-179 -63.5t-179 63.5t-65 178.5v376q0 28 20 48t48 20t47.5 -20t19.5 -48v-377q0 -59 28 -91t81 -32t81 32t28 91v377q0 28 20 48t48 20q22 0 40 -13.5t24 -34.5q19 13 33.5 33t17.5 38q-4 -2 -13 -2
q-20 0 -33.5 14t-13.5 36t16 38t38 16q25 0 42.5 -19.5t17.5 -52.5q0 -44 -26.5 -85.5zM257.5 -74.5q19.5 19.5 45.5 19.5t45 -19.5t19 -45.5q0 -27 -19 -46t-45 -19t-45.5 19t-19.5 46q0 26 19.5 45.5z" />
    <glyph glyph-name="Wacute" unicode="&#x1e82;" horiz-adv-x="767" 
d="M486.5 12.5q-23.5 19.5 -28.5 49.5l-75 382l-74 -382q-5 -30 -28.5 -49.5t-53.5 -19.5t-53 18.5t-29 46.5l-120 529q-2 5 -2 18q0 29 20 49t48 20q25 0 44 -16t23 -40l78 -415l86 421q5 22 22 36t40 14q22 0 39 -14t22 -36l87 -421l76 414q5 24 24 40.5t44 16.5
q28 0 48 -20t20 -49q0 -8 -2 -18l-119 -529q-7 -28 -30 -46.5t-53 -18.5t-53.5 19.5zM386 714q-13 0 -22.5 9.5t-9.5 22.5q0 10 6 19l72 96q11 17 31 17q16 0 27 -11.5t11 -27.5t-10 -26l-81 -87q-9 -12 -24 -12z" />
    <glyph glyph-name="Wcircumflex" unicode="&#x174;" horiz-adv-x="767" 
d="M486.5 12.5q-23.5 19.5 -28.5 49.5l-75 382l-74 -382q-5 -30 -28.5 -49.5t-53.5 -19.5t-53 18.5t-29 46.5l-120 529q-2 5 -2 18q0 29 20 49t48 20q25 0 44 -16t23 -40l78 -415l86 421q5 22 22 36t40 14q22 0 39 -14t22 -36l87 -421l76 414q5 24 24 40.5t44 16.5
q28 0 48 -20t20 -49q0 -8 -2 -18l-119 -529q-7 -28 -30 -46.5t-53 -18.5t-53.5 19.5zM384 814l-57 -84q-8 -13 -25 -13q-13 0 -22.5 9t-9.5 23q0 7 6 19l40 75q7 13 21.5 21.5t29.5 8.5h35q14 0 28.5 -8.5t21.5 -21.5l41 -75q5 -10 5 -19q0 -14 -9.5 -23t-22.5 -9
q-17 0 -25 13z" />
    <glyph glyph-name="Wdieresis" unicode="&#x1e84;" horiz-adv-x="767" 
d="M486.5 12.5q-23.5 19.5 -28.5 49.5l-75 382l-74 -382q-5 -30 -28.5 -49.5t-53.5 -19.5t-53 18.5t-29 46.5l-120 529q-2 5 -2 18q0 29 20 49t48 20q25 0 44 -16t23 -40l78 -415l86 421q5 22 22 36t40 14q22 0 39 -14t22 -36l87 -421l76 414q5 24 24 40.5t44 16.5
q28 0 48 -20t20 -49q0 -8 -2 -18l-119 -529q-7 -28 -30 -46.5t-53 -18.5t-53.5 19.5zM244 742q-19 19 -19 45q0 27 19 46t46 19t45.5 -19t18.5 -46q0 -26 -18.5 -45t-45.5 -19t-46 19zM431 741.5q-19 18.5 -19 45.5t19 46t46 19t46 -19t19 -46t-19 -45.5t-46 -18.5t-46 18.5
z" />
    <glyph glyph-name="Wgrave" unicode="&#x1e80;" horiz-adv-x="767" 
d="M486.5 12.5q-23.5 19.5 -28.5 49.5l-75 382l-74 -382q-5 -30 -28.5 -49.5t-53.5 -19.5t-53 18.5t-29 46.5l-120 529q-2 5 -2 18q0 29 20 49t48 20q25 0 44 -16t23 -40l78 -415l86 421q5 22 22 36t40 14q22 0 39 -14t22 -36l87 -421l76 414q5 24 24 40.5t44 16.5
q28 0 48 -20t20 -49q0 -8 -2 -18l-119 -529q-7 -28 -30 -46.5t-53 -18.5t-53.5 19.5zM278 813q-10 10 -10 26t11 27.5t27 11.5q20 0 31 -17l72 -96q6 -9 6 -19q0 -13 -9.5 -22.5t-22.5 -9.5q-15 0 -24 12z" />
    <glyph glyph-name="Yacute" unicode="&#xdd;" horiz-adv-x="537" 
d="M502 577l-166 -303v-213q0 -28 -19.5 -48t-47.5 -20t-47.5 20t-19.5 48v212l-167 304q-9 14 -9 32q0 27 19 46t46 19q18 0 33.5 -10t23.5 -27l121 -242l121 243q8 16 23.5 26t33.5 10q26 0 45 -19t19 -46q0 -19 -9 -32zM272 714q-13 0 -22.5 9.5t-9.5 22.5q0 10 6 19
l72 96q11 17 31 17q16 0 27 -11.5t11 -27.5t-10 -26l-81 -87q-9 -12 -24 -12z" />
    <glyph glyph-name="Ycircumflex" unicode="&#x176;" horiz-adv-x="537" 
d="M502 577l-166 -303v-213q0 -28 -19.5 -48t-47.5 -20t-47.5 20t-19.5 48v212l-167 304q-9 14 -9 32q0 27 19 46t46 19q18 0 33.5 -10t23.5 -27l121 -242l121 243q8 16 23.5 26t33.5 10q26 0 45 -19t19 -46q0 -19 -9 -32zM270 814l-57 -84q-8 -13 -25 -13q-13 0 -22.5 9
t-9.5 23q0 7 6 19l40 75q7 13 21.5 21.5t29.5 8.5h35q14 0 28.5 -8.5t21.5 -21.5l41 -75q5 -10 5 -19q0 -14 -9.5 -23t-22.5 -9q-17 0 -25 13z" />
    <glyph glyph-name="Ydieresis" unicode="&#x178;" horiz-adv-x="537" 
d="M502 577l-166 -303v-213q0 -28 -19.5 -48t-47.5 -20t-47.5 20t-19.5 48v212l-167 304q-9 14 -9 32q0 27 19 46t46 19q18 0 33.5 -10t23.5 -27l121 -242l121 243q8 16 23.5 26t33.5 10q26 0 45 -19t19 -46q0 -19 -9 -32zM130 742q-19 19 -19 45q0 27 19 46t46 19t45.5 -19
t18.5 -46q0 -26 -18.5 -45t-45.5 -19t-46 19zM317 741.5q-19 18.5 -19 45.5t19 46t46 19t46 -19t19 -46t-19 -45.5t-46 -18.5t-46 18.5z" />
    <glyph glyph-name="Ygrave" unicode="&#x1ef2;" horiz-adv-x="537" 
d="M502 577l-166 -303v-213q0 -28 -19.5 -48t-47.5 -20t-47.5 20t-19.5 48v212l-167 304q-9 14 -9 32q0 27 19 46t46 19q18 0 33.5 -10t23.5 -27l121 -242l121 243q8 16 23.5 26t33.5 10q26 0 45 -19t19 -46q0 -19 -9 -32zM164 813q-10 10 -10 26t11 27.5t27 11.5
q20 0 31 -17l72 -96q6 -9 6 -19q0 -13 -9.5 -22.5t-22.5 -9.5q-15 0 -24 12z" />
    <glyph glyph-name="uni0232" unicode="&#x232;" horiz-adv-x="537" 
d="M502 577l-166 -303v-213q0 -28 -19.5 -48t-47.5 -20t-47.5 20t-19.5 48v212l-167 304q-9 14 -9 32q0 27 19 46t46 19q18 0 33.5 -10t23.5 -27l121 -242l121 243q8 16 23.5 26t33.5 10q26 0 45 -19t19 -46q0 -19 -9 -32zM131.5 740q-10.5 10 -10.5 25q0 14 10.5 24
t24.5 10h225q14 0 24 -10t10 -24q0 -15 -10 -25t-24 -10h-225q-14 0 -24.5 10z" />
    <glyph glyph-name="uni1EF4" unicode="&#x1ef4;" horiz-adv-x="537" 
d="M502 577l-166 -303v-213q0 -28 -19.5 -48t-47.5 -20t-47.5 20t-19.5 48v212l-167 304q-9 14 -9 32q0 27 19 46t46 19q18 0 33.5 -10t23.5 -27l121 -242l121 243q8 16 23.5 26t33.5 10q26 0 45 -19t19 -46q0 -19 -9 -32zM223.5 -74.5q19.5 19.5 45.5 19.5t45 -19.5
t19 -45.5q0 -27 -19 -46t-45 -19t-45.5 19t-19.5 46q0 26 19.5 45.5z" />
    <glyph glyph-name="uni1EF6" unicode="&#x1ef6;" horiz-adv-x="537" 
d="M502 577l-166 -303v-213q0 -28 -19.5 -48t-47.5 -20t-47.5 20t-19.5 48v212l-167 304q-9 14 -9 32q0 27 19 46t46 19q18 0 33.5 -10t23.5 -27l121 -242l121 243q8 16 23.5 26t33.5 10q26 0 45 -19t19 -46q0 -19 -9 -32zM296.5 725.5q-8.5 7.5 -8.5 17.5q0 6 3 15
q5 15 5 33q0 19 -8.5 28.5t-22.5 9.5q-19 0 -30 -18q-8 -15 -26 -15q-12 0 -20 8.5t-8 20.5q0 10 7 19q25 39 78 39q40 0 65.5 -22.5t25.5 -67.5q0 -28 -14 -58q-9 -17 -27 -17q-11 0 -19.5 7.5z" />
    <glyph glyph-name="uni1EF8" unicode="&#x1ef8;" horiz-adv-x="537" 
d="M502 577l-166 -303v-213q0 -28 -19.5 -48t-47.5 -20t-47.5 20t-19.5 48v212l-167 304q-9 14 -9 32q0 27 19 46t46 19q18 0 33.5 -10t23.5 -27l121 -242l121 243q8 16 23.5 26t33.5 10q26 0 45 -19t19 -46q0 -19 -9 -32zM281 732.5q-15 11.5 -30 31.5q-11 15 -18 21.5
t-16 6.5q-23 0 -30 -46q-2 -11 -10.5 -18.5t-19.5 -7.5q-14 0 -23.5 11t-7.5 25q7 50 31 77.5t63 27.5q23 0 38 -11.5t30 -32.5q11 -14 18.5 -20.5t16.5 -6.5q10 0 18 11.5t11 34.5q1 11 10 18.5t20 7.5q14 0 23.5 -10.5t7.5 -24.5q-6 -51 -30 -78.5t-64 -27.5
q-23 0 -38 11.5z" />
    <glyph glyph-name="Zacute" unicode="&#x179;" horiz-adv-x="484" 
d="M51.5 22.5q-22.5 22.5 -22.5 54.5q0 20 10 37l238 435h-189q-24 0 -41.5 17.5t-17.5 41.5q0 25 17.5 42t41.5 17h285q31 0 53 -22t22 -53q0 -19 -10 -36l-240 -438h198q24 0 41.5 -17.5t17.5 -41.5q0 -25 -17.5 -42t-41.5 -17h-290q-32 0 -54.5 22.5zM245 714
q-13 0 -22.5 9.5t-9.5 22.5q0 10 6 19l72 96q11 17 31 17q16 0 27 -11.5t11 -27.5t-10 -26l-81 -87q-9 -12 -24 -12z" />
    <glyph glyph-name="Zcaron" unicode="&#x17d;" horiz-adv-x="484" 
d="M51.5 22.5q-22.5 22.5 -22.5 54.5q0 20 10 37l238 435h-189q-24 0 -41.5 17.5t-17.5 41.5q0 25 17.5 42t41.5 17h285q31 0 53 -22t22 -53q0 -19 -10 -36l-240 -438h198q24 0 41.5 -17.5t17.5 -41.5q0 -25 -17.5 -42t-41.5 -17h-290q-32 0 -54.5 22.5zM344.5 864
q9.5 -9 9.5 -23q0 -9 -5 -19l-41 -75q-7 -13 -21.5 -21.5t-28.5 -8.5h-35q-15 0 -29.5 8.5t-21.5 21.5l-40 75q-6 12 -6 19q0 14 9.5 23t22.5 9q17 0 25 -13l57 -84l57 84q8 13 25 13q13 0 22.5 -9z" />
    <glyph glyph-name="Zdotaccent" unicode="&#x17b;" horiz-adv-x="484" 
d="M51.5 22.5q-22.5 22.5 -22.5 54.5q0 20 10 37l238 435h-189q-24 0 -41.5 17.5t-17.5 41.5q0 25 17.5 42t41.5 17h285q31 0 53 -22t22 -53q0 -19 -10 -36l-240 -438h198q24 0 41.5 -17.5t17.5 -41.5q0 -25 -17.5 -42t-41.5 -17h-290q-32 0 -54.5 22.5zM197.5 832.5
q19.5 19.5 45.5 19.5t45 -19.5t19 -45.5q0 -27 -19 -46t-45 -19t-45.5 19t-19.5 46q0 26 19.5 45.5z" />
    <glyph glyph-name="Eth" unicode="&#xd0;" horiz-adv-x="620" 
d="M453.5 625q65.5 -42 100 -118t34.5 -174t-34.5 -173.5t-100 -117.5t-155.5 -42h-144q-34 0 -52.5 18.5t-18.5 52.5v209h-26q-21 0 -36.5 14.5t-15.5 35.5t15.5 36t36.5 15h26v215q0 35 18.5 53t52.5 18h143q91 0 156.5 -42zM410 177q40 59 40 156q0 101 -39.5 158.5
t-113.5 57.5h-80v-168h64q21 0 36 -15t15 -36t-15 -35.5t-36 -14.5h-64v-162h80q73 0 113 59z" />
    <glyph glyph-name="Thorn" unicode="&#xde;" horiz-adv-x="533" 
d="M78.5 13q-19.5 20 -19.5 48v545q0 28 19.5 48t47.5 20t47.5 -20t19.5 -48v-48h112q66 0 112.5 -29t70 -77.5t23.5 -107.5q0 -58 -23.5 -106.5t-70 -77t-112.5 -28.5h-112v-71q0 -28 -19.5 -48t-47.5 -20t-47.5 20zM350.5 414.5q-23.5 26.5 -63.5 26.5h-94v-192h94
q40 0 63.5 26t23.5 69q0 44 -23.5 70.5z" />
    <glyph glyph-name="aacute" unicode="&#xe1;" 
d="M373.5 453.5q51.5 -41.5 51.5 -129.5v-269q0 -26 -18 -44t-43 -18q-23 0 -40.5 16t-20.5 39q-19 -28 -53.5 -44t-72.5 -16q-39 0 -73 19t-55 55.5t-21 85.5q0 75 43.5 115.5t105.5 40.5q39 0 73.5 -14.5t53.5 -42.5v64q0 39 -23.5 61.5t-65.5 22.5q-45 0 -86 -27
q-10 -6 -24 -6q-19 0 -33 13.5t-14 32.5q0 13 6 23.5t16 16.5q71 47 157 47q85 0 136.5 -41.5zM270 81q22 12 34 34v62q-12 22 -34 34.5t-47 12.5q-34 0 -54.5 -21.5t-20.5 -56.5t20.5 -56t54.5 -21q25 0 47 12zM244 567q-13 0 -22.5 9.5t-9.5 22.5q0 10 6 19l72 96
q11 17 31 17q16 0 27 -11.5t11 -27.5t-10 -26l-81 -87q-9 -12 -24 -12z" />
    <glyph glyph-name="abreve" unicode="&#x103;" 
d="M373.5 453.5q51.5 -41.5 51.5 -129.5v-269q0 -26 -18 -44t-43 -18q-23 0 -40.5 16t-20.5 39q-19 -28 -53.5 -44t-72.5 -16q-39 0 -73 19t-55 55.5t-21 85.5q0 75 43.5 115.5t105.5 40.5q39 0 73.5 -14.5t53.5 -42.5v64q0 39 -23.5 61.5t-65.5 22.5q-45 0 -86 -27
q-10 -6 -24 -6q-19 0 -33 13.5t-14 32.5q0 13 6 23.5t16 16.5q71 47 157 47q85 0 136.5 -41.5zM270 81q22 12 34 34v62q-12 22 -34 34.5t-47 12.5q-34 0 -54.5 -21.5t-20.5 -56.5t20.5 -56t54.5 -21q25 0 47 12zM173 584q-33 13 -59 37q-12 10 -12 26q0 14 10.5 24.5
t24.5 10.5q15 0 24 -9q35 -33 80 -33q46 0 80 32q10 10 24 10t24 -10.5t10 -24.5t-11 -25q-54 -51 -127 -51q-35 0 -68 13z" />
    <glyph glyph-name="acircumflex" unicode="&#xe2;" 
d="M373.5 453.5q51.5 -41.5 51.5 -129.5v-269q0 -26 -18 -44t-43 -18q-23 0 -40.5 16t-20.5 39q-19 -28 -53.5 -44t-72.5 -16q-39 0 -73 19t-55 55.5t-21 85.5q0 75 43.5 115.5t105.5 40.5q39 0 73.5 -14.5t53.5 -42.5v64q0 39 -23.5 61.5t-65.5 22.5q-45 0 -86 -27
q-10 -6 -24 -6q-19 0 -33 13.5t-14 32.5q0 13 6 23.5t16 16.5q71 47 157 47q85 0 136.5 -41.5zM270 81q22 12 34 34v62q-12 22 -34 34.5t-47 12.5q-34 0 -54.5 -21.5t-20.5 -56.5t20.5 -56t54.5 -21q25 0 47 12zM242 667l-57 -84q-8 -13 -25 -13q-13 0 -22.5 9t-9.5 23
q0 7 6 19l40 75q7 13 21.5 21.5t29.5 8.5h35q14 0 28.5 -8.5t21.5 -21.5l41 -75q5 -10 5 -19q0 -14 -9.5 -23t-22.5 -9q-17 0 -25 13z" />
    <glyph glyph-name="adieresis" unicode="&#xe4;" 
d="M373.5 453.5q51.5 -41.5 51.5 -129.5v-269q0 -26 -18 -44t-43 -18q-23 0 -40.5 16t-20.5 39q-19 -28 -53.5 -44t-72.5 -16q-39 0 -73 19t-55 55.5t-21 85.5q0 75 43.5 115.5t105.5 40.5q39 0 73.5 -14.5t53.5 -42.5v64q0 39 -23.5 61.5t-65.5 22.5q-45 0 -86 -27
q-10 -6 -24 -6q-19 0 -33 13.5t-14 32.5q0 13 6 23.5t16 16.5q71 47 157 47q85 0 136.5 -41.5zM270 81q22 12 34 34v62q-12 22 -34 34.5t-47 12.5q-34 0 -54.5 -21.5t-20.5 -56.5t20.5 -56t54.5 -21q25 0 47 12zM102 595q-19 19 -19 45q0 27 19 46t46 19t45.5 -19t18.5 -46
q0 -26 -18.5 -45t-45.5 -19t-46 19zM289 594.5q-19 18.5 -19 45.5t19 46t46 19t46 -19t19 -46t-19 -45.5t-46 -18.5t-46 18.5z" />
    <glyph glyph-name="agrave" unicode="&#xe0;" 
d="M373.5 453.5q51.5 -41.5 51.5 -129.5v-269q0 -26 -18 -44t-43 -18q-23 0 -40.5 16t-20.5 39q-19 -28 -53.5 -44t-72.5 -16q-39 0 -73 19t-55 55.5t-21 85.5q0 75 43.5 115.5t105.5 40.5q39 0 73.5 -14.5t53.5 -42.5v64q0 39 -23.5 61.5t-65.5 22.5q-45 0 -86 -27
q-10 -6 -24 -6q-19 0 -33 13.5t-14 32.5q0 13 6 23.5t16 16.5q71 47 157 47q85 0 136.5 -41.5zM270 81q22 12 34 34v62q-12 22 -34 34.5t-47 12.5q-34 0 -54.5 -21.5t-20.5 -56.5t20.5 -56t54.5 -21q25 0 47 12zM136 666q-10 10 -10 26t11 27.5t27 11.5q20 0 31 -17l72 -96
q6 -9 6 -19q0 -13 -9.5 -22.5t-22.5 -9.5q-15 0 -24 12z" />
    <glyph glyph-name="amacron" unicode="&#x101;" 
d="M373.5 453.5q51.5 -41.5 51.5 -129.5v-269q0 -26 -18 -44t-43 -18q-23 0 -40.5 16t-20.5 39q-19 -28 -53.5 -44t-72.5 -16q-39 0 -73 19t-55 55.5t-21 85.5q0 75 43.5 115.5t105.5 40.5q39 0 73.5 -14.5t53.5 -42.5v64q0 39 -23.5 61.5t-65.5 22.5q-45 0 -86 -27
q-10 -6 -24 -6q-19 0 -33 13.5t-14 32.5q0 13 6 23.5t16 16.5q71 47 157 47q85 0 136.5 -41.5zM270 81q22 12 34 34v62q-12 22 -34 34.5t-47 12.5q-34 0 -54.5 -21.5t-20.5 -56.5t20.5 -56t54.5 -21q25 0 47 12zM104.5 593q-10.5 10 -10.5 25q0 14 10.5 24t24.5 10h225
q14 0 24 -10t10 -24q0 -15 -10 -25t-24 -10h-225q-14 0 -24.5 10z" />
    <glyph glyph-name="aogonek" unicode="&#x105;" 
d="M347 -42q-11 -15 -11 -33q0 -14 10 -23t24 -9q5 0 9 1t7 1q15 0 26 -11t11 -27q0 -15 -9 -24t-19 -12q-22 -7 -56 -7q-43 0 -73.5 20.5t-30.5 59.5q0 35 28.5 62t74.5 43q-14 7 -23.5 20t-11.5 29q-19 -28 -53.5 -44t-72.5 -16q-39 0 -73 19t-55 55.5t-21 85.5
q0 75 43.5 115.5t105.5 40.5q39 0 73.5 -14.5t53.5 -42.5v64q0 39 -23.5 61.5t-65.5 22.5q-45 0 -86 -27q-10 -6 -24 -6q-19 0 -33 13.5t-14 32.5q0 13 6 23.5t16 16.5q71 47 157 47q85 0 136.5 -41.5t51.5 -129.5v-269q0 -20 -11.5 -36t-29.5 -23q-26 -23 -37 -38zM270 81
q22 12 34 34v62q-12 22 -34 34.5t-47 12.5q-34 0 -54.5 -21.5t-20.5 -56.5t20.5 -56t54.5 -21q25 0 47 12z" />
    <glyph glyph-name="aring" unicode="&#xe5;" 
d="M373.5 453.5q51.5 -41.5 51.5 -129.5v-269q0 -26 -18 -44t-43 -18q-23 0 -40.5 16t-20.5 39q-19 -28 -53.5 -44t-72.5 -16q-39 0 -73 19t-55 55.5t-21 85.5q0 75 43.5 115.5t105.5 40.5q39 0 73.5 -14.5t53.5 -42.5v64q0 39 -23.5 61.5t-65.5 22.5q-45 0 -86 -27
q-10 -6 -24 -6q-19 0 -33 13.5t-14 32.5q0 13 6 23.5t16 16.5q71 47 157 47q85 0 136.5 -41.5zM270 81q22 12 34 34v62q-12 22 -34 34.5t-47 12.5q-34 0 -54.5 -21.5t-20.5 -56.5t20.5 -56t54.5 -21q25 0 47 12zM173.5 719.5q28.5 28.5 68.5 28.5t68 -28.5t28 -68.5
t-28 -68.5t-68 -28.5t-68.5 28.5t-28.5 68.5t28.5 68.5zM272 681.5q-12 12.5 -30 12.5q-17 0 -30 -13t-13 -30q0 -18 13 -30.5t30 -12.5q18 0 30 12.5t12 30.5t-12 30.5z" />
    <glyph glyph-name="aringacute" unicode="&#x1fb;" 
d="M373.5 453.5q51.5 -41.5 51.5 -129.5v-269q0 -26 -18 -44t-43 -18q-23 0 -40.5 16t-20.5 39q-19 -28 -53.5 -44t-72.5 -16q-39 0 -73 19t-55 55.5t-21 85.5q0 75 43.5 115.5t105.5 40.5q39 0 73.5 -14.5t53.5 -42.5v64q0 39 -23.5 61.5t-65.5 22.5q-45 0 -86 -27
q-10 -6 -24 -6q-19 0 -33 13.5t-14 32.5q0 13 6 23.5t16 16.5q71 47 157 47q85 0 136.5 -41.5zM270 81q22 12 34 34v62q-12 22 -34 34.5t-47 12.5q-34 0 -54.5 -21.5t-20.5 -56.5t20.5 -56t54.5 -21q25 0 47 12zM173.5 719.5q28.5 28.5 68.5 28.5t68 -28.5t28 -68.5
t-28 -68.5t-68 -28.5t-68.5 28.5t-28.5 68.5t28.5 68.5zM272 681.5q-12 12.5 -30 12.5q-17 0 -30 -13t-13 -30q0 -18 13 -30.5t30 -12.5q18 0 30 12.5t12 30.5t-12 30.5zM244 769q-13 0 -22.5 9.5t-9.5 22.5q0 10 6 19l72 96q11 17 31 17q16 0 27 -11.5t11 -27.5t-10 -26
l-81 -87q-9 -12 -24 -12z" />
    <glyph glyph-name="atilde" unicode="&#xe3;" 
d="M373.5 453.5q51.5 -41.5 51.5 -129.5v-269q0 -26 -18 -44t-43 -18q-23 0 -40.5 16t-20.5 39q-19 -28 -53.5 -44t-72.5 -16q-39 0 -73 19t-55 55.5t-21 85.5q0 75 43.5 115.5t105.5 40.5q39 0 73.5 -14.5t53.5 -42.5v64q0 39 -23.5 61.5t-65.5 22.5q-45 0 -86 -27
q-10 -6 -24 -6q-19 0 -33 13.5t-14 32.5q0 13 6 23.5t16 16.5q71 47 157 47q85 0 136.5 -41.5zM270 81q22 12 34 34v62q-12 22 -34 34.5t-47 12.5q-34 0 -54.5 -21.5t-20.5 -56.5t20.5 -56t54.5 -21q25 0 47 12zM253 585.5q-15 11.5 -30 31.5q-11 15 -18 21.5t-16 6.5
q-23 0 -30 -46q-2 -11 -10.5 -18.5t-19.5 -7.5q-14 0 -23.5 11t-7.5 25q7 50 31 77.5t63 27.5q23 0 38 -11.5t30 -32.5q11 -14 18.5 -20.5t16.5 -6.5q10 0 18 11.5t11 34.5q1 11 10 18.5t20 7.5q14 0 23.5 -10.5t7.5 -24.5q-6 -51 -30 -78.5t-64 -27.5q-23 0 -38 11.5z" />
    <glyph glyph-name="uni1EA1" unicode="&#x1ea1;" 
d="M373.5 453.5q51.5 -41.5 51.5 -129.5v-269q0 -26 -18 -44t-43 -18q-23 0 -40.5 16t-20.5 39q-19 -28 -53.5 -44t-72.5 -16q-39 0 -73 19t-55 55.5t-21 85.5q0 75 43.5 115.5t105.5 40.5q39 0 73.5 -14.5t53.5 -42.5v64q0 39 -23.5 61.5t-65.5 22.5q-45 0 -86 -27
q-10 -6 -24 -6q-19 0 -33 13.5t-14 32.5q0 13 6 23.5t16 16.5q71 47 157 47q85 0 136.5 -41.5zM270 81q22 12 34 34v62q-12 22 -34 34.5t-47 12.5q-34 0 -54.5 -21.5t-20.5 -56.5t20.5 -56t54.5 -21q25 0 47 12zM195.5 -74.5q19.5 19.5 45.5 19.5t45 -19.5t19 -45.5
q0 -27 -19 -46t-45 -19t-45.5 19t-19.5 46q0 26 19.5 45.5z" />
    <glyph glyph-name="uni1EA3" unicode="&#x1ea3;" 
d="M373.5 453.5q51.5 -41.5 51.5 -129.5v-269q0 -26 -18 -44t-43 -18q-23 0 -40.5 16t-20.5 39q-19 -28 -53.5 -44t-72.5 -16q-39 0 -73 19t-55 55.5t-21 85.5q0 75 43.5 115.5t105.5 40.5q39 0 73.5 -14.5t53.5 -42.5v64q0 39 -23.5 61.5t-65.5 22.5q-45 0 -86 -27
q-10 -6 -24 -6q-19 0 -33 13.5t-14 32.5q0 13 6 23.5t16 16.5q71 47 157 47q85 0 136.5 -41.5zM270 81q22 12 34 34v62q-12 22 -34 34.5t-47 12.5q-34 0 -54.5 -21.5t-20.5 -56.5t20.5 -56t54.5 -21q25 0 47 12zM268.5 578.5q-8.5 7.5 -8.5 17.5q0 6 3 15q5 15 5 33
q0 19 -8.5 28.5t-22.5 9.5q-19 0 -30 -18q-8 -15 -26 -15q-12 0 -20 8.5t-8 20.5q0 10 7 19q25 39 78 39q40 0 65.5 -22.5t25.5 -67.5q0 -28 -14 -58q-9 -17 -27 -17q-11 0 -19.5 7.5z" />
    <glyph glyph-name="uni1EA5" unicode="&#x1ea5;" 
d="M373.5 453.5q51.5 -41.5 51.5 -129.5v-269q0 -26 -18 -44t-43 -18q-23 0 -40.5 16t-20.5 39q-19 -28 -53.5 -44t-72.5 -16q-39 0 -73 19t-55 55.5t-21 85.5q0 75 43.5 115.5t105.5 40.5q39 0 73.5 -14.5t53.5 -42.5v64q0 39 -23.5 61.5t-65.5 22.5q-45 0 -86 -27
q-10 -6 -24 -6q-19 0 -33 13.5t-14 32.5q0 13 6 23.5t16 16.5q71 47 157 47q85 0 136.5 -41.5zM270 81q22 12 34 34v62q-12 22 -34 34.5t-47 12.5q-34 0 -54.5 -21.5t-20.5 -56.5t20.5 -56t54.5 -21q25 0 47 12zM242 667l-57 -84q-8 -13 -25 -13q-13 0 -22.5 9t-9.5 23
q0 7 6 19l40 75q7 13 21.5 21.5t29.5 8.5h35q14 0 28.5 -8.5t21.5 -21.5l41 -75q5 -10 5 -19q0 -14 -9.5 -23t-22.5 -9q-17 0 -25 13zM389 667q-13 0 -22.5 9.5t-9.5 22.5q0 10 6 19l72 96q11 17 31 17q16 0 27 -11.5t11 -27.5t-10 -26l-81 -87q-9 -12 -24 -12z" />
    <glyph glyph-name="uni1EAD" unicode="&#x1ead;" 
d="M373.5 453.5q51.5 -41.5 51.5 -129.5v-269q0 -26 -18 -44t-43 -18q-23 0 -40.5 16t-20.5 39q-19 -28 -53.5 -44t-72.5 -16q-39 0 -73 19t-55 55.5t-21 85.5q0 75 43.5 115.5t105.5 40.5q39 0 73.5 -14.5t53.5 -42.5v64q0 39 -23.5 61.5t-65.5 22.5q-45 0 -86 -27
q-10 -6 -24 -6q-19 0 -33 13.5t-14 32.5q0 13 6 23.5t16 16.5q71 47 157 47q85 0 136.5 -41.5zM270 81q22 12 34 34v62q-12 22 -34 34.5t-47 12.5q-34 0 -54.5 -21.5t-20.5 -56.5t20.5 -56t54.5 -21q25 0 47 12zM242 667l-57 -84q-8 -13 -25 -13q-13 0 -22.5 9t-9.5 23
q0 7 6 19l40 75q7 13 21.5 21.5t29.5 8.5h35q14 0 28.5 -8.5t21.5 -21.5l41 -75q5 -10 5 -19q0 -14 -9.5 -23t-22.5 -9q-17 0 -25 13zM195.5 -74.5q19.5 19.5 45.5 19.5t45 -19.5t19 -45.5q0 -27 -19 -46t-45 -19t-45.5 19t-19.5 46q0 26 19.5 45.5z" />
    <glyph glyph-name="uni1EA7" unicode="&#x1ea7;" 
d="M373.5 453.5q51.5 -41.5 51.5 -129.5v-269q0 -26 -18 -44t-43 -18q-23 0 -40.5 16t-20.5 39q-19 -28 -53.5 -44t-72.5 -16q-39 0 -73 19t-55 55.5t-21 85.5q0 75 43.5 115.5t105.5 40.5q39 0 73.5 -14.5t53.5 -42.5v64q0 39 -23.5 61.5t-65.5 22.5q-45 0 -86 -27
q-10 -6 -24 -6q-19 0 -33 13.5t-14 32.5q0 13 6 23.5t16 16.5q71 47 157 47q85 0 136.5 -41.5zM270 81q22 12 34 34v62q-12 22 -34 34.5t-47 12.5q-34 0 -54.5 -21.5t-20.5 -56.5t20.5 -56t54.5 -21q25 0 47 12zM242 667l-57 -84q-8 -13 -25 -13q-13 0 -22.5 9t-9.5 23
q0 7 6 19l40 75q7 13 21.5 21.5t29.5 8.5h35q14 0 28.5 -8.5t21.5 -21.5l41 -75q5 -10 5 -19q0 -14 -9.5 -23t-22.5 -9q-17 0 -25 13zM-7 766q-10 10 -10 26t11 27.5t27 11.5q20 0 31 -17l72 -96q6 -9 6 -19q0 -13 -9.5 -22.5t-22.5 -9.5q-15 0 -24 12z" />
    <glyph glyph-name="uni1EA9" unicode="&#x1ea9;" 
d="M373.5 453.5q51.5 -41.5 51.5 -129.5v-269q0 -26 -18 -44t-43 -18q-23 0 -40.5 16t-20.5 39q-19 -28 -53.5 -44t-72.5 -16q-39 0 -73 19t-55 55.5t-21 85.5q0 75 43.5 115.5t105.5 40.5q39 0 73.5 -14.5t53.5 -42.5v64q0 39 -23.5 61.5t-65.5 22.5q-45 0 -86 -27
q-10 -6 -24 -6q-19 0 -33 13.5t-14 32.5q0 13 6 23.5t16 16.5q71 47 157 47q85 0 136.5 -41.5zM270 81q22 12 34 34v62q-12 22 -34 34.5t-47 12.5q-34 0 -54.5 -21.5t-20.5 -56.5t20.5 -56t54.5 -21q25 0 47 12zM242 667l-57 -84q-8 -13 -25 -13q-13 0 -22.5 9t-9.5 23
q0 7 6 19l40 75q7 13 21.5 21.5t29.5 8.5h35q14 0 28.5 -8.5t21.5 -21.5l41 -75q5 -10 5 -19q0 -14 -9.5 -23t-22.5 -9q-17 0 -25 13zM374.5 677.5q-8.5 7.5 -8.5 17.5q0 6 3 15q5 15 5 33q0 19 -8.5 28.5t-22.5 9.5q-19 0 -30 -18q-8 -15 -26 -15q-12 0 -20 8.5t-8 20.5
q0 10 7 19q25 39 78 39q40 0 65.5 -22.5t25.5 -67.5q0 -28 -14 -58q-9 -17 -27 -17q-11 0 -19.5 7.5z" />
    <glyph glyph-name="uni1EAF" unicode="&#x1eaf;" 
d="M373.5 453.5q51.5 -41.5 51.5 -129.5v-269q0 -26 -18 -44t-43 -18q-23 0 -40.5 16t-20.5 39q-19 -28 -53.5 -44t-72.5 -16q-39 0 -73 19t-55 55.5t-21 85.5q0 75 43.5 115.5t105.5 40.5q39 0 73.5 -14.5t53.5 -42.5v64q0 39 -23.5 61.5t-65.5 22.5q-45 0 -86 -27
q-10 -6 -24 -6q-19 0 -33 13.5t-14 32.5q0 13 6 23.5t16 16.5q71 47 157 47q85 0 136.5 -41.5zM270 81q22 12 34 34v62q-12 22 -34 34.5t-47 12.5q-34 0 -54.5 -21.5t-20.5 -56.5t20.5 -56t54.5 -21q25 0 47 12zM173 584q-33 13 -59 37q-12 10 -12 26q0 14 10.5 24.5
t24.5 10.5q15 0 24 -9q35 -33 80 -33q46 0 80 32q10 10 24 10t24 -10.5t10 -24.5t-11 -25q-54 -51 -127 -51q-35 0 -68 13zM244 698q-13 0 -22.5 9.5t-9.5 22.5q0 10 6 19l72 96q11 17 31 17q16 0 27 -11.5t11 -27.5t-10 -26l-81 -87q-9 -12 -24 -12z" />
    <glyph glyph-name="uni1EAB" unicode="&#x1eab;" 
d="M373.5 453.5q51.5 -41.5 51.5 -129.5v-269q0 -26 -18 -44t-43 -18q-23 0 -40.5 16t-20.5 39q-19 -28 -53.5 -44t-72.5 -16q-39 0 -73 19t-55 55.5t-21 85.5q0 75 43.5 115.5t105.5 40.5q39 0 73.5 -14.5t53.5 -42.5v64q0 39 -23.5 61.5t-65.5 22.5q-45 0 -86 -27
q-10 -6 -24 -6q-19 0 -33 13.5t-14 32.5q0 13 6 23.5t16 16.5q71 47 157 47q85 0 136.5 -41.5zM270 81q22 12 34 34v62q-12 22 -34 34.5t-47 12.5q-34 0 -54.5 -21.5t-20.5 -56.5t20.5 -56t54.5 -21q25 0 47 12zM242 667l-57 -84q-8 -13 -25 -13q-13 0 -22.5 9t-9.5 23
q0 7 6 19l40 75q7 13 21.5 21.5t29.5 8.5h35q14 0 28.5 -8.5t21.5 -21.5l41 -75q5 -10 5 -19q0 -14 -9.5 -23t-22.5 -9q-17 0 -25 13zM253 757.5q-15 11.5 -30 31.5q-11 15 -18 21.5t-16 6.5q-23 0 -30 -46q-2 -11 -10.5 -18.5t-19.5 -7.5q-14 0 -23.5 11t-7.5 25
q7 50 31 77.5t63 27.5q23 0 38 -11.5t30 -32.5q11 -14 18.5 -20.5t16.5 -6.5q10 0 18 11.5t11 34.5q1 11 10 18.5t20 7.5q14 0 23.5 -10.5t7.5 -24.5q-6 -51 -30 -78.5t-64 -27.5q-23 0 -38 11.5z" />
    <glyph glyph-name="uni1EB1" unicode="&#x1eb1;" 
d="M373.5 453.5q51.5 -41.5 51.5 -129.5v-269q0 -26 -18 -44t-43 -18q-23 0 -40.5 16t-20.5 39q-19 -28 -53.5 -44t-72.5 -16q-39 0 -73 19t-55 55.5t-21 85.5q0 75 43.5 115.5t105.5 40.5q39 0 73.5 -14.5t53.5 -42.5v64q0 39 -23.5 61.5t-65.5 22.5q-45 0 -86 -27
q-10 -6 -24 -6q-19 0 -33 13.5t-14 32.5q0 13 6 23.5t16 16.5q71 47 157 47q85 0 136.5 -41.5zM270 81q22 12 34 34v62q-12 22 -34 34.5t-47 12.5q-34 0 -54.5 -21.5t-20.5 -56.5t20.5 -56t54.5 -21q25 0 47 12zM173 584q-33 13 -59 37q-12 10 -12 26q0 14 10.5 24.5
t24.5 10.5q15 0 24 -9q35 -33 80 -33q46 0 80 32q10 10 24 10t24 -10.5t10 -24.5t-11 -25q-54 -51 -127 -51q-35 0 -68 13zM136 797q-10 10 -10 26t11 27.5t27 11.5q20 0 31 -17l72 -96q6 -9 6 -19q0 -13 -9.5 -22.5t-22.5 -9.5q-15 0 -24 12z" />
    <glyph glyph-name="uni1EB3" unicode="&#x1eb3;" 
d="M373.5 453.5q51.5 -41.5 51.5 -129.5v-269q0 -26 -18 -44t-43 -18q-23 0 -40.5 16t-20.5 39q-19 -28 -53.5 -44t-72.5 -16q-39 0 -73 19t-55 55.5t-21 85.5q0 75 43.5 115.5t105.5 40.5q39 0 73.5 -14.5t53.5 -42.5v64q0 39 -23.5 61.5t-65.5 22.5q-45 0 -86 -27
q-10 -6 -24 -6q-19 0 -33 13.5t-14 32.5q0 13 6 23.5t16 16.5q71 47 157 47q85 0 136.5 -41.5zM270 81q22 12 34 34v62q-12 22 -34 34.5t-47 12.5q-34 0 -54.5 -21.5t-20.5 -56.5t20.5 -56t54.5 -21q25 0 47 12zM173 584q-33 13 -59 37q-12 10 -12 26q0 14 10.5 24.5
t24.5 10.5q15 0 24 -9q35 -33 80 -33q46 0 80 32q10 10 24 10t24 -10.5t10 -24.5t-11 -25q-54 -51 -127 -51q-35 0 -68 13zM268.5 709.5q-8.5 7.5 -8.5 17.5q0 6 3 15q5 15 5 33q0 19 -8.5 28.5t-22.5 9.5q-19 0 -30 -18q-8 -15 -26 -15q-12 0 -20 8.5t-8 20.5q0 10 7 19
q25 39 78 39q40 0 65.5 -22.5t25.5 -67.5q0 -28 -14 -58q-9 -17 -27 -17q-11 0 -19.5 7.5z" />
    <glyph glyph-name="uni1EB5" unicode="&#x1eb5;" 
d="M373.5 453.5q51.5 -41.5 51.5 -129.5v-269q0 -26 -18 -44t-43 -18q-23 0 -40.5 16t-20.5 39q-19 -28 -53.5 -44t-72.5 -16q-39 0 -73 19t-55 55.5t-21 85.5q0 75 43.5 115.5t105.5 40.5q39 0 73.5 -14.5t53.5 -42.5v64q0 39 -23.5 61.5t-65.5 22.5q-45 0 -86 -27
q-10 -6 -24 -6q-19 0 -33 13.5t-14 32.5q0 13 6 23.5t16 16.5q71 47 157 47q85 0 136.5 -41.5zM270 81q22 12 34 34v62q-12 22 -34 34.5t-47 12.5q-34 0 -54.5 -21.5t-20.5 -56.5t20.5 -56t54.5 -21q25 0 47 12zM173 584q-33 13 -59 37q-12 10 -12 26q0 14 10.5 24.5
t24.5 10.5q15 0 24 -9q35 -33 80 -33q46 0 80 32q10 10 24 10t24 -10.5t10 -24.5t-11 -25q-54 -51 -127 -51q-35 0 -68 13zM253 716.5q-15 11.5 -30 31.5q-11 15 -18 21.5t-16 6.5q-23 0 -30 -46q-2 -11 -10.5 -18.5t-19.5 -7.5q-14 0 -23.5 11t-7.5 25q7 50 31 77.5
t63 27.5q23 0 38 -11.5t30 -32.5q11 -14 18.5 -20.5t16.5 -6.5q10 0 18 11.5t11 34.5q1 11 10 18.5t20 7.5q14 0 23.5 -10.5t7.5 -24.5q-6 -51 -30 -78.5t-64 -27.5q-23 0 -38 11.5z" />
    <glyph glyph-name="uni1EB7" unicode="&#x1eb7;" 
d="M373.5 453.5q51.5 -41.5 51.5 -129.5v-269q0 -26 -18 -44t-43 -18q-23 0 -40.5 16t-20.5 39q-19 -28 -53.5 -44t-72.5 -16q-39 0 -73 19t-55 55.5t-21 85.5q0 75 43.5 115.5t105.5 40.5q39 0 73.5 -14.5t53.5 -42.5v64q0 39 -23.5 61.5t-65.5 22.5q-45 0 -86 -27
q-10 -6 -24 -6q-19 0 -33 13.5t-14 32.5q0 13 6 23.5t16 16.5q71 47 157 47q85 0 136.5 -41.5zM270 81q22 12 34 34v62q-12 22 -34 34.5t-47 12.5q-34 0 -54.5 -21.5t-20.5 -56.5t20.5 -56t54.5 -21q25 0 47 12zM173 584q-33 13 -59 37q-12 10 -12 26q0 14 10.5 24.5
t24.5 10.5q15 0 24 -9q35 -33 80 -33q46 0 80 32q10 10 24 10t24 -10.5t10 -24.5t-11 -25q-54 -51 -127 -51q-35 0 -68 13zM195.5 -74.5q19.5 19.5 45.5 19.5t45 -19.5t19 -45.5q0 -27 -19 -46t-45 -19t-45.5 19t-19.5 46q0 26 19.5 45.5z" />
    <glyph glyph-name="ae" unicode="&#xe6;" horiz-adv-x="751" 
d="M466.5 118.5q28.5 -32.5 78.5 -32.5q38 0 72 24q11 8 25 8q19 0 32.5 -14t13.5 -33q0 -23 -21 -38q-30 -22 -64.5 -33.5t-68.5 -11.5q-54 0 -92 20t-67 61q-27 -36 -71 -58.5t-101 -22.5q-77 0 -126 41.5t-49 116.5q0 74 43.5 116.5t110.5 42.5q40 0 76.5 -14.5
t57.5 -41.5v62q0 39 -25 61.5t-70 22.5q-48 0 -92 -27q-10 -7 -24 -7q-19 0 -33 14t-14 33q0 13 6 23.5t16 16.5q36 24 76.5 35.5t78.5 11.5q54 0 90.5 -20.5t53.5 -55.5q25 35 60 55.5t89 20.5q60 0 105 -32t68.5 -85t23.5 -116q0 -29 -18.5 -44t-52.5 -15h-220
q4 -52 32.5 -84.5zM587 364q-21 34 -65 34t-65.5 -34.5t-23.5 -78.5h176q-1 45 -22 79zM278 211.5q-24 12.5 -51 12.5q-35 0 -57.5 -19.5t-22.5 -52.5q0 -34 22 -52.5t57 -18.5q36 0 63 25.5t27 56.5v14q-14 22 -38 34.5z" />
    <glyph glyph-name="aeacute" unicode="&#x1fd;" horiz-adv-x="751" 
d="M466.5 118.5q28.5 -32.5 78.5 -32.5q38 0 72 24q11 8 25 8q19 0 32.5 -14t13.5 -33q0 -23 -21 -38q-30 -22 -64.5 -33.5t-68.5 -11.5q-54 0 -92 20t-67 61q-27 -36 -71 -58.5t-101 -22.5q-77 0 -126 41.5t-49 116.5q0 74 43.5 116.5t110.5 42.5q40 0 76.5 -14.5
t57.5 -41.5v62q0 39 -25 61.5t-70 22.5q-48 0 -92 -27q-10 -7 -24 -7q-19 0 -33 14t-14 33q0 13 6 23.5t16 16.5q36 24 76.5 35.5t78.5 11.5q54 0 90.5 -20.5t53.5 -55.5q25 35 60 55.5t89 20.5q60 0 105 -32t68.5 -85t23.5 -116q0 -29 -18.5 -44t-52.5 -15h-220
q4 -52 32.5 -84.5zM587 364q-21 34 -65 34t-65.5 -34.5t-23.5 -78.5h176q-1 45 -22 79zM278 211.5q-24 12.5 -51 12.5q-35 0 -57.5 -19.5t-22.5 -52.5q0 -34 22 -52.5t57 -18.5q36 0 63 25.5t27 56.5v14q-14 22 -38 34.5zM379 567q-13 0 -22.5 9.5t-9.5 22.5q0 10 6 19
l72 96q11 17 31 17q16 0 27 -11.5t11 -27.5t-10 -26l-81 -87q-9 -12 -24 -12z" />
    <glyph glyph-name="aacute.alt1" horiz-adv-x="504" 
d="M432.5 472q17.5 -18 17.5 -43v-375q0 -25 -17.5 -43t-42.5 -18t-43 18t-18 43v6q-22 -35 -54 -53.5t-67 -18.5q-82 0 -130.5 67.5t-48.5 185.5q0 77 22 134.5t62.5 88.5t94.5 31q36 0 68.5 -18.5t52.5 -54.5v9q0 25 18 42t43 17t42.5 -18zM294 110.5q24 16.5 36 40.5v180
q-12 24 -36 40.5t-48 16.5q-44 0 -68.5 -40.5t-24.5 -106.5q0 -65 24.5 -106t68.5 -41q24 0 48 16.5zM259 567q-13 0 -22.5 9.5t-9.5 22.5q0 10 6 19l72 96q11 17 31 17q16 0 27 -11.5t11 -27.5t-10 -26l-81 -87q-9 -12 -24 -12z" />
    <glyph glyph-name="abreve.alt1" horiz-adv-x="504" 
d="M432.5 472q17.5 -18 17.5 -43v-375q0 -25 -17.5 -43t-42.5 -18t-43 18t-18 43v6q-22 -35 -54 -53.5t-67 -18.5q-82 0 -130.5 67.5t-48.5 185.5q0 77 22 134.5t62.5 88.5t94.5 31q36 0 68.5 -18.5t52.5 -54.5v9q0 25 18 42t43 17t42.5 -18zM294 110.5q24 16.5 36 40.5v180
q-12 24 -36 40.5t-48 16.5q-44 0 -68.5 -40.5t-24.5 -106.5q0 -65 24.5 -106t68.5 -41q24 0 48 16.5zM188 584q-33 13 -59 37q-12 10 -12 26q0 14 10.5 24.5t24.5 10.5q15 0 24 -9q35 -33 80 -33q46 0 80 32q10 10 24 10t24 -10.5t10 -24.5t-11 -25q-54 -51 -127 -51
q-35 0 -68 13z" />
    <glyph glyph-name="acircumflex.alt1" horiz-adv-x="504" 
d="M432.5 472q17.5 -18 17.5 -43v-375q0 -25 -17.5 -43t-42.5 -18t-43 18t-18 43v6q-22 -35 -54 -53.5t-67 -18.5q-82 0 -130.5 67.5t-48.5 185.5q0 77 22 134.5t62.5 88.5t94.5 31q36 0 68.5 -18.5t52.5 -54.5v9q0 25 18 42t43 17t42.5 -18zM294 110.5q24 16.5 36 40.5v180
q-12 24 -36 40.5t-48 16.5q-44 0 -68.5 -40.5t-24.5 -106.5q0 -65 24.5 -106t68.5 -41q24 0 48 16.5zM257 667l-57 -84q-8 -13 -25 -13q-13 0 -22.5 9t-9.5 23q0 7 6 19l40 75q7 13 21.5 21.5t29.5 8.5h35q14 0 28.5 -8.5t21.5 -21.5l41 -75q5 -10 5 -19q0 -14 -9.5 -23
t-22.5 -9q-17 0 -25 13z" />
    <glyph glyph-name="adieresis.alt1" horiz-adv-x="504" 
d="M432.5 472q17.5 -18 17.5 -43v-375q0 -25 -17.5 -43t-42.5 -18t-43 18t-18 43v6q-22 -35 -54 -53.5t-67 -18.5q-82 0 -130.5 67.5t-48.5 185.5q0 77 22 134.5t62.5 88.5t94.5 31q36 0 68.5 -18.5t52.5 -54.5v9q0 25 18 42t43 17t42.5 -18zM294 110.5q24 16.5 36 40.5v180
q-12 24 -36 40.5t-48 16.5q-44 0 -68.5 -40.5t-24.5 -106.5q0 -65 24.5 -106t68.5 -41q24 0 48 16.5zM117 595q-19 19 -19 45q0 27 19 46t46 19t45.5 -19t18.5 -46q0 -26 -18.5 -45t-45.5 -19t-46 19zM304 594.5q-19 18.5 -19 45.5t19 46t46 19t46 -19t19 -46t-19 -45.5
t-46 -18.5t-46 18.5z" />
    <glyph glyph-name="agrave.alt1" horiz-adv-x="504" 
d="M432.5 472q17.5 -18 17.5 -43v-375q0 -25 -17.5 -43t-42.5 -18t-43 18t-18 43v6q-22 -35 -54 -53.5t-67 -18.5q-82 0 -130.5 67.5t-48.5 185.5q0 77 22 134.5t62.5 88.5t94.5 31q36 0 68.5 -18.5t52.5 -54.5v9q0 25 18 42t43 17t42.5 -18zM294 110.5q24 16.5 36 40.5v180
q-12 24 -36 40.5t-48 16.5q-44 0 -68.5 -40.5t-24.5 -106.5q0 -65 24.5 -106t68.5 -41q24 0 48 16.5zM151 666q-10 10 -10 26t11 27.5t27 11.5q20 0 31 -17l72 -96q6 -9 6 -19q0 -13 -9.5 -22.5t-22.5 -9.5q-15 0 -24 12z" />
    <glyph glyph-name="amacron.alt1" horiz-adv-x="504" 
d="M432.5 472q17.5 -18 17.5 -43v-375q0 -25 -17.5 -43t-42.5 -18t-43 18t-18 43v6q-22 -35 -54 -53.5t-67 -18.5q-82 0 -130.5 67.5t-48.5 185.5q0 77 22 134.5t62.5 88.5t94.5 31q36 0 68.5 -18.5t52.5 -54.5v9q0 25 18 42t43 17t42.5 -18zM294 110.5q24 16.5 36 40.5v180
q-12 24 -36 40.5t-48 16.5q-44 0 -68.5 -40.5t-24.5 -106.5q0 -65 24.5 -106t68.5 -41q24 0 48 16.5zM118.5 593q-10.5 10 -10.5 25q0 14 10.5 24t24.5 10h225q14 0 24 -10t10 -24q0 -15 -10 -25t-24 -10h-225q-14 0 -24.5 10z" />
    <glyph glyph-name="aogonek.alt1" horiz-adv-x="504" 
d="M373 -42q-11 -15 -11 -33q0 -14 10 -23t24 -9q5 0 9 1t7 1q15 0 26 -11t11 -27q0 -15 -9 -24t-19 -12q-22 -7 -56 -7q-43 0 -73.5 20.5t-30.5 59.5q0 35 28.5 62t74.5 43q-15 8 -25 22.5t-10 32.5v6q-22 -35 -54 -53.5t-67 -18.5q-82 0 -130.5 67.5t-48.5 185.5
q0 77 22 134.5t62.5 88.5t94.5 31q36 0 68.5 -18.5t52.5 -54.5v9q0 25 18 42t43 17t42.5 -18t17.5 -43v-375q0 -19 -11.5 -35t-28.5 -22q-26 -24 -37 -39zM294 110.5q24 16.5 36 40.5v180q-12 24 -36 40.5t-48 16.5q-44 0 -68.5 -40.5t-24.5 -106.5q0 -65 24.5 -106
t68.5 -41q24 0 48 16.5z" />
    <glyph glyph-name="aring.alt1" horiz-adv-x="504" 
d="M432.5 472q17.5 -18 17.5 -43v-375q0 -25 -17.5 -43t-42.5 -18t-43 18t-18 43v6q-22 -35 -54 -53.5t-67 -18.5q-82 0 -130.5 67.5t-48.5 185.5q0 77 22 134.5t62.5 88.5t94.5 31q36 0 68.5 -18.5t52.5 -54.5v9q0 25 18 42t43 17t42.5 -18zM294 110.5q24 16.5 36 40.5v180
q-12 24 -36 40.5t-48 16.5q-44 0 -68.5 -40.5t-24.5 -106.5q0 -65 24.5 -106t68.5 -41q24 0 48 16.5zM188.5 719.5q28.5 28.5 68.5 28.5t68 -28.5t28 -68.5t-28 -68.5t-68 -28.5t-68.5 28.5t-28.5 68.5t28.5 68.5zM287 681.5q-12 12.5 -30 12.5q-17 0 -30 -13t-13 -30
q0 -18 13 -30.5t30 -12.5q18 0 30 12.5t12 30.5t-12 30.5z" />
    <glyph glyph-name="aringacute.alt1" horiz-adv-x="504" 
d="M432.5 472q17.5 -18 17.5 -43v-375q0 -25 -17.5 -43t-42.5 -18t-43 18t-18 43v6q-22 -35 -54 -53.5t-67 -18.5q-82 0 -130.5 67.5t-48.5 185.5q0 77 22 134.5t62.5 88.5t94.5 31q36 0 68.5 -18.5t52.5 -54.5v9q0 25 18 42t43 17t42.5 -18zM294 110.5q24 16.5 36 40.5v180
q-12 24 -36 40.5t-48 16.5q-44 0 -68.5 -40.5t-24.5 -106.5q0 -65 24.5 -106t68.5 -41q24 0 48 16.5zM188.5 719.5q28.5 28.5 68.5 28.5t68 -28.5t28 -68.5t-28 -68.5t-68 -28.5t-68.5 28.5t-28.5 68.5t28.5 68.5zM287 681.5q-12 12.5 -30 12.5q-17 0 -30 -13t-13 -30
q0 -18 13 -30.5t30 -12.5q18 0 30 12.5t12 30.5t-12 30.5zM259 769q-13 0 -22.5 9.5t-9.5 22.5q0 10 6 19l72 96q11 17 31 17q16 0 27 -11.5t11 -27.5t-10 -26l-81 -87q-9 -12 -24 -12z" />
    <glyph glyph-name="atilde.alt1" horiz-adv-x="504" 
d="M432.5 472q17.5 -18 17.5 -43v-375q0 -25 -17.5 -43t-42.5 -18t-43 18t-18 43v6q-22 -35 -54 -53.5t-67 -18.5q-82 0 -130.5 67.5t-48.5 185.5q0 77 22 134.5t62.5 88.5t94.5 31q36 0 68.5 -18.5t52.5 -54.5v9q0 25 18 42t43 17t42.5 -18zM294 110.5q24 16.5 36 40.5v180
q-12 24 -36 40.5t-48 16.5q-44 0 -68.5 -40.5t-24.5 -106.5q0 -65 24.5 -106t68.5 -41q24 0 48 16.5zM268 585.5q-15 11.5 -30 31.5q-11 15 -18 21.5t-16 6.5q-23 0 -30 -46q-2 -11 -10.5 -18.5t-19.5 -7.5q-14 0 -23.5 11t-7.5 25q7 50 31 77.5t63 27.5q23 0 38 -11.5
t30 -32.5q11 -14 18.5 -20.5t16.5 -6.5q10 0 18 11.5t11 34.5q1 11 10 18.5t20 7.5q14 0 23.5 -10.5t7.5 -24.5q-6 -51 -30 -78.5t-64 -27.5q-23 0 -38 11.5z" />
    <glyph glyph-name="uni1EA1.alt1" horiz-adv-x="504" 
d="M432.5 472q17.5 -18 17.5 -43v-375q0 -25 -17.5 -43t-42.5 -18t-43 18t-18 43v6q-22 -35 -54 -53.5t-67 -18.5q-82 0 -130.5 67.5t-48.5 185.5q0 77 22 134.5t62.5 88.5t94.5 31q36 0 68.5 -18.5t52.5 -54.5v9q0 25 18 42t43 17t42.5 -18zM294 110.5q24 16.5 36 40.5v180
q-12 24 -36 40.5t-48 16.5q-44 0 -68.5 -40.5t-24.5 -106.5q0 -65 24.5 -106t68.5 -41q24 0 48 16.5zM210.5 -74.5q19.5 19.5 45.5 19.5t45 -19.5t19 -45.5q0 -27 -19 -46t-45 -19t-45.5 19t-19.5 46q0 26 19.5 45.5z" />
    <glyph glyph-name="uni1EA3.alt1" horiz-adv-x="504" 
d="M432.5 472q17.5 -18 17.5 -43v-375q0 -25 -17.5 -43t-42.5 -18t-43 18t-18 43v6q-22 -35 -54 -53.5t-67 -18.5q-82 0 -130.5 67.5t-48.5 185.5q0 77 22 134.5t62.5 88.5t94.5 31q36 0 68.5 -18.5t52.5 -54.5v9q0 25 18 42t43 17t42.5 -18zM294 110.5q24 16.5 36 40.5v180
q-12 24 -36 40.5t-48 16.5q-44 0 -68.5 -40.5t-24.5 -106.5q0 -65 24.5 -106t68.5 -41q24 0 48 16.5zM283.5 578.5q-8.5 7.5 -8.5 17.5q0 6 3 15q5 15 5 33q0 19 -8.5 28.5t-22.5 9.5q-19 0 -30 -18q-8 -15 -26 -15q-12 0 -20 8.5t-8 20.5q0 10 7 19q25 39 78 39
q40 0 65.5 -22.5t25.5 -67.5q0 -28 -14 -58q-9 -17 -27 -17q-11 0 -19.5 7.5z" />
    <glyph glyph-name="uni1EA5.alt1" horiz-adv-x="504" 
d="M432.5 472q17.5 -18 17.5 -43v-375q0 -25 -17.5 -43t-42.5 -18t-43 18t-18 43v6q-22 -35 -54 -53.5t-67 -18.5q-82 0 -130.5 67.5t-48.5 185.5q0 77 22 134.5t62.5 88.5t94.5 31q36 0 68.5 -18.5t52.5 -54.5v9q0 25 18 42t43 17t42.5 -18zM294 110.5q24 16.5 36 40.5v180
q-12 24 -36 40.5t-48 16.5q-44 0 -68.5 -40.5t-24.5 -106.5q0 -65 24.5 -106t68.5 -41q24 0 48 16.5zM257 667l-57 -84q-8 -13 -25 -13q-13 0 -22.5 9t-9.5 23q0 7 6 19l40 75q7 13 21.5 21.5t29.5 8.5h35q14 0 28.5 -8.5t21.5 -21.5l41 -75q5 -10 5 -19q0 -14 -9.5 -23
t-22.5 -9q-17 0 -25 13zM404 667q-13 0 -22.5 9.5t-9.5 22.5q0 10 6 19l72 96q11 17 31 17q16 0 27 -11.5t11 -27.5t-10 -26l-81 -87q-9 -12 -24 -12z" />
    <glyph glyph-name="uni1EAD.alt1" horiz-adv-x="504" 
d="M432.5 472q17.5 -18 17.5 -43v-375q0 -25 -17.5 -43t-42.5 -18t-43 18t-18 43v6q-22 -35 -54 -53.5t-67 -18.5q-82 0 -130.5 67.5t-48.5 185.5q0 77 22 134.5t62.5 88.5t94.5 31q36 0 68.5 -18.5t52.5 -54.5v9q0 25 18 42t43 17t42.5 -18zM294 110.5q24 16.5 36 40.5v180
q-12 24 -36 40.5t-48 16.5q-44 0 -68.5 -40.5t-24.5 -106.5q0 -65 24.5 -106t68.5 -41q24 0 48 16.5zM257 667l-57 -84q-8 -13 -25 -13q-13 0 -22.5 9t-9.5 23q0 7 6 19l40 75q7 13 21.5 21.5t29.5 8.5h35q14 0 28.5 -8.5t21.5 -21.5l41 -75q5 -10 5 -19q0 -14 -9.5 -23
t-22.5 -9q-17 0 -25 13zM210.5 -74.5q19.5 19.5 45.5 19.5t45 -19.5t19 -45.5q0 -27 -19 -46t-45 -19t-45.5 19t-19.5 46q0 26 19.5 45.5z" />
    <glyph glyph-name="uni1EA7.alt1" horiz-adv-x="504" 
d="M432.5 472q17.5 -18 17.5 -43v-375q0 -25 -17.5 -43t-42.5 -18t-43 18t-18 43v6q-22 -35 -54 -53.5t-67 -18.5q-82 0 -130.5 67.5t-48.5 185.5q0 77 22 134.5t62.5 88.5t94.5 31q36 0 68.5 -18.5t52.5 -54.5v9q0 25 18 42t43 17t42.5 -18zM294 110.5q24 16.5 36 40.5v180
q-12 24 -36 40.5t-48 16.5q-44 0 -68.5 -40.5t-24.5 -106.5q0 -65 24.5 -106t68.5 -41q24 0 48 16.5zM257 667l-57 -84q-8 -13 -25 -13q-13 0 -22.5 9t-9.5 23q0 7 6 19l40 75q7 13 21.5 21.5t29.5 8.5h35q14 0 28.5 -8.5t21.5 -21.5l41 -75q5 -10 5 -19q0 -14 -9.5 -23
t-22.5 -9q-17 0 -25 13zM8 766q-10 10 -10 26t11 27.5t27 11.5q20 0 31 -17l72 -96q6 -9 6 -19q0 -13 -9.5 -22.5t-22.5 -9.5q-15 0 -24 12z" />
    <glyph glyph-name="uni1EA9.alt1" horiz-adv-x="504" 
d="M432.5 472q17.5 -18 17.5 -43v-375q0 -25 -17.5 -43t-42.5 -18t-43 18t-18 43v6q-22 -35 -54 -53.5t-67 -18.5q-82 0 -130.5 67.5t-48.5 185.5q0 77 22 134.5t62.5 88.5t94.5 31q36 0 68.5 -18.5t52.5 -54.5v9q0 25 18 42t43 17t42.5 -18zM294 110.5q24 16.5 36 40.5v180
q-12 24 -36 40.5t-48 16.5q-44 0 -68.5 -40.5t-24.5 -106.5q0 -65 24.5 -106t68.5 -41q24 0 48 16.5zM257 667l-57 -84q-8 -13 -25 -13q-13 0 -22.5 9t-9.5 23q0 7 6 19l40 75q7 13 21.5 21.5t29.5 8.5h35q14 0 28.5 -8.5t21.5 -21.5l41 -75q5 -10 5 -19q0 -14 -9.5 -23
t-22.5 -9q-17 0 -25 13zM389.5 677.5q-8.5 7.5 -8.5 17.5q0 6 3 15q5 15 5 33q0 19 -8.5 28.5t-22.5 9.5q-19 0 -30 -18q-8 -15 -26 -15q-12 0 -20 8.5t-8 20.5q0 10 7 19q25 39 78 39q40 0 65.5 -22.5t25.5 -67.5q0 -28 -14 -58q-9 -17 -27 -17q-11 0 -19.5 7.5z" />
    <glyph glyph-name="uni1EAF.alt1" horiz-adv-x="504" 
d="M432.5 472q17.5 -18 17.5 -43v-375q0 -25 -17.5 -43t-42.5 -18t-43 18t-18 43v6q-22 -35 -54 -53.5t-67 -18.5q-82 0 -130.5 67.5t-48.5 185.5q0 77 22 134.5t62.5 88.5t94.5 31q36 0 68.5 -18.5t52.5 -54.5v9q0 25 18 42t43 17t42.5 -18zM294 110.5q24 16.5 36 40.5v180
q-12 24 -36 40.5t-48 16.5q-44 0 -68.5 -40.5t-24.5 -106.5q0 -65 24.5 -106t68.5 -41q24 0 48 16.5zM188 584q-33 13 -59 37q-12 10 -12 26q0 14 10.5 24.5t24.5 10.5q15 0 24 -9q35 -33 80 -33q46 0 80 32q10 10 24 10t24 -10.5t10 -24.5t-11 -25q-54 -51 -127 -51
q-35 0 -68 13zM259 698q-13 0 -22.5 9.5t-9.5 22.5q0 10 6 19l72 96q11 17 31 17q16 0 27 -11.5t11 -27.5t-10 -26l-81 -87q-9 -12 -24 -12z" />
    <glyph glyph-name="uni1EAB.alt1" horiz-adv-x="504" 
d="M432.5 472q17.5 -18 17.5 -43v-375q0 -25 -17.5 -43t-42.5 -18t-43 18t-18 43v6q-22 -35 -54 -53.5t-67 -18.5q-82 0 -130.5 67.5t-48.5 185.5q0 77 22 134.5t62.5 88.5t94.5 31q36 0 68.5 -18.5t52.5 -54.5v9q0 25 18 42t43 17t42.5 -18zM294 110.5q24 16.5 36 40.5v180
q-12 24 -36 40.5t-48 16.5q-44 0 -68.5 -40.5t-24.5 -106.5q0 -65 24.5 -106t68.5 -41q24 0 48 16.5zM257 667l-57 -84q-8 -13 -25 -13q-13 0 -22.5 9t-9.5 23q0 7 6 19l40 75q7 13 21.5 21.5t29.5 8.5h35q14 0 28.5 -8.5t21.5 -21.5l41 -75q5 -10 5 -19q0 -14 -9.5 -23
t-22.5 -9q-17 0 -25 13zM268 757.5q-15 11.5 -30 31.5q-11 15 -18 21.5t-16 6.5q-23 0 -30 -46q-2 -11 -10.5 -18.5t-19.5 -7.5q-14 0 -23.5 11t-7.5 25q7 50 31 77.5t63 27.5q23 0 38 -11.5t30 -32.5q11 -14 18.5 -20.5t16.5 -6.5q10 0 18 11.5t11 34.5q1 11 10 18.5
t20 7.5q14 0 23.5 -10.5t7.5 -24.5q-6 -51 -30 -78.5t-64 -27.5q-23 0 -38 11.5z" />
    <glyph glyph-name="uni1EB1.alt1" horiz-adv-x="504" 
d="M432.5 472q17.5 -18 17.5 -43v-375q0 -25 -17.5 -43t-42.5 -18t-43 18t-18 43v6q-22 -35 -54 -53.5t-67 -18.5q-82 0 -130.5 67.5t-48.5 185.5q0 77 22 134.5t62.5 88.5t94.5 31q36 0 68.5 -18.5t52.5 -54.5v9q0 25 18 42t43 17t42.5 -18zM294 110.5q24 16.5 36 40.5v180
q-12 24 -36 40.5t-48 16.5q-44 0 -68.5 -40.5t-24.5 -106.5q0 -65 24.5 -106t68.5 -41q24 0 48 16.5zM188 584q-33 13 -59 37q-12 10 -12 26q0 14 10.5 24.5t24.5 10.5q15 0 24 -9q35 -33 80 -33q46 0 80 32q10 10 24 10t24 -10.5t10 -24.5t-11 -25q-54 -51 -127 -51
q-35 0 -68 13zM151 797q-10 10 -10 26t11 27.5t27 11.5q20 0 31 -17l72 -96q6 -9 6 -19q0 -13 -9.5 -22.5t-22.5 -9.5q-15 0 -24 12z" />
    <glyph glyph-name="uni1EB3.alt1" horiz-adv-x="504" 
d="M432.5 472q17.5 -18 17.5 -43v-375q0 -25 -17.5 -43t-42.5 -18t-43 18t-18 43v6q-22 -35 -54 -53.5t-67 -18.5q-82 0 -130.5 67.5t-48.5 185.5q0 77 22 134.5t62.5 88.5t94.5 31q36 0 68.5 -18.5t52.5 -54.5v9q0 25 18 42t43 17t42.5 -18zM294 110.5q24 16.5 36 40.5v180
q-12 24 -36 40.5t-48 16.5q-44 0 -68.5 -40.5t-24.5 -106.5q0 -65 24.5 -106t68.5 -41q24 0 48 16.5zM188 584q-33 13 -59 37q-12 10 -12 26q0 14 10.5 24.5t24.5 10.5q15 0 24 -9q35 -33 80 -33q46 0 80 32q10 10 24 10t24 -10.5t10 -24.5t-11 -25q-54 -51 -127 -51
q-35 0 -68 13zM283.5 709.5q-8.5 7.5 -8.5 17.5q0 6 3 15q5 15 5 33q0 19 -8.5 28.5t-22.5 9.5q-19 0 -30 -18q-8 -15 -26 -15q-12 0 -20 8.5t-8 20.5q0 10 7 19q25 39 78 39q40 0 65.5 -22.5t25.5 -67.5q0 -28 -14 -58q-9 -17 -27 -17q-11 0 -19.5 7.5z" />
    <glyph glyph-name="uni1EB5.alt1" horiz-adv-x="504" 
d="M432.5 472q17.5 -18 17.5 -43v-375q0 -25 -17.5 -43t-42.5 -18t-43 18t-18 43v6q-22 -35 -54 -53.5t-67 -18.5q-82 0 -130.5 67.5t-48.5 185.5q0 77 22 134.5t62.5 88.5t94.5 31q36 0 68.5 -18.5t52.5 -54.5v9q0 25 18 42t43 17t42.5 -18zM294 110.5q24 16.5 36 40.5v180
q-12 24 -36 40.5t-48 16.5q-44 0 -68.5 -40.5t-24.5 -106.5q0 -65 24.5 -106t68.5 -41q24 0 48 16.5zM188 584q-33 13 -59 37q-12 10 -12 26q0 14 10.5 24.5t24.5 10.5q15 0 24 -9q35 -33 80 -33q46 0 80 32q10 10 24 10t24 -10.5t10 -24.5t-11 -25q-54 -51 -127 -51
q-35 0 -68 13zM268 716.5q-15 11.5 -30 31.5q-11 15 -18 21.5t-16 6.5q-23 0 -30 -46q-2 -11 -10.5 -18.5t-19.5 -7.5q-14 0 -23.5 11t-7.5 25q7 50 31 77.5t63 27.5q23 0 38 -11.5t30 -32.5q11 -14 18.5 -20.5t16.5 -6.5q10 0 18 11.5t11 34.5q1 11 10 18.5t20 7.5
q14 0 23.5 -10.5t7.5 -24.5q-6 -51 -30 -78.5t-64 -27.5q-23 0 -38 11.5z" />
    <glyph glyph-name="uni1EB7.alt1" horiz-adv-x="504" 
d="M432.5 472q17.5 -18 17.5 -43v-375q0 -25 -17.5 -43t-42.5 -18t-43 18t-18 43v6q-22 -35 -54 -53.5t-67 -18.5q-82 0 -130.5 67.5t-48.5 185.5q0 77 22 134.5t62.5 88.5t94.5 31q36 0 68.5 -18.5t52.5 -54.5v9q0 25 18 42t43 17t42.5 -18zM294 110.5q24 16.5 36 40.5v180
q-12 24 -36 40.5t-48 16.5q-44 0 -68.5 -40.5t-24.5 -106.5q0 -65 24.5 -106t68.5 -41q24 0 48 16.5zM188 584q-33 13 -59 37q-12 10 -12 26q0 14 10.5 24.5t24.5 10.5q15 0 24 -9q35 -33 80 -33q46 0 80 32q10 10 24 10t24 -10.5t10 -24.5t-11 -25q-54 -51 -127 -51
q-35 0 -68 13zM210.5 -74.5q19.5 19.5 45.5 19.5t45 -19.5t19 -45.5q0 -27 -19 -46t-45 -19t-45.5 19t-19.5 46q0 26 19.5 45.5z" />
    <glyph glyph-name="ae.alt1" horiz-adv-x="778" 
d="M733.5 211.5q-18.5 -8.5 -52.5 -8.5h-231q4 -52 34 -84.5t83 -32.5q40 0 74 24q12 7 26 7q20 0 34.5 -14.5t14.5 -35.5q0 -24 -20 -39q-49 -40 -108 -40q-96 0 -138 82v-16q0 -25 -17.5 -43t-42.5 -18t-42.5 18t-17.5 43v7q-22 -35 -54.5 -54t-67.5 -19
q-82 0 -130.5 67.5t-48.5 185.5q0 77 22 134.5t62.5 88.5t94.5 31q36 0 68 -18.5t53 -55.5v8q0 25 18 43t43 18t42.5 -18t17.5 -43v-12q40 78 126 78q83 0 129.5 -71t46.5 -187q0 -17 -18.5 -25.5zM637 285q-2 45 -24 79t-70 34q-45 0 -68 -34.5t-25 -78.5h187zM294 110.5
q24 16.5 36 40.5v180q-12 24 -36 40.5t-48 16.5q-44 0 -68.5 -40.5t-24.5 -106.5q0 -65 24.5 -106t68.5 -41q24 0 48 16.5z" />
    <glyph glyph-name="aeacute.alt1" horiz-adv-x="778" 
d="M733.5 211.5q-18.5 -8.5 -52.5 -8.5h-231q4 -52 34 -84.5t83 -32.5q40 0 74 24q12 7 26 7q20 0 34.5 -14.5t14.5 -35.5q0 -24 -20 -39q-49 -40 -108 -40q-96 0 -138 82v-16q0 -25 -17.5 -43t-42.5 -18t-42.5 18t-17.5 43v7q-22 -35 -54.5 -54t-67.5 -19
q-82 0 -130.5 67.5t-48.5 185.5q0 77 22 134.5t62.5 88.5t94.5 31q36 0 68 -18.5t53 -55.5v8q0 25 18 43t43 18t42.5 -18t17.5 -43v-12q40 78 126 78q83 0 129.5 -71t46.5 -187q0 -17 -18.5 -25.5zM637 285q-2 45 -24 79t-70 34q-45 0 -68 -34.5t-25 -78.5h187zM294 110.5
q24 16.5 36 40.5v180q-12 24 -36 40.5t-48 16.5q-44 0 -68.5 -40.5t-24.5 -106.5q0 -65 24.5 -106t68.5 -41q24 0 48 16.5zM394 567q-13 0 -22.5 9.5t-9.5 22.5q0 10 6 19l72 96q11 17 31 17q16 0 27 -11.5t11 -27.5t-10 -26l-81 -87q-9 -12 -24 -12z" />
    <glyph glyph-name="uni1E03" unicode="&#x1e03;" horiz-adv-x="504" 
d="M390.5 464q40.5 -31 62.5 -88.5t22 -134.5q0 -118 -48.5 -185.5t-130.5 -67.5q-35 0 -67 18.5t-54 53.5v-8q0 -25 -18 -42t-43 -17t-42.5 18t-17.5 43v559q0 25 17.5 43t42.5 18t42.5 -18t17.5 -43v-193q20 37 52.5 56t69.5 19q54 0 94.5 -31zM326.5 135
q24.5 41 24.5 106q0 66 -24.5 107t-68.5 41q-24 0 -48 -16.5t-36 -41.5v-180q12 -24 36 -40.5t48 -16.5q44 0 68.5 41zM213.5 832.5q19.5 19.5 45.5 19.5t45 -19.5t19 -45.5q0 -27 -19 -46t-45 -19t-45.5 19t-19.5 46q0 26 19.5 45.5z" />
    <glyph glyph-name="cacute" unicode="&#x107;" horiz-adv-x="418" 
d="M56.5 372.5q27.5 57.5 78 90t115.5 32.5q66 0 117 -34q11 -6 18 -18t7 -25q0 -22 -15 -37t-37 -15q-15 0 -26 7q-24 16 -51 16q-51 0 -80.5 -41.5t-29.5 -105.5q0 -65 29.5 -106.5t80.5 -41.5q27 0 51 16q11 8 25 8q22 0 37.5 -15.5t15.5 -37.5q0 -13 -7 -25t-18 -19
q-49 -33 -117 -33q-65 0 -115.5 32.5t-78 90t-27.5 131.5q0 73 27.5 130.5zM246 567q-13 0 -22.5 9.5t-9.5 22.5q0 10 6 19l72 96q11 17 31 17q16 0 27 -11.5t11 -27.5t-10 -26l-81 -87q-9 -12 -24 -12z" />
    <glyph glyph-name="ccedilla" unicode="&#xe7;" horiz-adv-x="418" 
d="M376.5 102.5q15.5 -15.5 15.5 -37.5q0 -13 -7 -25t-18 -19q-42 -29 -99 -32l-17 -41q13 10 32 10q27 0 45 -19t18 -49q0 -39 -29.5 -62t-74.5 -23q-43 0 -79 20q-7 3 -12 9t-5 16q0 11 7.5 19t18.5 8q6 0 13 -4q28 -16 54 -16q20 0 33 9t13 25q0 12 -6.5 19t-19.5 7
q-14 0 -22 -7q-8 -6 -17 -6q-13 0 -21.5 9t-8.5 22q0 7 3 12l17 44q-83 15 -132 83.5t-49 167.5q0 73 27.5 130.5t78 90t115.5 32.5q66 0 117 -34q11 -6 18 -18t7 -25q0 -22 -15 -37t-37 -15q-15 0 -26 7q-24 16 -51 16q-51 0 -80.5 -41.5t-29.5 -105.5q0 -65 29.5 -106.5
t80.5 -41.5q27 0 51 16q11 8 25 8q22 0 37.5 -15.5z" />
    <glyph glyph-name="ccircumflex" unicode="&#x109;" horiz-adv-x="418" 
d="M56.5 372.5q27.5 57.5 78 90t115.5 32.5q66 0 117 -34q11 -6 18 -18t7 -25q0 -22 -15 -37t-37 -15q-15 0 -26 7q-24 16 -51 16q-51 0 -80.5 -41.5t-29.5 -105.5q0 -65 29.5 -106.5t80.5 -41.5q27 0 51 16q11 8 25 8q22 0 37.5 -15.5t15.5 -37.5q0 -13 -7 -25t-18 -19
q-49 -33 -117 -33q-65 0 -115.5 32.5t-78 90t-27.5 131.5q0 73 27.5 130.5zM244 667l-57 -84q-8 -13 -25 -13q-13 0 -22.5 9t-9.5 23q0 7 6 19l40 75q7 13 21.5 21.5t29.5 8.5h35q14 0 28.5 -8.5t21.5 -21.5l41 -75q5 -10 5 -19q0 -14 -9.5 -23t-22.5 -9q-17 0 -25 13z" />
    <glyph glyph-name="cdotaccent" unicode="&#x10b;" horiz-adv-x="418" 
d="M56.5 372.5q27.5 57.5 78 90t115.5 32.5q66 0 117 -34q11 -6 18 -18t7 -25q0 -22 -15 -37t-37 -15q-15 0 -26 7q-24 16 -51 16q-51 0 -80.5 -41.5t-29.5 -105.5q0 -65 29.5 -106.5t80.5 -41.5q27 0 51 16q11 8 25 8q22 0 37.5 -15.5t15.5 -37.5q0 -13 -7 -25t-18 -19
q-49 -33 -117 -33q-65 0 -115.5 32.5t-78 90t-27.5 131.5q0 73 27.5 130.5zM197.5 685.5q19.5 19.5 45.5 19.5t45 -19.5t19 -45.5q0 -27 -19 -46t-45 -19t-45.5 19t-19.5 46q0 26 19.5 45.5z" />
    <glyph glyph-name="ccaron" unicode="&#x10d;" horiz-adv-x="418" 
d="M56.5 372.5q27.5 57.5 78 90t115.5 32.5q66 0 117 -34q11 -6 18 -18t7 -25q0 -22 -15 -37t-37 -15q-15 0 -26 7q-24 16 -51 16q-51 0 -80.5 -41.5t-29.5 -105.5q0 -65 29.5 -106.5t80.5 -41.5q27 0 51 16q11 8 25 8q22 0 37.5 -15.5t15.5 -37.5q0 -13 -7 -25t-18 -19
q-49 -33 -117 -33q-65 0 -115.5 32.5t-78 90t-27.5 131.5q0 73 27.5 130.5zM345.5 717q9.5 -9 9.5 -23q0 -9 -5 -19l-41 -75q-7 -13 -21.5 -21.5t-28.5 -8.5h-35q-15 0 -29.5 8.5t-21.5 21.5l-40 75q-6 12 -6 19q0 14 9.5 23t22.5 9q17 0 25 -13l57 -84l57 84q8 13 25 13
q13 0 22.5 -9z" />
    <glyph glyph-name="dcaron" unicode="&#x10f;" horiz-adv-x="613" 
d="M432.5 656q17.5 -18 17.5 -43v-559q0 -26 -17.5 -44t-42.5 -18t-43 18t-18 43v7q-22 -35 -54 -53.5t-67 -18.5q-82 0 -130.5 67.5t-48.5 185.5q0 77 22 134.5t62.5 88.5t94.5 31q36 0 68.5 -19t53.5 -57v194q0 25 17.5 43t42.5 18t42.5 -18zM294 110.5q24 16.5 36 40.5
v181q-12 24 -36 40.5t-48 16.5q-44 0 -68.5 -41t-24.5 -107q0 -65 24.5 -106t68.5 -41q24 0 48 16.5zM514 464q-8 8 -8 18q0 11 13 22q14 13 24.5 30.5t13.5 32.5q-6 -3 -15 -3q-22 0 -36.5 15.5t-14.5 39.5q0 25 17 42.5t42 17.5q28 0 48 -21t20 -57q0 -40 -18.5 -76.5
t-49.5 -62.5q-8 -6 -17 -6q-11 0 -19 8z" />
    <glyph glyph-name="dcroat" unicode="&#x111;" horiz-adv-x="505" 
d="M494.5 588q10.5 -10 10.5 -24t-10.5 -24.5t-24.5 -10.5h-20v-475q0 -26 -17.5 -44t-42.5 -18t-43 18t-18 43v7q-22 -35 -54 -53.5t-67 -18.5q-82 0 -130.5 67.5t-48.5 185.5q0 77 22 134.5t62.5 88.5t94.5 31q36 0 68.5 -19t53.5 -57v110h-105q-14 0 -24.5 10.5
t-10.5 24.5t10.5 24t24.5 10h105v15q0 25 17.5 43t42.5 18t42.5 -18t17.5 -43v-15h20q14 0 24.5 -10zM294 110.5q24 16.5 36 40.5v181q-12 24 -36 40.5t-48 16.5q-44 0 -68.5 -41t-24.5 -107q0 -65 24.5 -106t68.5 -41q24 0 48 16.5z" />
    <glyph glyph-name="uni1E0B" unicode="&#x1e0b;" horiz-adv-x="504" 
d="M432.5 656q17.5 -18 17.5 -43v-559q0 -26 -17.5 -44t-42.5 -18t-43 18t-18 43v7q-22 -35 -54 -53.5t-67 -18.5q-82 0 -130.5 67.5t-48.5 185.5q0 77 22 134.5t62.5 88.5t94.5 31q36 0 68.5 -19t53.5 -57v194q0 25 17.5 43t42.5 18t42.5 -18zM294 110.5q24 16.5 36 40.5
v181q-12 24 -36 40.5t-48 16.5q-44 0 -68.5 -41t-24.5 -107q0 -65 24.5 -106t68.5 -41q24 0 48 16.5zM211.5 832.5q19.5 19.5 45.5 19.5t45 -19.5t19 -45.5q0 -27 -19 -46t-45 -19t-45.5 19t-19.5 46q0 26 19.5 45.5z" />
    <glyph glyph-name="eacute" unicode="&#xe9;" 
d="M55.5 370q26.5 58 75.5 91.5t114 33.5q64 0 111.5 -31.5t72 -84.5t24.5 -117q0 -28 -18.5 -43.5t-53.5 -15.5h-231q4 -52 34 -85t83 -33q41 0 78 25q10 7 25 7q19 0 32.5 -13.5t13.5 -32.5q0 -23 -21 -37q-62 -46 -141 -46q-67 0 -118 31.5t-79 89.5t-28 133
q0 70 26.5 128zM174.5 364q-22.5 -34 -24.5 -79h187q-2 45 -24 79t-70 34q-46 0 -68.5 -34zM248 567q-13 0 -22.5 9.5t-9.5 22.5q0 10 6 19l72 96q11 17 31 17q16 0 27 -11.5t11 -27.5t-10 -26l-81 -87q-9 -12 -24 -12z" />
    <glyph glyph-name="ebreve" unicode="&#x115;" 
d="M55.5 370q26.5 58 75.5 91.5t114 33.5q64 0 111.5 -31.5t72 -84.5t24.5 -117q0 -28 -18.5 -43.5t-53.5 -15.5h-231q4 -52 34 -85t83 -33q41 0 78 25q10 7 25 7q19 0 32.5 -13.5t13.5 -32.5q0 -23 -21 -37q-62 -46 -141 -46q-67 0 -118 31.5t-79 89.5t-28 133
q0 70 26.5 128zM174.5 364q-22.5 -34 -24.5 -79h187q-2 45 -24 79t-70 34q-46 0 -68.5 -34zM177 584q-33 13 -59 37q-12 10 -12 26q0 14 10.5 24.5t24.5 10.5q15 0 24 -9q35 -33 80 -33q46 0 80 32q10 10 24 10t24 -10.5t10 -24.5t-11 -25q-54 -51 -127 -51q-35 0 -68 13z
" />
    <glyph glyph-name="ecircumflex" unicode="&#xea;" 
d="M55.5 370q26.5 58 75.5 91.5t114 33.5q64 0 111.5 -31.5t72 -84.5t24.5 -117q0 -28 -18.5 -43.5t-53.5 -15.5h-231q4 -52 34 -85t83 -33q41 0 78 25q10 7 25 7q19 0 32.5 -13.5t13.5 -32.5q0 -23 -21 -37q-62 -46 -141 -46q-67 0 -118 31.5t-79 89.5t-28 133
q0 70 26.5 128zM174.5 364q-22.5 -34 -24.5 -79h187q-2 45 -24 79t-70 34q-46 0 -68.5 -34zM246 667l-57 -84q-8 -13 -25 -13q-13 0 -22.5 9t-9.5 23q0 7 6 19l40 75q7 13 21.5 21.5t29.5 8.5h35q14 0 28.5 -8.5t21.5 -21.5l41 -75q5 -10 5 -19q0 -14 -9.5 -23t-22.5 -9
q-17 0 -25 13z" />
    <glyph glyph-name="edieresis" unicode="&#xeb;" 
d="M55.5 370q26.5 58 75.5 91.5t114 33.5q64 0 111.5 -31.5t72 -84.5t24.5 -117q0 -28 -18.5 -43.5t-53.5 -15.5h-231q4 -52 34 -85t83 -33q41 0 78 25q10 7 25 7q19 0 32.5 -13.5t13.5 -32.5q0 -23 -21 -37q-62 -46 -141 -46q-67 0 -118 31.5t-79 89.5t-28 133
q0 70 26.5 128zM174.5 364q-22.5 -34 -24.5 -79h187q-2 45 -24 79t-70 34q-46 0 -68.5 -34zM106 595q-19 19 -19 45q0 27 19 46t46 19t45.5 -19t18.5 -46q0 -26 -18.5 -45t-45.5 -19t-46 19zM293 594.5q-19 18.5 -19 45.5t19 46t46 19t46 -19t19 -46t-19 -45.5t-46 -18.5
t-46 18.5z" />
    <glyph glyph-name="edotaccent" unicode="&#x117;" 
d="M55.5 370q26.5 58 75.5 91.5t114 33.5q64 0 111.5 -31.5t72 -84.5t24.5 -117q0 -28 -18.5 -43.5t-53.5 -15.5h-231q4 -52 34 -85t83 -33q41 0 78 25q10 7 25 7q19 0 32.5 -13.5t13.5 -32.5q0 -23 -21 -37q-62 -46 -141 -46q-67 0 -118 31.5t-79 89.5t-28 133
q0 70 26.5 128zM174.5 364q-22.5 -34 -24.5 -79h187q-2 45 -24 79t-70 34q-46 0 -68.5 -34zM200.5 685.5q19.5 19.5 45.5 19.5t45 -19.5t19 -45.5q0 -27 -19 -46t-45 -19t-45.5 19t-19.5 46q0 26 19.5 45.5z" />
    <glyph glyph-name="egrave" unicode="&#xe8;" 
d="M55.5 370q26.5 58 75.5 91.5t114 33.5q64 0 111.5 -31.5t72 -84.5t24.5 -117q0 -28 -18.5 -43.5t-53.5 -15.5h-231q4 -52 34 -85t83 -33q41 0 78 25q10 7 25 7q19 0 32.5 -13.5t13.5 -32.5q0 -23 -21 -37q-62 -46 -141 -46q-67 0 -118 31.5t-79 89.5t-28 133
q0 70 26.5 128zM174.5 364q-22.5 -34 -24.5 -79h187q-2 45 -24 79t-70 34q-46 0 -68.5 -34zM140 666q-10 10 -10 26t11 27.5t27 11.5q20 0 31 -17l72 -96q6 -9 6 -19q0 -13 -9.5 -22.5t-22.5 -9.5q-15 0 -24 12z" />
    <glyph glyph-name="emacron" unicode="&#x113;" 
d="M55.5 370q26.5 58 75.5 91.5t114 33.5q64 0 111.5 -31.5t72 -84.5t24.5 -117q0 -28 -18.5 -43.5t-53.5 -15.5h-231q4 -52 34 -85t83 -33q41 0 78 25q10 7 25 7q19 0 32.5 -13.5t13.5 -32.5q0 -23 -21 -37q-62 -46 -141 -46q-67 0 -118 31.5t-79 89.5t-28 133
q0 70 26.5 128zM174.5 364q-22.5 -34 -24.5 -79h187q-2 45 -24 79t-70 34q-46 0 -68.5 -34zM108.5 593q-10.5 10 -10.5 25q0 14 10.5 24t24.5 10h225q14 0 24 -10t10 -24q0 -15 -10 -25t-24 -10h-225q-14 0 -24.5 10z" />
    <glyph glyph-name="eogonek" unicode="&#x119;" 
d="M136 19.5q-51 31.5 -79 89.5t-28 133q0 70 26.5 128t75.5 91.5t114 33.5q64 0 111.5 -31.5t72 -84.5t24.5 -117q0 -28 -18.5 -43.5t-53.5 -15.5h-231q4 -52 34 -85t83 -33q40 0 78 25q8 7 24 7q20 0 33.5 -13.5t13.5 -33.5q0 -18 -14 -34q-37 -36 -54 -61.5t-17 -45.5
q0 -18 10.5 -27t24.5 -9q5 0 7 1q17 2 29.5 -9.5t12.5 -28.5q0 -13 -8.5 -23t-20.5 -14q-27 -5 -52 -5q-43 0 -73.5 20.5t-30.5 59.5q0 28 19 53.5t52 44.5q-28 -4 -47 -4q-67 0 -118 31.5zM174.5 364q-22.5 -34 -24.5 -79h187q-2 45 -24 79t-70 34q-46 0 -68.5 -34z" />
    <glyph glyph-name="ecaron" unicode="&#x11b;" 
d="M55.5 370q26.5 58 75.5 91.5t114 33.5q64 0 111.5 -31.5t72 -84.5t24.5 -117q0 -28 -18.5 -43.5t-53.5 -15.5h-231q4 -52 34 -85t83 -33q41 0 78 25q10 7 25 7q19 0 32.5 -13.5t13.5 -32.5q0 -23 -21 -37q-62 -46 -141 -46q-67 0 -118 31.5t-79 89.5t-28 133
q0 70 26.5 128zM174.5 364q-22.5 -34 -24.5 -79h187q-2 45 -24 79t-70 34q-46 0 -68.5 -34zM347.5 717q9.5 -9 9.5 -23q0 -9 -5 -19l-41 -75q-7 -13 -21.5 -21.5t-28.5 -8.5h-35q-15 0 -29.5 8.5t-21.5 21.5l-40 75q-6 12 -6 19q0 14 9.5 23t22.5 9q17 0 25 -13l57 -84
l57 84q8 13 25 13q13 0 22.5 -9z" />
    <glyph glyph-name="uni1EB9" unicode="&#x1eb9;" 
d="M55.5 370q26.5 58 75.5 91.5t114 33.5q64 0 111.5 -31.5t72 -84.5t24.5 -117q0 -28 -18.5 -43.5t-53.5 -15.5h-231q4 -52 34 -85t83 -33q41 0 78 25q10 7 25 7q19 0 32.5 -13.5t13.5 -32.5q0 -23 -21 -37q-62 -46 -141 -46q-67 0 -118 31.5t-79 89.5t-28 133
q0 70 26.5 128zM174.5 364q-22.5 -34 -24.5 -79h187q-2 45 -24 79t-70 34q-46 0 -68.5 -34zM199.5 -74.5q19.5 19.5 45.5 19.5t45 -19.5t19 -45.5q0 -27 -19 -46t-45 -19t-45.5 19t-19.5 46q0 26 19.5 45.5z" />
    <glyph glyph-name="uni1EBB" unicode="&#x1ebb;" 
d="M55.5 370q26.5 58 75.5 91.5t114 33.5q64 0 111.5 -31.5t72 -84.5t24.5 -117q0 -28 -18.5 -43.5t-53.5 -15.5h-231q4 -52 34 -85t83 -33q41 0 78 25q10 7 25 7q19 0 32.5 -13.5t13.5 -32.5q0 -23 -21 -37q-62 -46 -141 -46q-67 0 -118 31.5t-79 89.5t-28 133
q0 70 26.5 128zM174.5 364q-22.5 -34 -24.5 -79h187q-2 45 -24 79t-70 34q-46 0 -68.5 -34zM272.5 578.5q-8.5 7.5 -8.5 17.5q0 6 3 15q5 15 5 33q0 19 -8.5 28.5t-22.5 9.5q-19 0 -30 -18q-8 -15 -26 -15q-12 0 -20 8.5t-8 20.5q0 10 7 19q25 39 78 39q40 0 65.5 -22.5
t25.5 -67.5q0 -28 -14 -58q-9 -17 -27 -17q-11 0 -19.5 7.5z" />
    <glyph glyph-name="uni1EBD" unicode="&#x1ebd;" 
d="M55.5 370q26.5 58 75.5 91.5t114 33.5q64 0 111.5 -31.5t72 -84.5t24.5 -117q0 -28 -18.5 -43.5t-53.5 -15.5h-231q4 -52 34 -85t83 -33q41 0 78 25q10 7 25 7q19 0 32.5 -13.5t13.5 -32.5q0 -23 -21 -37q-62 -46 -141 -46q-67 0 -118 31.5t-79 89.5t-28 133
q0 70 26.5 128zM174.5 364q-22.5 -34 -24.5 -79h187q-2 45 -24 79t-70 34q-46 0 -68.5 -34zM257 585.5q-15 11.5 -30 31.5q-11 15 -18 21.5t-16 6.5q-23 0 -30 -46q-2 -11 -10.5 -18.5t-19.5 -7.5q-14 0 -23.5 11t-7.5 25q7 50 31 77.5t63 27.5q23 0 38 -11.5t30 -32.5
q11 -14 18.5 -20.5t16.5 -6.5q10 0 18 11.5t11 34.5q1 11 10 18.5t20 7.5q14 0 23.5 -10.5t7.5 -24.5q-6 -51 -30 -78.5t-64 -27.5q-23 0 -38 11.5z" />
    <glyph glyph-name="uni1EBF" unicode="&#x1ebf;" 
d="M55.5 370q26.5 58 75.5 91.5t114 33.5q64 0 111.5 -31.5t72 -84.5t24.5 -117q0 -28 -18.5 -43.5t-53.5 -15.5h-231q4 -52 34 -85t83 -33q41 0 78 25q10 7 25 7q19 0 32.5 -13.5t13.5 -32.5q0 -23 -21 -37q-62 -46 -141 -46q-67 0 -118 31.5t-79 89.5t-28 133
q0 70 26.5 128zM174.5 364q-22.5 -34 -24.5 -79h187q-2 45 -24 79t-70 34q-46 0 -68.5 -34zM246 667l-57 -84q-8 -13 -25 -13q-13 0 -22.5 9t-9.5 23q0 7 6 19l40 75q7 13 21.5 21.5t29.5 8.5h35q14 0 28.5 -8.5t21.5 -21.5l41 -75q5 -10 5 -19q0 -14 -9.5 -23t-22.5 -9
q-17 0 -25 13zM393 667q-13 0 -22.5 9.5t-9.5 22.5q0 10 6 19l72 96q11 17 31 17q16 0 27 -11.5t11 -27.5t-10 -26l-81 -87q-9 -12 -24 -12z" />
    <glyph glyph-name="uni1EC1" unicode="&#x1ec1;" 
d="M55.5 370q26.5 58 75.5 91.5t114 33.5q64 0 111.5 -31.5t72 -84.5t24.5 -117q0 -28 -18.5 -43.5t-53.5 -15.5h-231q4 -52 34 -85t83 -33q41 0 78 25q10 7 25 7q19 0 32.5 -13.5t13.5 -32.5q0 -23 -21 -37q-62 -46 -141 -46q-67 0 -118 31.5t-79 89.5t-28 133
q0 70 26.5 128zM174.5 364q-22.5 -34 -24.5 -79h187q-2 45 -24 79t-70 34q-46 0 -68.5 -34zM246 667l-57 -84q-8 -13 -25 -13q-13 0 -22.5 9t-9.5 23q0 7 6 19l40 75q7 13 21.5 21.5t29.5 8.5h35q14 0 28.5 -8.5t21.5 -21.5l41 -75q5 -10 5 -19q0 -14 -9.5 -23t-22.5 -9
q-17 0 -25 13zM-3 766q-10 10 -10 26t11 27.5t27 11.5q20 0 31 -17l72 -96q6 -9 6 -19q0 -13 -9.5 -22.5t-22.5 -9.5q-15 0 -24 12z" />
    <glyph glyph-name="uni1EC3" unicode="&#x1ec3;" 
d="M55.5 370q26.5 58 75.5 91.5t114 33.5q64 0 111.5 -31.5t72 -84.5t24.5 -117q0 -28 -18.5 -43.5t-53.5 -15.5h-231q4 -52 34 -85t83 -33q41 0 78 25q10 7 25 7q19 0 32.5 -13.5t13.5 -32.5q0 -23 -21 -37q-62 -46 -141 -46q-67 0 -118 31.5t-79 89.5t-28 133
q0 70 26.5 128zM174.5 364q-22.5 -34 -24.5 -79h187q-2 45 -24 79t-70 34q-46 0 -68.5 -34zM246 667l-57 -84q-8 -13 -25 -13q-13 0 -22.5 9t-9.5 23q0 7 6 19l40 75q7 13 21.5 21.5t29.5 8.5h35q14 0 28.5 -8.5t21.5 -21.5l41 -75q5 -10 5 -19q0 -14 -9.5 -23t-22.5 -9
q-17 0 -25 13zM378.5 677.5q-8.5 7.5 -8.5 17.5q0 6 3 15q5 15 5 33q0 19 -8.5 28.5t-22.5 9.5q-19 0 -30 -18q-8 -15 -26 -15q-12 0 -20 8.5t-8 20.5q0 10 7 19q25 39 78 39q40 0 65.5 -22.5t25.5 -67.5q0 -28 -14 -58q-9 -17 -27 -17q-11 0 -19.5 7.5z" />
    <glyph glyph-name="uni1EC5" unicode="&#x1ec5;" 
d="M55.5 370q26.5 58 75.5 91.5t114 33.5q64 0 111.5 -31.5t72 -84.5t24.5 -117q0 -28 -18.5 -43.5t-53.5 -15.5h-231q4 -52 34 -85t83 -33q41 0 78 25q10 7 25 7q19 0 32.5 -13.5t13.5 -32.5q0 -23 -21 -37q-62 -46 -141 -46q-67 0 -118 31.5t-79 89.5t-28 133
q0 70 26.5 128zM174.5 364q-22.5 -34 -24.5 -79h187q-2 45 -24 79t-70 34q-46 0 -68.5 -34zM246 667l-57 -84q-8 -13 -25 -13q-13 0 -22.5 9t-9.5 23q0 7 6 19l40 75q7 13 21.5 21.5t29.5 8.5h35q14 0 28.5 -8.5t21.5 -21.5l41 -75q5 -10 5 -19q0 -14 -9.5 -23t-22.5 -9
q-17 0 -25 13zM257 757.5q-15 11.5 -30 31.5q-11 15 -18 21.5t-16 6.5q-23 0 -30 -46q-2 -11 -10.5 -18.5t-19.5 -7.5q-14 0 -23.5 11t-7.5 25q7 50 31 77.5t63 27.5q23 0 38 -11.5t30 -32.5q11 -14 18.5 -20.5t16.5 -6.5q10 0 18 11.5t11 34.5q1 11 10 18.5t20 7.5
q14 0 23.5 -10.5t7.5 -24.5q-6 -51 -30 -78.5t-64 -27.5q-23 0 -38 11.5z" />
    <glyph glyph-name="uni1EC7" unicode="&#x1ec7;" 
d="M55.5 370q26.5 58 75.5 91.5t114 33.5q64 0 111.5 -31.5t72 -84.5t24.5 -117q0 -28 -18.5 -43.5t-53.5 -15.5h-231q4 -52 34 -85t83 -33q41 0 78 25q10 7 25 7q19 0 32.5 -13.5t13.5 -32.5q0 -23 -21 -37q-62 -46 -141 -46q-67 0 -118 31.5t-79 89.5t-28 133
q0 70 26.5 128zM174.5 364q-22.5 -34 -24.5 -79h187q-2 45 -24 79t-70 34q-46 0 -68.5 -34zM246 667l-57 -84q-8 -13 -25 -13q-13 0 -22.5 9t-9.5 23q0 7 6 19l40 75q7 13 21.5 21.5t29.5 8.5h35q14 0 28.5 -8.5t21.5 -21.5l41 -75q5 -10 5 -19q0 -14 -9.5 -23t-22.5 -9
q-17 0 -25 13zM199.5 -74.5q19.5 19.5 45.5 19.5t45 -19.5t19 -45.5q0 -27 -19 -46t-45 -19t-45.5 19t-19.5 46q0 26 19.5 45.5z" />
    <glyph glyph-name="fl.alt1" horiz-adv-x="554" 
d="M210 562q-13 -15 -13 -42v-37h34q21 0 36.5 -15t15.5 -37t-15.5 -37.5t-36.5 -15.5h-34v-282q8 -2 12 -2q5 0 9 1t8 1q20 -1 31.5 -15.5t11.5 -34.5q0 -18 -10 -31t-26 -18q-22 -9 -55 -9q-23 0 -45 5q-24 1 -42 21q-37 31 -37 102v262q-20 2 -33.5 17t-13.5 36
t13.5 35.5t33.5 16.5v130q0 25 17.5 43t42.5 18q19 0 36 -12q28 15 68 15q22 0 37 -4q19 -3 31 -15.5t12 -32.5t-12 -34t-32 -14h-10q-21 0 -34 -15z" />
    <glyph glyph-name="f_f_l.alt1" horiz-adv-x="842" 
d="M210 562q-13 -15 -13 -42v-37h34q21 0 36.5 -15t15.5 -37t-15.5 -37.5t-36.5 -15.5h-34v-282q8 -2 12 -2q5 0 9 1t8 1q20 -1 31.5 -15.5t11.5 -34.5q0 -18 -10 -31t-26 -18q-22 -9 -55 -9q-23 0 -45 5q-24 1 -42 21q-37 31 -37 102v262q-20 2 -33.5 17t-13.5 36
t13.5 35.5t33.5 16.5v130q0 25 17.5 43t42.5 18q19 0 36 -12q28 15 68 15q22 0 37 -4q19 -3 31 -15.5t12 -32.5t-12 -34t-32 -14h-10q-21 0 -34 -15z" />
    <glyph glyph-name="uni1E1F" unicode="&#x1e1f;" horiz-adv-x="288" 
d="M210 562q-13 -15 -13 -42v-37h34q21 0 36.5 -15t15.5 -37t-15.5 -37.5t-36.5 -15.5h-34v-324q0 -25 -17.5 -43t-42.5 -18t-43 18t-18 43v324h-19q-20 0 -35 15.5t-15 37.5t15 37t35 15h19v38q0 73 38.5 114.5t103.5 41.5q22 0 37 -4q19 -3 31 -15.5t12 -32.5t-12 -34
t-32 -14h-10q-21 0 -34 -15zM154.5 832.5q19.5 19.5 45.5 19.5t45 -19.5t19 -45.5q0 -27 -19 -46t-45 -19t-45.5 19t-19.5 46q0 26 19.5 45.5z" />
    <glyph glyph-name="gcircumflex" unicode="&#x11d;" horiz-adv-x="504" 
d="M431.5 472q17.5 -18 17.5 -43v-404q0 -121 -63.5 -171t-158.5 -50q-85 0 -145 37q-12 7 -18.5 18.5t-6.5 25.5q0 21 15 35.5t36 14.5q15 0 25 -6q41 -24 88 -24q46 0 77 27.5t31 86.5v60q-22 -36 -54 -55.5t-68 -19.5q-82 0 -130 64t-48 181q0 115 48 180.5t130 65.5
q37 0 69 -18.5t53 -56.5v11q0 24 18 41.5t42 17.5q25 0 42.5 -18zM294 126q24 16 35 40v166q-11 24 -34.5 40.5t-48.5 16.5q-45 0 -69 -38t-24 -102t24 -101.5t69 -37.5q24 0 48 16zM257 667l-57 -84q-8 -13 -25 -13q-13 0 -22.5 9t-9.5 23q0 7 6 19l40 75q7 13 21.5 21.5
t29.5 8.5h35q14 0 28.5 -8.5t21.5 -21.5l41 -75q5 -10 5 -19q0 -14 -9.5 -23t-22.5 -9q-17 0 -25 13z" />
    <glyph glyph-name="gbreve" unicode="&#x11f;" horiz-adv-x="504" 
d="M431.5 472q17.5 -18 17.5 -43v-404q0 -121 -63.5 -171t-158.5 -50q-85 0 -145 37q-12 7 -18.5 18.5t-6.5 25.5q0 21 15 35.5t36 14.5q15 0 25 -6q41 -24 88 -24q46 0 77 27.5t31 86.5v60q-22 -36 -54 -55.5t-68 -19.5q-82 0 -130 64t-48 181q0 115 48 180.5t130 65.5
q37 0 69 -18.5t53 -56.5v11q0 24 18 41.5t42 17.5q25 0 42.5 -18zM294 126q24 16 35 40v166q-11 24 -34.5 40.5t-48.5 16.5q-45 0 -69 -38t-24 -102t24 -101.5t69 -37.5q24 0 48 16zM188 584q-33 13 -59 37q-12 10 -12 26q0 14 10.5 24.5t24.5 10.5q15 0 24 -9
q35 -33 80 -33q46 0 80 32q10 10 24 10t24 -10.5t10 -24.5t-11 -25q-54 -51 -127 -51q-35 0 -68 13z" />
    <glyph glyph-name="gdotaccent" unicode="&#x121;" horiz-adv-x="504" 
d="M431.5 472q17.5 -18 17.5 -43v-404q0 -121 -63.5 -171t-158.5 -50q-85 0 -145 37q-12 7 -18.5 18.5t-6.5 25.5q0 21 15 35.5t36 14.5q15 0 25 -6q41 -24 88 -24q46 0 77 27.5t31 86.5v60q-22 -36 -54 -55.5t-68 -19.5q-82 0 -130 64t-48 181q0 115 48 180.5t130 65.5
q37 0 69 -18.5t53 -56.5v11q0 24 18 41.5t42 17.5q25 0 42.5 -18zM294 126q24 16 35 40v166q-11 24 -34.5 40.5t-48.5 16.5q-45 0 -69 -38t-24 -102t24 -101.5t69 -37.5q24 0 48 16zM211.5 685.5q19.5 19.5 45.5 19.5t45 -19.5t19 -45.5q0 -27 -19 -46t-45 -19t-45.5 19
t-19.5 46q0 26 19.5 45.5z" />
    <glyph glyph-name="uni0123" unicode="&#x123;" horiz-adv-x="504" 
d="M207.5 563q-19.5 20 -19.5 57q0 40 18 76.5t49 63.5q8 6 17 6q11 0 18.5 -7.5t7.5 -17.5t-11 -21q-15 -14 -26 -31t-13 -31q2 2 11 2q22 0 38 -16t16 -40q0 -25 -17.5 -43t-42.5 -18q-26 0 -45.5 20zM431.5 472q17.5 -18 17.5 -43v-404q0 -121 -63.5 -171t-158.5 -50
q-85 0 -145 37q-12 7 -18.5 18.5t-6.5 25.5q0 21 15 35.5t36 14.5q15 0 25 -6q41 -24 88 -24q46 0 77 27.5t31 86.5v60q-22 -36 -54 -55.5t-68 -19.5q-82 0 -130 64t-48 181q0 115 48 180.5t130 65.5q37 0 69 -18.5t53 -56.5v11q0 24 18 41.5t42 17.5q25 0 42.5 -18z
M294 126q24 16 35 40v166q-11 24 -34.5 40.5t-48.5 16.5q-45 0 -69 -38t-24 -102t24 -101.5t69 -37.5q24 0 48 16z" />
    <glyph glyph-name="gcaron" unicode="&#x1e7;" horiz-adv-x="504" 
d="M431.5 472q17.5 -18 17.5 -43v-404q0 -121 -63.5 -171t-158.5 -50q-85 0 -145 37q-12 7 -18.5 18.5t-6.5 25.5q0 21 15 35.5t36 14.5q15 0 25 -6q41 -24 88 -24q46 0 77 27.5t31 86.5v60q-22 -36 -54 -55.5t-68 -19.5q-82 0 -130 64t-48 181q0 115 48 180.5t130 65.5
q37 0 69 -18.5t53 -56.5v11q0 24 18 41.5t42 17.5q25 0 42.5 -18zM294 126q24 16 35 40v166q-11 24 -34.5 40.5t-48.5 16.5q-45 0 -69 -38t-24 -102t24 -101.5t69 -37.5q24 0 48 16zM358.5 717q9.5 -9 9.5 -23q0 -9 -5 -19l-41 -75q-7 -13 -21.5 -21.5t-28.5 -8.5h-35
q-15 0 -29.5 8.5t-21.5 21.5l-40 75q-6 12 -6 19q0 14 9.5 23t22.5 9q17 0 25 -13l57 -84l57 84q8 13 25 13q13 0 22.5 -9z" />
    <glyph glyph-name="hbar" unicode="&#x127;" horiz-adv-x="508" 
d="M422 461q32 -34 32 -96v-311q0 -25 -17.5 -43t-42.5 -18t-42.5 18t-17.5 43v266q0 69 -64 69q-27 0 -50 -17.5t-37 -42.5v-275q0 -25 -17.5 -43t-42.5 -18t-43 18t-18 43v475h-22q-14 0 -24.5 10.5t-10.5 24.5t10.5 24t24.5 10h22v15q0 25 18 43t43 18t42.5 -18t17.5 -43
v-15h103q14 0 24 -10t10 -24t-10 -24.5t-24 -10.5h-103v-109q20 31 58.5 53t82.5 22q66 0 98 -34z" />
    <glyph glyph-name="hcircumflex" unicode="&#x125;" horiz-adv-x="500" 
d="M343.5 11q-17.5 18 -17.5 43v266q0 69 -64 69q-27 0 -50 -17.5t-37 -42.5v-275q0 -25 -17.5 -43t-42.5 -18t-43 18t-18 43v559q0 25 18 43t43 18t42.5 -18t17.5 -43v-193q20 31 58.5 53t82.5 22q66 0 98 -34t32 -96v-311q0 -25 -17.5 -43t-42.5 -18t-42.5 18zM251 814
l-57 -84q-8 -13 -25 -13q-13 0 -22.5 9t-9.5 23q0 7 6 19l40 75q7 13 21.5 21.5t29.5 8.5h35q14 0 28.5 -8.5t21.5 -21.5l41 -75q5 -10 5 -19q0 -14 -9.5 -23t-22.5 -9q-17 0 -25 13z" />
    <glyph glyph-name="uni1E23" unicode="&#x1e23;" horiz-adv-x="500" 
d="M343.5 11q-17.5 18 -17.5 43v266q0 69 -64 69q-27 0 -50 -17.5t-37 -42.5v-275q0 -25 -17.5 -43t-42.5 -18t-43 18t-18 43v559q0 25 18 43t43 18t42.5 -18t17.5 -43v-193q20 31 58.5 53t82.5 22q66 0 98 -34t32 -96v-311q0 -25 -17.5 -43t-42.5 -18t-42.5 18z
M204.5 832.5q19.5 19.5 45.5 19.5t45 -19.5t19 -45.5q0 -27 -19 -46t-45 -19t-45.5 19t-19.5 46q0 26 19.5 45.5z" />
    <glyph glyph-name="dotlessi" unicode="&#x131;" horiz-adv-x="228" 
d="M71.5 11q-17.5 18 -17.5 43v375q0 25 17.5 43t42.5 18t42.5 -18t17.5 -43v-375q0 -25 -17.5 -43t-42.5 -18t-42.5 18z" />
    <glyph glyph-name="iacute" unicode="&#xed;" horiz-adv-x="228" 
d="M71.5 11q-17.5 18 -17.5 43v375q0 25 17.5 43t42.5 18t42.5 -18t17.5 -43v-375q0 -25 -17.5 -43t-42.5 -18t-42.5 18zM117 567q-13 0 -22.5 9.5t-9.5 22.5q0 10 6 19l72 96q11 17 31 17q16 0 27 -11.5t11 -27.5t-10 -26l-81 -87q-9 -12 -24 -12z" />
    <glyph glyph-name="ibreve" unicode="&#x12d;" horiz-adv-x="228" 
d="M71.5 11q-17.5 18 -17.5 43v375q0 25 17.5 43t42.5 18t42.5 -18t17.5 -43v-375q0 -25 -17.5 -43t-42.5 -18t-42.5 18zM46 584q-33 13 -59 37q-12 10 -12 26q0 14 10.5 24.5t24.5 10.5q15 0 24 -9q35 -33 80 -33q46 0 80 32q10 10 24 10t24 -10.5t10 -24.5t-11 -25
q-54 -51 -127 -51q-35 0 -68 13z" />
    <glyph glyph-name="icircumflex" unicode="&#xee;" horiz-adv-x="228" 
d="M71.5 11q-17.5 18 -17.5 43v375q0 25 17.5 43t42.5 18t42.5 -18t17.5 -43v-375q0 -25 -17.5 -43t-42.5 -18t-42.5 18zM115 667l-57 -84q-8 -13 -25 -13q-13 0 -22.5 9t-9.5 23q0 7 6 19l40 75q7 13 21.5 21.5t29.5 8.5h35q14 0 28.5 -8.5t21.5 -21.5l41 -75q5 -10 5 -19
q0 -14 -9.5 -23t-22.5 -9q-17 0 -25 13z" />
    <glyph glyph-name="idieresis" unicode="&#xef;" horiz-adv-x="228" 
d="M71.5 11q-17.5 18 -17.5 43v375q0 25 17.5 43t42.5 18t42.5 -18t17.5 -43v-375q0 -25 -17.5 -43t-42.5 -18t-42.5 18zM-25 595q-19 19 -19 45q0 27 19 46t46 19t45.5 -19t18.5 -46q0 -26 -18.5 -45t-45.5 -19t-46 19zM162 594.5q-19 18.5 -19 45.5t19 46t46 19t46 -19
t19 -46t-19 -45.5t-46 -18.5t-46 18.5z" />
    <glyph glyph-name="igrave" unicode="&#xec;" horiz-adv-x="228" 
d="M71.5 11q-17.5 18 -17.5 43v375q0 25 17.5 43t42.5 18t42.5 -18t17.5 -43v-375q0 -25 -17.5 -43t-42.5 -18t-42.5 18zM9 666q-10 10 -10 26t11 27.5t27 11.5q20 0 31 -17l72 -96q6 -9 6 -19q0 -13 -9.5 -22.5t-22.5 -9.5q-15 0 -24 12z" />
    <glyph glyph-name="imacron" unicode="&#x12b;" horiz-adv-x="228" 
d="M71.5 11q-17.5 18 -17.5 43v375q0 25 17.5 43t42.5 18t42.5 -18t17.5 -43v-375q0 -25 -17.5 -43t-42.5 -18t-42.5 18zM-23.5 593q-10.5 10 -10.5 25q0 14 10.5 24t24.5 10h225q14 0 24 -10t10 -24q0 -15 -10 -25t-24 -10h-225q-14 0 -24.5 10z" />
    <glyph glyph-name="iogonek" unicode="&#x12f;" horiz-adv-x="228" 
d="M63.5 587q-21.5 21 -21.5 51t21.5 51.5t50.5 21.5q30 0 51 -21.5t21 -51.5t-21 -51t-51 -21q-29 0 -50.5 21zM156.5 472q17.5 -18 17.5 -43v-375q0 -19 -11.5 -35t-28.5 -22q-26 -24 -37 -39t-11 -33q0 -14 10 -23t24 -9q5 0 9 1t7 1q15 0 26 -11t11 -27q0 -15 -9 -24
t-19 -12q-22 -7 -56 -7q-43 0 -73.5 20.5t-30.5 59.5q0 35 28.5 62t74.5 43q-15 8 -24.5 22.5t-9.5 32.5v375q0 25 17.5 43t42.5 18t42.5 -18z" />
    <glyph glyph-name="itilde" unicode="&#x129;" horiz-adv-x="228" 
d="M71.5 11q-17.5 18 -17.5 43v375q0 25 17.5 43t42.5 18t42.5 -18t17.5 -43v-375q0 -25 -17.5 -43t-42.5 -18t-42.5 18zM126 585.5q-15 11.5 -30 31.5q-11 15 -18 21.5t-16 6.5q-23 0 -30 -46q-2 -11 -10.5 -18.5t-19.5 -7.5q-14 0 -23.5 11t-7.5 25q7 50 31 77.5t63 27.5
q23 0 38 -11.5t30 -32.5q11 -14 18.5 -20.5t16.5 -6.5q10 0 18 11.5t11 34.5q1 11 10 18.5t20 7.5q14 0 23.5 -10.5t7.5 -24.5q-6 -51 -30 -78.5t-64 -27.5q-23 0 -38 11.5z" />
    <glyph glyph-name="uni1EC9" unicode="&#x1ec9;" horiz-adv-x="228" 
d="M71.5 11q-17.5 18 -17.5 43v375q0 25 17.5 43t42.5 18t42.5 -18t17.5 -43v-375q0 -25 -17.5 -43t-42.5 -18t-42.5 18zM141.5 578.5q-8.5 7.5 -8.5 17.5q0 6 3 15q5 15 5 33q0 19 -8.5 28.5t-22.5 9.5q-19 0 -30 -18q-8 -15 -26 -15q-12 0 -20 8.5t-8 20.5q0 10 7 19
q25 39 78 39q40 0 65.5 -22.5t25.5 -67.5q0 -28 -14 -58q-9 -17 -27 -17q-11 0 -19.5 7.5z" />
    <glyph glyph-name="uni1ECB" unicode="&#x1ecb;" horiz-adv-x="228" 
d="M63.5 587q-21.5 21 -21.5 51t21.5 51.5t50.5 21.5q30 0 51 -21.5t21 -51.5t-21 -51t-51 -21q-29 0 -50.5 21zM71.5 11q-17.5 18 -17.5 43v375q0 25 17.5 43t42.5 18t42.5 -18t17.5 -43v-375q0 -25 -17.5 -43t-42.5 -18t-42.5 18zM68.5 -74.5q19.5 19.5 45.5 19.5
t45 -19.5t19 -45.5q0 -27 -19 -46t-45 -19t-45.5 19t-19.5 46q0 26 19.5 45.5z" />
    <glyph glyph-name="i.dotaccent" horiz-adv-x="228" 
d="M63.5 587q-21.5 21 -21.5 51t21.5 51.5t50.5 21.5q30 0 51 -21.5t21 -51.5t-21 -51t-51 -21q-29 0 -50.5 21zM71.5 11q-17.5 18 -17.5 43v375q0 25 17.5 43t42.5 18t42.5 -18t17.5 -43v-375q0 -25 -17.5 -43t-42.5 -18t-42.5 18z" />
    <glyph glyph-name="ij" unicode="&#x133;" horiz-adv-x="457" 
d="M186 633v-5q0 -30 -21 -51t-51 -21q-29 0 -50.5 21t-21.5 51v5v5q0 30 21.5 51.5t50.5 21.5q30 0 51 -21.5t21 -51.5v-5zM156.5 472q17.5 -18 17.5 -43v-461q0 -77 -36.5 -120.5t-105.5 -43.5h-7q-24 0 -40.5 15.5t-16.5 40.5q0 19 11 32.5t27 14.5l4 1q44 2 44 61v460
q0 25 17.5 43t42.5 18t42.5 -18z" />
    <glyph glyph-name="iacute_j.loclNLD" horiz-adv-x="456" 
d="M71.5 11q-17.5 18 -17.5 43v375q0 25 17.5 43t42.5 18t42.5 -18t17.5 -43v-375q0 -25 -17.5 -43t-42.5 -18t-42.5 18zM117 567q-13 0 -22.5 9.5t-9.5 22.5q0 10 6 19l72 96q11 17 31 17q16 0 27 -11.5t11 -27.5t-10 -26l-81 -87q-9 -12 -24 -12zM253 -196
q-24 0 -40.5 15.5t-16.5 40.5q0 19 11 32.5t27 14.5l4 1q44 2 44 61v460q0 25 17.5 43t42.5 18t42.5 -18t17.5 -43v-461q0 -77 -36.5 -120.5t-105.5 -43.5h-7zM345 567q-13 0 -22.5 9.5t-9.5 22.5q0 10 6 19l72 96q11 17 31 17q16 0 27 -11.5t11 -27.5t-10 -26l-81 -87
q-9 -12 -24 -12z" />
    <glyph glyph-name="uni0237" unicode="&#x237;" horiz-adv-x="228" 
d="M25 -196q-24 0 -40.5 15.5t-16.5 40.5q0 19 11 32.5t27 14.5l4 1q44 2 44 61v460q0 25 17.5 43t42.5 18t42.5 -18t17.5 -43v-461q0 -77 -36.5 -120.5t-105.5 -43.5h-7z" />
    <glyph glyph-name="jcircumflex" unicode="&#x135;" horiz-adv-x="228" 
d="M25 -196q-24 0 -40.5 15.5t-16.5 40.5q0 19 11 32.5t27 14.5l4 1q44 2 44 61v460q0 25 17.5 43t42.5 18t42.5 -18t17.5 -43v-461q0 -77 -36.5 -120.5t-105.5 -43.5h-7zM115 667l-57 -84q-8 -13 -25 -13q-13 0 -22.5 9t-9.5 23q0 7 6 19l40 75q7 13 21.5 21.5t29.5 8.5h35
q14 0 28.5 -8.5t21.5 -21.5l41 -75q5 -10 5 -19q0 -14 -9.5 -23t-22.5 -9q-17 0 -25 13z" />
    <glyph glyph-name="uni0137" unicode="&#x137;" horiz-adv-x="469" 
d="M446 53q0 -25 -17 -42.5t-42 -17.5q-16 0 -29 8t-22 22l-109 166l-53 -68v-67q0 -25 -17.5 -43t-42.5 -18t-42.5 18t-17.5 43v559q0 25 17.5 43t42.5 18t42.5 -18t17.5 -43v-349l158 202q9 11 21 17.5t25 6.5q23 0 39.5 -17t16.5 -40q0 -20 -12 -34l-112 -136l127 -180
q9 -13 9 -30zM200 -274q-8 8 -8 18q0 11 13 22q14 13 24.5 30.5t13.5 32.5q-6 -3 -15 -3q-22 0 -36.5 15.5t-14.5 39.5q0 25 17 42.5t42 17.5q28 0 48 -21t20 -57q0 -40 -18.5 -76.5t-49.5 -62.5q-8 -6 -17 -6q-11 0 -19 8z" />
    <glyph glyph-name="kgreenlandic" unicode="&#x138;" horiz-adv-x="469" 
d="M446 53q0 -25 -17 -42.5t-42 -17.5q-16 0 -29 8t-22 22l-109 166l-53 -68v-67q0 -25 -17.5 -43t-42.5 -18t-42.5 18t-17.5 43v375q0 25 17.5 43t42.5 18t42.5 -18t17.5 -43v-165l158 202q9 11 21 17.5t25 6.5q23 0 39.5 -17t16.5 -40q0 -20 -12 -34l-112 -136l127 -180
q9 -13 9 -30z" />
    <glyph glyph-name="lacute" unicode="&#x13a;" horiz-adv-x="228" 
d="M71.5 11q-17.5 18 -17.5 43v559q0 25 17.5 43t42.5 18t42.5 -18t17.5 -43v-559q0 -25 -17.5 -43t-42.5 -18t-42.5 18zM117 714q-13 0 -22.5 9.5t-9.5 22.5q0 10 6 19l72 96q11 17 31 17q16 0 27 -11.5t11 -27.5t-10 -26l-81 -87q-9 -12 -24 -12z" />
    <glyph glyph-name="uni013C" unicode="&#x13c;" horiz-adv-x="228" 
d="M71.5 11q-17.5 18 -17.5 43v559q0 25 17.5 43t42.5 18t42.5 -18t17.5 -43v-559q0 -25 -17.5 -43t-42.5 -18t-42.5 18zM77 -274q-8 8 -8 18q0 11 13 22q14 13 24.5 30.5t13.5 32.5q-6 -3 -15 -3q-22 0 -36.5 15.5t-14.5 39.5q0 25 17 42.5t42 17.5q28 0 48 -21t20 -57
q0 -40 -18.5 -76.5t-49.5 -62.5q-8 -6 -17 -6q-11 0 -19 8z" />
    <glyph glyph-name="lcaron" unicode="&#x13e;" horiz-adv-x="335" 
d="M71.5 11q-17.5 18 -17.5 43v559q0 25 17.5 43t42.5 18t42.5 -18t17.5 -43v-559q0 -25 -17.5 -43t-42.5 -18t-42.5 18zM238 464q-8 8 -8 18q0 11 13 22q14 13 24.5 30.5t13.5 32.5q-6 -3 -15 -3q-22 0 -36.5 15.5t-14.5 39.5q0 25 17 42.5t42 17.5q28 0 48 -21t20 -57
q0 -40 -18.5 -76.5t-49.5 -62.5q-8 -6 -17 -6q-11 0 -19 8z" />
    <glyph glyph-name="ldot" unicode="&#x140;" horiz-adv-x="371" 
d="M71.5 11q-17.5 18 -17.5 43v559q0 25 17.5 43t42.5 18t42.5 -18t17.5 -43v-559q0 -25 -17.5 -43t-42.5 -18t-42.5 18zM245 190q-23 23 -23 54q0 32 23 55t54 23t54 -23t23 -55q0 -31 -23 -54t-54 -23t-54 23z" />
    <glyph glyph-name="lslash" unicode="&#x142;" horiz-adv-x="275" 
d="M258 416q11 -11 11 -27q0 -22 -19 -33l-53 -30v-272q0 -25 -17.5 -43t-42.5 -18t-42.5 18t-17.5 43v203l-15 -9q-8 -5 -19 -5q-16 0 -27 11t-11 27q0 22 19 33l53 30v269q0 25 17.5 43t42.5 18t42.5 -18t17.5 -43v-200l15 9q7 5 19 5q16 0 27 -11z" />
    <glyph glyph-name="lacute.alt1" horiz-adv-x="265" 
d="M209 94q5 0 9 1t8 1q20 -1 31.5 -15.5t11.5 -34.5q0 -18 -10 -31t-26 -18q-22 -9 -55 -9q-124 0 -124 128v497q0 25 17.5 43t42.5 18t42.5 -18t17.5 -43v-469q0 -49 35 -50zM119 714q-13 0 -22.5 9.5t-9.5 22.5q0 10 6 19l72 96q11 17 31 17q16 0 27 -11.5t11 -27.5
t-10 -26l-81 -87q-9 -12 -24 -12z" />
    <glyph glyph-name="lcommaaccent.alt1" horiz-adv-x="265" 
d="M209 94q5 0 9 1t8 1q20 -1 31.5 -15.5t11.5 -34.5q0 -18 -10 -31t-26 -18q-22 -9 -55 -9q-124 0 -124 128v497q0 25 17.5 43t42.5 18t42.5 -18t17.5 -43v-469q0 -49 35 -50zM110 -274q-8 8 -8 18q0 11 13 22q14 13 24.5 30.5t13.5 32.5q-6 -3 -15 -3q-22 0 -36.5 15.5
t-14.5 39.5q0 25 17 42.5t42 17.5q28 0 48 -21t20 -57q0 -40 -18.5 -76.5t-49.5 -62.5q-8 -6 -17 -6q-11 0 -19 8z" />
    <glyph glyph-name="lcaron.alt1" horiz-adv-x="335" 
d="M209 94q5 0 9 1t8 1q20 -1 31.5 -15.5t11.5 -34.5q0 -18 -10 -31t-26 -18q-22 -9 -55 -9q-124 0 -124 128v497q0 25 17.5 43t42.5 18t42.5 -18t17.5 -43v-469q0 -49 35 -50zM249 465q-8 8 -8 18q0 11 13 22q14 13 24.5 30.5t13.5 32.5q-6 -3 -15 -3q-22 0 -36.5 15.5
t-14.5 39.5q0 25 17 42.5t42 17.5q28 0 48 -21t20 -57q0 -40 -18.5 -76.5t-49.5 -62.5q-8 -6 -17 -6q-11 0 -19 8z" />
    <glyph glyph-name="ldot.alt1" horiz-adv-x="370" 
d="M209 94q5 0 9 1t8 1q20 -1 31.5 -15.5t11.5 -34.5q0 -18 -10 -31t-26 -18q-22 -9 -55 -9q-124 0 -124 128v497q0 25 17.5 43t42.5 18t42.5 -18t17.5 -43v-469q0 -49 35 -50zM245 190q-23 23 -23 54q0 32 23 55t54 23t54 -23t23 -55q0 -31 -23 -54t-54 -23t-54 23z" />
    <glyph glyph-name="lslash.alt1" horiz-adv-x="290" 
d="M280.5 80.5q11.5 -14.5 11.5 -34.5q0 -18 -10 -31t-26 -18q-22 -9 -55 -9q-124 0 -124 128v141l-15 -9q-8 -5 -19 -5q-16 0 -27 11t-11 27q0 22 19 33l53 30v269q0 25 17.5 43t42.5 18t42.5 -18t17.5 -43v-200l15 9q7 5 19 5q16 0 27 -11t11 -27q0 -22 -19 -33l-53 -30
v-182q0 -49 35 -50q5 0 9 1t8 1q20 -1 31.5 -15.5z" />
    <glyph glyph-name="nacute" unicode="&#x144;" horiz-adv-x="500" 
d="M413 460q32 -35 32 -97v-309q0 -25 -17.5 -43t-42.5 -18t-42.5 18t-17.5 43v264q0 71 -63 71q-28 0 -50.5 -17.5t-37.5 -42.5v-275q0 -25 -17.5 -43t-42.5 -18t-42.5 18t-17.5 43v375q0 25 17.5 43t42.5 18q26 0 43.5 -17.5t17.5 -43.5v-9q20 31 58.5 53t82.5 22
q65 0 97 -35zM253 567q-13 0 -22.5 9.5t-9.5 22.5q0 10 6 19l72 96q11 17 31 17q16 0 27 -11.5t11 -27.5t-10 -26l-81 -87q-9 -12 -24 -12z" />
    <glyph glyph-name="napostrophe" unicode="&#x149;" horiz-adv-x="500" 
d="M413 460q32 -35 32 -97v-309q0 -25 -17.5 -43t-42.5 -18t-42.5 18t-17.5 43v264q0 71 -63 71q-28 0 -50.5 -17.5t-37.5 -42.5v-275q0 -25 -17.5 -43t-42.5 -18t-42.5 18t-17.5 43v375q0 25 17.5 43t42.5 18q26 0 43.5 -17.5t17.5 -43.5v-9q20 31 58.5 53t82.5 22
q65 0 97 -35zM61 546q-8 8 -8 18q0 11 13 22q14 13 24.5 30.5t13.5 32.5q-6 -3 -15 -3q-22 0 -36.5 15.5t-14.5 39.5q0 25 17 42.5t42 17.5q28 0 48 -21t20 -57q0 -40 -18.5 -76.5t-49.5 -62.5q-8 -6 -17 -6q-11 0 -19 8z" />
    <glyph glyph-name="ncaron" unicode="&#x148;" horiz-adv-x="500" 
d="M413 460q32 -35 32 -97v-309q0 -25 -17.5 -43t-42.5 -18t-42.5 18t-17.5 43v264q0 71 -63 71q-28 0 -50.5 -17.5t-37.5 -42.5v-275q0 -25 -17.5 -43t-42.5 -18t-42.5 18t-17.5 43v375q0 25 17.5 43t42.5 18q26 0 43.5 -17.5t17.5 -43.5v-9q20 31 58.5 53t82.5 22
q65 0 97 -35zM352.5 717q9.5 -9 9.5 -23q0 -9 -5 -19l-41 -75q-7 -13 -21.5 -21.5t-28.5 -8.5h-35q-15 0 -29.5 8.5t-21.5 21.5l-40 75q-6 12 -6 19q0 14 9.5 23t22.5 9q17 0 25 -13l57 -84l57 84q8 13 25 13q13 0 22.5 -9z" />
    <glyph glyph-name="uni0146" unicode="&#x146;" horiz-adv-x="500" 
d="M413 460q32 -35 32 -97v-309q0 -25 -17.5 -43t-42.5 -18t-42.5 18t-17.5 43v264q0 71 -63 71q-28 0 -50.5 -17.5t-37.5 -42.5v-275q0 -25 -17.5 -43t-42.5 -18t-42.5 18t-17.5 43v375q0 25 17.5 43t42.5 18q26 0 43.5 -17.5t17.5 -43.5v-9q20 31 58.5 53t82.5 22
q65 0 97 -35zM213 -274q-8 8 -8 18q0 11 13 22q14 13 24.5 30.5t13.5 32.5q-6 -3 -15 -3q-22 0 -36.5 15.5t-14.5 39.5q0 25 17 42.5t42 17.5q28 0 48 -21t20 -57q0 -40 -18.5 -76.5t-49.5 -62.5q-8 -6 -17 -6q-11 0 -19 8z" />
    <glyph glyph-name="ntilde" unicode="&#xf1;" horiz-adv-x="500" 
d="M413 460q32 -35 32 -97v-309q0 -25 -17.5 -43t-42.5 -18t-42.5 18t-17.5 43v264q0 71 -63 71q-28 0 -50.5 -17.5t-37.5 -42.5v-275q0 -25 -17.5 -43t-42.5 -18t-42.5 18t-17.5 43v375q0 25 17.5 43t42.5 18q26 0 43.5 -17.5t17.5 -43.5v-9q20 31 58.5 53t82.5 22
q65 0 97 -35zM262 585.5q-15 11.5 -30 31.5q-11 15 -18 21.5t-16 6.5q-23 0 -30 -46q-2 -11 -10.5 -18.5t-19.5 -7.5q-14 0 -23.5 11t-7.5 25q7 50 31 77.5t63 27.5q23 0 38 -11.5t30 -32.5q11 -14 18.5 -20.5t16.5 -6.5q10 0 18 11.5t11 34.5q1 11 10 18.5t20 7.5
q14 0 23.5 -10.5t7.5 -24.5q-6 -51 -30 -78.5t-64 -27.5q-23 0 -38 11.5z" />
    <glyph glyph-name="uni0272" unicode="&#x272;" horiz-adv-x="500" 
d="M413 460q32 -35 32 -97v-309q0 -25 -17.5 -43t-42.5 -18t-42.5 18t-17.5 43v264q0 71 -63 71q-28 0 -50.5 -17.5t-37.5 -42.5v-361q0 -77 -37 -120.5t-109 -43.5h-5q-23 0 -39 14.5t-16 37.5q0 20 12.5 36t30.5 16h2q18 0 29.5 15t11.5 44v462q0 25 17.5 43t42.5 18
q26 0 43.5 -17.5t17.5 -43.5v-9q21 31 59 53t82 22q65 0 97 -35z" />
    <glyph glyph-name="eng" unicode="&#x14b;" horiz-adv-x="500" 
d="M413 460q32 -35 32 -97v-395q0 -79 -35 -121.5t-107 -42.5h-7q-24 0 -40.5 15.5t-16.5 40.5q0 19 11 32.5t27 14.5l4 1q44 2 44 61v349q0 71 -63 71q-28 0 -50.5 -17.5t-37.5 -42.5v-275q0 -25 -17.5 -43t-42.5 -18t-42.5 18t-17.5 43v375q0 25 17.5 43t42.5 18
q26 0 43.5 -17.5t17.5 -43.5v-8q21 30 59.5 52t81.5 22q65 0 97 -35z" />
    <glyph glyph-name="oacute" unicode="&#xf3;" horiz-adv-x="495" 
d="M129 22.5q-49 34.5 -74.5 92.5t-25.5 127t25.5 126.5t75 92t117.5 34.5q69 0 118.5 -34.5t75 -92t25.5 -126.5q0 -70 -25.5 -127.5t-75 -92t-118.5 -34.5t-118 34.5zM318 136q24 42 24 106t-24 105.5t-71 41.5q-46 0 -69.5 -42t-23.5 -105q0 -64 23.5 -106t69.5 -42
q47 0 71 42zM250 567q-13 0 -22.5 9.5t-9.5 22.5q0 10 6 19l72 96q11 17 31 17q16 0 27 -11.5t11 -27.5t-10 -26l-81 -87q-9 -12 -24 -12z" />
    <glyph glyph-name="obreve" unicode="&#x14f;" horiz-adv-x="495" 
d="M129 22.5q-49 34.5 -74.5 92.5t-25.5 127t25.5 126.5t75 92t117.5 34.5q69 0 118.5 -34.5t75 -92t25.5 -126.5q0 -70 -25.5 -127.5t-75 -92t-118.5 -34.5t-118 34.5zM318 136q24 42 24 106t-24 105.5t-71 41.5q-46 0 -69.5 -42t-23.5 -105q0 -64 23.5 -106t69.5 -42
q47 0 71 42zM179 584q-33 13 -59 37q-12 10 -12 26q0 14 10.5 24.5t24.5 10.5q15 0 24 -9q35 -33 80 -33q46 0 80 32q10 10 24 10t24 -10.5t10 -24.5t-11 -25q-54 -51 -127 -51q-35 0 -68 13z" />
    <glyph glyph-name="ocircumflex" unicode="&#xf4;" horiz-adv-x="495" 
d="M129 22.5q-49 34.5 -74.5 92.5t-25.5 127t25.5 126.5t75 92t117.5 34.5q69 0 118.5 -34.5t75 -92t25.5 -126.5q0 -70 -25.5 -127.5t-75 -92t-118.5 -34.5t-118 34.5zM318 136q24 42 24 106t-24 105.5t-71 41.5q-46 0 -69.5 -42t-23.5 -105q0 -64 23.5 -106t69.5 -42
q47 0 71 42zM248 667l-57 -84q-8 -13 -25 -13q-13 0 -22.5 9t-9.5 23q0 7 6 19l40 75q7 13 21.5 21.5t29.5 8.5h35q14 0 28.5 -8.5t21.5 -21.5l41 -75q5 -10 5 -19q0 -14 -9.5 -23t-22.5 -9q-17 0 -25 13z" />
    <glyph glyph-name="odieresis" unicode="&#xf6;" horiz-adv-x="495" 
d="M129 22.5q-49 34.5 -74.5 92.5t-25.5 127t25.5 126.5t75 92t117.5 34.5q69 0 118.5 -34.5t75 -92t25.5 -126.5q0 -70 -25.5 -127.5t-75 -92t-118.5 -34.5t-118 34.5zM318 136q24 42 24 106t-24 105.5t-71 41.5q-46 0 -69.5 -42t-23.5 -105q0 -64 23.5 -106t69.5 -42
q47 0 71 42zM108 595q-19 19 -19 45q0 27 19 46t46 19t45.5 -19t18.5 -46q0 -26 -18.5 -45t-45.5 -19t-46 19zM295 594.5q-19 18.5 -19 45.5t19 46t46 19t46 -19t19 -46t-19 -45.5t-46 -18.5t-46 18.5z" />
    <glyph glyph-name="ograve" unicode="&#xf2;" horiz-adv-x="495" 
d="M129 22.5q-49 34.5 -74.5 92.5t-25.5 127t25.5 126.5t75 92t117.5 34.5q69 0 118.5 -34.5t75 -92t25.5 -126.5q0 -70 -25.5 -127.5t-75 -92t-118.5 -34.5t-118 34.5zM318 136q24 42 24 106t-24 105.5t-71 41.5q-46 0 -69.5 -42t-23.5 -105q0 -64 23.5 -106t69.5 -42
q47 0 71 42zM143 666q-10 10 -10 26t11 27.5t27 11.5q20 0 31 -17l72 -96q6 -9 6 -19q0 -13 -9.5 -22.5t-22.5 -9.5q-15 0 -24 12z" />
    <glyph glyph-name="ohungarumlaut" unicode="&#x151;" horiz-adv-x="495" 
d="M129 22.5q-49 34.5 -74.5 92.5t-25.5 127t25.5 126.5t75 92t117.5 34.5q69 0 118.5 -34.5t75 -92t25.5 -126.5q0 -70 -25.5 -127.5t-75 -92t-118.5 -34.5t-118 34.5zM318 136q24 42 24 106t-24 105.5t-71 41.5q-46 0 -69.5 -42t-23.5 -105q0 -64 23.5 -106t69.5 -42
q47 0 71 42zM166.5 579q-9.5 9 -9.5 21q0 9 6 19l42 84q5 11 14.5 17.5t20.5 6.5q15 0 26 -11t11 -26q0 -13 -8 -24l-56 -83q-8 -13 -25 -13q-12 0 -21.5 9zM305.5 579q-9.5 9 -9.5 21q0 9 6 19l42 84q5 11 14.5 17.5t20.5 6.5q15 0 26 -11t11 -26q0 -11 -8 -24l-57 -83
q-8 -13 -24 -13q-12 0 -21.5 9z" />
    <glyph glyph-name="omacron" unicode="&#x14d;" horiz-adv-x="495" 
d="M129 22.5q-49 34.5 -74.5 92.5t-25.5 127t25.5 126.5t75 92t117.5 34.5q69 0 118.5 -34.5t75 -92t25.5 -126.5q0 -70 -25.5 -127.5t-75 -92t-118.5 -34.5t-118 34.5zM318 136q24 42 24 106t-24 105.5t-71 41.5q-46 0 -69.5 -42t-23.5 -105q0 -64 23.5 -106t69.5 -42
q47 0 71 42zM110.5 593q-10.5 10 -10.5 25q0 14 10.5 24t24.5 10h225q14 0 24 -10t10 -24q0 -15 -10 -25t-24 -10h-225q-14 0 -24.5 10z" />
    <glyph glyph-name="oslash" unicode="&#xf8;" horiz-adv-x="495" 
d="M451.5 339q14.5 -46 14.5 -97q0 -70 -25.5 -127.5t-75 -92t-118.5 -34.5t-122 37l-14 -20q-9 -12 -23 -12q-12 0 -20 8.5t-8 20.5q0 9 5 16l19 27q-27 34 -41 80t-14 97q0 69 25.5 126.5t75 92t117.5 34.5q71 0 121 -36l14 19q9 12 23 12q11 0 19.5 -8.5t8.5 -20.5
q0 -9 -5 -16l-18 -25q27 -35 41.5 -81zM162 173l140 194q-22 22 -55 22q-46 0 -69.5 -42t-23.5 -105q0 -35 8 -69zM318 136q24 42 24 106q0 40 -9 71l-141 -196q23 -23 55 -23q47 0 71 42z" />
    <glyph glyph-name="oslashacute" unicode="&#x1ff;" horiz-adv-x="495" 
d="M451.5 339q14.5 -46 14.5 -97q0 -70 -25.5 -127.5t-75 -92t-118.5 -34.5t-122 37l-14 -20q-9 -12 -23 -12q-12 0 -20 8.5t-8 20.5q0 9 5 16l19 27q-27 34 -41 80t-14 97q0 69 25.5 126.5t75 92t117.5 34.5q71 0 121 -36l14 19q9 12 23 12q11 0 19.5 -8.5t8.5 -20.5
q0 -9 -5 -16l-18 -25q27 -35 41.5 -81zM162 173l140 194q-22 22 -55 22q-46 0 -69.5 -42t-23.5 -105q0 -35 8 -69zM318 136q24 42 24 106q0 40 -9 71l-141 -196q23 -23 55 -23q47 0 71 42zM250 567q-13 0 -22.5 9.5t-9.5 22.5q0 10 6 19l72 96q11 17 31 17q16 0 27 -11.5
t11 -27.5t-10 -26l-81 -87q-9 -12 -24 -12z" />
    <glyph glyph-name="otilde" unicode="&#xf5;" horiz-adv-x="495" 
d="M129 22.5q-49 34.5 -74.5 92.5t-25.5 127t25.5 126.5t75 92t117.5 34.5q69 0 118.5 -34.5t75 -92t25.5 -126.5q0 -70 -25.5 -127.5t-75 -92t-118.5 -34.5t-118 34.5zM318 136q24 42 24 106t-24 105.5t-71 41.5q-46 0 -69.5 -42t-23.5 -105q0 -64 23.5 -106t69.5 -42
q47 0 71 42zM259 585.5q-15 11.5 -30 31.5q-11 15 -18 21.5t-16 6.5q-23 0 -30 -46q-2 -11 -10.5 -18.5t-19.5 -7.5q-14 0 -23.5 11t-7.5 25q7 50 31 77.5t63 27.5q23 0 38 -11.5t30 -32.5q11 -14 18.5 -20.5t16.5 -6.5q10 0 18 11.5t11 34.5q1 11 10 18.5t20 7.5
q14 0 23.5 -10.5t7.5 -24.5q-6 -51 -30 -78.5t-64 -27.5q-23 0 -38 11.5z" />
    <glyph glyph-name="uni01EB" unicode="&#x1eb;" horiz-adv-x="495" 
d="M240.5 -44q-9.5 -14 -9.5 -31q0 -14 10 -23t24 -9q5 0 9 1t7 1q15 0 26 -11t11 -27q0 -15 -9 -24t-19 -12q-22 -7 -56 -7q-43 0 -73.5 20.5t-30.5 59.5q0 31 22.5 55.5t59.5 41.5q-87 12 -135 83t-48 168q0 69 25.5 126.5t75 92t117.5 34.5q69 0 118.5 -34.5t75 -92
t25.5 -126.5q0 -65 -22.5 -120.5t-66.5 -91t-106 -41.5q-21 -19 -30.5 -33zM177.5 136q23.5 -42 69.5 -42q47 0 71 42t24 106t-24 105.5t-71 41.5q-46 0 -69.5 -42t-23.5 -105q0 -64 23.5 -106z" />
    <glyph glyph-name="uni1ECD" unicode="&#x1ecd;" horiz-adv-x="495" 
d="M129 22.5q-49 34.5 -74.5 92.5t-25.5 127t25.5 126.5t75 92t117.5 34.5q69 0 118.5 -34.5t75 -92t25.5 -126.5q0 -70 -25.5 -127.5t-75 -92t-118.5 -34.5t-118 34.5zM318 136q24 42 24 106t-24 105.5t-71 41.5q-46 0 -69.5 -42t-23.5 -105q0 -64 23.5 -106t69.5 -42
q47 0 71 42zM202.5 -74.5q19.5 19.5 45.5 19.5t45 -19.5t19 -45.5q0 -27 -19 -46t-45 -19t-45.5 19t-19.5 46q0 26 19.5 45.5z" />
    <glyph glyph-name="uni1ECF" unicode="&#x1ecf;" horiz-adv-x="495" 
d="M129 22.5q-49 34.5 -74.5 92.5t-25.5 127t25.5 126.5t75 92t117.5 34.5q69 0 118.5 -34.5t75 -92t25.5 -126.5q0 -70 -25.5 -127.5t-75 -92t-118.5 -34.5t-118 34.5zM318 136q24 42 24 106t-24 105.5t-71 41.5q-46 0 -69.5 -42t-23.5 -105q0 -64 23.5 -106t69.5 -42
q47 0 71 42zM274.5 578.5q-8.5 7.5 -8.5 17.5q0 6 3 15q5 15 5 33q0 19 -8.5 28.5t-22.5 9.5q-19 0 -30 -18q-8 -15 -26 -15q-12 0 -20 8.5t-8 20.5q0 10 7 19q25 39 78 39q40 0 65.5 -22.5t25.5 -67.5q0 -28 -14 -58q-9 -17 -27 -17q-11 0 -19.5 7.5z" />
    <glyph glyph-name="uni1ED1" unicode="&#x1ed1;" horiz-adv-x="495" 
d="M129 22.5q-49 34.5 -74.5 92.5t-25.5 127t25.5 126.5t75 92t117.5 34.5q69 0 118.5 -34.5t75 -92t25.5 -126.5q0 -70 -25.5 -127.5t-75 -92t-118.5 -34.5t-118 34.5zM318 136q24 42 24 106t-24 105.5t-71 41.5q-46 0 -69.5 -42t-23.5 -105q0 -64 23.5 -106t69.5 -42
q47 0 71 42zM248 667l-57 -84q-8 -13 -25 -13q-13 0 -22.5 9t-9.5 23q0 7 6 19l40 75q7 13 21.5 21.5t29.5 8.5h35q14 0 28.5 -8.5t21.5 -21.5l41 -75q5 -10 5 -19q0 -14 -9.5 -23t-22.5 -9q-17 0 -25 13zM395 667q-13 0 -22.5 9.5t-9.5 22.5q0 10 6 19l72 96q11 17 31 17
q16 0 27 -11.5t11 -27.5t-10 -26l-81 -87q-9 -12 -24 -12z" />
    <glyph glyph-name="uni1ED3" unicode="&#x1ed3;" horiz-adv-x="495" 
d="M129 22.5q-49 34.5 -74.5 92.5t-25.5 127t25.5 126.5t75 92t117.5 34.5q69 0 118.5 -34.5t75 -92t25.5 -126.5q0 -70 -25.5 -127.5t-75 -92t-118.5 -34.5t-118 34.5zM318 136q24 42 24 106t-24 105.5t-71 41.5q-46 0 -69.5 -42t-23.5 -105q0 -64 23.5 -106t69.5 -42
q47 0 71 42zM248 667l-57 -84q-8 -13 -25 -13q-13 0 -22.5 9t-9.5 23q0 7 6 19l40 75q7 13 21.5 21.5t29.5 8.5h35q14 0 28.5 -8.5t21.5 -21.5l41 -75q5 -10 5 -19q0 -14 -9.5 -23t-22.5 -9q-17 0 -25 13zM-1 766q-10 10 -10 26t11 27.5t27 11.5q20 0 31 -17l72 -96
q6 -9 6 -19q0 -13 -9.5 -22.5t-22.5 -9.5q-15 0 -24 12z" />
    <glyph glyph-name="uni1ED5" unicode="&#x1ed5;" horiz-adv-x="495" 
d="M129 22.5q-49 34.5 -74.5 92.5t-25.5 127t25.5 126.5t75 92t117.5 34.5q69 0 118.5 -34.5t75 -92t25.5 -126.5q0 -70 -25.5 -127.5t-75 -92t-118.5 -34.5t-118 34.5zM318 136q24 42 24 106t-24 105.5t-71 41.5q-46 0 -69.5 -42t-23.5 -105q0 -64 23.5 -106t69.5 -42
q47 0 71 42zM248 667l-57 -84q-8 -13 -25 -13q-13 0 -22.5 9t-9.5 23q0 7 6 19l40 75q7 13 21.5 21.5t29.5 8.5h35q14 0 28.5 -8.5t21.5 -21.5l41 -75q5 -10 5 -19q0 -14 -9.5 -23t-22.5 -9q-17 0 -25 13zM380.5 677.5q-8.5 7.5 -8.5 17.5q0 6 3 15q5 15 5 33
q0 19 -8.5 28.5t-22.5 9.5q-19 0 -30 -18q-8 -15 -26 -15q-12 0 -20 8.5t-8 20.5q0 10 7 19q25 39 78 39q40 0 65.5 -22.5t25.5 -67.5q0 -28 -14 -58q-9 -17 -27 -17q-11 0 -19.5 7.5z" />
    <glyph glyph-name="uni1ED7" unicode="&#x1ed7;" horiz-adv-x="495" 
d="M129 22.5q-49 34.5 -74.5 92.5t-25.5 127t25.5 126.5t75 92t117.5 34.5q69 0 118.5 -34.5t75 -92t25.5 -126.5q0 -70 -25.5 -127.5t-75 -92t-118.5 -34.5t-118 34.5zM318 136q24 42 24 106t-24 105.5t-71 41.5q-46 0 -69.5 -42t-23.5 -105q0 -64 23.5 -106t69.5 -42
q47 0 71 42zM248 667l-57 -84q-8 -13 -25 -13q-13 0 -22.5 9t-9.5 23q0 7 6 19l40 75q7 13 21.5 21.5t29.5 8.5h35q14 0 28.5 -8.5t21.5 -21.5l41 -75q5 -10 5 -19q0 -14 -9.5 -23t-22.5 -9q-17 0 -25 13zM259 757.5q-15 11.5 -30 31.5q-11 15 -18 21.5t-16 6.5
q-23 0 -30 -46q-2 -11 -10.5 -18.5t-19.5 -7.5q-14 0 -23.5 11t-7.5 25q7 50 31 77.5t63 27.5q23 0 38 -11.5t30 -32.5q11 -14 18.5 -20.5t16.5 -6.5q10 0 18 11.5t11 34.5q1 11 10 18.5t20 7.5q14 0 23.5 -10.5t7.5 -24.5q-6 -51 -30 -78.5t-64 -27.5q-23 0 -38 11.5z" />
    <glyph glyph-name="uni1ED9" unicode="&#x1ed9;" horiz-adv-x="495" 
d="M129 22.5q-49 34.5 -74.5 92.5t-25.5 127t25.5 126.5t75 92t117.5 34.5q69 0 118.5 -34.5t75 -92t25.5 -126.5q0 -70 -25.5 -127.5t-75 -92t-118.5 -34.5t-118 34.5zM318 136q24 42 24 106t-24 105.5t-71 41.5q-46 0 -69.5 -42t-23.5 -105q0 -64 23.5 -106t69.5 -42
q47 0 71 42zM248 667l-57 -84q-8 -13 -25 -13q-13 0 -22.5 9t-9.5 23q0 7 6 19l40 75q7 13 21.5 21.5t29.5 8.5h35q14 0 28.5 -8.5t21.5 -21.5l41 -75q5 -10 5 -19q0 -14 -9.5 -23t-22.5 -9q-17 0 -25 13zM202.5 -74.5q19.5 19.5 45.5 19.5t45 -19.5t19 -45.5q0 -27 -19 -46
t-45 -19t-45.5 19t-19.5 46q0 26 19.5 45.5z" />
    </font>
</defs>
</svg>
