<svg id="Layer_1" data-name="Layer 1" xmlns="http://www.w3.org/2000/svg" viewBox="0 0 351.41 71"><defs><style>.cls-1{font-size:67px;fill:#fff;font-family:ChantalBold, Chantal;font-weight:700;}.cls-2{letter-spacing:-0.02em;}.cls-3{letter-spacing:-0.04em;}.cls-4,.cls-5{font-size:60px;}.cls-5{letter-spacing:-0.02em;}.cls-6,.cls-7,.cls-8{font-size:56px;}.cls-6{letter-spacing:-0.06em;}.cls-7{letter-spacing:-0.02em;}.cls-9{fill:#3dbd76;}</style></defs><title>logo</title><text class="cls-1" transform="translate(100.33 59.77)"><tspan class="cls-2">d</tspan><tspan class="cls-3" x="56.61" y="0">o</tspan><tspan class="cls-4" x="87.97" y="0">g</tspan><tspan class="cls-5" x="127.93" y="0">L</tspan><tspan class="cls-6" x="152.41" y="0">Y</tspan><tspan class="cls-7" x="179.06" y="0">A</tspan><tspan class="cls-8" x="214.23" y="0">D</tspan></text><g id="logo"><path class="cls-9" d="M65,11.94a2.12,2.12,0,0,1-2.12-2.12h0V9.24A9.21,9.21,0,0,0,53.76,0H38.24a9.92,9.92,0,0,0-9.88,9.95v4.26a9.93,9.93,0,0,0,9.17,9.92v2.1C23.35,27.32,12.13,36.45,12.13,51V58a8.44,8.44,0,0,1-7.9-8.44V47.89H0v1.63A12.69,12.69,0,0,0,12.13,62.23v7.68H47.55V66.36c0-.19,0-.39,0-.58a9.15,9.15,0,0,0,7.64,4.13H66.88V66.36a9.23,9.23,0,0,0-8.18-9.18V30.41h3a12,12,0,0,0,12-12.08V11.94Zm4.37,6.39a7.8,7.8,0,0,1-7.76,7.81H54.47V61.38h3.25a5,5,0,0,1,4.89,4.26H55.17a5,5,0,0,1-4.94-5V48H46V60.67c0,.2,0,.39,0,.58a9.19,9.19,0,0,0-5.76-3.94,14.27,14.27,0,0,0-6-13.27l-3.06,3.08a10,10,0,0,1,4.44,11.5l-.84,2.76h3.53a5,5,0,0,1,4.89,4.26H16.37V51c0-12.93,10.44-20.6,23.28-20.6h2.12V23.5a10,10,0,0,0,6.35-9.29v-2H43.88v2a5.64,5.64,0,0,1-11.29,0V9.95a5.67,5.67,0,0,1,5.64-5.68H53.76a5,5,0,0,1,4.94,5V9.8A6.38,6.38,0,0,0,65,16.2h4.37Z"/></g></svg>